<svg width="129" height="47" viewBox="0 0 129 47" fill="none" xmlns="http://www.w3.org/2000/svg">
<g opacity="0.7">
<path d="M49.0554 11.0619C48.2215 10.6038 47.6151 9.84023 47.236 9.0003C46.857 8.00766 46.6296 7.01501 46.6296 5.94601C46.6296 4.87702 46.7812 3.88437 47.236 2.89173C47.6151 2.0518 48.2215 1.36459 49.0554 0.830087C49.9651 0.295587 50.9506 0.0665158 52.0119 0.0665158C52.6941 0.0665158 53.3764 0.142873 53.9828 0.371944C54.5893 0.601016 55.1199 0.906444 55.5748 1.28823C55.9538 1.67002 56.3329 2.12816 56.5603 2.66266C56.7877 3.19716 56.9393 3.80802 56.9393 4.41887H55.0441C55.0441 3.6553 54.7409 2.96809 54.2103 2.50994C53.6038 1.97544 52.7699 1.74637 52.0119 1.74637C51.4054 1.74637 50.7232 1.89909 50.1925 2.20452C49.6619 2.50994 49.2828 2.96809 49.0554 3.50259C48.9038 3.88437 48.828 4.1898 48.7522 4.57159C48.6764 5.02973 48.6764 5.48787 48.6764 5.94601C48.6764 6.40416 48.6764 6.8623 48.7522 7.3968C48.828 7.77859 48.9038 8.16037 49.0554 8.54216C49.2828 9.07666 49.6619 9.5348 50.1925 9.84023C50.7232 10.1457 51.4054 10.2984 52.0119 10.2984C52.4667 10.2984 52.9216 10.222 53.3006 10.0693C53.6796 9.91659 53.9828 9.76387 54.2861 9.5348C54.8167 9.0003 55.1199 8.31309 55.1199 7.54951H57.0151C57.0151 8.16037 56.8635 8.77123 56.6361 9.30573C56.4087 9.84023 56.1054 10.2984 55.7264 10.6802C55.2716 11.1383 54.7409 11.4437 54.1345 11.5964C53.4522 11.8255 52.7699 11.9019 52.0877 11.9019C50.9506 11.8255 49.9651 11.5964 49.0554 11.0619ZM59.8958 11.1383C59.2893 10.7565 58.8345 10.222 58.5312 9.61116C58.228 9.0003 58.1522 8.31309 58.1522 7.62587C58.1522 6.93866 58.3038 6.25144 58.5312 5.64059C58.8345 5.02973 59.2893 4.49523 59.8958 4.11344C61.2603 3.34987 63.0039 3.34987 64.3684 4.11344C64.9748 4.49523 65.4297 5.02973 65.7329 5.64059C65.9603 6.25144 66.1119 6.93866 66.1119 7.62587C66.1119 8.31309 65.9603 9.0003 65.7329 9.61116C65.4297 10.222 64.9748 10.7565 64.3684 11.1383C62.928 11.9019 61.2603 11.9019 59.8958 11.1383ZM63.3071 9.91658C63.6103 9.76387 63.8377 9.45844 63.9893 9.07666C64.141 8.61851 64.2168 8.08401 64.2168 7.62587C64.2168 7.09137 64.141 6.63323 63.9893 6.17509C63.8377 5.7933 63.6103 5.56423 63.3071 5.33516C62.549 4.95337 61.7151 4.95337 60.9571 5.33516C60.6538 5.56423 60.4264 5.7933 60.2748 6.17509C60.0474 6.63323 59.9716 7.16773 60.0474 7.70223C60.0474 8.23673 60.1232 8.69487 60.2748 9.15301C60.4264 9.45844 60.6538 9.76387 60.9571 9.99294C61.6393 10.3747 62.549 10.3747 63.3071 9.91658ZM73.8442 4.34251C74.3749 5.02973 74.6781 5.86966 74.6023 6.70959V11.5201H72.8587V7.09137C72.9345 6.55687 72.7829 6.02237 72.4039 5.56423C72.0249 5.18244 71.57 5.02973 71.1152 5.10609C70.5845 5.10609 70.0539 5.2588 69.6749 5.64059C69.2958 6.09873 69.1442 6.63323 69.22 7.24409V11.5201H67.4765V3.73166H69.22V4.64794C69.8265 3.88437 70.6603 3.50259 71.6458 3.57894C72.4797 3.50259 73.2378 3.80802 73.8442 4.34251ZM77.2555 11.0619C76.8007 10.5274 76.6491 9.84023 76.6491 9.15301V5.18244H75.4362V3.73166H76.6491V1.89909H78.3926V3.73166H80.591V5.18244H78.3926V8.77123C78.3926 9.15301 78.4684 9.5348 78.6959 9.76387C78.9233 9.99294 79.3023 10.1457 79.6056 10.0693C79.9088 10.0693 80.212 9.99294 80.4394 9.91658V11.4437C79.9846 11.5201 79.4539 11.5964 78.9991 11.5964C78.3926 11.7492 77.7862 11.5201 77.2555 11.0619ZM81.9556 2.28087C81.7281 2.12816 81.6523 1.82273 81.6523 1.59366C81.6523 1.28823 81.7281 1.05916 81.9556 0.906444C82.183 0.75373 82.4104 0.601016 82.7136 0.601016C83.0169 0.601016 83.2443 0.677373 83.4717 0.906444C83.6991 1.05916 83.7749 1.36459 83.7749 1.59366C83.7749 1.82273 83.6991 2.12816 83.4717 2.28087C83.2443 2.50994 83.0169 2.5863 82.7136 2.5863C82.4104 2.5863 82.183 2.50994 81.9556 2.28087ZM81.8798 3.73166H83.6233V11.5201H81.8798V3.73166ZM91.7346 4.34251C92.2653 5.02973 92.5685 5.86966 92.4927 6.70959V11.5201H90.7491V7.09137C90.825 6.55687 90.6733 6.02237 90.2943 5.56423C89.9153 5.18244 89.4604 5.02973 89.0056 5.10609C88.4749 5.10609 87.9443 5.2588 87.5653 5.64059C87.1862 6.09873 87.0346 6.63323 87.1104 7.24409V11.5201H85.3669V3.73166H87.1104V4.64794C87.7169 3.88437 88.5508 3.50259 89.5362 3.57894C90.2943 3.50259 91.1282 3.80802 91.7346 4.34251ZM99.7702 9.38209C99.846 9.22937 99.9218 9.0003 99.9218 8.84759H101.665C101.59 9.61116 101.286 10.2984 100.756 10.7565C100.377 11.0619 99.9976 11.291 99.4669 11.4437C98.9363 11.5964 98.4056 11.6728 97.875 11.6728C97.1169 11.6728 96.2831 11.5201 95.6008 11.1383C94.9943 10.8329 94.4637 10.2984 94.2363 9.61116C93.933 9.0003 93.8572 8.31309 93.8572 7.54951C93.8572 7.16773 93.8572 6.78594 93.933 6.48051C94.0088 6.17509 94.0846 5.86966 94.2363 5.56423C94.5395 4.95337 94.9943 4.41887 95.6008 4.03709C96.9653 3.34987 98.6331 3.34987 99.9976 4.03709C100.604 4.41887 101.059 4.95337 101.362 5.56423C101.514 5.94601 101.59 6.3278 101.665 6.70959C101.741 7.16773 101.741 7.62587 101.741 8.08401H95.6008C95.6008 8.4658 95.6766 8.84759 95.8282 9.22937C95.9798 9.61116 96.283 9.84023 96.5863 10.0693C96.9653 10.2984 97.4202 10.3747 97.875 10.3747C98.1782 10.3747 98.4815 10.3747 98.7847 10.222C99.0121 10.1457 99.2395 9.99294 99.4669 9.84023C99.6186 9.68752 99.6944 9.5348 99.7702 9.38209ZM95.8282 6.09873C95.7524 6.3278 95.6766 6.63323 95.6008 6.8623H99.9218C99.9218 6.55687 99.846 6.3278 99.7702 6.02237C99.6185 5.71694 99.3153 5.41152 99.0121 5.2588C98.6331 5.02973 98.254 4.95337 97.7992 5.02973C96.9653 4.95337 96.2072 5.33516 95.8282 6.09873ZM109.473 4.34251C110.004 5.02973 110.307 5.86966 110.232 6.70959V11.5201H108.564V7.09137C108.64 6.55687 108.488 6.02237 108.109 5.56423C107.806 5.18244 107.275 5.02973 106.82 5.10609C106.29 5.10609 105.759 5.2588 105.38 5.64059C105.001 6.09873 104.849 6.63323 104.925 7.24409V11.5201H103.181V3.73166H104.925V4.64794C105.531 3.88437 106.365 3.50259 107.351 3.57894C108.109 3.50259 108.943 3.80802 109.473 4.34251ZM112.885 11.0619C112.43 10.5274 112.278 9.84023 112.278 9.15301V5.18244H111.065V3.73166H112.278V1.89909H114.022V3.73166H116.22V5.18244H114.022V8.77123C114.022 9.15301 114.098 9.5348 114.325 9.76387C114.552 9.99294 114.932 10.1457 115.235 10.0693C115.538 10.0693 115.841 10.0693 116.144 9.91658V11.4437C115.69 11.5201 115.159 11.5964 114.704 11.5964C114.098 11.7492 113.415 11.5201 112.885 11.0619ZM124.407 6.93866V11.5201H122.664V10.6802C121.982 11.4437 120.996 11.8255 120.011 11.7492C119.404 11.7492 118.798 11.6728 118.267 11.4437C117.812 11.2147 117.509 10.9092 117.282 10.4511C117.13 10.1457 117.054 9.76387 117.054 9.38209C117.054 9.0003 117.13 8.69487 117.206 8.38944C117.433 7.85494 117.964 7.3968 118.57 7.16773C119.328 6.93866 120.162 6.78594 120.996 6.8623H122.588V6.09873C122.588 5.94601 122.512 5.7933 122.436 5.71694C122.209 5.18244 121.678 4.95337 120.844 4.95337C120.465 4.95337 120.162 5.02973 119.783 5.10609C119.556 5.18244 119.328 5.41152 119.177 5.64059V6.17509H117.433C117.433 5.7933 117.509 5.41152 117.661 5.02973C118.115 4.03709 119.177 3.50259 120.92 3.50259C121.603 3.50259 122.361 3.57894 122.967 3.88437C123.498 4.11344 123.877 4.57159 124.104 5.10609C124.332 5.71694 124.407 6.3278 124.407 6.93866ZM122.664 8.16037V8.08401H121.148C120.693 8.08401 120.162 8.08401 119.707 8.23673C119.253 8.31309 118.873 8.69487 118.873 9.22937C118.873 9.38209 118.873 9.5348 118.949 9.68752C119.025 9.91659 119.253 10.0693 119.48 10.1457C119.783 10.222 120.086 10.2984 120.39 10.2984C120.844 10.2984 121.224 10.222 121.678 9.99294C121.982 9.84023 122.285 9.5348 122.436 9.22937C122.588 8.92394 122.664 8.54216 122.664 8.16037ZM126.075 0.295587H127.819V11.5201H126.075V0.295587ZM18.2778 43.361C17.5956 43.361 16.9891 43.361 16.4585 43.2847C14.1843 43.1319 11.9859 42.6738 9.78747 41.9866C8.72618 41.6812 7.74069 41.223 6.7552 40.7649C5.46648 40.154 4.32938 39.4668 3.11647 38.7032C2.05518 38.016 1.06969 37.1761 0.0841992 36.3362V0.0665158H36.3957V13.5054H33.3634V3.1208H3.19228V34.9617L3.34389 35.0381C4.40519 35.878 5.6181 36.6416 6.83101 37.3288C7.81649 37.8633 8.80198 38.3214 9.86328 38.7032C11.0762 39.1614 12.2891 39.4668 13.502 39.7722C14.4875 40.0013 15.5488 40.154 16.5343 40.154C17.1407 40.2304 17.7472 40.2304 18.3536 40.2304C18.9601 40.2304 19.5666 40.2304 20.173 40.154C21.1585 40.0777 22.2198 39.9249 23.2053 39.7722C24.4182 39.5432 25.6311 39.1614 26.844 38.7032C29.194 37.7869 31.3924 36.5652 33.3634 34.9617L33.515 34.8854V29.9222H36.5473V36.3362C35.5618 37.1761 34.5763 38.016 33.515 38.7032C32.3779 39.4668 31.165 40.154 29.8763 40.7649C28.8908 41.223 27.9053 41.6048 26.844 41.9866C25.6311 42.3684 24.4182 42.6738 23.2053 42.9029C22.2198 43.0556 21.1585 43.2083 20.173 43.2847C19.5666 43.361 18.9601 43.361 18.2778 43.361Z" fill="white"/>
<path fill-rule="evenodd" clip-rule="evenodd" d="M113.026 41.0115L110.762 46.3565H108.943L110.383 43.0731L109.282 40.3663C109.959 40.5175 110.601 40.6503 111.192 40.7565L111.369 41.2398L111.529 40.8153C112.09 40.9099 112.594 40.9779 113.026 41.0115ZM77.4792 36.5599C77.7363 36.2381 78.045 35.9619 78.3926 35.7429C79.7572 35.0556 81.4249 35.0556 82.7894 35.7429L82.863 35.7894C80.8177 36.0949 79.0446 36.3476 77.4792 36.5599Z" fill="white"/>
<path fill-rule="evenodd" clip-rule="evenodd" d="M111.529 40.8153L113.567 35.4367H115.386L113.026 41.0115C112.524 40.9679 112.025 40.9025 111.529 40.8153ZM56.9393 38.5994V35.4374H58.6829V36.2774C59.2893 35.5138 60.1232 35.132 61.1087 35.2084C61.9426 35.132 62.7006 35.4374 63.3071 36.0483C63.7392 36.6072 64.0197 37.2669 64.0689 37.9458C63.5019 37.9916 62.9129 38.0382 62.2882 38.0916C62.2118 37.7889 62.0676 37.5079 61.8668 37.27C61.5635 36.8882 61.0329 36.7355 60.578 36.8119C60.0474 36.8119 59.5167 36.9646 59.1377 37.3464C58.879 37.6508 58.7178 38.0269 58.6753 38.4253C58.0965 38.4826 57.5178 38.5411 56.9393 38.6009V38.5994ZM98.9363 37.5869V35.4374H100.68V38.0947C100.048 37.9122 99.4609 37.7411 98.9363 37.5876V37.5869ZM82.863 35.7894C83.4156 36.1591 83.8611 36.6697 84.154 37.2692C84.3056 37.651 84.4572 38.0328 84.4572 38.4146C84.533 38.8727 84.533 39.3309 84.533 39.789H78.3926C78.3926 40.1708 78.4684 40.5526 78.6201 40.858C78.7717 41.2398 79.0749 41.4689 79.3781 41.698C79.7572 41.927 80.212 42.0034 80.6668 42.0034C80.9701 42.0034 81.2733 41.927 81.5765 41.8507C81.8039 41.7743 82.0314 41.6216 82.2588 41.4689C82.4104 41.3925 82.4862 41.1634 82.562 41.0107C82.6378 40.858 82.7136 40.6289 82.7136 40.4762H84.4572C84.3814 41.2398 84.0781 41.927 83.5475 42.3852C83.1685 42.6906 82.7894 42.9197 82.2588 43.0724C81.7281 43.2251 81.1975 43.3015 80.6668 43.3015C79.9088 43.3015 79.0749 43.1487 78.3926 42.7669C77.7862 42.4615 77.2555 41.8507 77.0281 41.2398C76.8007 40.6289 76.6491 39.9417 76.6491 39.2545C76.6491 38.8727 76.6491 38.491 76.7249 38.1855C76.8007 37.8801 76.8765 37.5747 77.0281 37.2692C77.1532 37.018 77.3033 36.7806 77.4792 36.5591C79.0446 36.3468 80.8177 36.0941 82.863 35.7894ZM78.6201 37.7274C78.5443 37.9565 78.4684 38.2619 78.3926 38.491H82.7136C82.7136 38.1855 82.6378 37.9564 82.562 37.651C82.4104 37.3456 82.1072 37.0402 81.8039 36.8875C81.4249 36.6584 81.0459 36.582 80.591 36.582C79.7572 36.582 78.9991 36.9638 78.6201 37.7274ZM69.2071 37.525L68.3861 35.4367H70.2813L70.981 37.3509C70.3579 37.4158 69.7711 37.4731 69.2071 37.525ZM98.7574 33.5331C98.677 33.207 98.7619 32.8382 99.0121 32.5351C99.2395 32.306 99.4669 32.2297 99.7702 32.2297C100.073 32.2297 100.301 32.306 100.528 32.5351C100.756 32.6878 100.831 32.9932 100.831 33.2223C100.831 33.2574 100.83 33.2948 100.825 33.333C100.164 33.3911 99.4745 33.4575 98.7574 33.5331ZM65.7329 37.8144V35.4374H67.4765V37.6762C66.8912 37.7251 66.3166 37.7694 65.7329 37.8144Z" fill="white"/>
<path fill-rule="evenodd" clip-rule="evenodd" d="M64.0689 37.9458C64.0803 38.1015 64.0796 38.2581 64.0652 38.4146V43.2251H62.3216V38.7964C62.3549 38.5597 62.3443 38.3214 62.2882 38.0908C62.9129 38.0374 63.5011 37.99 64.0689 37.9458ZM58.6753 38.4245C58.6579 38.5925 58.6601 38.7681 58.6829 38.9491V43.3015H56.9393V38.5994C57.5178 38.5398 58.0965 38.4816 58.6753 38.4245ZM75.8978 36.7699L73.3894 43.1487H71.4184L69.2071 37.525C69.7711 37.4731 70.3579 37.4158 70.981 37.3509L72.4039 41.2398L73.9488 37.015C74.5598 36.9409 75.2072 36.8592 75.8978 36.7699ZM100.68 38.0931V43.1487H98.9363V37.5869C99.4609 37.7404 100.048 37.9114 100.68 38.0931ZM67.4765 37.6762V43.1487H65.7329V37.8144C66.3166 37.7694 66.8912 37.7251 67.4765 37.6762ZM102.954 38.7391V36.8882H101.741V35.4374H102.954V33.6049H104.698V35.5138H106.896V36.9646H104.698V39.2194C104.116 39.0623 103.534 38.9017 102.954 38.7391ZM88.2816 35.6604C88.6819 35.4199 89.1481 35.3147 89.612 35.3603C89.9153 35.284 90.1427 35.284 90.4459 35.3603V35.9345C89.7424 35.8444 89.017 35.7535 88.2816 35.6604ZM91.7688 36.1071C91.9547 35.9195 92.1748 35.7697 92.4169 35.6657C92.9476 35.4367 93.554 35.284 94.1605 35.284C94.7669 35.284 95.3734 35.3603 95.904 35.6657C96.3588 35.8948 96.7379 36.2766 96.9653 36.7347C97.007 36.8393 97.0426 36.944 97.073 37.0493C96.9186 37.0054 96.7637 36.9636 96.6083 36.9241C95.4014 36.6263 93.7026 36.3667 91.7688 36.1071Z" fill="white"/>
<path fill-rule="evenodd" clip-rule="evenodd" d="M97.073 37.0493C97.1525 37.3257 97.1927 37.6029 97.1927 37.8801H95.6766C95.6766 37.651 95.6008 37.422 95.525 37.1929C95.4492 36.9638 95.2217 36.8111 94.9943 36.7347C94.7669 36.582 94.4637 36.582 94.1605 36.582C93.554 36.582 93.0992 36.7347 92.9476 37.1165C92.8717 37.2692 92.8717 37.3456 92.8717 37.4983C92.8717 37.5747 92.8717 37.7274 92.9476 37.8037C93.0234 37.9565 93.175 38.1092 93.3266 38.1855C93.554 38.2619 93.7056 38.3382 93.933 38.4146C94.1605 38.4909 94.4637 38.5673 94.8427 38.6437C95.3734 38.7964 95.904 38.9491 96.4347 39.2545C96.8137 39.4836 97.1169 39.789 97.3443 40.1708C97.4202 40.4762 97.4959 40.7817 97.4959 41.0107C97.4959 41.3925 97.4202 41.698 97.3443 42.0034C97.1169 42.4615 96.6621 42.9197 96.2072 43.0724C95.6008 43.3015 94.9185 43.4542 94.2363 43.4542C93.6298 43.4542 92.9475 43.3014 92.3411 42.996C91.8104 42.7669 91.4314 42.3088 91.204 41.8507C91.0524 41.4689 90.9766 41.0107 90.9766 40.5526H92.6443C92.6443 40.7817 92.7201 41.0871 92.7959 41.3162C93.0992 41.8507 93.7056 42.1561 94.3121 42.0797C95.0701 42.0797 95.525 41.8507 95.7524 41.4689C95.8282 41.3162 95.8282 41.2398 95.8282 41.0871C95.8282 40.9344 95.8282 40.7817 95.7524 40.7053C95.6766 40.5526 95.525 40.3999 95.3734 40.3235C95.1459 40.2472 94.9943 40.1708 94.7669 40.0945C94.5395 40.0181 94.1605 39.9417 93.7814 39.8654C93.2508 39.789 92.7201 39.5599 92.2653 39.3309C91.8863 39.1018 91.583 38.7964 91.3556 38.4146C91.0084 37.5983 91.1911 36.6935 91.7688 36.1071C93.7026 36.3667 95.4014 36.6263 96.6083 36.9241C96.7197 36.9516 96.8766 36.9944 97.073 37.0493ZM109.282 40.3663L107.275 35.4367H109.246L111.192 40.7565C110.553 40.6398 109.916 40.5093 109.282 40.3663ZM104.698 39.2194V40.5526C104.698 40.9344 104.773 41.3162 105.001 41.5452C105.228 41.7743 105.607 41.927 105.911 41.8507C106.214 41.8507 106.517 41.8507 106.82 41.698V43.1487C106.365 43.2251 105.835 43.3015 105.38 43.3015C104.698 43.3778 104.015 43.1487 103.561 42.6906C103.106 42.1561 102.954 41.4689 102.954 40.7817V38.7391C103.524 38.8995 104.109 39.0606 104.698 39.2194ZM90.4459 35.9345V36.8875C90.2185 36.8111 89.9153 36.8111 89.6879 36.8111C89.0814 36.7347 88.5508 36.9638 88.1717 37.4219C87.7927 37.9564 87.6411 38.5673 87.6411 39.1782V43.0724H85.8217V35.4367H86.5426C86.8838 35.4825 87.2256 35.526 87.566 35.5695V36.353C87.7505 36.0714 87.9949 35.8348 88.2816 35.6604C89.017 35.7535 89.7424 35.8437 90.4459 35.9345ZM100.825 33.333C100.804 33.5422 100.721 33.7805 100.528 33.9095C100.301 34.1386 100.073 34.215 99.7702 34.215C99.5427 34.215 99.2395 34.1386 99.0121 33.9859C98.8875 33.8614 98.7994 33.7047 98.7574 33.5331C99.4745 33.4575 100.164 33.3911 100.825 33.333ZM73.9488 37.015L74.5265 35.4367H76.4217L75.8978 36.7699C75.2057 36.86 74.5598 36.9409 73.9488 37.015Z" fill="white"/>
<path fill-rule="evenodd" clip-rule="evenodd" d="M86.5426 35.4367L87.566 35.4374V35.5695L86.5426 35.4367ZM65.8959 33.9966L65.8845 33.9859C65.6571 33.8332 65.5813 33.5277 65.5813 33.2987C65.5813 32.9932 65.6571 32.7642 65.8845 32.6115C66.1119 32.4587 66.3394 32.306 66.6426 32.306C66.9458 32.306 67.1732 32.3824 67.4007 32.6115C67.6281 32.7642 67.7039 33.0696 67.7039 33.2987C67.7039 33.3521 67.7001 33.4101 67.6902 33.4689C67.0444 33.6476 66.4265 33.8286 65.8959 33.9966Z" fill="white"/>
<path fill-rule="evenodd" clip-rule="evenodd" d="M67.6902 33.4689C67.6599 33.6621 67.575 33.8691 67.4007 33.9859C67.1732 34.215 66.9458 34.2913 66.6426 34.2913C66.3469 34.2165 66.0513 34.1424 65.8959 33.9966C66.4265 33.8286 67.0444 33.6469 67.6902 33.4689ZM46.7054 39.4615V32.0014H48.5248V39.3316L48.5194 39.3813C47.9683 39.4103 47.3717 39.437 46.7054 39.4615Z" fill="white"/>
<path fill-rule="evenodd" clip-rule="evenodd" d="M55.3474 38.7666V39.4844C55.4232 40.5534 55.0441 41.6987 54.2861 42.4623C53.3764 43.2259 52.1635 43.5313 51.0264 43.4549C49.8135 43.5313 48.6764 43.1495 47.7667 42.4623C47.0086 41.6224 46.6296 40.5534 46.7054 39.4844V39.4615C47.3717 39.437 47.9683 39.4103 48.5194 39.3813C48.4603 40.0517 48.6877 40.7183 49.1312 41.2398C49.6619 41.6979 50.3441 41.927 51.0264 41.8507C51.7086 41.927 52.3909 41.6979 52.9215 41.2398C53.3764 40.7053 53.6038 40.0181 53.528 39.3309V38.9605L55.3474 38.7666Z" fill="white"/>
<path fill-rule="evenodd" clip-rule="evenodd" d="M53.528 38.9605V32.0014H55.3474V38.7666L53.528 38.9613V38.9605ZM91.8991 22.8041V27.3856H90.1556V26.5456C89.4733 27.3092 88.4878 27.691 87.5023 27.6146C86.8959 27.6146 86.2894 27.5383 85.7588 27.3092C85.3039 27.1565 85.0007 26.7747 84.7733 26.3166C84.6217 26.0111 84.5459 25.6294 84.5459 25.2476C84.5459 24.8658 84.6217 24.5604 84.6975 24.2549C84.9249 23.6441 85.4556 23.2623 86.062 23.0332C86.8201 22.8041 87.654 22.6514 88.4878 22.7278H90.0798V21.8879C90.0798 21.7351 90.004 21.5824 89.9282 21.5061C89.7007 20.9716 89.1701 20.7425 88.3362 20.7425C87.9572 20.7425 87.654 20.8189 87.2749 20.8952C87.0475 20.9716 86.8201 21.2006 86.6685 21.4297C86.5927 21.5824 86.5927 21.7351 86.5927 21.9642H84.8491C84.8491 21.5824 84.9249 21.2006 85.0765 20.8189C85.5314 19.8262 86.5927 19.2917 88.3362 19.2917C89.0185 19.2917 89.7766 19.3681 90.383 19.6735C90.9137 19.9026 91.2927 20.3607 91.5201 20.8952C91.8233 21.5061 91.9749 22.1933 91.8991 22.8041ZM90.1556 24.0259L88.6395 23.9495C88.1846 23.9495 87.654 23.9495 87.1991 24.1022C86.8959 24.1786 86.5927 24.3313 86.441 24.6367C86.3652 24.7894 86.3652 24.9421 86.3652 25.0949C86.3652 25.2476 86.3652 25.4003 86.441 25.553C86.5927 25.7821 86.7443 25.9348 86.9717 26.0111C87.2749 26.0875 87.5782 26.1639 87.8814 26.1639C88.3362 26.1639 88.7153 26.0875 89.1701 25.9348C89.4733 25.7821 89.7766 25.4766 89.9282 25.1712C90.0798 24.7894 90.1556 24.4076 90.1556 24.0259ZM83.1814 16.1611V27.3092H81.5136V26.3929C81.2104 26.7747 80.8313 27.0801 80.4523 27.2329C79.9975 27.4619 79.4668 27.5383 79.012 27.5383C78.3297 27.5383 77.6475 27.3856 77.041 27.0038C76.5104 26.6984 76.0555 26.1639 75.8281 25.553C75.6765 25.2476 75.6007 24.8658 75.5249 24.5604C75.4491 24.1786 75.3733 23.7968 75.3733 23.415C75.3733 22.6514 75.5249 21.9642 75.8281 21.277C76.0555 20.6661 76.5104 20.208 77.041 19.8262C77.6475 19.4444 78.3297 19.2917 79.012 19.2917C79.5426 19.2917 79.9975 19.3681 80.4523 19.5971C80.9072 19.7499 81.2862 20.0553 81.5136 20.4371V16.1611H83.1814ZM81.4378 23.2623C81.5136 22.6514 81.2862 21.9642 80.9072 21.5061C80.5281 21.1243 79.9975 20.8952 79.391 20.8952C79.012 20.8952 78.5571 20.9716 78.2539 21.2006C77.9507 21.3534 77.6475 21.6588 77.4958 22.0406C77.3442 22.4987 77.1926 23.0332 77.2684 23.5677C77.2684 24.1022 77.3442 24.5604 77.4958 25.0185C77.6475 25.4003 77.9507 25.7057 78.2539 25.8584C78.6329 26.0875 79.012 26.1639 79.391 26.1639C79.9975 26.1639 80.5281 25.9348 80.9072 25.553C81.2862 25.0185 81.5136 24.4076 81.4378 23.7968V23.2623ZM72.1894 19.5971H73.9329V27.3092H72.1894V19.5971ZM72.341 18.1464C71.962 17.7646 71.962 17.1537 72.341 16.6956C72.5684 16.5429 72.7958 16.3901 73.0991 16.3901C73.4023 16.3901 73.6297 16.4665 73.8571 16.6956C74.0845 16.8483 74.1603 17.1537 74.1603 17.3828C74.1603 17.6119 74.0845 17.9173 73.8571 18.07C73.6297 18.2991 73.4023 18.3754 73.0991 18.3754C72.7958 18.4518 72.4926 18.2991 72.341 18.1464ZM70.9765 19.5971V21.1243C70.749 21.0479 70.4458 21.0479 70.2184 21.0479C69.6119 20.9716 69.0813 21.2006 68.7023 21.6588C68.3232 22.1933 68.1716 22.8041 68.1716 23.415V27.3092H66.428V19.5971H68.1716V20.5134C68.6264 19.8262 69.3845 19.4444 70.2184 19.5208C70.5216 19.4444 70.749 19.5208 70.9765 19.5971ZM58.8474 27.0038C58.2409 26.622 57.7861 26.0875 57.4828 25.4766C57.1796 24.8658 57.1038 24.1786 57.1038 23.4914C57.1038 22.8041 57.2554 22.1169 57.4828 21.5061C57.7861 20.8952 58.2409 20.3607 58.8474 19.9789C59.5296 19.5971 60.2877 19.3681 61.0458 19.3681C61.8038 19.3681 62.6377 19.5208 63.32 19.9026C63.9264 20.2844 64.3813 20.8189 64.6845 21.4297C64.9119 22.0406 65.0635 22.7278 65.0635 23.415C65.0635 24.1022 64.9119 24.7894 64.6087 25.4766C64.3055 26.0875 63.8506 26.622 63.2442 27.0038C62.5619 27.3856 61.728 27.5383 60.97 27.5383C60.2877 27.5383 59.5296 27.3856 58.8474 27.0038ZM62.2587 25.7821C62.5619 25.6294 62.8651 25.3239 62.9409 24.9421C63.0926 24.484 63.1684 23.9495 63.1684 23.4914C63.1684 22.9569 63.0926 22.4987 62.9409 21.9642C62.7893 21.5824 62.5619 21.3534 62.2587 21.1243C61.5006 20.7425 60.6667 20.7425 59.9087 21.1243C59.6054 21.3534 59.378 21.5824 59.2264 21.9642C58.9232 22.9569 58.9232 23.9495 59.2264 24.9421C59.378 25.2476 59.6054 25.553 59.9087 25.7821C60.5909 26.1639 61.5006 26.1639 62.2587 25.7821ZM53.9199 16.1611H55.6635V27.3092H53.9199V16.1611ZM46.7183 16.1611H52.4796V17.7646H48.5376V20.8952H52.4796V22.4987H48.5376V27.3856H46.7183V16.1611Z" fill="white"/>
<path d="M18.2778 36.6416C16.6101 36.6416 15.0181 36.4125 13.4262 35.9544C12.1375 35.5726 10.9246 35.1144 9.78747 34.4272C8.72618 33.8164 7.66488 33.0528 6.7552 32.2892V6.78594H9.78747V30.7621L9.93909 30.8384C11.0004 31.602 12.2133 32.2892 13.4262 32.7474C14.4117 33.1292 15.3972 33.3582 16.4585 33.5109C17.0649 33.5873 17.6714 33.6637 18.2778 33.6637C18.8843 33.6637 19.4907 33.6637 20.0972 33.5109C21.1585 33.3582 22.144 33.1292 23.1295 32.7474C24.3424 32.2892 25.5553 31.6784 26.6166 30.8384L26.7682 30.7621V6.78594H29.8005V32.2129C28.8908 33.0528 27.8295 33.8164 26.7682 34.3509C25.6311 35.0381 24.4182 35.4962 23.1295 35.878C22.144 36.1834 21.1585 36.3362 20.0972 36.4889C19.4907 36.5652 18.8843 36.6416 18.2778 36.6416Z" fill="white"/>
<path d="M16.4585 9.84023V17.1705H23.1295V20.2248H16.4585V29.8458C15.3972 29.7694 14.4117 29.5404 13.4262 29.2349V6.78594H23.1295V9.84023H16.4585Z" fill="white"/>
</g>
</svg>
