<svg width="171" height="40" viewBox="0 0 171 40" fill="none" xmlns="http://www.w3.org/2000/svg">
<g opacity="0.7">
<path d="M47.1673 21.8479H18.2536C17.9693 21.2388 17.8069 20.5687 17.8069 19.8783C17.8069 19.188 17.9693 18.4976 18.2536 17.9088H47.1673C47.2485 16.792 47.3704 15.6956 47.5734 14.6195H16.5277C15.2688 16.0205 14.5176 17.8682 14.5176 19.8986C14.5176 21.9291 15.2891 23.7768 16.5277 25.1778H47.5734C47.3704 24.1017 47.2485 23.0052 47.1673 21.8885" fill="white"/>
<path d="M52.1015 36.3453H9.07614C5.46193 31.8377 3.28934 26.1118 3.28934 19.8783C3.28934 13.6448 5.46193 7.9189 9.07614 3.41129H52.0812C52.8528 2.25393 53.7056 1.15748 54.6396 0.121946H7.5533C2.86294 5.36053 0 12.2844 0 19.8783C0 27.4722 2.86294 34.3961 7.5533 39.6549H54.6599C53.7259 38.6194 52.8731 37.523 52.1015 36.3656" fill="white"/>
<path d="M48.5687 29.0967H13.6245C11.7159 26.518 10.5788 23.3302 10.5788 19.8784C10.5788 16.4267 11.7159 13.2185 13.6448 10.6399H48.589C48.9545 9.50279 49.4012 8.40635 49.8885 7.35051H12.0611C9.0763 10.6805 7.2692 15.0662 7.2692 19.8784C7.2692 24.6906 9.0763 29.0764 12.0611 32.4064H49.8885C49.4012 31.3505 48.9545 30.2338 48.589 29.117" fill="white"/>
<path d="M68.7108 16.5685C67.4926 15.8376 66.5789 14.802 65.99 13.4416C65.4215 12.1827 65.1372 10.6396 65.1372 8.83249C65.1372 7.02538 65.4215 5.50254 65.99 4.20305C66.5992 2.86294 67.5129 1.82741 68.7311 1.09645C69.9494 0.365482 71.4316 0 73.1981 0C74.2946 0 75.3098 0.162437 76.2235 0.48731C77.1575 0.812183 77.9494 1.27919 78.6195 1.88833C79.2489 2.43655 79.7159 3.1269 80.0814 3.91878C80.4469 4.71066 80.6296 5.58376 80.6499 6.51777H77.7667C77.7058 5.29949 77.2794 4.34518 76.5078 3.61421C75.655 2.84264 74.5179 2.47716 73.1169 2.47716C72.0408 2.47716 71.1271 2.70051 70.3758 3.16751C69.6245 3.63452 69.056 4.26396 68.6905 5.09645C68.4875 5.58376 68.325 6.15229 68.2235 6.76142C68.122 7.37056 68.0611 8.08122 68.0611 8.8731C68.0611 9.66498 68.1017 10.3959 68.2032 11.0051C68.3047 11.6142 68.4672 12.1624 68.6905 12.6497C69.0763 13.5025 69.6448 14.132 70.3758 14.5787C71.1068 15.0254 72.0408 15.2487 73.1169 15.2487C73.8276 15.2487 74.4773 15.1472 75.0662 14.9442C75.655 14.7411 76.1626 14.4569 76.5687 14.0914C77.3403 13.401 77.7667 12.4061 77.8073 11.1269H80.6905C80.6905 12.0812 80.4875 12.9543 80.1423 13.7462C79.7971 14.5381 79.3098 15.2284 78.7007 15.797C78.0306 16.4264 77.2185 16.8934 76.2844 17.198C75.3504 17.5228 74.3149 17.6853 73.1981 17.6853C71.4113 17.6853 69.9088 17.3198 68.6905 16.5888L68.7108 16.5685Z" fill="white"/>
<path d="M91.5531 14.01C91.6952 13.7461 91.7765 13.4618 91.7968 13.1979H94.4161C94.3145 14.3755 93.8475 15.3501 93.0353 16.1014C92.5074 16.5684 91.878 16.9136 91.1267 17.1573C90.3754 17.4009 89.5633 17.5227 88.6699 17.5227C87.3094 17.5227 86.1318 17.2588 85.1775 16.7106C84.2232 16.1623 83.5125 15.4111 83.0658 14.4161C82.68 13.5633 82.4973 12.5481 82.4973 11.3501C82.4973 10.741 82.5379 10.1928 82.6394 9.70548C82.7409 9.21817 82.883 8.75116 83.0658 8.32477C83.5125 7.32984 84.2029 6.57857 85.1369 6.03035C86.0709 5.48213 87.1876 5.21817 88.4871 5.21817C89.7866 5.21817 90.9034 5.48213 91.8374 6.03035C92.7714 6.57857 93.4414 7.32984 93.8881 8.30446C94.1318 8.85269 94.2942 9.40091 94.3754 9.98974C94.4567 10.5786 94.4973 11.2892 94.4973 12.0811H85.1572C85.1978 12.7918 85.3196 13.34 85.5226 13.7258C85.7663 14.274 86.1521 14.6801 86.6597 14.9644C87.1876 15.2486 87.8374 15.3908 88.6089 15.3908C89.1166 15.3908 89.5836 15.3298 89.9896 15.208C90.3957 15.0862 90.7409 14.9034 91.0252 14.6598C91.2282 14.4771 91.411 14.2334 91.5328 13.9694L91.5531 14.01ZM85.5226 9.07604C85.3602 9.42121 85.2587 9.807 85.2181 10.1928H91.7765C91.7358 9.7867 91.6343 9.38061 91.4922 8.97451C91.2282 8.4466 90.8627 8.06081 90.3754 7.77654C89.8881 7.51258 89.2587 7.37045 88.5277 7.37045C87.0252 7.37045 86.0303 7.93898 85.5226 9.07604Z" fill="white"/>
<path d="M106.254 6.47709C107.026 7.28927 107.432 8.46694 107.432 10.0304V17.2588H104.812V10.5583C104.812 9.50247 104.589 8.7309 104.163 8.24359C103.736 7.75628 103.066 7.51262 102.173 7.51262C101.239 7.51262 100.508 7.77658 100.021 8.3045C99.5332 8.83242 99.2896 9.6243 99.2896 10.6801V17.2791H96.65V5.56339H99.2896V6.88318C100.102 5.80704 101.32 5.25882 102.944 5.25882C104.386 5.25882 105.482 5.66491 106.254 6.47709Z" fill="white"/>
<path d="M111.472 16.5481C110.883 15.9593 110.599 14.9847 110.599 13.6446V7.71564H108.792V5.54305H110.599V0.405994H113.218V5.56336H116.528V7.73594H113.218V13.1776C113.218 13.8882 113.361 14.3958 113.665 14.7207C113.97 15.0456 114.416 15.208 115.046 15.208C115.554 15.208 116.021 15.1471 116.447 15.0253V17.2182C115.696 17.3806 114.965 17.4618 114.254 17.4618C112.975 17.4618 112.061 17.1573 111.472 16.5684V16.5481Z" fill="white"/>
<path d="M125.36 5.54322V7.87824C125.015 7.79703 124.609 7.75642 124.162 7.75642C123.147 7.75642 122.375 8.06099 121.868 8.67012C121.36 9.27926 121.096 10.1727 121.096 11.33V17.259H118.457V5.56352H121.076V6.92393C121.766 5.9087 122.802 5.40109 124.182 5.40109C124.649 5.40109 125.035 5.4417 125.38 5.54322H125.36Z" fill="white"/>
<path d="M129.056 16.7106C128.122 16.1624 127.452 15.3908 127.006 14.3959C126.6 13.5431 126.417 12.5482 126.417 11.4111C126.417 10.274 126.62 9.25882 127.006 8.40602C127.452 7.4111 128.143 6.63953 129.056 6.0913C129.97 5.54308 131.107 5.25882 132.447 5.25882C133.787 5.25882 134.924 5.54308 135.858 6.0913C136.792 6.63953 137.483 7.4111 137.93 8.40602C138.336 9.29943 138.518 10.2944 138.518 11.4111C138.518 12.5279 138.315 13.5025 137.93 14.4162C137.483 15.4111 136.792 16.1624 135.858 16.7106C134.924 17.2588 133.787 17.5431 132.447 17.5431C131.107 17.5431 129.97 17.2588 129.056 16.7106ZM134.254 14.8832C134.742 14.5989 135.107 14.1725 135.331 13.6446C135.574 13.0964 135.696 12.3654 135.696 11.4111C135.696 10.4568 135.574 9.68521 135.331 9.15729C135.087 8.60907 134.721 8.20298 134.254 7.91872C133.767 7.63445 133.158 7.49232 132.447 7.49232C131.737 7.49232 131.127 7.63445 130.66 7.91872C130.193 8.20298 129.828 8.62938 129.584 9.15729C129.32 9.70552 129.199 10.4568 129.199 11.4111C129.199 12.3654 129.32 13.0761 129.584 13.6446C129.828 14.1725 130.173 14.5786 130.66 14.8832C131.148 15.1878 131.737 15.3299 132.447 15.3299C133.158 15.3299 133.767 15.1878 134.254 14.8832Z" fill="white"/>
<path d="M156.528 0.405994V17.2588H153.95V15.8578C153.503 16.406 152.955 16.8324 152.285 17.1167C151.615 17.4009 150.884 17.5431 150.051 17.5431C148.914 17.5431 147.919 17.2791 147.107 16.7715C146.295 16.2639 145.686 15.5532 145.259 14.6192C145.056 14.1522 144.894 13.6446 144.772 13.0964C144.671 12.5481 144.61 11.9796 144.61 11.3908C144.61 10.1725 144.833 9.09635 145.259 8.14204C145.665 7.22833 146.295 6.49737 147.107 5.98975C147.919 5.48214 148.894 5.21818 150.051 5.21818C150.863 5.21818 151.594 5.36031 152.244 5.64457C152.894 5.92884 153.442 6.33493 153.889 6.88315V0.405994H156.528ZM153.889 11.1065C153.889 9.94914 153.605 9.05574 153.036 8.4263C152.468 7.79686 151.696 7.49229 150.701 7.49229C150.011 7.49229 149.422 7.63442 148.935 7.91869C148.447 8.20295 148.061 8.60904 147.818 9.17757C147.554 9.78671 147.432 10.538 147.432 11.4314C147.432 12.3248 147.554 13.0557 147.818 13.6446C148.082 14.1928 148.447 14.6192 148.935 14.9035C149.422 15.1877 150.011 15.3299 150.701 15.3299C151.696 15.3299 152.468 15.0253 153.036 14.3958C153.605 13.7664 153.889 12.873 153.889 11.7156V11.1065Z" fill="white"/>
<path d="M167.757 14.01C167.899 13.7461 167.98 13.4618 168 13.1979H170.62C170.518 14.3755 170.051 15.3501 169.239 16.1014C168.711 16.5684 168.082 16.9136 167.33 17.1573C166.579 17.4009 165.767 17.5227 164.873 17.5227C163.513 17.5227 162.335 17.2588 161.381 16.7106C160.427 16.1623 159.716 15.4111 159.269 14.4161C158.884 13.5633 158.701 12.5481 158.701 11.3501C158.701 10.741 158.742 10.1928 158.843 9.70548C158.945 9.21817 159.087 8.75116 159.269 8.32477C159.716 7.32984 160.406 6.57857 161.34 6.03035C162.274 5.48213 163.391 5.21817 164.691 5.21817C165.99 5.21817 167.107 5.48213 168.041 6.03035C168.975 6.57857 169.645 7.32984 170.092 8.30446C170.335 8.85269 170.498 9.40091 170.579 9.98974C170.66 10.5786 170.701 11.2892 170.701 12.0811H161.361C161.401 12.7918 161.523 13.34 161.726 13.7258C161.97 14.274 162.356 14.6801 162.863 14.9644C163.391 15.2486 164.041 15.3908 164.813 15.3908C165.32 15.3908 165.787 15.3298 166.193 15.208C166.599 15.0862 166.945 14.9034 167.229 14.6598C167.432 14.4771 167.615 14.2334 167.736 13.9694L167.757 14.01ZM161.726 9.07604C161.564 9.42121 161.462 9.807 161.422 10.1928H167.98C167.939 9.7867 167.838 9.38061 167.696 8.97451C167.432 8.4466 167.066 8.06081 166.579 7.77654C166.092 7.51258 165.462 7.37045 164.731 7.37045C163.229 7.37045 162.234 7.93898 161.726 9.07604Z" fill="white"/>
<path d="M65.9701 22.802H68.7112V39.6548H65.9701V22.802Z" fill="white"/>
<path d="M82.9452 22.802V39.6548H80.3665V38.2538C79.9198 38.802 79.3716 39.2284 78.7015 39.5127C78.0315 39.7969 77.3005 39.9391 76.468 39.9391C75.331 39.9391 74.336 39.6751 73.5238 39.1675C72.7117 38.6599 72.1025 37.9492 71.6761 37.0152C71.4731 36.5482 71.3107 36.0406 71.1888 35.4924C71.0873 34.9441 71.0264 34.3756 71.0264 33.7868C71.0264 32.5685 71.2497 31.4924 71.6761 30.5381C72.0822 29.6244 72.7117 28.8934 73.5238 28.3858C74.336 27.8782 75.3107 27.6142 76.468 27.6142C77.2802 27.6142 78.0112 27.7563 78.6609 28.0406C79.3107 28.3249 79.8589 28.7309 80.3056 29.2792V22.7817H82.9249L82.9452 22.802ZM80.3259 33.4822C80.3259 32.3249 80.0416 31.4315 79.4731 30.802C78.9046 30.1726 78.133 29.868 77.1381 29.868C76.4477 29.868 75.8589 30.0101 75.3716 30.2944C74.8843 30.5787 74.4985 30.9848 74.2548 31.5533C73.9909 32.1624 73.869 32.9137 73.869 33.8071C73.869 34.7005 73.9909 35.4315 74.2548 36.0203C74.5188 36.5685 74.8843 36.9949 75.3716 37.2792C75.8589 37.5634 76.4477 37.7056 77.1381 37.7056C78.133 37.7056 78.9046 37.401 79.4731 36.7716C80.0416 36.1421 80.3259 35.2487 80.3259 34.0914V33.4822Z" fill="white"/>
<path d="M85.8885 25.3604C85.584 25.0761 85.4418 24.7309 85.4418 24.3046C85.4418 23.8782 85.584 23.4924 85.8885 23.2081C86.1931 22.9238 86.5789 22.7817 87.0662 22.7817C87.5332 22.7817 87.8987 22.9238 88.183 23.2081C88.4672 23.4924 88.6094 23.8579 88.6094 24.3046C88.6094 24.7513 88.4672 25.0964 88.1626 25.3604C87.8581 25.6447 87.4926 25.7868 87.0459 25.7868C86.5586 25.7868 86.1728 25.6447 85.8682 25.3604H85.8885ZM85.6855 27.9594H88.3251V39.6548H85.6855V27.9594Z" fill="white"/>
<path d="M93.1377 39.1066C92.2037 38.5584 91.5337 37.7868 91.087 36.7919C90.6809 35.9391 90.4982 34.9442 90.4982 33.8071C90.4982 32.6701 90.7012 31.6549 91.087 30.8021C91.5337 29.8071 92.224 29.0356 93.1377 28.4873C94.0515 27.9391 95.1885 27.6549 96.5286 27.6549C97.8687 27.6549 99.0058 27.9391 99.9398 28.4873C100.874 29.0356 101.564 29.8071 102.011 30.8021C102.417 31.6955 102.6 32.6904 102.6 33.8071C102.6 34.9239 102.397 35.8985 102.011 36.8122C101.564 37.8071 100.874 38.5584 99.9398 39.1066C99.0058 39.6549 97.8687 39.9391 96.5286 39.9391C95.1885 39.9391 94.0515 39.6549 93.1377 39.1066ZM98.3357 37.2792C98.823 36.995 99.1885 36.5686 99.4119 36.0406C99.6555 35.4924 99.7773 34.7615 99.7773 33.8071C99.7773 32.8528 99.6555 32.0813 99.4119 31.5533C99.1682 31.0051 98.8027 30.599 98.3357 30.3148C97.8484 30.0305 97.2393 29.8884 96.5286 29.8884C95.818 29.8884 95.2088 30.0305 94.7418 30.3148C94.2748 30.599 93.9093 31.0254 93.6657 31.5533C93.4017 32.1016 93.2799 32.8528 93.2799 33.8071C93.2799 34.7615 93.4017 35.4721 93.6657 36.0406C93.9093 36.5686 94.2545 36.9747 94.7418 37.2792C95.2291 37.5838 95.818 37.7259 96.5286 37.7259C97.2393 37.7259 97.8484 37.5838 98.3357 37.2792Z" fill="white"/>
<path d="M121.889 28.8732C122.64 29.6854 123.026 30.8833 123.026 32.4468V39.6549H120.407V32.9747C120.407 31.8986 120.204 31.127 119.777 30.6397C119.371 30.1524 118.742 29.9087 117.909 29.9087C117.016 29.9087 116.346 30.1727 115.879 30.7209C115.412 31.2691 115.189 32.0407 115.189 33.0762V39.6752H112.569V32.995C112.569 31.9189 112.366 31.1473 111.96 30.66C111.554 30.1727 110.925 29.929 110.092 29.929C109.26 29.929 108.549 30.193 108.082 30.7412C107.615 31.2894 107.392 32.061 107.392 33.0965V39.6955H104.752V28.0001H107.392V29.2387C108.183 28.2031 109.361 27.6955 110.925 27.6955C111.859 27.6955 112.63 27.8782 113.3 28.2234C113.95 28.5686 114.458 29.0965 114.762 29.8072C115.168 29.0965 115.676 28.5686 116.326 28.2234C116.975 27.8782 117.747 27.7158 118.681 27.7158C120.062 27.7158 121.138 28.1219 121.889 28.9544V28.8732Z" fill="white"/>
<path d="M136.203 39.6345H133.564V38.3147C132.711 39.3909 131.391 39.9188 129.543 39.9188C128.508 39.9188 127.635 39.7563 126.924 39.4112C126.214 39.0863 125.706 38.5787 125.422 37.9289C125.219 37.4619 125.117 36.934 125.117 36.3452C125.117 35.7563 125.219 35.2487 125.401 34.8223C125.807 33.9492 126.477 33.3401 127.432 33.0152C128.386 32.6903 129.625 32.5279 131.127 32.5279H133.564V32.2233C133.564 31.9188 133.564 31.6751 133.523 31.4721C133.483 31.269 133.422 31.066 133.34 30.8629C132.995 30.0914 132.183 29.7259 130.904 29.7259C130.254 29.7259 129.726 29.8071 129.3 29.9898C128.894 30.1726 128.589 30.4365 128.406 30.8223C128.285 31.1066 128.244 31.3706 128.244 31.6142H125.564C125.564 30.9442 125.665 30.3756 125.889 29.9086C126.579 28.3858 128.224 27.6142 130.863 27.6142C132.163 27.6142 133.198 27.7969 134.01 28.1827C134.823 28.5685 135.391 29.1574 135.736 29.9695C136.061 30.6802 136.203 31.5939 136.203 32.7716V39.6345ZM133.564 34.6193V34.4772H131.29C130.417 34.4772 129.686 34.5584 129.117 34.7005C128.549 34.8426 128.163 35.1066 128 35.4924C127.899 35.6751 127.858 35.8985 127.858 36.1624C127.858 36.4264 127.899 36.6497 128 36.8731C128.163 37.198 128.447 37.4619 128.833 37.6041C129.239 37.7665 129.706 37.8477 130.234 37.8477C131.005 37.8477 131.635 37.7056 132.142 37.4416C132.65 37.1777 133.016 36.7716 133.259 36.2436C133.442 35.7766 133.543 35.2487 133.543 34.6193H133.564Z" fill="white"/>
<path d="M140.305 39.4315C139.513 39.0457 138.945 38.4771 138.6 37.7056C138.336 37.1574 138.214 36.4873 138.214 35.7563H140.793C140.793 36.203 140.874 36.5685 141.036 36.8731C141.381 37.6447 142.133 38.0101 143.31 38.0101C144.488 38.0101 145.178 37.7056 145.463 37.0964C145.544 36.8934 145.584 36.6903 145.584 36.5076C145.584 36.2843 145.544 36.0812 145.463 35.8782C145.341 35.6345 145.178 35.4518 144.914 35.3096C144.671 35.1675 144.366 35.0457 144.001 34.9442C143.635 34.8426 143.148 34.7208 142.478 34.599C141.584 34.3959 140.833 34.1117 140.204 33.7665C139.574 33.4213 139.128 32.9543 138.864 32.3452C138.701 31.9797 138.62 31.5533 138.62 31.0457C138.62 30.5178 138.722 30.0508 138.904 29.665C139.209 29.0152 139.737 28.5076 140.488 28.1421C141.239 27.7766 142.133 27.6142 143.189 27.6142C144.244 27.6142 145.158 27.7969 145.909 28.1421C146.64 28.4873 147.189 29.0152 147.513 29.6853C147.716 30.1726 147.818 30.7411 147.818 31.4112H145.321C145.321 31.066 145.26 30.7411 145.138 30.4365C144.975 30.1117 144.732 29.868 144.386 29.7056C144.041 29.5431 143.635 29.4619 143.148 29.4619C142.173 29.4619 141.564 29.7259 141.3 30.2538C141.239 30.3959 141.199 30.5787 141.199 30.802C141.199 31.0051 141.239 31.1675 141.3 31.269C141.422 31.533 141.605 31.736 141.889 31.8985C142.173 32.0609 142.478 32.1827 142.803 32.264C143.128 32.3452 143.615 32.467 144.244 32.6091C145.239 32.8731 146.031 33.1574 146.661 33.5025C147.29 33.8477 147.757 34.3147 148.041 34.9239C148.204 35.2893 148.285 35.736 148.285 36.2436C148.285 36.7919 148.183 37.3198 148.001 37.7868C147.676 38.4975 147.067 39.0457 146.214 39.4315C145.361 39.797 144.366 40 143.209 40C142.051 40 141.057 39.8173 140.265 39.4315H140.305Z" fill="white"/>
</g>
</svg>
