<svg width="256" height="42" viewBox="0 0 256 42" fill="none" xmlns="http://www.w3.org/2000/svg">
<path d="M50.0849 23.0914H19.3827C19.0809 22.4446 18.9084 21.7331 18.9084 21C18.9084 20.267 19.0809 19.5339 19.3827 18.9087H50.0849C50.1711 17.7228 50.3005 16.5586 50.5161 15.4158H17.5501C16.2133 16.9035 15.4156 18.8655 15.4156 21.0216C15.4156 23.1776 16.2349 25.1396 17.5501 26.6273H50.5161C50.3005 25.4846 50.1711 24.3203 50.0849 23.1345" fill="white"/>
<path d="M55.3243 38.4855H9.63756C5.79978 33.6991 3.49281 27.619 3.49281 21C3.49281 14.3809 5.79978 8.3008 9.63756 3.49281H55.3028C56.1221 2.26386 57.0276 1.09959 58.0194 0H8.02052C3.04003 5.56262 0 12.9363 0 21C0 29.0636 3.04003 36.4157 8.02052 41.9999H58.041C57.0492 40.9003 56.1436 39.7361 55.3243 38.5071" fill="white"/>
<path d="M51.573 30.7885H14.4673C12.4406 28.0503 11.2332 24.6653 11.2332 21C11.2332 17.3347 12.4406 13.9281 14.4888 11.1899H51.5945C51.9826 9.98256 52.4569 8.81829 52.9744 7.69714H12.8071C9.63773 11.2331 7.71884 15.8901 7.71884 21C7.71884 26.1098 9.63773 30.7669 12.8071 34.3028H52.9744C52.4569 33.1817 51.9826 31.9959 51.5945 30.81" fill="white"/>
<path d="M74.5128 24.7946C72.6802 23.6951 71.3219 22.1427 70.4379 20.116C69.5755 18.2402 69.1442 15.9333 69.1442 13.2166C69.1442 10.5 69.5755 8.23616 70.4379 6.29571C71.3434 4.29058 72.7017 2.73822 74.5344 1.6602C76.3455 0.56061 78.5878 0.0215962 81.2397 0.0215962C82.8783 0.0215962 84.3875 0.258762 85.7674 0.733094C87.1473 1.20743 88.3331 1.91892 89.3465 2.84603C90.2736 3.68689 91.0066 4.70023 91.5241 5.88606C92.0415 7.07189 92.3434 8.36552 92.3865 9.78852H88.0744C87.9882 7.97743 87.3413 6.53288 86.1771 5.43329C84.8834 4.29058 83.2017 3.70845 81.1103 3.70845C79.4933 3.70845 78.1134 4.05342 76.9923 4.72179C75.8711 5.39017 75.0303 6.36039 74.4481 7.58934C74.1463 8.3224 73.9091 9.16326 73.7582 10.0688C73.6073 10.9959 73.521 12.0308 73.521 13.2382C73.521 14.4456 73.5857 15.5236 73.7366 16.4292C73.8876 17.3563 74.1247 18.154 74.4481 18.8871C75.0303 20.1591 75.8711 21.1078 76.9923 21.7762C78.1134 22.4445 79.4717 22.768 81.1103 22.768C82.1884 22.768 83.1586 22.617 84.0426 22.3152C84.9266 22.0133 85.6812 21.6037 86.2849 21.0431C87.4491 19.9866 88.0744 18.5205 88.1391 16.6232H92.4512C92.4296 18.0462 92.1493 19.3614 91.6534 20.5472C91.136 21.7331 90.4245 22.768 89.4974 23.6088C88.5056 24.5359 87.2982 25.2474 85.8968 25.7217C84.4954 26.1961 82.9646 26.4332 81.2828 26.4332C78.6093 26.4332 76.367 25.8942 74.5344 24.7946H74.5128Z" fill="white"/>
<path d="M99.2644 25.0102C97.8845 24.1694 96.8496 23.0267 96.2028 21.539C95.5991 20.2669 95.3188 18.7792 95.3188 17.076C95.3188 15.3727 95.6207 13.8634 96.2028 12.5698C96.8712 11.1037 97.8845 9.93943 99.2644 9.09857C100.644 8.25771 102.348 7.84806 104.331 7.84806C106.315 7.84806 108.04 8.25771 109.419 9.09857C110.821 9.93943 111.834 11.0821 112.503 12.5698C113.106 13.9066 113.387 15.3942 113.387 17.076C113.387 18.7577 113.085 20.2022 112.503 21.5821C111.834 23.0482 110.799 24.2125 109.419 25.0318C108.018 25.8511 106.336 26.2608 104.331 26.2608C102.326 26.2608 100.644 25.8511 99.2644 25.0102ZM107.026 22.2721C107.759 21.8408 108.298 21.2156 108.643 20.4394C109.01 19.6201 109.182 18.5205 109.182 17.076C109.182 15.6314 109.01 14.5103 108.643 13.7125C108.277 12.8932 107.738 12.2895 107.026 11.8583C106.293 11.4271 105.409 11.2115 104.331 11.2115C103.253 11.2115 102.369 11.4271 101.658 11.8583C100.946 12.2895 100.407 12.9148 100.041 13.7125C99.6525 14.5534 99.4585 15.6745 99.4585 17.076C99.4585 18.4774 99.6525 19.577 100.041 20.4394C100.407 21.2156 100.925 21.8408 101.658 22.2721C102.369 22.7033 103.275 22.9404 104.331 22.9404C105.388 22.9404 106.293 22.7248 107.026 22.2721Z" fill="white"/>
<path d="M130.915 9.68071C132.08 10.8881 132.662 12.6776 132.662 15.0062V25.8295H128.738V15.7823C128.738 14.2084 128.414 13.0657 127.768 12.3111C127.121 11.578 126.129 11.2115 124.792 11.2115C123.391 11.2115 122.313 11.6212 121.58 12.4189C120.847 13.2166 120.48 14.4025 120.48 15.9764V25.8295H116.513V8.32239H120.48V10.2844C121.688 8.66736 123.52 7.84806 125.957 7.84806C128.091 7.84806 129.751 8.45176 130.915 9.65915V9.68071Z" fill="white"/>
<path d="M139.13 24.773C138.267 23.8891 137.836 22.4229 137.836 20.4394V11.578H135.119V8.32236H137.836V1.20738H141.76V8.32236H146.719V11.578H141.76V19.7279C141.76 20.7843 141.976 21.539 142.429 22.0349C142.86 22.5307 143.55 22.7679 144.477 22.7679C145.231 22.7679 145.943 22.6817 146.59 22.4876V25.7648C145.469 26.002 144.369 26.1314 143.312 26.1314C141.415 26.1314 140.014 25.6786 139.151 24.7946L139.13 24.773Z" fill="white"/>
<path d="M154.33 8.32233H150.362V25.8295H154.33V8.32233Z" fill="white"/>
<path d="M172.893 9.68071C174.057 10.8881 174.64 12.6776 174.64 15.0062V25.8295H170.716V15.7823C170.716 14.2084 170.392 13.0657 169.745 12.3111C169.099 11.578 168.107 11.2115 166.77 11.2115C165.369 11.2115 164.291 11.6212 163.557 12.4189C162.824 13.2166 162.458 14.4025 162.458 15.9764V25.8295H158.491V8.32239H162.458V10.2844C163.665 8.66736 165.498 7.84806 167.934 7.84806C170.069 7.84806 171.729 8.45176 172.893 9.65915V9.68071Z" fill="white"/>
<path d="M191.393 20.9784C191.587 20.5687 191.716 20.1591 191.759 19.771H195.683C195.511 21.5389 194.821 22.9835 193.613 24.1262C192.837 24.8161 191.867 25.3551 190.746 25.7217C189.625 26.0882 188.396 26.2822 187.059 26.2822C185.011 26.2822 183.264 25.8726 181.82 25.0749C180.375 24.2556 179.319 23.1128 178.65 21.6467C178.09 20.3531 177.788 18.8439 177.788 17.0759C177.788 16.1704 177.853 15.3511 178.003 14.618C178.154 13.8849 178.37 13.195 178.65 12.5482C179.319 11.0821 180.354 9.93936 181.733 9.12006C183.135 8.30076 184.795 7.91267 186.757 7.91267C188.719 7.91267 190.379 8.32232 191.781 9.12006C193.182 9.93936 194.195 11.0605 194.842 12.5051C195.209 13.3244 195.446 14.1652 195.575 15.0492C195.705 15.9332 195.769 16.9681 195.769 18.197H181.798C181.863 19.2535 182.057 20.0728 182.337 20.6549C182.704 21.4742 183.264 22.0779 184.062 22.5092C184.838 22.9404 185.83 23.156 186.994 23.156C187.749 23.156 188.439 23.0697 189.064 22.8757C189.689 22.6816 190.185 22.4014 190.595 22.0564C190.897 21.7761 191.155 21.4311 191.371 21.0215L191.393 20.9784ZM182.359 13.5831C182.122 14.1005 181.971 14.6611 181.884 15.2648H191.716C191.651 14.6396 191.5 14.0359 191.285 13.4537C190.897 12.6776 190.336 12.0739 189.603 11.6642C188.87 11.2546 187.943 11.0605 186.843 11.0605C184.601 11.0605 183.113 11.9014 182.337 13.6047L182.359 13.5831Z" fill="white"/>
<path d="M213.556 9.68071C214.72 10.8881 215.302 12.6776 215.302 15.0062V25.8295H211.378V15.7823C211.378 14.2084 211.055 13.0657 210.408 12.3111C209.761 11.578 208.77 11.2115 207.433 11.2115C206.031 11.2115 204.953 11.6212 204.22 12.4189C203.487 13.2166 203.121 14.4025 203.121 15.9764V25.8295H199.154V8.32239H203.121V10.2844C204.328 8.66736 206.161 7.84806 208.597 7.84806C210.732 7.84806 212.392 8.45176 213.556 9.65915V9.68071Z" fill="white"/>
<path d="M221.771 24.773C220.909 23.8891 220.478 22.4229 220.478 20.4394V11.578H217.761V8.32236H220.478V1.20738H224.402V8.32236H229.361V11.578H224.402V19.7279C224.402 20.7843 224.617 21.539 225.07 22.0349C225.501 22.5307 226.191 22.7679 227.118 22.7679C227.873 22.7679 228.585 22.6817 229.231 22.4876V25.7648C228.11 26.002 227.011 26.1314 225.954 26.1314C224.057 26.1314 222.655 25.6786 221.793 24.7946L221.771 24.773Z" fill="white"/>
<path d="M248.226 15.5667V25.8295H244.258V23.8675C242.986 25.463 241.003 26.2608 238.265 26.2608C236.712 26.2608 235.397 26.002 234.341 25.5061C233.263 25.0102 232.529 24.2772 232.098 23.2854C231.796 22.5955 231.624 21.8193 231.624 20.9353C231.624 20.0513 231.775 19.2967 232.055 18.6499C232.659 17.3347 233.672 16.4507 235.095 15.9548C236.518 15.4589 238.372 15.2218 240.636 15.2218H244.28V14.7474C244.28 14.2947 244.258 13.9281 244.215 13.6263C244.172 13.3244 244.064 13.0226 243.935 12.7207C243.418 11.578 242.189 10.9959 240.291 10.9959C239.321 10.9959 238.523 11.1253 237.898 11.384C237.273 11.6427 236.842 12.0524 236.583 12.6345C236.41 13.0657 236.324 13.4538 236.324 13.8203H232.314C232.314 12.8285 232.486 11.9661 232.81 11.2762C233.823 8.99077 236.303 7.84806 240.248 7.84806C242.167 7.84806 243.741 8.12835 244.948 8.71048C246.156 9.29262 247.018 10.1766 247.536 11.384C248.01 12.4405 248.247 13.8203 248.247 15.5667H248.226ZM244.258 18.2834V18.0678H240.873C239.558 18.0678 238.48 18.1756 237.618 18.3912C236.755 18.6068 236.195 18.9949 235.936 19.577C235.785 19.8573 235.72 20.2022 235.72 20.5688C235.72 20.9353 235.785 21.3018 235.936 21.6468C236.173 22.1427 236.583 22.5092 237.187 22.7464C237.79 22.9836 238.48 23.1129 239.299 23.1129C240.442 23.1129 241.391 22.9189 242.167 22.5092C242.922 22.0996 243.482 21.5174 243.849 20.7197C244.129 20.0298 244.28 19.2105 244.28 18.2834H244.258Z" fill="white"/>
<path d="M251.309 1.20738H255.277V25.8295H251.309V1.20738Z" fill="white"/>
<path d="M152.346 5.75664C153.644 5.75664 154.696 4.70446 154.696 3.40654C154.696 2.10862 153.644 1.05644 152.346 1.05644C151.048 1.05644 149.996 2.10862 149.996 3.40654C149.996 4.70446 151.048 5.75664 152.346 5.75664Z" fill="white"/>
<path d="M69.1649 29.4949H71.1701V41.7629H69.1649V29.4949Z" fill="white"/>
<path d="M80.6132 33.9148C81.1737 34.497 81.454 35.3594 81.454 36.5021V41.7629H79.5351V36.8902C79.5351 36.1356 79.3842 35.575 79.0608 35.2085C78.7374 34.8419 78.2631 34.6694 77.6162 34.6694C76.9263 34.6694 76.4088 34.8635 76.0423 35.2516C75.6758 35.6397 75.5033 36.2218 75.5033 36.9764V41.7629H73.5844V33.2465H75.5033V34.1951C76.0854 33.3974 76.9694 33.0093 78.1553 33.0093C79.1902 33.0093 80.0095 33.3111 80.57 33.8933L80.6132 33.9148Z" fill="white"/>
<path d="M84.7744 41.2453C84.3432 40.8141 84.1492 40.1026 84.1492 39.1324V34.8203H82.834V33.2464H84.1492V31.1981H86.0681V33.2464H88.4828V34.8203H86.0681V38.7875C86.0681 39.3049 86.1759 39.6714 86.3915 39.9086C86.6071 40.1458 86.9305 40.2751 87.3832 40.2751C87.7498 40.2751 88.0947 40.232 88.4182 40.1458V41.7412C87.8791 41.849 87.3401 41.9137 86.8227 41.9137C85.8956 41.9137 85.2272 41.6981 84.796 41.2669L84.7744 41.2453Z" fill="white"/>
<path d="M96.2234 39.3911C96.3312 39.1971 96.3743 39.003 96.3959 38.809H98.3148C98.2285 39.6714 97.9051 40.3829 97.3014 40.9219C96.9133 41.2669 96.4606 41.5256 95.9216 41.6981C95.3825 41.8706 94.7788 41.9568 94.132 41.9568C93.1402 41.9568 92.2778 41.7628 91.5879 41.3747C90.8764 40.9866 90.3805 40.426 90.0571 39.7145C89.7768 39.0892 89.6474 38.3562 89.6474 37.4938C89.6474 37.0626 89.6906 36.6529 89.7552 36.2864C89.8199 35.9198 89.9277 35.5964 90.0786 35.273C90.402 34.5615 90.8979 34.001 91.5879 33.6129C92.2563 33.2248 93.0756 33.0307 94.0242 33.0307C94.9729 33.0307 95.7922 33.2248 96.4606 33.6129C97.1289 34.001 97.6248 34.5615 97.9482 35.273C98.1207 35.6611 98.2501 36.0708 98.3148 36.502C98.3794 36.9332 98.401 37.4506 98.401 38.0328H91.6094C91.6526 38.5502 91.7388 38.9383 91.8682 39.2402C92.0406 39.6283 92.3209 39.9301 92.709 40.1457C93.0971 40.3613 93.5714 40.4691 94.132 40.4691C94.4986 40.4691 94.8435 40.426 95.1454 40.3398C95.4472 40.2535 95.7059 40.1242 95.9 39.9301C96.0509 39.8008 96.1803 39.6283 96.2665 39.4342L96.2234 39.3911ZM91.825 35.7905C91.7172 36.0492 91.631 36.3079 91.6094 36.6098H96.3959C96.3528 36.3079 96.2881 36.0061 96.1803 35.7258C95.9862 35.3377 95.7275 35.0574 95.361 34.8634C94.9944 34.6693 94.5632 34.5615 94.0242 34.5615C92.9246 34.5615 92.2131 34.9712 91.825 35.7905Z" fill="white"/>
<path d="M105.322 33.2249V34.9282C105.063 34.8635 104.783 34.8419 104.459 34.8419C103.726 34.8419 103.166 35.0575 102.778 35.5103C102.411 35.9631 102.217 36.6099 102.217 37.4507V41.7628H100.298V33.2464H102.217V34.2382C102.713 33.5052 103.468 33.1171 104.481 33.1171C104.826 33.1171 105.106 33.1602 105.343 33.2249H105.322Z" fill="white"/>
<path d="M113.968 33.9148C114.528 34.497 114.809 35.3594 114.809 36.5021V41.7629H112.89V36.8902C112.89 36.1356 112.739 35.575 112.415 35.2085C112.092 34.8419 111.618 34.6694 110.971 34.6694C110.281 34.6694 109.763 34.8635 109.397 35.2516C109.03 35.6397 108.858 36.2218 108.858 36.9764V41.7629H106.939V33.2465H108.858V34.1951C109.44 33.3974 110.324 33.0093 111.51 33.0093C112.545 33.0093 113.364 33.3111 113.925 33.8933L113.968 33.9148Z" fill="white"/>
<path d="M124.748 41.7413H122.829V40.7926C122.225 41.5688 121.233 41.9569 119.918 41.9569C119.163 41.9569 118.538 41.8275 117.999 41.5904C117.46 41.3532 117.115 40.9867 116.899 40.5124C116.749 40.1674 116.662 39.8009 116.662 39.3696C116.662 38.9384 116.727 38.5719 116.878 38.2485C117.158 37.6017 117.654 37.1705 118.366 36.9333C119.077 36.6961 119.961 36.5668 121.061 36.5668H122.829V36.3512C122.829 36.1356 122.829 35.9415 122.786 35.8122C122.742 35.6828 122.721 35.5103 122.656 35.3594C122.397 34.7988 121.815 34.5185 120.888 34.5185C120.414 34.5185 120.026 34.5832 119.724 34.7126C119.422 34.8419 119.206 35.036 119.077 35.3163C118.991 35.5319 118.948 35.7259 118.948 35.8984H117.007C117.007 35.4025 117.094 34.9929 117.244 34.6694C117.74 33.5483 118.948 33.0093 120.867 33.0093C121.815 33.0093 122.57 33.1387 123.152 33.4189C123.734 33.6992 124.165 34.1304 124.403 34.7126C124.64 35.23 124.748 35.8984 124.748 36.7393V41.7413ZM122.829 38.0976V37.9898H121.168C120.522 37.9898 120.004 38.0329 119.595 38.1407C119.185 38.2485 118.905 38.4425 118.775 38.7228C118.711 38.8522 118.667 39.0247 118.667 39.2187C118.667 39.4128 118.711 39.5853 118.775 39.7362C118.883 39.9733 119.099 40.1674 119.379 40.2752C119.659 40.383 120.004 40.4477 120.414 40.4477C120.974 40.4477 121.427 40.3399 121.794 40.1458C122.16 39.9518 122.441 39.6499 122.613 39.2834C122.742 38.9384 122.829 38.5503 122.829 38.0976Z" fill="white"/>
<path d="M128.068 41.2453C127.637 40.8141 127.443 40.1026 127.443 39.1324V34.8203H126.128V33.2464H127.443V31.1981H129.362V33.2464H131.777V34.8203H129.362V38.7875C129.362 39.3049 129.47 39.6714 129.685 39.9086C129.901 40.1458 130.224 40.2751 130.677 40.2751C131.044 40.2751 131.388 40.232 131.712 40.1458V41.7412C131.173 41.849 130.634 41.9137 130.116 41.9137C129.189 41.9137 128.521 41.6981 128.09 41.2669L128.068 41.2453Z" fill="white"/>
<path d="M133.61 31.651C133.394 31.4569 133.286 31.1982 133.286 30.8748C133.286 30.5514 133.394 30.2927 133.61 30.0771C133.825 29.883 134.106 29.7752 134.472 29.7752C134.817 29.7752 135.076 29.883 135.292 30.0771C135.507 30.2711 135.593 30.5514 135.593 30.8748C135.593 31.1982 135.486 31.4354 135.27 31.651C135.054 31.845 134.796 31.9528 134.472 31.9528C134.127 31.9528 133.847 31.845 133.631 31.651H133.61ZM133.48 33.2465H135.399V41.7629H133.48V33.2465Z" fill="white"/>
<path d="M139.236 41.3532C138.568 40.9436 138.072 40.383 137.749 39.6715C137.468 39.0462 137.317 38.3347 137.317 37.4939C137.317 36.653 137.468 35.92 137.749 35.2947C138.072 34.5832 138.568 34.0226 139.236 33.613C139.905 33.2033 140.724 33.0093 141.694 33.0093C142.664 33.0093 143.484 33.2033 144.174 33.613C144.842 34.0226 145.36 34.5832 145.683 35.2947C145.963 35.9415 146.114 36.6746 146.114 37.4939C146.114 38.3132 145.963 39.0031 145.683 39.6931C145.36 40.4046 144.864 40.9651 144.174 41.3748C143.505 41.7844 142.664 41.9785 141.694 41.9785C140.724 41.9785 139.905 41.7844 139.236 41.3748V41.3532ZM143.031 40.038C143.376 39.8224 143.656 39.5206 143.829 39.154C144.001 38.7659 144.087 38.2054 144.087 37.5154C144.087 36.8255 144.001 36.2649 143.829 35.8768C143.656 35.4887 143.398 35.1869 143.031 34.9713C142.664 34.7557 142.233 34.6479 141.716 34.6479C141.198 34.6479 140.767 34.7557 140.422 34.9713C140.077 35.1869 139.818 35.4887 139.646 35.8768C139.452 36.2865 139.366 36.8255 139.366 37.5154C139.366 38.2054 139.452 38.7228 139.646 39.154C139.818 39.5421 140.077 39.844 140.422 40.038C140.767 40.2536 141.198 40.3614 141.716 40.3614C142.233 40.3614 142.664 40.2536 143.031 40.038Z" fill="white"/>
<path d="M155.04 33.9148C155.601 34.497 155.881 35.3594 155.881 36.5021V41.7629H153.962V36.8902C153.962 36.1356 153.811 35.575 153.488 35.2085C153.164 34.8419 152.69 34.6694 152.043 34.6694C151.353 34.6694 150.836 34.8635 150.469 35.2516C150.103 35.6397 149.93 36.2218 149.93 36.9764V41.7629H148.011V33.2465H149.93V34.1951C150.512 33.3974 151.396 33.0093 152.582 33.0093C153.617 33.0093 154.436 33.3111 154.997 33.8933L155.04 33.9148Z" fill="white"/>
<path d="M165.821 41.7413H163.902V40.7926C163.298 41.5688 162.307 41.9569 160.991 41.9569C160.237 41.9569 159.612 41.8275 159.073 41.5904C158.533 41.3532 158.189 40.9867 157.973 40.5124C157.822 40.1674 157.736 39.8009 157.736 39.3696C157.736 38.9384 157.8 38.5719 157.951 38.2485C158.232 37.6017 158.728 37.1705 159.439 36.9333C160.151 36.6961 161.035 36.5668 162.134 36.5668H163.902V36.3512C163.902 36.1356 163.902 35.9415 163.859 35.8122C163.816 35.6828 163.794 35.5103 163.73 35.3594C163.471 34.7988 162.889 34.5185 161.962 34.5185C161.487 34.5185 161.099 34.5832 160.797 34.7126C160.496 34.8419 160.28 35.036 160.151 35.3163C160.064 35.5319 160.021 35.7259 160.021 35.8984H158.081C158.081 35.4025 158.167 34.9929 158.318 34.6694C158.814 33.5483 160.021 33.0093 161.94 33.0093C162.889 33.0093 163.643 33.1387 164.225 33.4189C164.808 33.6992 165.239 34.1304 165.476 34.7126C165.713 35.23 165.821 35.8984 165.821 36.7393V41.7413ZM163.902 38.0976V37.9898H162.242C161.595 37.9898 161.078 38.0329 160.668 38.1407C160.258 38.2485 159.978 38.4425 159.849 38.7228C159.784 38.8522 159.741 39.0247 159.741 39.2187C159.741 39.4128 159.784 39.5853 159.849 39.7362C159.956 39.9733 160.172 40.1674 160.452 40.2752C160.733 40.383 161.078 40.4477 161.487 40.4477C162.048 40.4477 162.501 40.3399 162.867 40.1458C163.234 39.9518 163.514 39.6499 163.686 39.2834C163.816 38.9384 163.902 38.5503 163.902 38.0976Z" fill="white"/>
<path d="M168.084 29.4949H170.003V41.7629H168.084V29.4949Z" fill="white"/>
<path d="M176.149 29.4949H183.716V31.2198H178.154V34.6694H183.652V36.4158H178.154V40.038H183.716V41.7629H176.149V29.4949Z" fill="white"/>
<path d="M194.022 29.4949V41.7628H192.146V40.7279C191.823 41.1376 191.413 41.4394 190.939 41.655C190.464 41.8706 189.925 41.9784 189.322 41.9784C188.481 41.9784 187.769 41.7844 187.187 41.4178C186.605 41.0513 186.152 40.5339 185.85 39.8439C185.699 39.499 185.592 39.1324 185.505 38.7443C185.419 38.3562 185.376 37.925 185.376 37.4938C185.376 36.6098 185.527 35.8337 185.85 35.1222C186.152 34.4538 186.605 33.9363 187.187 33.5483C187.769 33.1602 188.481 32.9877 189.322 32.9877C189.904 32.9877 190.443 33.0955 190.917 33.2895C191.391 33.4836 191.801 33.7854 192.124 34.1735V29.4517H194.043L194.022 29.4949ZM192.124 37.2782C192.124 36.4374 191.909 35.7905 191.499 35.3378C191.09 34.885 190.529 34.6694 189.796 34.6694C189.3 34.6694 188.869 34.7772 188.502 34.9712C188.136 35.1653 187.877 35.4671 187.683 35.8768C187.489 36.308 187.403 36.8686 187.403 37.5154C187.403 38.1622 187.489 38.7012 187.683 39.1324C187.877 39.5421 188.136 39.8439 188.502 40.0595C188.869 40.2751 189.3 40.3829 189.796 40.3829C190.507 40.3829 191.068 40.1458 191.499 39.693C191.909 39.2402 192.124 38.5934 192.124 37.731V37.2782Z" fill="white"/>
<path d="M204.156 33.2464V41.7628H202.237V40.7926C201.655 41.5904 200.771 42 199.585 42C198.55 42 197.731 41.6982 197.17 41.116C196.588 40.5339 196.308 39.6715 196.308 38.5288V33.268H198.227V38.1407C198.227 38.8953 198.378 39.4559 198.701 39.8224C199.024 40.1889 199.499 40.3614 200.124 40.3614C200.814 40.3614 201.331 40.1674 201.698 39.7793C202.065 39.3912 202.237 38.809 202.237 38.0544V33.268H204.156V33.2464Z" fill="white"/>
<path d="M207.993 41.3748C207.325 40.9867 206.807 40.4261 206.484 39.7146C206.204 39.0894 206.074 38.3563 206.074 37.4939C206.074 36.6315 206.204 35.8984 206.484 35.2731C206.829 34.5401 207.325 33.9795 207.993 33.5914C208.662 33.2033 209.481 33.0093 210.408 33.0093C211.055 33.0093 211.615 33.0955 212.133 33.268C212.65 33.4405 213.081 33.6992 213.47 34.0226C213.793 34.3245 214.052 34.6694 214.224 35.0791C214.397 35.4888 214.504 35.92 214.526 36.4159H212.456C212.413 35.8768 212.241 35.4456 211.874 35.1222C211.702 34.9713 211.486 34.8635 211.227 34.7773C210.969 34.691 210.688 34.6479 210.386 34.6479C209.912 34.6479 209.502 34.7557 209.157 34.9713C208.812 35.1869 208.554 35.4672 208.381 35.8337C208.187 36.2434 208.101 36.8039 208.101 37.4939C208.101 37.8388 208.123 38.1407 208.166 38.3994C208.209 38.6581 208.273 38.8953 208.381 39.1325C208.554 39.499 208.812 39.7793 209.157 39.9949C209.502 40.1889 209.912 40.2967 210.386 40.2967C210.71 40.2967 210.99 40.2536 211.227 40.1674C211.486 40.0811 211.68 39.9733 211.853 39.8224C212.025 39.6715 212.154 39.4774 212.262 39.2618C212.37 39.0462 212.413 38.8091 212.435 38.5503H214.504C214.504 39.0247 214.397 39.4559 214.224 39.8655C214.052 40.2752 213.793 40.6202 213.47 40.922C213.081 41.2454 212.629 41.5041 212.111 41.6766C211.594 41.8491 211.012 41.9353 210.386 41.9353C209.438 41.9353 208.64 41.7413 207.972 41.3532L207.993 41.3748Z" fill="white"/>
<path d="M224.142 41.7413H222.223V40.7926C221.619 41.5688 220.627 41.9569 219.312 41.9569C218.558 41.9569 217.932 41.8275 217.393 41.5904C216.854 41.3532 216.509 40.9867 216.294 40.5124C216.143 40.1674 216.057 39.8009 216.057 39.3696C216.057 38.9384 216.121 38.5719 216.272 38.2485C216.552 37.6017 217.048 37.1705 217.76 36.9333C218.471 36.6961 219.355 36.5668 220.455 36.5668H222.223V36.3512C222.223 36.1356 222.223 35.9415 222.18 35.8122C222.137 35.6828 222.115 35.5103 222.05 35.3594C221.792 34.7988 221.21 34.5185 220.282 34.5185C219.808 34.5185 219.42 34.5832 219.118 34.7126C218.816 34.8419 218.601 35.036 218.471 35.3163C218.385 35.5319 218.342 35.7259 218.342 35.8984H216.402C216.402 35.4025 216.488 34.9929 216.639 34.6694C217.135 33.5483 218.342 33.0093 220.261 33.0093C221.21 33.0093 221.964 33.1387 222.546 33.4189C223.128 33.6992 223.56 34.1304 223.797 34.7126C224.034 35.23 224.142 35.8984 224.142 36.7393V41.7413ZM222.201 38.0976V37.9898H220.541C219.894 37.9898 219.377 38.0329 218.967 38.1407C218.558 38.2485 218.277 38.4425 218.148 38.7228C218.083 38.8522 218.04 39.0247 218.04 39.2187C218.04 39.4128 218.083 39.5853 218.148 39.7362C218.256 39.9733 218.471 40.1674 218.752 40.2752C219.032 40.383 219.377 40.4477 219.787 40.4477C220.347 40.4477 220.8 40.3399 221.166 40.1458C221.533 39.9518 221.813 39.6499 221.986 39.2834C222.115 38.9384 222.201 38.5503 222.201 38.0976Z" fill="white"/>
<path d="M227.44 41.2453C227.009 40.8141 226.815 40.1026 226.815 39.1324V34.8203H225.5V33.2464H226.815V31.1981H228.734V33.2464H231.149V34.8203H228.734V38.7875C228.734 39.3049 228.842 39.6714 229.057 39.9086C229.273 40.1458 229.596 40.2751 230.049 40.2751C230.416 40.2751 230.761 40.232 231.084 40.1458V41.7412C230.545 41.849 230.006 41.9137 229.489 41.9137C228.561 41.9137 227.893 41.6981 227.462 41.2669L227.44 41.2453Z" fill="white"/>
<path d="M233.003 31.651C232.787 31.4569 232.68 31.1982 232.68 30.8748C232.68 30.5514 232.787 30.2927 233.003 30.0771C233.219 29.883 233.499 29.7752 233.866 29.7752C234.21 29.7752 234.469 29.883 234.685 30.0771C234.9 30.2711 234.987 30.5514 234.987 30.8748C234.987 31.1982 234.879 31.4354 234.663 31.651C234.448 31.845 234.189 31.9528 233.866 31.9528C233.521 31.9528 233.24 31.845 233.025 31.651H233.003ZM232.852 33.2465H234.771V41.7629H232.852V33.2465Z" fill="white"/>
<path d="M238.631 41.3532C237.962 40.9436 237.466 40.383 237.143 39.6715C236.863 39.0462 236.712 38.3347 236.712 37.4939C236.712 36.653 236.863 35.92 237.143 35.2947C237.466 34.5832 237.962 34.0226 238.631 33.613C239.299 33.2033 240.118 33.0093 241.089 33.0093C242.059 33.0093 242.878 33.2033 243.568 33.613C244.236 34.0226 244.754 34.5832 245.077 35.2947C245.358 35.9415 245.508 36.6746 245.508 37.4939C245.508 38.3132 245.358 39.0031 245.077 39.6931C244.754 40.4046 244.258 40.9651 243.568 41.3748C242.9 41.7844 242.059 41.9785 241.089 41.9785C240.118 41.9785 239.299 41.7844 238.631 41.3748V41.3532ZM242.404 40.038C242.749 39.8224 243.029 39.5206 243.201 39.154C243.374 38.7659 243.46 38.2054 243.46 37.5154C243.46 36.8255 243.374 36.2649 243.201 35.8768C243.029 35.4887 242.77 35.1869 242.404 34.9713C242.037 34.7557 241.606 34.6479 241.089 34.6479C240.571 34.6479 240.14 34.7557 239.795 34.9713C239.45 35.1869 239.191 35.4887 239.019 35.8768C238.825 36.2865 238.738 36.8255 238.738 37.5154C238.738 38.2054 238.825 38.7228 239.019 39.154C239.191 39.5421 239.45 39.844 239.795 40.038C240.14 40.2536 240.571 40.3614 241.089 40.3614C241.606 40.3614 242.037 40.2536 242.404 40.038Z" fill="white"/>
<path d="M254.413 33.9148C254.974 34.497 255.254 35.3594 255.254 36.5021V41.7629H253.335V36.8902C253.335 36.1356 253.184 35.575 252.861 35.2085C252.538 34.8419 252.063 34.6694 251.416 34.6694C250.727 34.6694 250.209 34.8635 249.843 35.2516C249.476 35.6397 249.304 36.2218 249.304 36.9764V41.7629H247.385V33.2465H249.304V34.1951C249.886 33.3974 250.77 33.0093 251.955 33.0093C252.99 33.0093 253.81 33.3111 254.37 33.8933L254.413 33.9148Z" fill="white"/>
</svg>
