<svg width="148" height="41" viewBox="0 0 148 41" fill="none" xmlns="http://www.w3.org/2000/svg">
<g opacity="0.7">
<path d="M48.0108 22.0569H18.6567C18.3681 21.4385 18.2032 20.7582 18.2032 20.0573C18.2032 19.3565 18.3681 18.6556 18.6567 18.0578H48.0108C48.0933 16.924 48.217 15.8109 48.4231 14.7183H16.9045C15.6264 16.1407 14.8637 18.0166 14.8637 20.078C14.8637 22.1393 15.6471 24.0152 16.9045 25.4376H48.4231C48.217 24.345 48.0933 23.2319 48.0108 22.0981" fill="white"/>
<path d="M53.0202 36.7752H9.3394C5.67013 32.1989 3.46445 26.3858 3.46445 20.0573C3.46445 13.7288 5.67013 7.91573 9.3394 3.33945H52.9996C53.7829 2.16446 54.6487 1.05131 55.597 0H7.79336C3.03156 5.31838 0.125 12.3477 0.125 20.0573C0.125 27.7669 3.03156 34.7962 7.79336 40.1352H55.6176C54.6693 39.0839 53.8035 37.9708 53.0202 36.7958" fill="white"/>
<path d="M49.4336 29.416H13.9571C12.0194 26.798 10.865 23.5617 10.865 20.0573C10.865 16.5529 12.0194 13.2959 13.9777 10.678H49.4542C49.8252 9.52361 50.2787 8.41046 50.7735 7.33854H12.3698C9.33957 10.7192 7.50493 15.1718 7.50493 20.0573C7.50493 24.9428 9.33957 29.3954 12.3698 32.7761H50.7735C50.2787 31.7041 49.8252 30.5704 49.4542 29.4366" fill="white"/>
<path d="M71.1309 11.0769C70.0248 11.0769 69.0916 10.8498 68.3311 10.3955C67.5707 9.9412 67.0078 9.29434 66.6424 8.4549C66.2869 7.67472 66.1091 6.72171 66.1091 5.59587C66.1091 4.48979 66.2869 3.53184 66.6424 2.72203C67.0177 1.89247 67.5806 1.25054 68.3311 0.796259C69.0916 0.341974 70.0199 0.114832 71.1161 0.114832C71.7975 0.114832 72.4246 0.21359 72.9974 0.411105C73.5702 0.60862 74.064 0.899954 74.4788 1.28511C74.864 1.63076 75.1652 2.05048 75.3824 2.54427C75.5997 3.03805 75.7182 3.57628 75.738 4.15895H73.9455C73.906 3.4084 73.6443 2.80597 73.1604 2.35169C72.6271 1.87765 71.9259 1.64064 71.0568 1.64064C70.3853 1.64064 69.8174 1.78383 69.3533 2.07023C68.8891 2.34675 68.5385 2.74178 68.3015 3.25532C68.1731 3.56147 68.0744 3.90712 68.0052 4.29227C67.946 4.66755 67.9164 5.10209 67.9164 5.59587C67.9164 6.09954 67.946 6.54395 68.0052 6.9291C68.0645 7.30438 68.1633 7.64015 68.3015 7.93643C68.5385 8.45984 68.8891 8.85981 69.3533 9.13633C69.8174 9.41285 70.3853 9.55111 71.0568 9.55111C71.5013 9.55111 71.9062 9.49186 72.2716 9.37335C72.637 9.24496 72.9481 9.0672 73.2048 8.84006C73.6887 8.40553 73.9455 7.79323 73.9751 7.00317H75.7676C75.7577 7.59571 75.6441 8.13888 75.4269 8.63267C75.2195 9.12646 74.9232 9.55111 74.538 9.90664C74.1233 10.2918 73.6245 10.5831 73.0419 10.7806C72.4592 10.9782 71.8222 11.0769 71.1309 11.0769Z" fill="white"/>
<path d="M80.4711 11.0028C79.6416 11.0028 78.9404 10.83 78.3676 10.4844C77.7948 10.1387 77.3701 9.65975 77.0936 9.04745C76.8467 8.52403 76.7233 7.9068 76.7233 7.19575C76.7233 6.48469 76.8467 5.86252 77.0936 5.32923C77.3701 4.71693 77.7948 4.23796 78.3676 3.89231C78.9404 3.54666 79.6416 3.37383 80.4711 3.37383C81.3007 3.37383 82.0019 3.54666 82.5747 3.89231C83.1573 4.23796 83.5869 4.71693 83.8635 5.32923C84.1104 5.88227 84.2338 6.50444 84.2338 7.19575C84.2338 7.8673 84.1104 8.48947 83.8635 9.06226C83.5869 9.67456 83.1573 10.1535 82.5747 10.4992C82.0019 10.835 81.3007 11.0028 80.4711 11.0028ZM80.4711 9.62518C80.9155 9.62518 81.2859 9.5363 81.5822 9.35853C81.8883 9.1709 82.1155 8.91413 82.2636 8.58823C82.4117 8.25245 82.4858 7.78829 82.4858 7.19575C82.4858 6.59332 82.4117 6.12916 82.2636 5.80327C82.1155 5.46749 81.8883 5.21072 81.5822 5.03296C81.2859 4.85519 80.9155 4.76631 80.4711 4.76631C80.0267 4.76631 79.6564 4.85519 79.3601 5.03296C79.0638 5.21072 78.8416 5.46749 78.6935 5.80327C78.5355 6.14892 78.4565 6.61308 78.4565 7.19575C78.4565 7.76854 78.5355 8.2327 78.6935 8.58823C78.8416 8.91413 79.0638 9.1709 79.3601 9.35853C79.6564 9.5363 80.0267 9.62518 80.4711 9.62518Z" fill="white"/>
<path d="M89.3367 3.37383C90.2256 3.37383 90.9119 3.62566 91.3958 4.12932C91.8798 4.63299 92.1217 5.36873 92.1217 6.33656V10.8251H90.4922V6.66246C90.4922 6.01066 90.3589 5.53168 90.0922 5.22553C89.8256 4.91939 89.4158 4.76631 88.8627 4.76631C88.28 4.76631 87.8356 4.9342 87.5295 5.26997C87.2233 5.59587 87.0703 6.08472 87.0703 6.73652V10.8251H85.4259V3.56641H87.0703V4.38116C87.5739 3.70961 88.3294 3.37383 89.3367 3.37383Z" fill="white"/>
<path d="M96.2122 10.9436C95.4222 10.9436 94.8444 10.7609 94.479 10.3955C94.1235 10.0202 93.9457 9.41779 93.9457 8.58823V4.91445H92.8199V3.56641H93.9457V1.8184H95.5753V3.56641H97.6343V4.91445H95.5753V8.29195C95.5753 8.72649 95.6641 9.04745 95.8419 9.25484C96.0295 9.45235 96.3159 9.55111 96.7011 9.55111C97.0171 9.55111 97.3084 9.51161 97.5751 9.4326V10.7955C97.1109 10.8942 96.6566 10.9436 96.2122 10.9436Z" fill="white"/>
<path d="M99.5071 2.4702C99.2108 2.4702 98.9689 2.38626 98.7812 2.21837C98.5936 2.0406 98.4998 1.8184 98.4998 1.55175C98.4998 1.27523 98.5887 1.05303 98.7664 0.885141C98.9541 0.707378 99.201 0.618496 99.5071 0.618496C99.7935 0.618496 100.026 0.707378 100.203 0.885141C100.381 1.05303 100.47 1.27523 100.47 1.55175C100.47 1.8184 100.376 2.0406 100.189 2.21837C100.011 2.38626 99.7836 2.4702 99.5071 2.4702ZM98.6627 3.56641H100.307V10.8251H98.6627V3.56641Z" fill="white"/>
<path d="M105.756 3.37383C106.645 3.37383 107.331 3.62566 107.815 4.12932C108.299 4.63299 108.541 5.36873 108.541 6.33656V10.8251H106.912V6.66246C106.912 6.01066 106.778 5.53168 106.512 5.22553C106.245 4.91939 105.835 4.76631 105.282 4.76631C104.699 4.76631 104.255 4.9342 103.949 5.26997C103.643 5.59587 103.49 6.08472 103.49 6.73652V10.8251H101.845V3.56641H103.49V4.38116C103.993 3.70961 104.749 3.37383 105.756 3.37383Z" fill="white"/>
<path d="M114.967 9.24003C115.095 9.12152 115.199 8.97832 115.278 8.81043C115.367 8.64254 115.421 8.47466 115.441 8.30677H117.07C117.001 9.03757 116.715 9.63999 116.211 10.114C115.885 10.4004 115.49 10.6226 115.026 10.7806C114.562 10.9288 114.053 11.0028 113.5 11.0028C112.651 11.0028 111.925 10.835 111.322 10.4992C110.73 10.1634 110.295 9.68937 110.019 9.07708C109.782 8.54379 109.663 7.91174 109.663 7.18093C109.663 6.80565 109.693 6.46494 109.752 6.15879C109.811 5.85264 109.9 5.56625 110.019 5.2996C110.295 4.6873 110.72 4.21327 111.293 3.87749C111.876 3.54172 112.572 3.37383 113.382 3.37383C114.191 3.37383 114.883 3.54172 115.455 3.87749C116.038 4.21327 116.463 4.68237 116.729 5.28479C116.878 5.62056 116.976 5.97115 117.026 6.33656C117.085 6.70196 117.115 7.13649 117.115 7.64015H111.322C111.352 8.07469 111.426 8.4154 111.545 8.66229C111.693 8.99807 111.93 9.25484 112.256 9.4326C112.582 9.61037 112.987 9.69925 113.47 9.69925C113.786 9.69925 114.073 9.65975 114.33 9.58074C114.586 9.50173 114.799 9.38816 114.967 9.24003ZM113.411 4.69224C112.483 4.69224 111.861 5.04283 111.545 5.74401C111.446 5.96128 111.382 6.19336 111.352 6.44025H115.426C115.396 6.18348 115.337 5.93165 115.248 5.68476C115.09 5.35886 114.858 5.11196 114.552 4.94407C114.246 4.77619 113.865 4.69224 113.411 4.69224Z" fill="white"/>
<path d="M122.204 3.37383C123.093 3.37383 123.78 3.62566 124.264 4.12932C124.747 4.63299 124.989 5.36873 124.989 6.33656V10.8251H123.36V6.66246C123.36 6.01066 123.227 5.53168 122.96 5.22553C122.693 4.91939 122.283 4.76631 121.73 4.76631C121.148 4.76631 120.703 4.9342 120.397 5.26997C120.091 5.59587 119.938 6.08472 119.938 6.73652V10.8251H118.294V3.56641H119.938V4.38116C120.442 3.70961 121.197 3.37383 122.204 3.37383Z" fill="white"/>
<path d="M129.08 10.9436C128.29 10.9436 127.712 10.7609 127.347 10.3955C126.991 10.0202 126.813 9.41779 126.813 8.58823V4.91445H125.688V3.56641H126.813V1.8184H128.443V3.56641H130.502V4.91445H128.443V8.29195C128.443 8.72649 128.532 9.04745 128.71 9.25484C128.897 9.45235 129.184 9.55111 129.569 9.55111C129.885 9.55111 130.176 9.51161 130.443 9.4326V10.7955C129.979 10.8942 129.524 10.9436 129.08 10.9436Z" fill="white"/>
<path d="M137.724 4.84038C137.921 5.27491 138.02 5.85264 138.02 6.57357V10.8251H136.376V10.0103C135.852 10.672 135.023 11.0028 133.887 11.0028C133.245 11.0028 132.702 10.8992 132.258 10.6918C131.813 10.4844 131.502 10.1782 131.324 9.77332C131.196 9.48692 131.132 9.16102 131.132 8.79562C131.132 8.43021 131.191 8.11419 131.31 7.84755C131.557 7.30438 131.976 6.93404 132.569 6.73652C133.161 6.52913 133.927 6.42544 134.865 6.42544H136.376V6.23286C136.376 6.04522 136.366 5.89215 136.346 5.77364C136.327 5.64525 136.287 5.51687 136.228 5.38848C136.011 4.91445 135.507 4.67743 134.717 4.67743C134.312 4.67743 133.981 4.73175 133.724 4.84038C133.467 4.94901 133.285 5.12184 133.176 5.35886C133.107 5.53662 133.072 5.69957 133.072 5.84771H131.413C131.413 5.43292 131.482 5.08233 131.621 4.79594C132.045 3.84787 133.072 3.37383 134.702 3.37383C135.502 3.37383 136.149 3.49234 136.643 3.72936C137.146 3.96638 137.507 4.33672 137.724 4.84038ZM136.198 8.70674C136.317 8.42034 136.376 8.08456 136.376 7.69941V7.61053H134.969C134.425 7.61053 133.976 7.65497 133.621 7.74385C133.265 7.83273 133.033 7.99568 132.924 8.2327C132.865 8.35121 132.835 8.48947 132.835 8.64748C132.835 8.80549 132.865 8.95363 132.924 9.09189C133.023 9.29928 133.196 9.45235 133.443 9.55111C133.69 9.64987 133.981 9.69925 134.317 9.69925C134.791 9.69925 135.186 9.6153 135.502 9.44742C135.818 9.27953 136.05 9.03263 136.198 8.70674Z" fill="white"/>
<path d="M139.501 0.366664H141.146V10.8251H139.501V0.366664Z" fill="white"/>
<path d="M66.4202 14.4382H68.1237V24.8967H66.4202V14.4382Z" fill="white"/>
<path d="M73.6985 17.4454C74.5873 17.4454 75.2737 17.6972 75.7576 18.2009C76.2415 18.7046 76.4835 19.4403 76.4835 20.4081V24.8967H74.854V20.734C74.854 20.0822 74.7207 19.6033 74.454 19.2971C74.1874 18.991 73.7775 18.8379 73.2245 18.8379C72.6418 18.8379 72.1974 19.0058 71.8913 19.3416C71.5851 19.6675 71.432 20.1563 71.432 20.8081V24.8967H69.7877V17.638H71.432V18.4527C71.9357 17.7812 72.6912 17.4454 73.6985 17.4454Z" fill="white"/>
<path d="M80.574 25.0152C79.784 25.0152 79.2062 24.8325 78.8408 24.4671C78.4853 24.0918 78.3075 23.4894 78.3075 22.6598V18.986H77.1817V17.638H78.3075V15.89H79.937V17.638H81.9961V18.986H79.937V22.3635C79.937 22.7981 80.0259 23.119 80.2037 23.3264C80.3913 23.5239 80.6777 23.6227 81.0629 23.6227C81.3789 23.6227 81.6702 23.5832 81.9369 23.5042V24.867C81.4727 24.9658 81.0184 25.0152 80.574 25.0152Z" fill="white"/>
<path d="M87.8565 23.3116C87.9849 23.1931 88.0886 23.0499 88.1676 22.882C88.2565 22.7141 88.3108 22.5462 88.3306 22.3783H89.9601C89.8909 23.1092 89.6045 23.7116 89.1009 24.1856C88.775 24.472 88.38 24.6942 87.9158 24.8522C87.4516 25.0004 86.943 25.0744 86.39 25.0744C85.5407 25.0744 84.8148 24.9065 84.2124 24.5708C83.6198 24.235 83.1853 23.761 82.9088 23.1487C82.6718 22.6154 82.5533 21.9833 82.5533 21.2525C82.5533 20.8772 82.5829 20.5365 82.6421 20.2304C82.7014 19.9242 82.7903 19.6378 82.9088 19.3712C83.1853 18.7589 83.61 18.2848 84.1828 17.9491C84.7654 17.6133 85.4617 17.4454 86.2715 17.4454C87.0813 17.4454 87.7726 17.6133 88.3454 17.9491C88.9281 18.2848 89.3527 18.7539 89.6194 19.3564C89.7675 19.6921 89.8663 20.0427 89.9156 20.4081C89.9749 20.7735 90.0045 21.2081 90.0045 21.7117H84.2124C84.242 22.1463 84.3161 22.487 84.4346 22.7339C84.5827 23.0697 84.8197 23.3264 85.1456 23.5042C85.4715 23.6819 85.8764 23.7708 86.3604 23.7708C86.6764 23.7708 86.9628 23.7313 87.2196 23.6523C87.4763 23.5733 87.6887 23.4597 87.8565 23.3116ZM86.3011 18.7638C85.3728 18.7638 84.7506 19.1144 84.4346 19.8156C84.3358 20.0329 84.2716 20.2649 84.242 20.5118H88.3158C88.2861 20.2551 88.2269 20.0032 88.138 19.7563C87.98 19.4304 87.7479 19.1835 87.4418 19.0157C87.1356 18.8478 86.7554 18.7638 86.3011 18.7638Z" fill="white"/>
<path d="M94.7389 17.5343C95.0253 17.5343 95.2721 17.5639 95.4795 17.6232V19.0749C95.2623 19.0255 95.0154 19.0008 94.7389 19.0008C94.1068 19.0008 93.6278 19.1934 93.3019 19.5786C92.9859 19.9538 92.8279 20.502 92.8279 21.2229V24.8967H91.1836V17.638H92.8131V18.4824C93.2377 17.8503 93.8797 17.5343 94.7389 17.5343Z" fill="white"/>
<path d="M100.36 17.4454C101.249 17.4454 101.935 17.6972 102.419 18.2009C102.903 18.7046 103.145 19.4403 103.145 20.4081V24.8967H101.516V20.734C101.516 20.0822 101.382 19.6033 101.116 19.2971C100.849 18.991 100.439 18.8379 99.8861 18.8379C99.3035 18.8379 98.8591 19.0058 98.5529 19.3416C98.2468 19.6675 98.0937 20.1563 98.0937 20.8081V24.8967H96.4494V17.638H98.0937V18.4527C98.5973 17.7812 99.3528 17.4454 100.36 17.4454Z" fill="white"/>
<path d="M110.874 18.912C111.072 19.3465 111.171 19.9242 111.171 20.6452V24.8967H109.526V24.0819C109.003 24.7436 108.173 25.0744 107.038 25.0744C106.396 25.0744 105.852 24.9707 105.408 24.7633C104.964 24.556 104.653 24.2498 104.475 23.8449C104.346 23.5585 104.282 23.2326 104.282 22.8672C104.282 22.5018 104.341 22.1858 104.46 21.9191C104.707 21.376 105.127 21.0056 105.719 20.8081C106.312 20.6007 107.077 20.497 108.015 20.497H109.526V20.3044C109.526 20.1168 109.516 19.9637 109.497 19.8452C109.477 19.7168 109.437 19.5884 109.378 19.4601C109.161 18.986 108.657 18.749 107.867 18.749C107.462 18.749 107.131 18.8033 106.875 18.912C106.618 19.0206 106.435 19.1934 106.326 19.4304C106.257 19.6082 106.223 19.7711 106.223 19.9193H104.564C104.564 19.5045 104.633 19.1539 104.771 18.8675C105.196 17.9194 106.223 17.4454 107.852 17.4454C108.652 17.4454 109.299 17.5639 109.793 17.8009C110.297 18.038 110.657 18.4083 110.874 18.912ZM109.348 22.7783C109.467 22.4919 109.526 22.1561 109.526 21.771V21.6821H108.119C107.576 21.6821 107.126 21.7265 106.771 21.8154C106.415 21.9043 106.183 22.0673 106.075 22.3043C106.015 22.4228 105.986 22.561 105.986 22.7191C105.986 22.8771 106.015 23.0252 106.075 23.1635C106.173 23.3709 106.346 23.5239 106.593 23.6227C106.84 23.7214 107.131 23.7708 107.467 23.7708C107.941 23.7708 108.336 23.6869 108.652 23.519C108.968 23.3511 109.2 23.1042 109.348 22.7783Z" fill="white"/>
<path d="M115.279 25.0152C114.489 25.0152 113.911 24.8325 113.546 24.4671C113.19 24.0918 113.013 23.4894 113.013 22.6598V18.986H111.887V17.638H113.013V15.89H114.642V17.638H116.701V18.986H114.642V22.3635C114.642 22.7981 114.731 23.119 114.909 23.3264C115.096 23.5239 115.383 23.6227 115.768 23.6227C116.084 23.6227 116.375 23.5832 116.642 23.5042V24.867C116.178 24.9658 115.723 25.0152 115.279 25.0152Z" fill="white"/>
<path d="M118.574 16.5418C118.278 16.5418 118.036 16.4578 117.848 16.2899C117.66 16.1122 117.567 15.89 117.567 15.6233C117.567 15.3468 117.655 15.1246 117.833 14.9567C118.021 14.779 118.268 14.6901 118.574 14.6901C118.86 14.6901 119.092 14.779 119.27 14.9567C119.448 15.1246 119.537 15.3468 119.537 15.6233C119.537 15.89 119.443 16.1122 119.255 16.2899C119.078 16.4578 118.85 16.5418 118.574 16.5418ZM117.729 17.638H119.374V24.8967H117.729V17.638Z" fill="white"/>
<path d="M124.304 25.0744C123.475 25.0744 122.774 24.9016 122.201 24.556C121.628 24.2103 121.203 23.7313 120.927 23.119C120.68 22.5956 120.557 21.9784 120.557 21.2673C120.557 20.5563 120.68 19.9341 120.927 19.4008C121.203 18.7885 121.628 18.3095 122.201 17.9639C122.774 17.6182 123.475 17.4454 124.304 17.4454C125.134 17.4454 125.835 17.6182 126.408 17.9639C126.991 18.3095 127.42 18.7885 127.697 19.4008C127.944 19.9538 128.067 20.576 128.067 21.2673C128.067 21.9389 127.944 22.561 127.697 23.1338C127.42 23.7461 126.991 24.2251 126.408 24.5708C125.835 24.9065 125.134 25.0744 124.304 25.0744ZM124.304 23.6968C124.749 23.6968 125.119 23.6079 125.415 23.4301C125.722 23.2425 125.949 22.9857 126.097 22.6598C126.245 22.324 126.319 21.8599 126.319 21.2673C126.319 20.6649 126.245 20.2007 126.097 19.8748C125.949 19.5391 125.722 19.2823 125.415 19.1045C125.119 18.9268 124.749 18.8379 124.304 18.8379C123.86 18.8379 123.49 18.9268 123.193 19.1045C122.897 19.2823 122.675 19.5391 122.527 19.8748C122.369 20.2205 122.29 20.6847 122.29 21.2673C122.29 21.8401 122.369 22.3043 122.527 22.6598C122.675 22.9857 122.897 23.2425 123.193 23.4301C123.49 23.6079 123.86 23.6968 124.304 23.6968Z" fill="white"/>
<path d="M133.17 17.4454C134.059 17.4454 134.745 17.6972 135.229 18.2009C135.713 18.7046 135.955 19.4403 135.955 20.4081V24.8967H134.325V20.734C134.325 20.0822 134.192 19.6033 133.926 19.2971C133.659 18.991 133.249 18.8379 132.696 18.8379C132.113 18.8379 131.669 19.0058 131.363 19.3416C131.057 19.6675 130.904 20.1563 130.904 20.8081V24.8967H129.259V17.638H130.904V18.4527C131.407 17.7812 132.163 17.4454 133.17 17.4454Z" fill="white"/>
<path d="M143.684 18.912C143.882 19.3465 143.98 19.9242 143.98 20.6452V24.8967H142.336V24.0819C141.813 24.7436 140.983 25.0744 139.847 25.0744C139.205 25.0744 138.662 24.9707 138.218 24.7633C137.773 24.556 137.462 24.2498 137.285 23.8449C137.156 23.5585 137.092 23.2326 137.092 22.8672C137.092 22.5018 137.151 22.1858 137.27 21.9191C137.517 21.376 137.936 21.0056 138.529 20.8081C139.122 20.6007 139.887 20.497 140.825 20.497H142.336V20.3044C142.336 20.1168 142.326 19.9637 142.306 19.8452C142.287 19.7168 142.247 19.5884 142.188 19.4601C141.971 18.986 141.467 18.749 140.677 18.749C140.272 18.749 139.941 18.8033 139.684 18.912C139.428 19.0206 139.245 19.1934 139.136 19.4304C139.067 19.6082 139.033 19.7711 139.033 19.9193H137.374C137.374 19.5045 137.443 19.1539 137.581 18.8675C138.006 17.9194 139.033 17.4454 140.662 17.4454C141.462 17.4454 142.109 17.5639 142.603 17.8009C143.106 18.038 143.467 18.4083 143.684 18.912ZM142.158 22.7783C142.277 22.4919 142.336 22.1561 142.336 21.771V21.6821H140.929C140.386 21.6821 139.936 21.7265 139.581 21.8154C139.225 21.9043 138.993 22.0673 138.885 22.3043C138.825 22.4228 138.796 22.561 138.796 22.7191C138.796 22.8771 138.825 23.0252 138.885 23.1635C138.983 23.3709 139.156 23.5239 139.403 23.6227C139.65 23.7214 139.941 23.7708 140.277 23.7708C140.751 23.7708 141.146 23.6869 141.462 23.519C141.778 23.3511 142.01 23.1042 142.158 22.7783Z" fill="white"/>
<path d="M145.462 14.4382H147.106V24.8967H145.462V14.4382Z" fill="white"/>
<path d="M70.331 39.8901C68.9484 39.8901 67.9312 39.5889 67.2794 38.9865C66.6276 38.3841 66.3017 37.4459 66.3017 36.1719V29.1799H68.0052V36.0386C68.0052 36.8287 68.1879 37.4163 68.5533 37.8014C68.9286 38.1767 69.5212 38.3643 70.331 38.3643C71.1309 38.3643 71.7185 38.1767 72.0938 37.8014C72.4691 37.4163 72.6567 36.8287 72.6567 36.0386V29.1799H74.3603V36.1719C74.3603 37.4459 74.0344 38.3841 73.3826 38.9865C72.7407 39.5889 71.7235 39.8901 70.331 39.8901Z" fill="white"/>
<path d="M79.8323 32.1871C80.7211 32.1871 81.4075 32.4389 81.8914 32.9426C82.3753 33.4462 82.6173 34.182 82.6173 35.1498V39.6383H80.9878V35.4757C80.9878 34.8239 80.8544 34.3449 80.5878 34.0388C80.3211 33.7326 79.9113 33.5795 79.3583 33.5795C78.7756 33.5795 78.3312 33.7474 78.025 34.0832C77.7189 34.4091 77.5658 34.898 77.5658 35.5498V39.6383H75.9215V32.3796H77.5658V33.1944C78.0695 32.5228 78.825 32.1871 79.8323 32.1871Z" fill="white"/>
<path d="M84.9394 31.2834C84.6431 31.2834 84.4012 31.1995 84.2135 31.0316C84.0259 30.8538 83.9321 30.6316 83.9321 30.365C83.9321 30.0885 84.021 29.8663 84.1987 29.6984C84.3864 29.5206 84.6333 29.4317 84.9394 29.4317C85.2258 29.4317 85.4579 29.5206 85.6357 29.6984C85.8134 29.8663 85.9023 30.0885 85.9023 30.365C85.9023 30.6316 85.8085 30.8538 85.6208 31.0316C85.4431 31.1995 85.2159 31.2834 84.9394 31.2834ZM84.095 32.3796H85.7393V39.6383H84.095V32.3796Z" fill="white"/>
<path d="M86.5518 32.3796H88.3294L90.3144 37.7866L92.2847 32.3796H94.0623L91.2329 39.6383H89.396L86.5518 32.3796Z" fill="white"/>
<path d="M99.502 38.0533C99.6304 37.9347 99.7341 37.7916 99.8131 37.6237C99.902 37.4558 99.9563 37.2879 99.9761 37.12H101.606C101.536 37.8508 101.25 38.4532 100.746 38.9273C100.42 39.2137 100.025 39.4359 99.5613 39.5939C99.0971 39.742 98.5885 39.8161 98.0355 39.8161C97.1862 39.8161 96.4603 39.6482 95.8579 39.3124C95.2653 38.9766 94.8308 38.5026 94.5543 37.8903C94.3172 37.357 94.1987 36.725 94.1987 35.9942C94.1987 35.6189 94.2284 35.2782 94.2876 34.972C94.3469 34.6659 94.4358 34.3795 94.5543 34.1128C94.8308 33.5005 95.2554 33.0265 95.8282 32.6907C96.4109 32.3549 97.1071 32.1871 97.917 32.1871C98.7268 32.1871 99.4181 32.3549 99.9909 32.6907C100.574 33.0265 100.998 33.4956 101.265 34.098C101.413 34.4338 101.512 34.7844 101.561 35.1498C101.62 35.5152 101.65 35.9497 101.65 36.4534H95.8579C95.8875 36.8879 95.9616 37.2286 96.0801 37.4755C96.2282 37.8113 96.4652 38.0681 96.7911 38.2458C97.117 38.4236 97.5219 38.5125 98.0058 38.5125C98.3219 38.5125 98.6083 38.473 98.865 38.394C99.1218 38.315 99.3341 38.2014 99.502 38.0533ZM97.9466 33.5055C97.0183 33.5055 96.3961 33.8561 96.0801 34.5572C95.9813 34.7745 95.9171 35.0066 95.8875 35.2535H99.9612C99.9316 34.9967 99.8724 34.7449 99.7835 34.498C99.6255 34.1721 99.3934 33.9252 99.0872 33.7573C98.7811 33.5894 98.4009 33.5055 97.9466 33.5055Z" fill="white"/>
<path d="M106.384 32.2759C106.671 32.2759 106.918 32.3056 107.125 32.3648V33.8166C106.908 33.7672 106.661 33.7425 106.384 33.7425C105.752 33.7425 105.273 33.9351 104.947 34.3202C104.631 34.6955 104.473 35.2436 104.473 35.9645V39.6383H102.829V32.3796H104.459V33.224C104.883 32.592 105.525 32.2759 106.384 32.2759Z" fill="white"/>
<path d="M110.705 39.8605C109.974 39.8605 109.362 39.742 108.868 39.505C108.384 39.268 108.034 38.9124 107.817 38.4384C107.658 38.0928 107.579 37.6879 107.579 37.2237H109.179C109.179 37.5002 109.229 37.7323 109.327 37.9199C109.545 38.394 110.014 38.631 110.735 38.631C111.456 38.631 111.9 38.4434 112.068 38.0681C112.117 37.9397 112.142 37.8162 112.142 37.6977C112.142 37.5595 112.117 37.4311 112.068 37.3126C111.999 37.1644 111.885 37.0459 111.727 36.9571C111.579 36.8682 111.392 36.7941 111.164 36.7348C110.947 36.6657 110.636 36.5916 110.231 36.5126C109.678 36.3843 109.209 36.2164 108.824 36.009C108.439 35.7917 108.162 35.4954 107.994 35.1202C107.896 34.893 107.846 34.6264 107.846 34.3202C107.846 33.9943 107.905 33.7079 108.024 33.461C108.212 33.0561 108.537 32.745 109.002 32.5278C109.466 32.3006 110.024 32.1871 110.676 32.1871C111.337 32.1871 111.895 32.2957 112.349 32.513C112.814 32.7302 113.149 33.0512 113.357 33.4758C113.485 33.7721 113.549 34.1276 113.549 34.5424H111.994C111.994 34.3252 111.954 34.1227 111.875 33.9351C111.777 33.7376 111.619 33.5894 111.401 33.4907C111.194 33.382 110.942 33.3277 110.646 33.3277C110.043 33.3277 109.663 33.4907 109.505 33.8166C109.466 33.9054 109.446 34.019 109.446 34.1573C109.446 34.2857 109.466 34.3844 109.505 34.4535C109.574 34.6116 109.698 34.7399 109.876 34.8387C110.053 34.9375 110.241 35.0165 110.439 35.0757C110.646 35.1251 110.947 35.1942 111.342 35.2831C111.954 35.4411 112.453 35.6288 112.838 35.846C113.233 36.0534 113.52 36.3448 113.698 36.72C113.796 36.9472 113.846 37.2188 113.846 37.5348C113.846 37.8804 113.786 38.2014 113.668 38.4977C113.461 38.9421 113.09 39.2828 112.557 39.5198C112.033 39.7469 111.416 39.8605 110.705 39.8605Z" fill="white"/>
<path d="M115.84 31.2834C115.543 31.2834 115.301 31.1995 115.114 31.0316C114.926 30.8538 114.832 30.6316 114.832 30.365C114.832 30.0885 114.921 29.8663 115.099 29.6984C115.287 29.5206 115.534 29.4317 115.84 29.4317C116.126 29.4317 116.358 29.5206 116.536 29.6984C116.714 29.8663 116.803 30.0885 116.803 30.365C116.803 30.6316 116.709 30.8538 116.521 31.0316C116.343 31.1995 116.116 31.2834 115.84 31.2834ZM114.995 32.3796H116.64V39.6383H114.995V32.3796Z" fill="white"/>
<path d="M120.993 39.7568C120.203 39.7568 119.625 39.5741 119.26 39.2087C118.905 38.8334 118.727 38.231 118.727 37.4015V33.7277H117.601V32.3796H118.727V30.6316H120.356V32.3796H122.415V33.7277H120.356V37.1052C120.356 37.5397 120.445 37.8607 120.623 38.0681C120.811 38.2656 121.097 38.3643 121.482 38.3643C121.798 38.3643 122.089 38.3248 122.356 38.2458V39.6087C121.892 39.7074 121.438 39.7568 120.993 39.7568Z" fill="white"/>
<path d="M124.288 31.2834C123.992 31.2834 123.75 31.1995 123.562 31.0316C123.375 30.8538 123.281 30.6316 123.281 30.365C123.281 30.0885 123.37 29.8663 123.547 29.6984C123.735 29.5206 123.982 29.4317 124.288 29.4317C124.575 29.4317 124.807 29.5206 124.984 29.6984C125.162 29.8663 125.251 30.0885 125.251 30.365C125.251 30.6316 125.157 30.8538 124.97 31.0316C124.792 31.1995 124.565 31.2834 124.288 31.2834ZM123.444 32.3796H125.088V39.6383H123.444V32.3796Z" fill="white"/>
<path d="M131.574 38.0533C131.702 37.9347 131.806 37.7916 131.885 37.6237C131.974 37.4558 132.028 37.2879 132.048 37.12H133.678C133.609 37.8508 133.322 38.4532 132.818 38.9273C132.493 39.2137 132.098 39.4359 131.633 39.5939C131.169 39.742 130.661 39.8161 130.108 39.8161C129.258 39.8161 128.532 39.6482 127.93 39.3124C127.337 38.9766 126.903 38.5026 126.626 37.8903C126.389 37.357 126.271 36.725 126.271 35.9942C126.271 35.6189 126.3 35.2782 126.36 34.972C126.419 34.6659 126.508 34.3795 126.626 34.1128C126.903 33.5005 127.328 33.0265 127.9 32.6907C128.483 32.3549 129.179 32.1871 129.989 32.1871C130.799 32.1871 131.49 32.3549 132.063 32.6907C132.646 33.0265 133.07 33.4956 133.337 34.098C133.485 34.4338 133.584 34.7844 133.633 35.1498C133.692 35.5152 133.722 35.9497 133.722 36.4534H127.93C127.96 36.8879 128.034 37.2286 128.152 37.4755C128.3 37.8113 128.537 38.0681 128.863 38.2458C129.189 38.4236 129.594 38.5125 130.078 38.5125C130.394 38.5125 130.68 38.473 130.937 38.394C131.194 38.315 131.406 38.2014 131.574 38.0533ZM130.019 33.5055C129.09 33.5055 128.468 33.8561 128.152 34.5572C128.053 34.7745 127.989 35.0066 127.96 35.2535H132.033C132.004 34.9967 131.944 34.7449 131.856 34.498C131.698 34.1721 131.465 33.9252 131.159 33.7573C130.853 33.5894 130.473 33.5055 130.019 33.5055Z" fill="white"/>
<path d="M137.642 39.8605C136.911 39.8605 136.299 39.742 135.805 39.505C135.321 39.268 134.97 38.9124 134.753 38.4384C134.595 38.0928 134.516 37.6879 134.516 37.2237H136.116C136.116 37.5002 136.165 37.7323 136.264 37.9199C136.481 38.394 136.95 38.631 137.671 38.631C138.392 38.631 138.837 38.4434 139.005 38.0681C139.054 37.9397 139.079 37.8162 139.079 37.6977C139.079 37.5595 139.054 37.4311 139.005 37.3126C138.935 37.1644 138.822 37.0459 138.664 36.9571C138.516 36.8682 138.328 36.7941 138.101 36.7348C137.884 36.6657 137.573 36.5916 137.168 36.5126C136.615 36.3843 136.145 36.2164 135.76 36.009C135.375 35.7917 135.099 35.4954 134.931 35.1202C134.832 34.893 134.783 34.6264 134.783 34.3202C134.783 33.9943 134.842 33.7079 134.96 33.461C135.148 33.0561 135.474 32.745 135.938 32.5278C136.402 32.3006 136.96 32.1871 137.612 32.1871C138.274 32.1871 138.832 32.2957 139.286 32.513C139.75 32.7302 140.086 33.0512 140.293 33.4758C140.422 33.7721 140.486 34.1276 140.486 34.5424H138.93C138.93 34.3252 138.891 34.1227 138.812 33.9351C138.713 33.7376 138.555 33.5894 138.338 33.4907C138.131 33.382 137.879 33.3277 137.582 33.3277C136.98 33.3277 136.6 33.4907 136.442 33.8166C136.402 33.9054 136.383 34.019 136.383 34.1573C136.383 34.2857 136.402 34.3844 136.442 34.4535C136.511 34.6116 136.634 34.7399 136.812 34.8387C136.99 34.9375 137.178 35.0165 137.375 35.0757C137.582 35.1251 137.884 35.1942 138.279 35.2831C138.891 35.4411 139.39 35.6288 139.775 35.846C140.17 36.0534 140.456 36.3448 140.634 36.72C140.733 36.9472 140.782 37.2188 140.782 37.5348C140.782 37.8804 140.723 38.2014 140.604 38.4977C140.397 38.9421 140.027 39.2828 139.493 39.5198C138.97 39.7469 138.353 39.8605 137.642 39.8605Z" fill="white"/>
</g>
</svg>
