<svg width="190" height="40" viewBox="0 0 190 40" fill="none" xmlns="http://www.w3.org/2000/svg">
<g opacity="0.7">
<path d="M47.1063 21.9497H18.2327C17.9377 21.3336 17.7845 20.6591 17.7845 19.976C17.7845 19.2929 17.9377 18.6185 18.2327 18.0023H47.1063C47.1791 16.886 47.3126 15.7893 47.5067 14.7121H16.5097C15.2136 16.1591 14.4972 18.0335 14.4976 19.976C14.4976 21.9983 15.258 23.8425 16.5097 25.2399H47.5067C47.3134 24.1513 47.1797 23.0529 47.1063 21.9497Z" fill="white"/>
<path d="M52.0203 36.4259H9.06777C5.3208 31.7624 3.28206 25.9573 3.29021 19.975C3.29021 13.7506 5.45604 8.03166 9.06777 3.5261H52.0203C52.7968 2.36668 53.6482 1.26995 54.5744 0.235915H7.543C2.67955 5.65971 -0.00699144 12.6901 1.36648e-05 19.975C1.36648e-05 27.5604 2.85341 34.4765 7.543 39.7161H54.5744C53.6486 38.6792 52.7953 37.5799 52.0203 36.4259Z" fill="white"/>
<path d="M48.5015 29.188H13.6117C11.6272 26.5274 10.5574 23.2958 10.5622 19.9767C10.5569 16.6533 11.629 13.4178 13.6178 10.7552H48.5036C48.8733 9.6341 49.3081 8.5355 49.8059 7.46504H12.0425C8.95613 10.9009 7.25163 15.3581 7.25782 19.9767C7.25782 24.7795 9.06571 29.1597 12.0344 32.4781H49.8018C49.3002 31.4096 48.866 30.3107 48.5015 29.188Z" fill="white"/>
<path d="M68.6229 38.8817C67.4037 38.1577 66.4494 37.061 65.901 35.7533C65.328 34.4955 65.0415 32.9592 65.0415 31.1446C65.0415 29.361 65.328 27.8167 65.901 26.5117C66.4676 25.2179 67.4233 24.1329 68.6351 23.4075C69.8525 22.6755 71.3449 22.3094 73.1123 22.3094C74.2097 22.3094 75.2209 22.4685 76.1457 22.7867C77.0679 23.1049 77.8639 23.5747 78.534 24.1962C79.1541 24.753 79.6395 25.4291 79.99 26.2245C80.3405 27.0213 80.532 27.8888 80.5643 28.8271H77.6745C77.6098 27.6178 77.1878 26.6471 76.4086 25.9151C75.5485 25.1507 74.418 24.7685 73.0173 24.7685C71.9347 24.7685 71.0193 24.9956 70.2711 25.45C69.5242 25.903 68.9586 26.5433 68.5744 27.3711C68.3559 27.9048 68.1999 28.4619 68.1093 29.0314C68.0004 29.7304 67.949 30.4372 67.9556 31.1446C67.9556 31.9562 68.0028 32.6687 68.0972 33.2821C68.1915 33.8955 68.3506 34.4409 68.5744 34.9181C68.9586 35.7621 69.5242 36.4065 70.2711 36.8514C71.0193 37.2976 71.9347 37.5207 73.0173 37.5207C73.7332 37.5207 74.3857 37.421 74.9748 37.2214C75.564 37.0233 76.0655 36.7408 76.4794 36.3741C77.2613 35.6744 77.6752 34.6876 77.721 33.4136H80.6108C80.6063 34.3159 80.4242 35.2085 80.0749 36.0405C79.7312 36.8359 79.2492 37.5201 78.629 38.093C77.9603 38.7145 77.1562 39.1844 76.2165 39.5025C75.2231 39.83 74.1825 39.9913 73.1366 39.9798C71.353 39.9798 69.8484 39.6138 68.6229 38.8817Z" fill="white"/>
<path d="M90.3623 37.1973C90.8476 36.9034 91.2096 36.4936 91.4482 35.9678C91.6869 35.4258 91.8062 34.6776 91.8062 33.7231C91.8062 32.7524 91.6869 32.0042 91.4482 31.4784C91.2289 30.9587 90.8481 30.5234 90.3623 30.2367C89.877 29.9496 89.2757 29.806 88.5585 29.806C87.8426 29.806 87.246 29.9496 86.7688 30.2367C86.2867 30.5251 85.9097 30.9602 85.6929 31.4784C85.4381 32.0352 85.3107 32.7834 85.3107 33.7231C85.3107 34.6466 85.4381 35.3948 85.6929 35.9678C85.9329 36.4936 86.2915 36.9034 86.7688 37.1973C87.246 37.4925 87.8426 37.6402 88.5585 37.6402C89.2757 37.6402 89.877 37.4925 90.3623 37.1973ZM85.1692 39.0234C84.259 38.4854 83.5405 37.6756 83.1146 36.7079C82.7169 35.8653 82.518 34.8704 82.518 33.7231C82.518 32.5771 82.7169 31.5741 83.1146 30.714C83.5595 29.7271 84.2443 28.9546 85.1692 28.3965C86.0913 27.8397 87.2211 27.5613 88.5585 27.5613C89.8972 27.5613 91.0317 27.8397 91.9619 28.3965C92.8935 28.9546 93.5824 29.7271 94.0286 30.714C94.4263 31.6051 94.6252 32.6082 94.6252 33.7231C94.6252 34.8057 94.4263 35.8087 94.0286 36.7322C93.6009 37.6994 92.8773 38.5059 91.9619 39.0355C91.0317 39.5856 89.8972 39.8606 88.5585 39.8606C87.2211 39.8606 86.0913 39.5815 85.1692 39.0234Z" fill="white"/>
<path d="M106.318 28.781C107.097 29.594 107.487 30.7804 107.487 32.3402V39.5758H104.862V32.8639C104.862 31.8137 104.647 31.0419 104.217 30.5485C103.786 30.0551 103.125 29.8083 102.235 29.8083C101.296 29.8083 100.579 30.0746 100.086 30.6071C99.5921 31.141 99.3454 31.933 99.3454 32.9833V39.5758H96.6943V27.8731H99.3454V29.1875C100.157 28.1049 101.375 27.5637 103 27.5637C104.431 27.5637 105.538 27.9694 106.318 28.781Z" fill="white"/>
<path d="M111.819 38.87C111.239 38.2741 110.948 37.3068 110.947 35.9681V30.047H109.133V27.873H110.947V23.1208H113.574V27.873H116.894V30.047H113.574V35.4908C113.574 36.1905 113.721 36.7042 114.015 37.0318C114.309 37.358 114.767 37.5212 115.39 37.5212C115.898 37.5212 116.367 37.4571 116.797 37.329V39.5272C116.075 39.6822 115.339 39.7622 114.601 39.7658C113.327 39.7658 112.4 39.4672 111.819 38.87Z" fill="white"/>
<path fill-rule="evenodd" clip-rule="evenodd" d="M119.321 27.8726H121.972V39.5737H119.321V27.8726Z" fill="white"/>
<path d="M134.387 28.781C135.166 29.594 135.556 30.7804 135.556 32.3402V39.5758H132.931V32.8639C132.931 31.8137 132.716 31.0419 132.286 30.5485C131.856 30.0551 131.195 29.8083 130.304 29.8083C129.364 29.8083 128.648 30.0746 128.154 30.6071C127.661 31.141 127.414 31.933 127.414 32.9833V39.5758H124.763V27.8731H127.414V29.1875C128.224 28.1049 129.442 27.5637 131.068 27.5637C132.5 27.5637 133.606 27.9694 134.387 28.781Z" fill="white"/>
<path d="M140.716 31.3832C140.557 31.7337 140.454 32.1078 140.407 32.5055H146.973C146.925 32.0901 146.828 31.6816 146.686 31.2881C146.449 30.7803 146.056 30.3616 145.564 30.093C145.07 29.8234 144.458 29.6886 143.726 29.6886C142.229 29.6886 141.226 30.2534 140.716 31.3832ZM146.747 36.3256C146.877 36.0721 146.962 35.7976 146.998 35.5146H149.624C149.513 36.6929 149.051 37.6643 148.239 38.4287C147.713 38.8898 147.076 39.2436 146.328 39.4904C145.58 39.7371 144.76 39.8604 143.869 39.8604C142.499 39.8604 141.333 39.5901 140.371 39.0495C139.433 38.5384 138.69 37.7323 138.257 36.7563C137.875 35.8975 137.683 34.8783 137.683 33.6987C137.683 33.0947 137.731 32.546 137.827 32.0526C137.914 31.5752 138.059 31.1102 138.257 30.6673C138.702 29.6805 139.391 28.9161 140.322 28.3741C141.255 27.8348 142.373 27.5645 143.677 27.5632C144.983 27.5632 146.102 27.8335 147.034 28.3741C147.964 28.9161 148.644 29.6724 149.074 30.643C149.313 31.185 149.476 31.7499 149.564 32.3377C149.651 32.9282 149.695 33.6292 149.695 34.4408H140.359C140.407 35.1419 140.526 35.6906 140.716 36.0869C140.955 36.6289 141.337 37.0428 141.863 37.3286C142.389 37.6157 143.041 37.7593 143.821 37.7593C144.33 37.7593 144.792 37.6953 145.206 37.5672C145.62 37.4418 145.962 37.2592 146.233 37.0192C146.439 36.8277 146.611 36.5965 146.747 36.3256Z" fill="white"/>
<path d="M161.566 28.781C162.345 29.594 162.735 30.7804 162.735 32.3402V39.5758H160.11V32.8639C160.11 31.8137 159.895 31.0419 159.465 30.5485C159.035 30.0551 158.374 29.8083 157.483 29.8083C156.543 29.8083 155.827 30.0746 155.333 30.6071C154.84 31.141 154.593 31.933 154.593 32.9833V39.5758H151.942V27.8731H154.593V29.1875C155.403 28.1049 156.621 27.5637 158.247 27.5637C159.679 27.5637 160.785 27.9694 161.566 28.781Z" fill="white"/>
<path d="M167.046 38.87C166.466 38.2741 166.176 37.3068 166.175 35.9681V30.047H164.361V27.873H166.175V23.1208H168.801V27.873H172.122V30.047H168.801V35.4908C168.801 36.1905 168.948 36.7042 169.242 37.0318C169.538 37.358 169.995 37.5212 170.615 37.5212C171.126 37.5212 171.596 37.4571 172.025 37.329V39.5272C171.303 39.6822 170.567 39.7622 169.829 39.7658C168.555 39.7658 167.627 39.4672 167.046 38.87Z" fill="white"/>
<path d="M182.092 34.5363V34.3927H179.823C178.946 34.3927 178.222 34.4641 177.651 34.607C177.076 34.7499 176.702 35.0128 176.528 35.3957C176.436 35.6149 176.388 35.8504 176.388 36.0883C176.388 36.3263 176.436 36.5618 176.528 36.7809C176.699 37.1274 176.999 37.3931 177.363 37.5211C177.761 37.6802 178.231 37.7597 178.773 37.7597C179.536 37.7597 180.172 37.6242 180.682 37.3532C181.181 37.095 181.577 36.674 181.804 36.1601C182.005 35.6428 182.103 35.0911 182.092 34.5363ZM184.743 32.7223V39.5757H182.092V38.2612C181.248 39.3276 179.91 39.8608 178.079 39.8608C177.044 39.8608 176.168 39.6936 175.452 39.3593C174.737 39.0263 174.235 38.5329 173.948 37.879C173.735 37.3816 173.63 36.8447 173.639 36.3037C173.639 35.7159 173.734 35.2063 173.924 34.7749C174.323 33.8986 174.999 33.298 175.954 32.9731C176.908 32.6455 178.143 32.4817 179.657 32.4817H182.092V32.1722C182.092 31.8689 182.075 31.6182 182.043 31.42C182.007 31.2096 181.943 31.0049 181.853 30.8113C181.502 30.0469 180.69 29.6647 179.416 29.6647C178.764 29.6647 178.23 29.7523 177.816 29.9276C177.424 30.0805 177.108 30.38 176.933 30.7627C176.83 31.0133 176.774 31.2806 176.767 31.5514H174.091C174.091 30.8827 174.203 30.3172 174.425 29.8548C175.111 28.3273 176.768 27.5636 179.394 27.5636C180.683 27.5636 181.73 27.7543 182.534 28.1359C183.337 28.5174 183.914 29.1146 184.265 29.9276C184.584 30.6286 184.743 31.5602 184.743 32.7223Z" fill="white"/>
<path fill-rule="evenodd" clip-rule="evenodd" d="M186.803 23.1207H189.455V39.5737H186.803V23.1207Z" fill="white"/>
<path d="M122.221 24.5825C122.221 24.1671 122.056 23.7687 121.762 23.4747C121.469 23.1808 121.071 23.0156 120.655 23.0153C120.24 23.015 119.841 23.1798 119.548 23.4733C119.254 23.7668 119.088 24.1651 119.088 24.5805C119.088 24.7862 119.128 24.9899 119.207 25.18C119.285 25.37 119.401 25.5428 119.546 25.6883C119.84 25.9822 120.238 26.1475 120.653 26.1477C121.069 26.148 121.467 25.9833 121.761 25.6897C122.055 25.3962 122.22 24.9979 122.221 24.5825Z" fill="white"/>
<path d="M133.759 7.25054C134.555 8.07831 134.953 9.28828 134.955 10.8805V18.2616H132.273V11.4164C132.273 10.3432 132.054 9.55589 131.616 9.05438C131.179 8.55016 130.505 8.29806 129.594 8.29806C128.636 8.29806 127.906 8.57039 127.401 9.11504C126.899 9.65701 126.647 10.4646 126.647 11.5377V18.2616H123.943V6.00888H126.647V7.6651C127.476 6.56095 128.719 6.00888 130.374 6.00888C131.836 6.00888 132.964 6.42277 133.759 7.25054Z" fill="white"/>
<path d="M68.8455 17.1403C67.6022 16.4013 66.629 15.2828 66.069 13.9492C65.4839 12.6671 65.1913 11.1006 65.1913 9.24953C65.1913 7.42951 65.4839 5.85351 66.069 4.52153C66.6471 3.20193 67.6218 2.09508 68.8577 1.3547C70.0993 0.607816 71.6221 0.234375 73.4259 0.234375C74.5449 0.234375 75.5756 0.397503 76.5179 0.723757C77.4616 1.04732 78.2739 1.52591 78.9547 2.15955C79.5884 2.72712 80.0838 3.41738 80.4411 4.23032C80.797 5.04192 80.9918 5.92698 81.0255 6.88553H78.0771C78.0124 5.65196 77.5823 4.66106 76.7869 3.91283C75.9092 3.1336 74.7565 2.74398 73.3288 2.74398C72.2233 2.74398 71.2891 2.97519 70.526 3.43761C69.7637 3.90057 69.1606 4.58481 68.797 5.39918C68.5776 5.94444 68.4182 6.512 68.3218 7.09179C68.21 7.80548 68.1572 8.52717 68.164 9.24953C68.164 10.0759 68.2126 10.8026 68.3096 11.4295C68.408 12.0537 68.5705 12.6091 68.797 13.0958C69.1866 13.9573 69.7629 14.6152 70.526 15.0695C71.2891 15.5252 72.2233 15.7531 73.3288 15.7531C74.0595 15.7531 74.7249 15.6513 75.3248 15.4477C75.9247 15.2441 76.4364 14.9556 76.8597 14.5822C77.6551 13.8677 78.0771 12.8612 78.1256 11.563H81.0741C81.0673 12.4833 80.8812 13.3934 80.526 14.2424C80.1891 15.037 79.6865 15.7506 79.0518 16.3355C78.3453 16.9869 77.5065 17.478 76.5928 17.7753C75.6329 18.0989 74.5853 18.2606 73.4502 18.2606C71.6302 18.2606 70.0953 17.8872 68.8455 17.1403Z" fill="white"/>
<path d="M90.6656 15.5441C91.1617 15.2448 91.5311 14.8269 91.7737 14.2903C92.0178 13.7389 92.1398 12.9752 92.1398 11.9991C92.1398 11.0096 92.0178 10.2465 91.7737 9.70996C91.5505 9.17956 91.1618 8.73552 90.6656 8.44403C90.1694 8.15283 89.5567 8.00656 88.8273 8.00521C88.0953 8.00521 87.4859 8.15148 86.9992 8.44403C86.5094 8.73971 86.1257 9.18285 85.9032 9.70996C85.6443 10.2789 85.5149 11.0419 85.5149 11.9991C85.5149 12.9428 85.6443 13.7066 85.9032 14.2903C86.1472 14.8269 86.5125 15.2448 86.9992 15.5441C87.4859 15.8448 88.0953 15.9951 88.8273 15.9951C89.558 15.9951 90.1708 15.8448 90.6656 15.5441ZM85.3673 17.4086C84.4406 16.8571 83.7084 16.0309 83.2722 15.0446C82.8664 14.1845 82.6635 13.1693 82.6635 11.9991C82.6635 10.8303 82.8664 9.8077 83.2722 8.93139C83.7265 7.92432 84.4249 7.13632 85.3673 6.56739C86.3096 6.00117 87.463 5.71738 88.8273 5.71603C90.1917 5.71603 91.3484 5.99982 92.2975 6.56739C93.248 7.13632 93.9504 7.92432 94.4047 8.93139C94.8105 9.8414 95.0134 10.864 95.0134 11.9991C95.0134 13.1046 94.8105 14.1279 94.4047 15.0689C93.9711 16.057 93.2327 16.8804 92.2975 17.4187C91.3484 17.9809 90.1917 18.2613 88.8273 18.26C87.463 18.26 86.3096 17.9762 85.3673 17.4086Z" fill="white"/>
<path d="M106.762 7.25054C107.558 8.07831 107.956 9.28828 107.958 10.8805V18.2616H105.276V11.4164C105.276 10.3432 105.057 9.55589 104.619 9.05438C104.182 8.55016 103.508 8.29806 102.597 8.29806C101.639 8.29806 100.909 8.57039 100.404 9.11504C99.9016 9.65701 99.6502 10.4646 99.6502 11.5377V18.2616H96.9464V6.00888H99.6502V7.6651C100.479 6.56095 101.722 6.00888 103.377 6.00888C104.839 6.00888 105.967 6.42277 106.762 7.25054Z" fill="white"/>
<path d="M111.858 17.3476C111.265 16.7382 110.969 15.752 110.971 14.389V8.22523H109.118V6.00885H110.971V0.235353H113.648V6.00885H117.035V8.22523H113.648V13.8996C113.648 14.6142 113.798 15.1386 114.099 15.4729C114.4 15.8059 114.867 15.9724 115.5 15.9724C116.021 15.9724 116.499 15.907 116.936 15.7763V18.0169C116.2 18.177 115.449 18.259 114.696 18.2616C113.397 18.2616 112.452 17.9569 111.858 17.3476Z" fill="white"/>
<path d="M118.896 2.85424C118.746 2.71745 118.626 2.54982 118.546 2.36278C118.467 2.17573 118.428 1.97366 118.433 1.77032C118.433 1.31599 118.583 0.946596 118.884 0.662134C119.183 0.377672 119.585 0.235441 120.089 0.235441C120.561 0.235441 120.943 0.377672 121.234 0.662134C121.38 0.806202 121.495 0.979162 121.57 1.16997C121.646 1.36078 121.681 1.56525 121.673 1.77032C121.679 1.97274 121.643 2.17425 121.565 2.36124C121.487 2.54823 121.37 2.71635 121.222 2.85424C121.07 2.99641 120.892 3.10729 120.698 3.18052C120.504 3.25374 120.297 3.28787 120.089 3.28094C119.651 3.30006 119.223 3.1469 118.896 2.85424Z" fill="white"/>
<path fill-rule="evenodd" clip-rule="evenodd" d="M118.714 6.00814H121.418V18.261H118.715L118.714 6.00814Z" fill="white"/>
<path d="M148.198 6.00823V18.261H145.519V16.5805C144.691 17.7008 143.449 18.261 141.792 18.261C140.329 18.261 139.197 17.8471 138.395 17.0193C137.59 16.1902 137.187 14.9802 137.187 13.3894V6.00823H139.867V12.8535C139.867 13.9253 140.091 14.7126 140.538 15.2155C140.983 15.7184 141.653 15.9698 142.548 15.9698C143.506 15.9698 144.24 15.6941 144.751 15.1427C145.263 14.5913 145.519 13.7871 145.519 12.7302V6.00823H148.198Z" fill="white"/>
<path d="M158.613 12.8283V12.6827H156.298C155.405 12.6827 154.667 12.7555 154.083 12.9011C153.497 13.0481 153.115 13.3157 152.937 13.704C152.836 13.9174 152.786 14.1514 152.791 14.3875C152.791 14.6463 152.84 14.8897 152.937 15.1175C153.099 15.4586 153.383 15.7107 153.79 15.8738C154.196 16.0356 154.675 16.1165 155.228 16.1165C156.006 16.1165 156.655 15.9783 157.175 15.702C157.696 15.4269 158.077 15.0211 158.32 14.4846C158.527 13.9576 158.627 13.3944 158.613 12.8283ZM161.317 10.976V18.2601H158.613V16.6281C157.752 17.7161 156.387 18.2601 154.52 18.2601C153.465 18.2601 152.571 18.0895 151.841 17.7485C151.11 17.4074 150.598 16.9038 150.306 16.2378C150.086 15.7309 149.979 15.1825 149.99 14.6302C149.99 14.0289 150.087 13.5098 150.282 13.073C150.687 12.1792 151.378 11.5658 152.352 11.2328C153.327 10.9011 154.586 10.7346 156.128 10.7333H158.613V10.4158C158.613 10.1071 158.597 9.8516 158.565 9.64938C158.528 9.43466 158.463 9.22584 158.371 9.02855C158.012 8.24931 157.184 7.8597 155.885 7.8597C155.219 7.8597 154.675 7.94867 154.253 8.12663C153.854 8.28355 153.53 8.58949 153.351 8.98002C153.245 9.23478 153.188 9.50702 153.182 9.78285H150.454C150.454 9.10068 150.567 8.52434 150.793 8.05383C151.493 6.49536 153.182 5.71612 155.861 5.71612C157.175 5.71612 158.243 5.91093 159.064 6.30055C159.883 6.69017 160.471 7.29886 160.83 8.12663C161.153 8.84116 161.316 9.79094 161.317 10.976Z" fill="white"/>
</g>
</svg>
