<svg width="146" height="40" viewBox="0 0 146 40" fill="none" xmlns="http://www.w3.org/2000/svg">
<g opacity="0.7">
<path d="M47.6612 21.9975H18.4462C18.1503 21.3892 18.0023 20.7151 18.0023 19.9917C18.0023 19.2683 18.1667 18.5943 18.4462 17.9859H47.6612C47.7434 16.8515 47.8749 15.75 48.0722 14.6485H16.7035C15.4376 16.0624 14.6649 17.9202 14.6649 19.9753C14.6649 22.0303 15.4376 23.8881 16.7035 25.302H48.0722C47.8749 24.2169 47.7434 23.099 47.6612 21.981" fill="white"/>
<path d="M52.6428 36.6461H9.17386C5.52404 32.0921 3.321 26.305 3.321 19.9918C3.321 13.6786 5.5076 7.90793 9.17386 3.33744H52.6428C53.432 2.17016 54.2869 1.0522 55.224 0H7.62844C2.89355 5.31032 0 12.314 0 19.9918C0 27.6695 2.89355 34.6732 7.62844 39.9671H55.224C54.2869 38.9149 53.4155 37.8134 52.6428 36.6461Z" fill="white"/>
<path d="M49.0756 29.3136H13.7611C11.8212 26.716 10.6703 23.4936 10.6703 19.9918C10.6703 16.4899 11.8212 13.2676 13.7611 10.6535H49.0591C49.4373 9.51911 49.8647 8.40115 50.3744 7.33251H12.1828C9.17421 10.6864 7.34931 15.1254 7.34931 19.9918C7.34931 24.8582 9.17421 29.2807 12.1828 32.6511H50.4073C49.8976 31.5824 49.4702 30.4645 49.092 29.3136" fill="white"/>
<path d="M101.241 1.89064C101.044 1.7098 100.962 1.49607 100.962 1.21658C100.962 0.937089 101.061 0.70692 101.241 0.526074C101.422 0.345227 101.669 0.263024 101.981 0.263024C102.277 0.263024 102.507 0.345227 102.688 0.526074C102.869 0.70692 102.951 0.937089 102.951 1.21658C102.951 1.49607 102.853 1.7098 102.672 1.89064C102.491 2.07149 102.261 2.15369 101.965 2.15369C101.669 2.15369 101.422 2.07149 101.225 1.89064" fill="white"/>
<path d="M102.803 3.51823H101.126V10.8836H102.803V3.51823Z" fill="white"/>
<path d="M96.2107 10.4561C95.849 10.078 95.6682 9.46968 95.6682 8.63121V4.89919H94.5173V3.53462H95.6682V0.27938H97.3287V3.53462H99.4166V4.89919H97.3287V8.33528C97.3287 8.77918 97.4273 9.10799 97.6081 9.30528C97.789 9.519 98.0849 9.61765 98.4795 9.61765C98.8083 9.61765 99.1042 9.58477 99.3673 9.50256V10.8836C98.8905 10.9822 98.4302 11.0315 97.9863 11.0315C97.1807 11.0315 96.6053 10.8507 96.2271 10.4726" fill="white"/>
<path d="M131.311 10.4561C130.949 10.078 130.768 9.46968 130.768 8.63121V4.89919H129.617V3.53462H130.768V0.27938H132.429V3.53462H134.517V4.89919H132.429V8.33528C132.429 8.77918 132.527 9.10799 132.708 9.30528C132.889 9.519 133.185 9.61765 133.58 9.61765C133.908 9.61765 134.204 9.58477 134.467 9.50256V10.8836C133.991 10.9822 133.53 11.0315 133.086 11.0315C132.281 11.0315 131.705 10.8507 131.327 10.4726" fill="white"/>
<path d="M68.4257 10.4562C67.653 9.99585 67.0776 9.33822 66.7159 8.48331C66.3542 7.69416 66.1734 6.72417 66.1734 5.57332C66.1734 4.42248 66.3542 3.48537 66.7159 2.66334C67.094 1.82486 67.6695 1.16724 68.4422 0.706902C69.2149 0.246565 70.152 0.0163968 71.27 0.0163968C71.9605 0.0163968 72.6016 0.11504 73.1771 0.312328C73.7525 0.509615 74.2621 0.805546 74.6732 1.20012C75.0677 1.54537 75.3637 1.97283 75.5938 2.48249C75.8076 2.99215 75.9391 3.53469 75.9555 4.12655H74.1306C74.0977 3.37028 73.8183 2.74554 73.3415 2.2852C72.7989 1.80842 72.092 1.56181 71.2042 1.56181C70.5137 1.56181 69.9383 1.70978 69.4779 1.98927C69.0012 2.26876 68.6559 2.67978 68.4093 3.20588C68.2778 3.51825 68.1791 3.8635 68.1134 4.25807C68.0476 4.63621 68.0147 5.0801 68.0147 5.58976C68.0147 6.09942 68.0476 6.54332 68.0969 6.93789C68.1627 7.33247 68.2613 7.66128 68.3929 7.97365C68.6395 8.49975 68.9847 8.91077 69.4615 9.19026C69.9383 9.46975 70.5137 9.61771 71.1878 9.61771C71.6317 9.61771 72.0427 9.55195 72.4208 9.43687C72.7989 9.30534 73.1113 9.14094 73.3744 8.91077C73.8676 8.46687 74.1306 7.84213 74.1635 7.03654H75.9884C75.9884 7.64484 75.8569 8.18738 75.6432 8.69704C75.4294 9.19026 75.1171 9.63415 74.7389 9.99585C74.3115 10.3904 73.8183 10.6864 73.2264 10.8836C72.6345 11.0809 71.9933 11.1796 71.2864 11.1796C70.1684 11.1796 69.2149 10.9494 68.4422 10.4891" fill="white"/>
<path d="M79.0135 10.5548C78.4381 10.2096 77.9942 9.71637 77.7147 9.09162C77.4681 8.56552 77.3365 7.94078 77.3365 7.21739C77.3365 6.49401 77.4681 5.86926 77.7147 5.32672C77.9942 4.70198 78.4216 4.2252 79.0135 3.86351C79.5889 3.51826 80.3123 3.33741 81.1508 3.33741C81.9892 3.33741 82.7126 3.51826 83.288 3.86351C83.8799 4.20876 84.3074 4.70198 84.5869 5.32672C84.8335 5.8857 84.965 6.52689 84.965 7.21739C84.965 7.9079 84.8335 8.53264 84.5869 9.10806C84.3074 9.73281 83.8799 10.2096 83.288 10.5548C82.6962 10.9001 81.9892 11.0809 81.1508 11.0809C80.3123 11.0809 79.5889 10.9001 79.0135 10.5548ZM82.2852 9.404C82.5975 9.22315 82.8277 8.9601 82.9757 8.63129C83.1236 8.28603 83.2058 7.8257 83.2058 7.21739C83.2058 6.60909 83.1236 6.13231 82.9757 5.8035C82.8277 5.45825 82.5975 5.1952 82.2852 5.01435C81.9728 4.83351 81.5947 4.7513 81.1508 4.7513C80.7069 4.7513 80.3287 4.83351 80.0164 5.01435C79.7204 5.1952 79.4903 5.45825 79.3423 5.8035C79.1779 6.14876 79.0957 6.62553 79.0957 7.21739C79.0957 7.80926 79.1779 8.26959 79.3423 8.63129C79.4903 8.9601 79.7204 9.22315 80.0164 9.404C80.3123 9.58484 80.6904 9.68349 81.1508 9.68349C81.6111 9.68349 81.9892 9.58484 82.2852 9.404Z" fill="white"/>
<path d="M92.4126 4.09366C92.9058 4.60332 93.1524 5.35959 93.1524 6.32959V10.8836H91.4919V6.6584C91.4919 6.00077 91.3604 5.50756 91.0809 5.19518C90.8178 4.88281 90.3904 4.73485 89.8314 4.73485C89.2395 4.73485 88.7956 4.89925 88.4832 5.24451C88.1709 5.57332 88.0229 6.08298 88.0229 6.7406V10.9001H86.346V3.51824H88.0229V4.34027C88.5326 3.64977 89.3053 3.32095 90.3246 3.32095C91.2288 3.32095 91.9193 3.584 92.4126 4.09366Z" fill="white"/>
<path d="M110.563 4.09366C111.056 4.60332 111.303 5.35959 111.303 6.32959V10.8836H109.642V6.6584C109.642 6.00077 109.511 5.50756 109.231 5.19518C108.968 4.88281 108.541 4.73485 107.982 4.73485C107.39 4.73485 106.946 4.89925 106.634 5.24451C106.321 5.57332 106.173 6.08298 106.173 6.7406V10.9001H104.496V3.51824H106.173V4.34027C106.683 3.64977 107.456 3.32095 108.475 3.32095C109.379 3.32095 110.07 3.584 110.563 4.09366Z" fill="white"/>
<path d="M118.388 8.84501C118.471 8.68061 118.52 8.49976 118.553 8.33536H120.213C120.148 9.07518 119.852 9.68349 119.342 10.1767C119.013 10.4726 118.602 10.6864 118.142 10.8508C117.665 10.9987 117.155 11.0809 116.596 11.0809C115.741 11.0809 115.002 10.9165 114.393 10.5713C113.785 10.226 113.341 9.74925 113.062 9.12451C112.815 8.58197 112.7 7.94078 112.7 7.20095C112.7 6.82282 112.733 6.47757 112.799 6.1652C112.864 5.85282 112.947 5.55689 113.062 5.29384C113.341 4.6691 113.769 4.19232 114.36 3.84707C114.952 3.50182 115.659 3.33741 116.481 3.33741C117.303 3.33741 118.01 3.50182 118.602 3.84707C119.194 4.19232 119.621 4.6691 119.884 5.2774C120.032 5.62266 120.131 5.96791 120.197 6.34604C120.246 6.72418 120.279 7.15163 120.279 7.67773H114.393C114.426 8.12163 114.492 8.46688 114.623 8.71349C114.771 9.05874 115.018 9.32179 115.347 9.50264C115.676 9.68349 116.087 9.76569 116.58 9.76569C116.892 9.76569 117.188 9.73281 117.451 9.65061C117.714 9.5684 117.928 9.45332 118.092 9.30535C118.224 9.19027 118.323 9.0423 118.421 8.86146M114.591 5.73774C114.492 5.95147 114.426 6.19808 114.393 6.44469H118.536C118.503 6.18164 118.454 5.93503 118.355 5.67198C118.191 5.34317 117.961 5.09656 117.649 4.91571C117.336 4.7513 116.958 4.65266 116.498 4.65266C115.561 4.65266 114.919 5.01435 114.607 5.7213" fill="white"/>
<path d="M127.694 4.09366C128.187 4.60332 128.434 5.35959 128.434 6.32959V10.8836H126.773V6.6584C126.773 6.00077 126.642 5.50756 126.362 5.19518C126.099 4.88281 125.672 4.73485 125.113 4.73485C124.521 4.73485 124.077 4.89925 123.765 5.24451C123.452 5.57332 123.304 6.08298 123.304 6.7406V10.9001H121.627V3.51824H123.304V4.34027C123.814 3.64977 124.587 3.32095 125.606 3.32095C126.51 3.32095 127.201 3.584 127.694 4.09366Z" fill="white"/>
<path d="M142.704 6.57619V10.9001H141.027V10.078C140.501 10.7521 139.646 11.0809 138.495 11.0809C137.838 11.0809 137.295 10.9823 136.835 10.7685C136.391 10.5548 136.062 10.2425 135.881 9.83144C135.75 9.5355 135.684 9.20669 135.684 8.845C135.684 8.4833 135.75 8.15449 135.865 7.875C136.111 7.31602 136.539 6.93789 137.147 6.7406C137.755 6.52687 138.528 6.42823 139.482 6.42823H141.011V6.23094C141.011 6.03365 141.011 5.88569 140.978 5.75416C140.961 5.62264 140.912 5.50756 140.863 5.37603C140.649 4.89925 140.139 4.65264 139.334 4.65264C138.923 4.65264 138.594 4.70197 138.331 4.81705C138.068 4.93213 137.887 5.09654 137.772 5.34315C137.706 5.524 137.673 5.6884 137.673 5.83637H135.996C135.996 5.40891 136.062 5.06366 136.21 4.76773C136.637 3.81417 137.69 3.32095 139.334 3.32095C140.139 3.32095 140.813 3.43604 141.307 3.68265C141.816 3.92926 142.178 4.30739 142.392 4.81705C142.589 5.26095 142.688 5.85281 142.688 6.57619M141.027 7.72704V7.62839H139.597C139.038 7.62839 138.594 7.67772 138.232 7.75992C137.87 7.84212 137.64 8.02297 137.525 8.25314C137.459 8.36822 137.443 8.51619 137.443 8.68059C137.443 8.845 137.476 8.99296 137.525 9.12449C137.624 9.33822 137.805 9.48618 138.051 9.58483C138.298 9.68347 138.594 9.73279 138.939 9.73279C139.416 9.73279 139.827 9.65059 140.139 9.46974C140.452 9.30534 140.698 9.04229 140.846 8.71347C140.961 8.41754 141.027 8.08873 141.027 7.69416" fill="white"/>
<path d="M145.746 0.27938H144.069V10.9H145.746V0.27938Z" fill="white"/>
<path d="M84.7677 29.1491H86.9379L90.226 37.0077L93.6128 29.1491H95.7007V39.7862H94.0567V31.7796L90.637 39.7862H89.8314L86.3953 31.7796V39.7862H84.7677V29.1491Z" fill="white"/>
<path d="M102.409 37.7476C102.491 37.5832 102.54 37.4023 102.573 37.2379H104.233C104.168 37.9777 103.872 38.6025 103.362 39.0793C103.033 39.3752 102.622 39.5889 102.162 39.7533C101.685 39.9013 101.175 39.9835 100.617 39.9835C99.7451 39.9835 99.0218 39.8191 98.4134 39.4738C97.8051 39.1286 97.3613 38.6518 97.0818 38.0271C96.8352 37.4845 96.7201 36.8433 96.7201 36.1035C96.7201 35.7254 96.7529 35.3801 96.8187 35.0677C96.8845 34.7554 96.9667 34.4594 97.0818 34.1964C97.3613 33.5717 97.8051 33.0949 98.3806 32.7496C98.9724 32.4044 99.6794 32.24 100.501 32.24C101.323 32.24 102.03 32.4044 102.622 32.7496C103.214 33.0949 103.642 33.5717 103.905 34.18C104.053 34.5252 104.151 34.8705 104.217 35.2486C104.266 35.6267 104.299 36.0542 104.299 36.5803H98.4134C98.4463 37.0242 98.5121 37.3694 98.6436 37.616C98.7916 37.9613 99.0382 38.2243 99.367 38.4052C99.6958 38.586 100.107 38.6682 100.6 38.6682C100.929 38.6682 101.208 38.6354 101.471 38.5532C101.734 38.471 101.948 38.3559 102.113 38.2079C102.244 38.0928 102.343 37.9449 102.441 37.764M98.6107 34.6238C98.5121 34.854 98.4463 35.0842 98.4134 35.3308H102.556C102.524 35.0677 102.458 34.8047 102.376 34.5581C102.211 34.2293 101.981 33.9827 101.669 33.8018C101.356 33.6374 100.962 33.5388 100.501 33.5388C99.5643 33.5388 98.9231 33.9005 98.6107 34.6074" fill="white"/>
<path d="M107.143 36.0049L104.25 32.4044H106.305L108.146 34.8541L109.988 32.4044H112.026L109.166 36.0049L112.125 39.7863H110.086L108.146 37.2051L106.206 39.7863H104.184L107.143 36.0049Z" fill="white"/>
<path d="M113.211 30.7604C113.013 30.5795 112.931 30.3658 112.931 30.0863C112.931 29.8068 113.03 29.5767 113.211 29.3958C113.391 29.215 113.638 29.1328 113.95 29.1328C114.246 29.1328 114.477 29.215 114.657 29.3958C114.838 29.5767 114.92 29.8068 114.92 30.0863C114.92 30.3658 114.822 30.5795 114.641 30.7604C114.46 30.9412 114.23 31.0234 113.934 31.0234C113.638 31.0234 113.391 30.9412 113.194 30.7604" fill="white"/>
<path d="M114.756 32.4044H113.079V39.7863H114.756V32.4044Z" fill="white"/>
<path d="M117.353 39.4739C116.778 39.1451 116.334 38.6519 116.038 38.0271C115.792 37.4846 115.677 36.8434 115.677 36.1036C115.677 35.3637 115.792 34.7226 116.038 34.18C116.334 33.5388 116.762 33.0621 117.353 32.7168C117.929 32.388 118.636 32.2071 119.441 32.2071C120 32.2071 120.494 32.2894 120.938 32.4373C121.381 32.5853 121.776 32.8155 122.088 33.0949C122.368 33.358 122.598 33.6539 122.746 34.0156C122.894 34.3773 122.993 34.739 123.009 35.1665H121.217C121.184 34.7061 121.02 34.328 120.724 34.0321C120.576 33.9005 120.395 33.8019 120.165 33.7361C119.951 33.6704 119.704 33.6375 119.441 33.6375C119.03 33.6375 118.669 33.7361 118.373 33.917C118.077 34.0978 117.847 34.3444 117.699 34.6732C117.534 35.0349 117.452 35.5117 117.452 36.12C117.452 36.4159 117.469 36.679 117.518 36.9092C117.551 37.1393 117.617 37.3531 117.699 37.5504C117.847 37.8792 118.077 38.1258 118.373 38.2902C118.669 38.471 119.03 38.5532 119.441 38.5532C119.704 38.5532 119.951 38.5203 120.181 38.4546C120.395 38.3888 120.576 38.2902 120.724 38.1587C120.872 38.0271 120.987 37.8627 121.086 37.6819C121.168 37.4846 121.217 37.2873 121.233 37.0571H123.025C123.025 37.4681 122.927 37.8463 122.779 38.208C122.631 38.5532 122.401 38.8656 122.121 39.1287C121.792 39.4081 121.398 39.6219 120.938 39.7698C120.477 39.9178 119.984 40 119.441 40C118.619 40 117.929 39.8356 117.353 39.4903" fill="white"/>
<path d="M125.623 39.4409C125.047 39.0957 124.603 38.6025 124.324 37.9777C124.077 37.4516 123.946 36.8269 123.946 36.1035C123.946 35.3801 124.077 34.7554 124.324 34.2128C124.603 33.5881 125.031 33.1113 125.623 32.7496C126.198 32.4044 126.922 32.2235 127.76 32.2235C128.599 32.2235 129.322 32.4044 129.897 32.7496C130.489 33.0949 130.917 33.5881 131.196 34.2128C131.443 34.7718 131.574 35.413 131.574 36.1035C131.574 36.794 131.443 37.4187 131.196 37.9942C130.917 38.6189 130.489 39.0957 129.897 39.4409C129.305 39.7862 128.599 39.967 127.76 39.967C126.922 39.967 126.198 39.7862 125.623 39.4409ZM128.894 38.2901C129.207 38.1092 129.421 37.8462 129.585 37.5174C129.733 37.1721 129.815 36.7118 129.815 36.1035C129.815 35.4952 129.733 35.0184 129.585 34.6896C129.437 34.3443 129.207 34.0813 128.894 33.9004C128.582 33.7196 128.204 33.6374 127.76 33.6374C127.316 33.6374 126.938 33.7196 126.626 33.9004C126.33 34.0813 126.1 34.3443 125.952 34.6896C125.787 35.0349 125.705 35.5116 125.705 36.1035C125.705 36.6954 125.787 37.1557 125.952 37.5174C126.1 37.8462 126.33 38.1092 126.626 38.2901C126.922 38.4709 127.3 38.5696 127.76 38.5696C128.22 38.5696 128.599 38.4709 128.894 38.2901Z" fill="white"/>
<path d="M67.8342 39.4409C67.2587 39.0957 66.8149 38.6025 66.5354 37.9777C66.2888 37.4516 66.1572 36.8269 66.1572 36.1035C66.1572 35.3801 66.2888 34.7554 66.5354 34.2128C66.8149 33.5881 67.2423 33.1113 67.8342 32.7496C68.4096 32.4044 69.133 32.2235 69.9715 32.2235C70.8099 32.2235 71.5333 32.4044 72.1087 32.7496C72.7006 33.0949 73.1281 33.5881 73.4075 34.2128C73.6542 34.7718 73.7857 35.413 73.7857 36.1035C73.7857 36.794 73.6542 37.4187 73.4075 37.9942C73.1281 38.6189 72.7006 39.0957 72.1087 39.4409C71.5169 39.7862 70.8099 39.967 69.9715 39.967C69.133 39.967 68.4096 39.7862 67.8342 39.4409ZM71.1059 38.2901C71.4182 38.1092 71.632 37.8462 71.7964 37.5174C71.9443 37.1721 72.0265 36.7118 72.0265 36.1035C72.0265 35.4952 71.9443 35.0184 71.7964 34.6896C71.6484 34.3443 71.4182 34.0813 71.1059 33.9004C70.7935 33.7196 70.4154 33.6374 69.9715 33.6374C69.5276 33.6374 69.1494 33.7196 68.837 33.9004C68.5411 34.0813 68.311 34.3443 68.163 34.6896C67.9986 35.0349 67.9164 35.5116 67.9164 36.1035C67.9164 36.6954 67.9986 37.1557 68.163 37.5174C68.311 37.8462 68.5411 38.1092 68.837 38.2901C69.133 38.4709 69.5111 38.5696 69.9715 38.5696C70.4318 38.5696 70.8099 38.4709 71.1059 38.2901Z" fill="white"/>
<path d="M75.4955 33.7854H74.4104V32.4208H75.4955V31.4344C75.4955 30.5959 75.7093 29.9712 76.1203 29.5766C76.5477 29.182 77.2054 28.9848 78.1096 28.9848C78.4548 28.9848 78.7837 29.0176 79.096 29.0834V30.4644C78.8987 30.3986 78.6521 30.3658 78.3726 30.3658C77.567 30.3658 77.156 30.7768 77.156 31.5988V32.4208H79.0631V33.7854H77.156V39.7862H75.4791V33.7854H75.4955Z" fill="white"/>
<path d="M67.1433 24.4143C66.5021 23.8224 66.1733 22.8853 66.1733 21.6358V14.7307H67.8503V21.5043C67.8503 22.2934 68.0311 22.8688 68.3928 23.247C68.7545 23.6251 69.3464 23.806 70.1355 23.806C70.9247 23.806 71.5001 23.6251 71.8782 23.247C72.2563 22.8688 72.4372 22.2934 72.4372 21.5043V14.7307H74.1141V21.6358C74.1141 22.9017 73.8018 23.8224 73.1606 24.4143C72.5194 25.0061 71.5165 25.3021 70.1355 25.3021C68.7545 25.3021 67.768 25.0061 67.1104 24.4143H67.1433Z" fill="white"/>
<path d="M81.5778 18.4463C82.0546 18.9395 82.3012 19.6794 82.3012 20.6329V25.0719H80.69V20.9617C80.69 20.3205 80.5585 19.8438 80.2954 19.5478C80.0324 19.2519 79.6214 19.0875 79.0788 19.0875C78.5034 19.0875 78.0595 19.2519 77.7636 19.5807C77.4677 19.9095 77.3033 20.3863 77.3033 21.0439V25.0883H75.6756V17.9038H77.3033V18.7094C77.7965 18.0517 78.5527 17.7065 79.5392 17.7065C80.4105 17.7065 81.101 17.9531 81.5778 18.4463Z" fill="white"/>
<path d="M83.8961 16.2926C83.7152 16.1282 83.6166 15.898 83.6166 15.6349C83.6166 15.3719 83.6988 15.1417 83.8796 14.9609C84.0605 14.7965 84.3071 14.6978 84.603 14.6978C84.8825 14.6978 85.1127 14.78 85.2935 14.9609C85.4744 15.1253 85.5566 15.3555 85.5566 15.6349C85.5566 15.9144 85.4579 16.1117 85.2935 16.2926C85.1127 16.457 84.8825 16.5556 84.6195 16.5556C84.3235 16.5556 84.0934 16.4734 83.8961 16.2926Z" fill="white"/>
<path d="M85.4087 17.8873H83.7811V25.0718H85.4087V17.8873Z" fill="white"/>
<path d="M86.4447 17.8873H88.2039L90.1603 23.2305L92.1003 17.8873H93.8594L91.0645 25.0719H89.2561L86.4447 17.8873Z" fill="white"/>
<path d="M99.8603 23.0661C99.9425 22.9017 99.9918 22.7373 100.008 22.5729H101.619C101.554 23.2963 101.274 23.8882 100.765 24.3649C100.436 24.6444 100.058 24.8582 99.5972 25.0226C99.1369 25.1705 98.6272 25.2527 98.0847 25.2527C97.2462 25.2527 96.5228 25.0883 95.931 24.7595C95.3391 24.4307 94.9117 23.9539 94.6322 23.3456C94.402 22.8195 94.2869 22.1948 94.2869 21.4714C94.2869 21.0933 94.3198 20.7644 94.3691 20.4685C94.4349 20.1726 94.5171 19.8766 94.6322 19.6136C94.9117 19.0053 95.3227 18.545 95.8981 18.1997C96.4735 17.8709 97.1476 17.7065 97.9532 17.7065C98.7588 17.7065 99.4328 17.8709 100.008 18.1997C100.584 18.5285 100.995 18.9889 101.258 19.5972C101.406 19.926 101.504 20.2712 101.554 20.6329C101.603 20.9946 101.636 21.4221 101.636 21.9153H95.9145C95.9474 22.3427 96.0132 22.688 96.1283 22.9182C96.2762 23.247 96.5064 23.51 96.8352 23.6744C97.164 23.8553 97.5586 23.9375 98.0354 23.9375C98.3477 23.9375 98.6272 23.9046 98.8903 23.8224C99.1369 23.7402 99.3506 23.6251 99.515 23.4936C99.6466 23.3785 99.7452 23.2305 99.8274 23.0661H99.8603ZM96.1611 20.0411C96.0625 20.2548 95.9967 20.485 95.9639 20.7316H99.9918C99.9589 20.485 99.9096 20.2219 99.811 19.9917C99.663 19.6629 99.4328 19.4328 99.1205 19.2519C98.8081 19.0711 98.4464 19.0053 97.9861 19.0053C97.0654 19.0053 96.4571 19.3506 96.1447 20.0411H96.1611Z" fill="white"/>
<path d="M107.225 19.3012C107.012 19.2519 106.765 19.2354 106.485 19.2354C105.861 19.2354 105.384 19.4163 105.072 19.7944C104.759 20.1725 104.595 20.7151 104.595 21.422V25.0554H102.967V17.8709H104.578V18.7093C105.006 18.0846 105.631 17.7722 106.485 17.7722C106.765 17.7722 107.012 17.8051 107.225 17.8544V19.3012Z" fill="white"/>
<path d="M109.313 24.9239C108.837 24.6937 108.475 24.332 108.261 23.8717C108.097 23.5265 108.031 23.1319 108.031 22.6715H109.609C109.609 22.951 109.659 23.1812 109.757 23.362C109.971 23.8388 110.431 24.069 111.155 24.069C111.878 24.069 112.306 23.8881 112.47 23.51C112.519 23.3785 112.536 23.2634 112.536 23.1483C112.536 23.0168 112.519 22.8853 112.47 22.7702C112.404 22.6222 112.289 22.5071 112.141 22.4249C111.993 22.3427 111.796 22.2605 111.582 22.1948C111.368 22.129 111.056 22.0632 110.645 21.981C110.103 21.8495 109.642 21.6851 109.248 21.4714C108.87 21.2576 108.59 20.9782 108.426 20.6C108.327 20.3699 108.278 20.1068 108.278 19.8109C108.278 19.4821 108.343 19.2026 108.459 18.956C108.639 18.5614 108.968 18.249 109.428 18.0188C109.889 17.7887 110.431 17.69 111.089 17.69C111.747 17.69 112.289 17.8051 112.75 18.0188C113.21 18.2326 113.539 18.5449 113.736 18.9724C113.867 19.2683 113.933 19.6136 113.933 20.0246H112.388C112.388 19.8109 112.355 19.6136 112.273 19.4163C112.174 19.219 112.026 19.071 111.812 18.9724C111.599 18.8738 111.352 18.8244 111.056 18.8244C110.464 18.8244 110.086 18.9888 109.922 19.3012C109.889 19.3834 109.856 19.4985 109.856 19.63C109.856 19.7616 109.872 19.8602 109.922 19.926C109.987 20.0904 110.119 20.2054 110.283 20.3041C110.464 20.4027 110.645 20.4849 110.842 20.5343C111.04 20.5836 111.336 20.6658 111.73 20.748C112.338 20.9124 112.832 21.0932 113.21 21.2905C113.588 21.5043 113.884 21.7837 114.048 22.1619C114.147 22.392 114.196 22.6551 114.196 22.9675C114.196 23.3127 114.131 23.6251 114.015 23.921C113.818 24.3649 113.44 24.6937 112.93 24.9239C112.404 25.1541 111.796 25.2692 111.089 25.2692C110.382 25.2692 109.757 25.1541 109.281 24.9239H109.313Z" fill="white"/>
<path d="M115.462 16.2926C115.282 16.1282 115.183 15.898 115.183 15.6349C115.183 15.3719 115.265 15.1417 115.446 14.9609C115.627 14.7965 115.873 14.6978 116.169 14.6978C116.449 14.6978 116.679 14.78 116.86 14.9609C117.041 15.1253 117.123 15.3555 117.123 15.6349C117.123 15.9144 117.024 16.1117 116.86 16.2926C116.679 16.457 116.449 16.5556 116.186 16.5556C115.89 16.5556 115.66 16.4734 115.462 16.2926Z" fill="white"/>
<path d="M116.975 17.8873H115.348V25.0718H116.975V17.8873Z" fill="white"/>
<path d="M119.951 24.628C119.589 24.2663 119.408 23.6744 119.408 22.8524V19.219H118.29V17.8873H119.408V14.7307H121.02V17.8873H123.058V19.219H121.02V22.5565C121.02 22.9839 121.102 23.2963 121.283 23.4936C121.463 23.6909 121.743 23.7895 122.121 23.7895C122.433 23.7895 122.729 23.7566 122.992 23.6744V25.0226C122.532 25.1212 122.088 25.1705 121.644 25.1705C120.855 25.1705 120.296 24.9897 119.934 24.628H119.951Z" fill="white"/>
<path d="M131.574 17.8873L127.267 28.0147H125.59L126.889 24.9897L124.012 17.8873H125.82L127.76 23.2305L129.799 17.8873H131.574Z" fill="white"/>
</g>
</svg>
