<svg width="90" height="90" viewBox="0 0 90 90" fill="none" xmlns="http://www.w3.org/2000/svg">
<path d="M43.2078 36.6618H20.5913V39.7468H43.2078V36.6618Z" fill="#121212"/>
<path d="M36.6639 43.4551H20.5913V46.5401H36.6639V43.4551Z" fill="#121212"/>
<path d="M58.101 36.6725C55.4715 36.6725 53.3448 38.8842 53.3448 41.6063C53.3448 44.3283 55.4769 46.54 58.101 46.54C60.7251 46.54 62.8572 44.3283 62.8572 41.6063C62.8572 38.8842 60.7251 36.6725 58.101 36.6725ZM58.101 43.455C57.117 43.455 56.3188 42.627 56.3188 41.6063C56.3188 40.5855 57.117 39.7575 58.101 39.7575C59.0851 39.7575 59.8832 40.5855 59.8832 41.6063C59.8832 42.627 59.0851 43.455 58.101 43.455Z" fill="#121212"/>
<path d="M58.1028 29.8849C51.8596 29.8849 46.8028 35.1305 46.8028 41.6067C46.8028 48.083 51.8596 53.3286 58.1028 53.3286C64.346 53.3286 69.4028 48.066 69.4028 41.6067C69.4028 35.1475 64.346 29.8849 58.1028 29.8849ZM58.1028 50.2436C53.4997 50.2436 49.7822 46.3703 49.7822 41.6124C49.7822 36.8545 53.4997 32.9642 58.1028 32.9642C62.7059 32.9642 66.4234 36.8375 66.4234 41.6124C66.4234 46.3873 62.6895 50.2436 58.1028 50.2436Z" fill="#121212"/>
<path d="M62.8592 51.0599V73.7097L59.8797 71.5548L58.103 70.2618L56.3099 71.5548L53.3304 73.7267V50.714H56.3099V67.7949L58.103 66.4963L59.8797 67.7949V51.0599H62.8592Z" fill="#121212"/>
<path d="M80.6905 19.3526C80.3461 18.8989 79.9524 18.4963 79.5151 18.1333C78.132 16.9765 76.3826 16.2733 74.4582 16.2733H15.5363C13.612 16.2733 11.8626 16.9765 10.4794 18.1333C10.0421 18.4906 9.65395 18.8989 9.30407 19.3526C8.17789 20.793 7.5 22.6191 7.5 24.5982V58.5843C7.5 60.5691 8.17789 62.3951 9.30407 63.8299C9.64848 64.2836 10.0421 64.6862 10.4794 65.0492C11.8626 66.206 13.612 66.9092 15.5363 66.9092H49.7589V63.8356H15.5363C12.7373 63.8356 10.4794 61.4765 10.4794 58.5899V24.5982C10.4794 21.7117 12.7373 19.3526 15.5363 19.3526H74.4637C77.2627 19.3526 79.5206 21.7117 79.5206 24.5982V58.5843C79.5206 61.4708 77.2627 63.8299 74.4637 63.8299H66.4274V66.9036H74.4637C76.388 66.9036 78.1374 66.2004 79.5206 65.0435C79.9579 64.6862 80.3461 64.2779 80.6959 63.8242C81.8221 62.3895 82.5 60.5634 82.5 58.5786V24.5982C82.5 22.6134 81.8221 20.7873 80.6959 19.3526H80.6905Z" fill="#121212"/>
<path d="M70.8773 60.1163C71.6318 60.1163 72.337 59.9462 72.9712 59.6343C74.0864 59.1182 74.9884 58.1995 75.4859 57.0257C75.7702 56.3678 75.9397 55.6363 75.9397 54.8707V28.3136C75.9397 27.548 75.7757 26.8165 75.4859 26.1586C74.9884 24.9904 74.0864 24.0661 72.9712 23.55C72.337 23.2381 71.6318 23.068 70.8773 23.068H19.117C18.3626 23.068 17.6573 23.2381 17.0232 23.55C15.9079 24.0661 15.0059 24.9847 14.5084 26.1586C14.2241 26.8165 14.0547 27.548 14.0547 28.3136V54.8707C14.0547 55.6363 14.2187 56.3678 14.5084 57.0257C15.0059 58.1939 15.9079 59.1182 17.0232 59.6343C17.6573 59.9462 18.3626 60.1163 19.117 60.1163H49.7588V57.0257H19.117C17.958 57.0257 17.0232 56.0559 17.0232 54.8707V28.3136C17.0232 27.1284 17.958 26.1586 19.117 26.1586H70.8773C72.0363 26.1586 72.9712 27.1284 72.9712 28.3136V54.8707C72.9712 56.0559 72.0363 57.0257 70.8773 57.0257H66.4218V60.1163H70.8773Z" fill="#121212"/>
</svg>
