<svg width="213" height="45" viewBox="0 0 213 45" fill="none" xmlns="http://www.w3.org/2000/svg">
<g opacity="0.7">
<path d="M49.8774 23.8994H19.4604C19.1614 23.2586 18.9905 22.5537 18.9905 21.8275C18.9905 21.1012 19.1614 20.375 19.4604 19.7555H49.8774C49.9628 18.5807 50.091 17.4273 50.3046 16.2952H17.6448C16.3205 17.769 15.5302 19.7128 15.5302 21.8488C15.5302 23.9849 16.3419 25.9286 17.6448 27.4025H50.3046C50.091 26.2704 49.9628 25.117 49.8774 23.9421" fill="white"/>
<path d="M55.0681 39.1506H9.80583C6.00371 34.4086 3.71817 28.385 3.71817 21.8274C3.71817 15.2699 6.00371 9.24627 9.80583 4.5043H55.0468C55.8585 3.28677 56.7556 2.13332 57.7382 1.04395H8.20381C3.2696 6.55488 0.257812 13.8387 0.257812 21.8274C0.257812 29.8162 3.2696 37.1 8.20381 42.6323H57.7595C56.777 41.5429 55.8798 40.3895 55.0681 39.1719" fill="white"/>
<path d="M51.3516 31.525H14.5907C12.5828 28.8122 11.3867 25.4587 11.3867 21.8274C11.3867 18.1962 12.5828 14.8213 14.612 12.1085H51.373C51.7575 10.9124 52.2274 9.75891 52.74 8.64818H12.946C9.806 12.1513 7.90494 16.7651 7.90494 21.8274C7.90494 26.8898 9.806 31.5036 12.946 35.0067H52.74C52.2274 33.896 51.7575 32.7212 51.373 31.5463" fill="white"/>
<path d="M72.073 2.36148H80.3914V4.25464H74.2721V8.06009H80.3341V9.97238H74.2721V13.9691H80.3914V15.8622H72.073V2.36148Z" fill="white"/>
<path d="M85.6537 16.1491C84.7103 16.1491 83.9199 15.9961 83.2824 15.6901C82.6578 15.3842 82.2052 14.9252 81.9247 14.3133C81.7207 13.8671 81.6188 13.3444 81.6188 12.7452H83.684C83.684 13.1022 83.7478 13.4018 83.8753 13.644C84.1557 14.2559 84.7613 14.5619 85.6919 14.5619C86.6226 14.5619 87.1963 14.3196 87.413 13.8352C87.4767 13.6695 87.5086 13.5101 87.5086 13.3571C87.5086 13.1787 87.4767 13.0129 87.413 12.8599C87.3237 12.6687 87.1771 12.5157 86.9732 12.401C86.7819 12.2863 86.5397 12.1906 86.2465 12.1141C85.966 12.0249 85.5644 11.9293 85.0417 11.8273C84.3278 11.6616 83.7223 11.4448 83.2251 11.1771C82.7279 10.8967 82.3709 10.5142 82.1542 10.0298C82.0267 9.73653 81.963 9.39232 81.963 8.99712C81.963 8.57641 82.0395 8.2067 82.1924 7.88799C82.4347 7.3653 82.8554 6.96372 83.4545 6.68325C84.0537 6.39003 84.774 6.24342 85.6154 6.24342C86.4696 6.24342 87.1899 6.38366 87.7763 6.66413C88.3755 6.94459 88.809 7.35892 89.0767 7.90711C89.2424 8.28957 89.3253 8.74852 89.3253 9.28396H87.3174C87.3174 9.00349 87.2664 8.74214 87.1644 8.49992C87.0369 8.24495 86.8329 8.05372 86.5525 7.92623C86.2847 7.786 85.9596 7.71588 85.5772 7.71588C84.7995 7.71588 84.3087 7.92624 84.1047 8.34694C84.0537 8.46168 84.0282 8.60828 84.0282 8.78676C84.0282 8.9525 84.0537 9.07998 84.1047 9.16922C84.194 9.3732 84.3533 9.53893 84.5828 9.66642C84.8123 9.7939 85.0545 9.89589 85.3095 9.97238C85.5772 10.0361 85.966 10.1254 86.476 10.2401C87.2664 10.4441 87.9102 10.6863 88.4074 10.9668C88.9173 11.2345 89.287 11.6106 89.5165 12.095C89.644 12.3882 89.7077 12.7388 89.7077 13.1468C89.7077 13.593 89.6312 14.0073 89.4782 14.3898C89.2105 14.9635 88.7325 15.4033 88.044 15.7092C87.3684 16.0025 86.5716 16.1491 85.6537 16.1491Z" fill="white"/>
<path d="M95.5136 16.0917C94.481 16.0917 93.5949 15.8814 92.8555 15.4606C92.1161 15.0272 91.5615 14.4153 91.1918 13.6249C90.8859 12.9364 90.7329 12.1205 90.7329 11.1771C90.7329 10.2337 90.8859 9.41782 91.1918 8.7294C91.5615 7.92624 92.1161 7.3143 92.8555 6.8936C93.5949 6.46015 94.481 6.24342 95.5136 6.24342C96.2148 6.24342 96.8458 6.33904 97.4068 6.53027C97.9805 6.72149 98.4713 7.00196 98.8792 7.37167C99.2362 7.70314 99.5167 8.09197 99.7206 8.53817C99.9246 8.97162 100.033 9.45607 100.046 9.99151H97.7701C97.7319 9.40507 97.5215 8.927 97.1391 8.55729C96.9478 8.39156 96.712 8.26407 96.4315 8.17483C96.151 8.08559 95.8451 8.04097 95.5136 8.04097C94.9909 8.04097 94.5383 8.15571 94.1559 8.38518C93.7734 8.61466 93.4866 8.93337 93.2954 9.34133C93.0914 9.80028 92.9894 10.4122 92.9894 11.1771C92.9894 11.5596 93.0149 11.8974 93.0659 12.1906C93.1169 12.4711 93.1934 12.7388 93.2954 12.9938C93.4866 13.4018 93.7734 13.7205 94.1559 13.9499C94.5383 14.1667 94.9909 14.275 95.5136 14.275C95.8578 14.275 96.1702 14.2304 96.4506 14.1412C96.7311 14.0519 96.9606 13.9244 97.1391 13.7587C97.3303 13.593 97.4769 13.389 97.5789 13.1468C97.6936 12.9046 97.7574 12.6432 97.7701 12.3627H100.046C100.033 12.8854 99.9246 13.3699 99.7206 13.8161C99.5294 14.2623 99.2553 14.6511 98.8984 14.9826C98.4777 15.3395 97.9805 15.6136 97.4068 15.8049C96.8331 15.9961 96.202 16.0917 95.5136 16.0917Z" fill="white"/>
<path d="M110.161 6.49202V15.8622H108.057V14.7913C107.407 15.671 106.432 16.1108 105.131 16.1108C103.984 16.1108 103.092 15.7857 102.454 15.1356C101.829 14.4854 101.517 13.5356 101.517 12.2863V6.49202H103.621V11.8655C103.621 12.707 103.793 13.3253 104.137 13.7205C104.494 14.1157 105.023 14.3133 105.724 14.3133C106.476 14.3133 107.05 14.0965 107.445 13.6631C107.853 13.2296 108.057 12.5986 108.057 11.7699V6.49202H110.161Z" fill="white"/>
<path d="M118.532 13.8161C118.698 13.6631 118.831 13.4782 118.933 13.2615C119.048 13.0448 119.118 12.8281 119.144 12.6113H121.247C121.158 13.5547 120.788 14.3324 120.138 14.9443C119.717 15.314 119.208 15.6009 118.608 15.8049C118.009 15.9961 117.353 16.0917 116.639 16.0917C115.542 16.0917 114.605 15.875 113.828 15.4415C113.063 15.0081 112.502 14.3961 112.145 13.6057C111.839 12.9173 111.686 12.1014 111.686 11.158C111.686 10.6736 111.724 10.2337 111.801 9.83852C111.877 9.44332 111.992 9.07361 112.145 8.7294C112.502 7.93898 113.05 7.32705 113.789 6.8936C114.542 6.46015 115.44 6.24342 116.486 6.24342C117.531 6.24342 118.424 6.46015 119.163 6.8936C119.915 7.32705 120.463 7.93261 120.807 8.71027C120.999 9.14373 121.126 9.5963 121.19 10.068C121.266 10.5397 121.305 11.1006 121.305 11.7508H113.828C113.866 12.3117 113.962 12.7516 114.114 13.0703C114.306 13.5037 114.612 13.8352 115.032 14.0647C115.453 14.2942 115.976 14.4089 116.6 14.4089C117.008 14.4089 117.378 14.3579 117.71 14.2559C118.041 14.1539 118.315 14.0073 118.532 13.8161ZM116.524 7.94536C115.326 7.94536 114.522 8.39793 114.114 9.30308C113.987 9.58355 113.904 9.88314 113.866 10.2019H119.125C119.086 9.87039 119.01 9.54531 118.895 9.22659C118.691 8.80589 118.392 8.48717 117.996 8.27045C117.601 8.05372 117.11 7.94536 116.524 7.94536Z" fill="white"/>
<path d="M122.827 2.36148H124.949V15.8622H122.827V2.36148Z" fill="white"/>
<path d="M135.005 8.13659C135.26 8.69752 135.387 9.44332 135.387 10.374V15.8622H133.265V14.8105C132.589 15.6646 131.518 16.0917 130.052 16.0917C129.224 16.0917 128.522 15.9578 127.949 15.6901C127.375 15.4224 126.973 15.0272 126.744 14.5045C126.578 14.1348 126.495 13.7141 126.495 13.2424C126.495 12.7707 126.572 12.3627 126.725 12.0185C127.044 11.3174 127.585 10.8393 128.35 10.5843C129.115 10.3166 130.103 10.1827 131.314 10.1827H133.265V9.93414C133.265 9.69191 133.252 9.49431 133.227 9.34133C133.201 9.1756 133.15 9.00986 133.074 8.84413C132.793 8.2322 132.143 7.92623 131.123 7.92623C130.6 7.92623 130.173 7.99635 129.842 8.13659C129.51 8.27682 129.275 8.49992 129.134 8.80589C129.045 9.03536 129 9.24571 129 9.43694H126.859C126.859 8.9015 126.948 8.44893 127.126 8.07922C127.675 6.85535 129 6.24342 131.104 6.24342C132.137 6.24342 132.972 6.39641 133.609 6.70237C134.259 7.00834 134.725 7.48641 135.005 8.13659ZM133.035 13.1277C133.188 12.7579 133.265 12.3245 133.265 11.8273V11.7126H131.448C130.747 11.7126 130.167 11.7699 129.708 11.8847C129.249 11.9994 128.949 12.2098 128.809 12.5157C128.733 12.6687 128.694 12.8472 128.694 13.0512C128.694 13.2551 128.733 13.4464 128.809 13.6249C128.937 13.8926 129.16 14.0902 129.479 14.2177C129.797 14.3451 130.173 14.4089 130.607 14.4089C131.219 14.4089 131.729 14.3005 132.137 14.0838C132.545 13.8671 132.844 13.5484 133.035 13.1277Z" fill="white"/>
<path d="M145.727 16.1873C144.452 16.1873 143.394 15.9706 142.552 15.5371C141.711 15.1037 141.112 14.4918 140.755 13.7013C140.487 13.0639 140.353 12.3372 140.353 11.5213H142.744C142.769 12.1333 142.858 12.6241 143.011 12.9938C143.215 13.44 143.553 13.7842 144.025 14.0264C144.497 14.2559 145.089 14.3706 145.803 14.3706C146.492 14.3706 147.072 14.2687 147.544 14.0647C148.028 13.848 148.353 13.5484 148.519 13.1659C148.646 12.8727 148.71 12.5795 148.71 12.2863C148.71 12.0058 148.653 11.7381 148.538 11.4831C148.41 11.1899 148.187 10.9413 147.869 10.7373C147.563 10.5333 147.218 10.374 146.836 10.2592C146.454 10.1317 145.918 9.98513 145.23 9.8194L144.675 9.68554C143.693 9.41782 142.89 9.11185 142.266 8.76764C141.654 8.41068 141.214 7.93898 140.946 7.35255C140.755 6.90635 140.659 6.4219 140.659 5.89921C140.659 5.38927 140.774 4.87295 141.003 4.35026C141.322 3.62359 141.89 3.05628 142.705 2.64832C143.534 2.24037 144.503 2.03639 145.612 2.03639C146.734 2.03639 147.684 2.24037 148.461 2.64832C149.239 3.05628 149.794 3.64271 150.125 4.40763C150.265 4.71359 150.367 5.03868 150.431 5.38289C150.495 5.71436 150.527 6.08407 150.527 6.49202H148.251C148.238 6.18605 148.213 5.92471 148.175 5.70798C148.136 5.47851 148.079 5.27453 148.002 5.09605C147.811 4.6626 147.505 4.33751 147.085 4.12078C146.664 3.90406 146.148 3.79569 145.536 3.79569C144.936 3.79569 144.414 3.90406 143.968 4.12078C143.534 4.32476 143.241 4.60523 143.088 4.96219C143.024 5.07693 142.98 5.19166 142.954 5.3064C142.941 5.40839 142.935 5.5295 142.935 5.66974C142.935 5.82272 142.941 5.95658 142.954 6.07132C142.98 6.17331 143.018 6.27529 143.069 6.37728C143.183 6.645 143.381 6.87448 143.662 7.06571C143.955 7.24419 144.28 7.3908 144.637 7.50553C144.994 7.60752 145.491 7.74138 146.128 7.90711C146.269 7.93261 146.479 7.9836 146.759 8.06009C147.486 8.25132 148.098 8.44255 148.595 8.63378C149.092 8.82501 149.532 9.07361 149.915 9.37957C150.31 9.67279 150.61 10.0425 150.814 10.4887C151.005 10.9222 151.1 11.4512 151.1 12.0759C151.1 12.7006 150.992 13.2615 150.775 13.7587C150.431 14.5491 149.819 15.1547 148.939 15.5754C148.06 15.9833 146.989 16.1873 145.727 16.1873Z" fill="white"/>
<path d="M161.273 6.49202V15.8622H159.17V14.7913C158.52 15.671 157.544 16.1108 156.244 16.1108C155.097 16.1108 154.204 15.7857 153.567 15.1356C152.942 14.4854 152.63 13.5356 152.63 12.2863V6.49202H154.733V11.8655C154.733 12.707 154.905 13.3253 155.25 13.7205C155.607 14.1157 156.136 14.3133 156.837 14.3133C157.589 14.3133 158.163 14.0965 158.558 13.6631C158.966 13.2296 159.17 12.5986 159.17 11.7699V6.49202H161.273Z" fill="white"/>
<path d="M172.283 8.57641C172.628 9.34133 172.8 10.2082 172.8 11.1771C172.8 11.6488 172.755 12.1078 172.666 12.554C172.577 12.9874 172.449 13.389 172.283 13.7587C171.952 14.4981 171.461 15.0718 170.811 15.4798C170.161 15.8877 169.377 16.0917 168.459 16.0917C167.809 16.0917 167.222 15.9833 166.7 15.7666C166.177 15.5371 165.737 15.2057 165.38 14.7722V19.725H163.257V6.49202H165.323V7.62027C165.68 7.16132 166.119 6.81711 166.642 6.58763C167.178 6.35816 167.783 6.24342 168.459 6.24342C169.377 6.24342 170.161 6.4474 170.811 6.85535C171.461 7.26331 171.952 7.837 172.283 8.57641ZM170.237 12.9556C170.441 12.4711 170.543 11.8783 170.543 11.1771C170.543 10.4632 170.441 9.86402 170.237 9.37957C170.033 8.93337 169.734 8.60191 169.339 8.38518C168.943 8.15571 168.472 8.04097 167.923 8.04097C167.133 8.04097 166.508 8.29594 166.049 8.80589C165.59 9.30308 165.361 10.0106 165.361 10.9285V11.4066C165.361 12.3372 165.59 13.0575 166.049 13.5675C166.508 14.0647 167.133 14.3133 167.923 14.3133C168.472 14.3133 168.943 14.1985 169.339 13.9691C169.734 13.7396 170.033 13.4018 170.237 12.9556Z" fill="white"/>
<path d="M180.793 13.8161C180.959 13.6631 181.093 13.4782 181.195 13.2615C181.31 13.0448 181.38 12.8281 181.405 12.6113H183.509C183.419 13.5547 183.05 14.3324 182.4 14.9443C181.979 15.314 181.469 15.6009 180.87 15.8049C180.271 15.9961 179.614 16.0917 178.9 16.0917C177.804 16.0917 176.867 15.875 176.089 15.4415C175.324 15.0081 174.763 14.3961 174.406 13.6057C174.1 12.9173 173.947 12.1014 173.947 11.158C173.947 10.6736 173.986 10.2337 174.062 9.83852C174.138 9.44332 174.253 9.07361 174.406 8.7294C174.763 7.93898 175.311 7.32705 176.051 6.8936C176.803 6.46015 177.702 6.24342 178.747 6.24342C179.792 6.24342 180.685 6.46015 181.424 6.8936C182.176 7.32705 182.725 7.93261 183.069 8.71027C183.26 9.14373 183.388 9.5963 183.451 10.068C183.528 10.5397 183.566 11.1006 183.566 11.7508H176.089C176.127 12.3117 176.223 12.7516 176.376 13.0703C176.567 13.5037 176.873 13.8352 177.294 14.0647C177.714 14.2942 178.237 14.4089 178.862 14.4089C179.27 14.4089 179.639 14.3579 179.971 14.2559C180.302 14.1539 180.577 14.0073 180.793 13.8161ZM178.785 7.94536C177.587 7.94536 176.784 8.39793 176.376 9.30308C176.248 9.58355 176.166 9.88314 176.127 10.2019H181.386C181.348 9.87039 181.271 9.54531 181.157 9.22659C180.953 8.80589 180.653 8.48717 180.258 8.27045C179.863 8.05372 179.372 7.94536 178.785 7.94536Z" fill="white"/>
<path d="M189.678 6.35816C190.047 6.35816 190.366 6.39641 190.634 6.4729V8.34694C190.353 8.2832 190.035 8.25132 189.678 8.25132C188.862 8.25132 188.243 8.49992 187.823 8.99712C187.415 9.48156 187.211 10.1891 187.211 11.1198V15.8622H185.088V6.49202H187.192V7.58202C187.74 6.76611 188.568 6.35816 189.678 6.35816Z" fill="white"/>
<path d="M192.976 5.07693C192.593 5.07693 192.281 4.96856 192.039 4.75184C191.796 4.52236 191.675 4.23552 191.675 3.89131C191.675 3.53435 191.79 3.24751 192.02 3.03078C192.262 2.80131 192.581 2.68657 192.976 2.68657C193.345 2.68657 193.645 2.80131 193.874 3.03078C194.104 3.24751 194.219 3.53435 194.219 3.89131C194.219 4.23552 194.098 4.52236 193.855 4.75184C193.626 4.96856 193.333 5.07693 192.976 5.07693ZM191.886 6.49202H194.008V15.8622H191.886V6.49202Z" fill="white"/>
<path d="M200.373 16.0917C199.302 16.0917 198.397 15.8686 197.658 15.4224C196.918 14.9762 196.37 14.3579 196.013 13.5675C195.695 12.8918 195.535 12.095 195.535 11.1771C195.535 10.2592 195.695 9.45607 196.013 8.76764C196.37 7.97723 196.918 7.35892 197.658 6.91272C198.397 6.46652 199.302 6.24342 200.373 6.24342C201.444 6.24342 202.349 6.46652 203.089 6.91272C203.841 7.35892 204.395 7.97723 204.752 8.76764C205.071 9.48156 205.23 10.2847 205.23 11.1771C205.23 12.044 205.071 12.8472 204.752 13.5866C204.395 14.377 203.841 14.9953 203.089 15.4415C202.349 15.875 201.444 16.0917 200.373 16.0917ZM200.373 14.3133C200.947 14.3133 201.425 14.1985 201.807 13.9691C202.203 13.7268 202.496 13.3954 202.687 12.9747C202.878 12.5412 202.974 11.942 202.974 11.1771C202.974 10.3995 202.878 9.80028 202.687 9.37957C202.496 8.94612 202.203 8.61466 201.807 8.38518C201.425 8.15571 200.947 8.04097 200.373 8.04097C199.8 8.04097 199.322 8.15571 198.939 8.38518C198.557 8.61466 198.27 8.94612 198.079 9.37957C197.875 9.82577 197.773 10.425 197.773 11.1771C197.773 11.9165 197.875 12.5157 198.079 12.9747C198.27 13.3954 198.557 13.7268 198.939 13.9691C199.322 14.1985 199.8 14.3133 200.373 14.3133Z" fill="white"/>
<path d="M211.359 6.35816C211.729 6.35816 212.047 6.39641 212.315 6.4729V8.34694C212.035 8.2832 211.716 8.25132 211.359 8.25132C210.543 8.25132 209.925 8.49992 209.504 8.99712C209.096 9.48156 208.892 10.1891 208.892 11.1198V15.8622H206.769V6.49202H208.873V7.58202C209.421 6.76611 210.25 6.35816 211.359 6.35816Z" fill="white"/>
<path d="M80.3637 41.7836C78.5005 41.7836 76.9285 41.401 75.6476 40.6357C74.3667 39.8705 73.4184 38.7809 72.8029 37.3669C72.2041 36.0527 71.9046 34.4474 71.9046 32.551C71.9046 30.6878 72.2041 29.0742 72.8029 27.7101C73.4351 26.3127 74.3833 25.2314 75.6476 24.4662C76.9285 23.701 78.4922 23.3184 80.3387 23.3184C81.4866 23.3184 82.5429 23.4847 83.5078 23.8174C84.4726 24.1501 85.3044 24.6409 86.0031 25.2896C86.6519 25.8719 87.1592 26.5789 87.5252 27.4107C87.8912 28.2424 88.0908 29.149 88.1241 30.1305H85.1048C85.0382 28.8662 84.5974 27.8515 83.7823 27.0863C82.8839 26.2878 81.7028 25.8885 80.2389 25.8885C79.1077 25.8885 78.1512 26.1297 77.3693 26.6122C76.5875 27.0779 75.9969 27.7434 75.5977 28.6084C75.3814 29.1241 75.2151 29.7063 75.0986 30.3551C74.9988 30.9873 74.9489 31.7192 74.9489 32.551C74.9489 33.3994 74.9988 34.148 75.0986 34.7967C75.1984 35.4289 75.3648 35.9945 75.5977 36.4935C75.9969 37.3752 76.5875 38.049 77.3693 38.5147C78.1512 38.9805 79.1077 39.2134 80.2389 39.2134C80.9875 39.2134 81.6696 39.1136 82.2851 38.914C82.9006 38.6977 83.4246 38.3983 83.8571 38.0157C84.6723 37.2837 85.1048 36.2523 85.1547 34.9215H88.174C88.1574 35.9196 87.966 36.8346 87.6001 37.6663C87.2507 38.4981 86.7517 39.2134 86.1029 39.8123C85.4042 40.4611 84.5641 40.9518 83.5826 41.2845C82.6012 41.6172 81.5282 41.7836 80.3637 41.7836Z" fill="white"/>
<path d="M97.0951 41.6588C95.6977 41.6588 94.5166 41.3677 93.5518 40.7855C92.5869 40.2032 91.8716 39.3964 91.4058 38.365C90.9899 37.4834 90.782 36.4436 90.782 35.2459C90.782 34.0482 90.9899 33.0001 91.4058 32.1018C91.8716 31.0704 92.5869 30.2636 93.5518 29.6814C94.5166 29.0991 95.6977 28.808 97.0951 28.808C98.4925 28.808 99.6736 29.0991 100.638 29.6814C101.62 30.2636 102.344 31.0704 102.809 32.1018C103.225 33.0334 103.433 34.0814 103.433 35.2459C103.433 36.3771 103.225 37.4251 102.809 38.39C102.344 39.4214 101.62 40.2282 100.638 40.8104C99.6736 41.376 98.4925 41.6588 97.0951 41.6588ZM97.0951 39.3382C97.8437 39.3382 98.4675 39.1885 98.9666 38.889C99.4823 38.573 99.8649 38.1404 100.114 37.5915C100.364 37.0259 100.489 36.244 100.489 35.2459C100.489 34.2311 100.364 33.4493 100.114 32.9003C99.8649 32.3347 99.4823 31.9022 98.9666 31.6028C98.4675 31.3033 97.8437 31.1536 97.0951 31.1536C96.3465 31.1536 95.7227 31.3033 95.2236 31.6028C94.7245 31.9022 94.3503 32.3347 94.1007 32.9003C93.8346 33.4826 93.7015 34.2644 93.7015 35.2459C93.7015 36.2108 93.8346 36.9926 94.1007 37.5915C94.3503 38.1404 94.7245 38.573 95.2236 38.889C95.7227 39.1885 96.3465 39.3382 97.0951 39.3382Z" fill="white"/>
<path d="M113.027 28.808C114.524 28.808 115.68 29.2322 116.495 30.0806C117.311 30.929 117.718 32.1684 117.718 33.7986V41.3594H114.973V34.3476C114.973 33.2497 114.749 32.4428 114.3 31.9272C113.85 31.4115 113.16 31.1536 112.229 31.1536C111.247 31.1536 110.498 31.4364 109.983 32.002C109.467 32.551 109.209 33.3744 109.209 34.4724V41.3594H106.439V29.1324H109.209V30.5048C110.058 29.3736 111.33 28.808 113.027 28.808Z" fill="white"/>
<path d="M125.607 41.559C124.276 41.559 123.303 41.2513 122.687 40.6357C122.088 40.0036 121.789 38.9889 121.789 37.5915V31.4031H119.892V29.1324H121.789V26.188H124.534V29.1324H128.002V31.4031H124.534V37.0924C124.534 37.8244 124.683 38.365 124.983 38.7144C125.299 39.0471 125.781 39.2134 126.43 39.2134C126.962 39.2134 127.453 39.1469 127.902 39.0138V41.3095C127.12 41.4758 126.355 41.559 125.607 41.559Z" fill="white"/>
<path d="M132.155 27.2859C131.656 27.2859 131.248 27.1445 130.932 26.8617C130.616 26.5623 130.458 26.188 130.458 25.7388C130.458 25.273 130.608 24.8987 130.907 24.6159C131.223 24.3165 131.639 24.1668 132.155 24.1668C132.637 24.1668 133.028 24.3165 133.328 24.6159C133.627 24.8987 133.777 25.273 133.777 25.7388C133.777 26.188 133.619 26.5623 133.303 26.8617C133.003 27.1445 132.621 27.2859 132.155 27.2859ZM130.733 29.1324H133.502V41.3594H130.733V29.1324Z" fill="white"/>
<path d="M143.679 28.808C145.176 28.808 146.333 29.2322 147.148 30.0806C147.963 30.929 148.37 32.1684 148.37 33.7986V41.3594H145.626V34.3476C145.626 33.2497 145.401 32.4428 144.952 31.9272C144.503 31.4115 143.812 31.1536 142.881 31.1536C141.899 31.1536 141.151 31.4364 140.635 32.002C140.119 32.551 139.861 33.3744 139.861 34.4724V41.3594H137.092V29.1324H139.861V30.5048C140.71 29.3736 141.982 28.808 143.679 28.808Z" fill="white"/>
<path d="M160.192 38.6894C160.408 38.4898 160.583 38.2486 160.716 37.9658C160.866 37.683 160.957 37.4002 160.991 37.1174H163.735C163.619 38.3484 163.137 39.3631 162.288 40.1616C161.739 40.6441 161.074 41.0184 160.292 41.2845C159.51 41.5341 158.653 41.6588 157.722 41.6588C156.291 41.6588 155.068 41.376 154.054 40.8104C153.056 40.2448 152.324 39.4463 151.858 38.4149C151.459 37.5166 151.259 36.452 151.259 35.2209C151.259 34.5888 151.309 34.0149 151.409 33.4992C151.508 32.9835 151.658 32.5011 151.858 32.0519C152.324 31.0205 153.039 30.222 154.004 29.6564C154.985 29.0908 156.158 28.808 157.522 28.808C158.886 28.808 160.051 29.0908 161.016 29.6564C161.997 30.222 162.712 31.0122 163.161 32.027C163.411 32.5926 163.577 33.1831 163.661 33.7986C163.76 34.4141 163.81 35.1461 163.81 35.9945H154.054C154.104 36.7264 154.228 37.3004 154.428 37.7162C154.677 38.2819 155.077 38.7144 155.626 39.0138C156.175 39.3132 156.857 39.463 157.672 39.463C158.204 39.463 158.687 39.3964 159.119 39.2633C159.552 39.1303 159.909 38.9389 160.192 38.6894ZM157.572 31.0288C156.008 31.0288 154.96 31.6194 154.428 32.8005C154.262 33.1665 154.153 33.5574 154.104 33.9733H160.966C160.916 33.5408 160.816 33.1166 160.666 32.7007C160.4 32.1517 160.009 31.7358 159.493 31.453C158.978 31.1702 158.337 31.0288 157.572 31.0288Z" fill="white"/>
<path d="M173.382 28.808C174.879 28.808 176.035 29.2322 176.851 30.0806C177.666 30.929 178.073 32.1684 178.073 33.7986V41.3594H175.328V34.3476C175.328 33.2497 175.104 32.4428 174.655 31.9272C174.206 31.4115 173.515 31.1536 172.584 31.1536C171.602 31.1536 170.854 31.4364 170.338 32.002C169.822 32.551 169.564 33.3744 169.564 34.4724V41.3594H166.795V29.1324H169.564V30.5048C170.413 29.3736 171.685 28.808 173.382 28.808Z" fill="white"/>
<path d="M185.962 41.559C184.631 41.559 183.658 41.2513 183.042 40.6357C182.443 40.0036 182.144 38.9889 182.144 37.5915V31.4031H180.247V29.1324H182.144V26.188H184.889V29.1324H188.357V31.4031H184.889V37.0924C184.889 37.8244 185.038 38.365 185.338 38.7144C185.654 39.0471 186.136 39.2134 186.785 39.2134C187.318 39.2134 187.808 39.1469 188.257 39.0138V41.3095C187.476 41.4758 186.71 41.559 185.962 41.559Z" fill="white"/>
<path d="M201.52 31.2784C201.853 32.0103 202.019 32.9835 202.019 34.1979V41.3594H199.25V39.987C198.368 41.1015 196.971 41.6588 195.057 41.6588C193.976 41.6588 193.061 41.4842 192.313 41.1348C191.564 40.7855 191.04 40.2698 190.741 39.5877C190.524 39.1053 190.416 38.5563 190.416 37.9408C190.416 37.3253 190.516 36.793 190.716 36.3438C191.132 35.4289 191.839 34.8051 192.837 34.4724C193.835 34.123 195.124 33.9483 196.704 33.9483H199.25V33.624C199.25 33.3079 199.233 33.05 199.2 32.8504C199.166 32.6342 199.1 32.4179 199 32.2016C198.634 31.4031 197.786 31.0039 196.455 31.0039C195.773 31.0039 195.216 31.0954 194.783 31.2784C194.35 31.4614 194.043 31.7525 193.86 32.1517C193.743 32.4512 193.685 32.7256 193.685 32.9752H190.89C190.89 32.2765 191.007 31.6859 191.24 31.2035C191.955 29.6065 193.685 28.808 196.43 28.808C197.777 28.808 198.867 29.0076 199.699 29.4069C200.547 29.8061 201.154 30.43 201.52 31.2784ZM198.95 37.7911C199.15 37.3087 199.25 36.7431 199.25 36.0943V35.9446H196.879C195.964 35.9446 195.207 36.0194 194.608 36.1692C194.009 36.3189 193.619 36.5934 193.436 36.9926C193.336 37.1922 193.286 37.4251 193.286 37.6913C193.286 37.9575 193.336 38.207 193.436 38.4399C193.602 38.7892 193.893 39.0471 194.309 39.2134C194.725 39.3798 195.216 39.463 195.781 39.463C196.58 39.463 197.245 39.3216 197.777 39.0388C198.31 38.756 198.701 38.3401 198.95 37.7911Z" fill="white"/>
<path d="M205.513 23.7426H208.282V41.3594H205.513V23.7426Z" fill="white"/>
</g>
</svg>
