<svg width="322" height="32" viewBox="0 0 322 32" fill="none" xmlns="http://www.w3.org/2000/svg">
<path d="M283.975 19.6216H38.3906V32.0001H283.975V19.6216Z" fill="white"/>
<path d="M43.7734 22.2305H49.9264V23.5713H45.5265V25.1465H49.8957V26.4565H45.5265V28.0586H49.9264V29.3994H43.7734V22.2343V22.2305Z" fill="black"/>
<path d="M52.1367 22.2305H53.8898V27.9472H56.8895V29.3994H52.1367V22.2343V22.2305Z" fill="black"/>
<path d="M58.7266 22.2305H60.4796V29.3956H58.7266V22.2305Z" fill="black"/>
<path d="M71.9408 25.4382V25.5496C71.9408 25.9338 71.9101 26.2719 71.8564 26.56C71.7989 26.8482 71.7068 27.1363 71.5764 27.4283C71.2503 28.1467 70.7171 28.6923 69.9768 29.0611C69.2326 29.4338 68.335 29.6182 67.2801 29.6182C66.5551 29.6182 65.8991 29.5336 65.3084 29.3646C64.7176 29.1956 64.2113 28.9458 63.7932 28.6193C63.375 28.2927 63.0605 27.8932 62.8495 27.4283C62.6347 26.9404 62.5234 26.4025 62.5234 25.8147C62.5234 25.2269 62.6385 24.6929 62.8687 24.2011C63.1947 23.4827 63.7394 22.9371 64.5066 22.5683C65.2738 22.1956 66.206 22.0112 67.2993 22.0112C68.0434 22.0112 68.7224 22.1034 69.3362 22.2917C69.9499 22.4799 70.464 22.7566 70.8782 23.1292C71.1276 23.3521 71.3462 23.6133 71.5304 23.9168C71.7145 24.2165 71.8334 24.52 71.8794 24.8235H69.9653C69.877 24.5469 69.7198 24.301 69.4896 24.0935C69.2518 23.8707 68.9487 23.7055 68.5766 23.6018C68.2045 23.498 67.7979 23.4443 67.3491 23.4443C66.6817 23.4443 66.1063 23.5595 65.6306 23.7862C65.1549 24.0129 64.8174 24.3471 64.6217 24.7851C64.5527 24.9426 64.5028 25.1001 64.4683 25.2653C64.4338 25.4305 64.4184 25.6149 64.4184 25.8185C64.4184 26.1989 64.4875 26.5408 64.6217 26.8443C64.8174 27.29 65.1511 27.6281 65.6268 27.8547C66.0986 28.0814 66.6625 28.1928 67.3184 28.1928C67.9744 28.1928 68.4961 28.0968 68.9641 27.897C69.4321 27.7011 69.7581 27.4052 69.9423 27.0134C69.9768 26.9442 70.0113 26.8366 70.0535 26.6868H67.3568V25.4382H71.937H71.9408Z" fill="black"/>
<path d="M73.9766 22.2305H80.1295V23.5713H75.7296V25.1465H80.0988V26.4565H75.7296V28.0586H80.1295V29.3994H73.9766V22.2343V22.2305Z" fill="black"/>
<path d="M86.4982 28.7655C85.8614 28.1969 85.5469 27.344 85.5469 26.2068V22.2266H87.2999V26.0838C87.2999 26.5717 87.3728 26.9636 87.5224 27.2671C87.672 27.5668 87.8983 27.7935 88.2052 27.9356C88.5121 28.0816 88.911 28.1546 89.4059 28.1546C89.9007 28.1546 90.2997 28.0816 90.6066 27.9356C90.9134 27.7896 91.1436 27.5668 91.2894 27.2671C91.439 26.9675 91.5118 26.5717 91.5118 26.0838V22.2266H93.2649V26.2068C93.2649 27.344 92.9465 28.1969 92.3136 28.7655C91.6768 29.3341 90.7101 29.6184 89.4059 29.6184C88.1016 29.6184 87.1311 29.3341 86.4982 28.7655Z" fill="black"/>
<path d="M95.5585 22.2305H97.5341L101.83 27.4285V22.2305H103.572V29.3956H101.535L97.2886 24.3012V29.3956H95.5547V22.2305H95.5585Z" fill="black"/>
<path d="M109.355 22.2305H114.503V23.6212H111.109V25.1657H114.484V26.5065H111.109V29.3994H109.355V22.2343V22.2305Z" fill="black"/>
<path d="M117.381 28.7655C116.744 28.1969 116.43 27.344 116.43 26.2068V22.2266H118.183V26.0838C118.183 26.5717 118.256 26.9636 118.405 27.2671C118.555 27.5668 118.781 27.7935 119.088 27.9356C119.395 28.0816 119.794 28.1546 120.289 28.1546C120.784 28.1546 121.182 28.0816 121.489 27.9356C121.796 27.7896 122.026 27.5668 122.172 27.2671C122.322 26.9675 122.395 26.5717 122.395 26.0838V22.2266H124.148V26.2068C124.148 27.344 123.829 28.1969 123.196 28.7655C122.56 29.3341 121.593 29.6184 120.289 29.6184C118.984 29.6184 118.014 29.3341 117.381 28.7655Z" fill="black"/>
<path d="M128.176 23.6404H125.844V22.2305H132.25V23.6404H129.918V29.3956H128.176V23.6404Z" fill="black"/>
<path d="M134.885 28.7655C134.248 28.1969 133.934 27.344 133.934 26.2068V22.2266H135.687V26.0838C135.687 26.5717 135.76 26.9636 135.909 27.2671C136.059 27.5668 136.285 27.7935 136.592 27.9356C136.899 28.0816 137.298 28.1546 137.793 28.1546C138.287 28.1546 138.686 28.0816 138.993 27.9356C139.3 27.7896 139.53 27.5668 139.676 27.2671C139.826 26.9675 139.899 26.5717 139.899 26.0838V22.2266H141.652V26.2068C141.652 27.344 141.333 28.1969 140.7 28.7655C140.064 29.3341 139.097 29.6184 137.793 29.6184C136.488 29.6184 135.518 29.3341 134.885 28.7655Z" fill="black"/>
<path d="M146.45 26.7677H145.698V29.3956H143.945V22.2305H148.153C148.802 22.2305 149.35 22.338 149.799 22.5532C150.248 22.7683 150.562 23.0834 150.747 23.4983C150.869 23.7672 150.931 24.0899 150.931 24.4626C150.931 24.8775 150.862 25.2348 150.727 25.5383C150.566 25.9033 150.305 26.1915 149.952 26.3951C149.6 26.5987 149.158 26.7216 148.629 26.7562L151.487 29.3956H149.204L146.446 26.7677H146.45ZM145.698 25.5691H147.705C148.084 25.5691 148.384 25.5307 148.606 25.4538C148.829 25.377 148.99 25.2348 149.082 25.0312C149.135 24.9159 149.162 24.7507 149.162 24.5356C149.162 24.3512 149.135 24.209 149.082 24.0976C148.993 23.894 148.832 23.748 148.602 23.6597C148.368 23.5713 148.069 23.529 147.705 23.529H145.698V25.5691Z" fill="black"/>
<path d="M154.582 29.0577C153.834 28.6812 153.305 28.1395 152.986 27.4287C152.771 26.9562 152.66 26.4183 152.66 25.8151C152.66 25.2465 152.764 24.724 152.975 24.2399C153.186 23.7674 153.493 23.3602 153.903 23.0259C154.313 22.6917 154.808 22.4381 155.388 22.2652C155.967 22.0923 156.619 22.0078 157.344 22.0078C158.069 22.0078 158.706 22.0923 159.285 22.2614C159.864 22.4304 160.355 22.6801 160.758 23.0067C161.165 23.3371 161.471 23.729 161.679 24.19C161.909 24.7048 162.024 25.2465 162.024 25.8151C162.024 26.4221 161.901 26.9831 161.659 27.4902C161.333 28.1817 160.8 28.7081 160.06 29.073C159.316 29.438 158.406 29.6224 157.332 29.6224C156.258 29.6224 155.326 29.4342 154.582 29.0577ZM158.978 27.8167C159.423 27.5901 159.741 27.2635 159.929 26.8371C160.056 26.5105 160.121 26.1686 160.121 25.8113C160.121 25.4271 160.052 25.0775 159.918 24.7663C159.722 24.3398 159.404 24.0171 158.959 23.7981C158.518 23.5791 157.973 23.4677 157.332 23.4677C156.692 23.4677 156.159 23.5791 155.717 23.7981C155.276 24.0171 154.954 24.3398 154.758 24.7663C154.624 25.0775 154.555 25.4271 154.555 25.8113C154.555 26.1686 154.624 26.5105 154.758 26.8371C154.954 27.2635 155.276 27.5901 155.721 27.8167C156.166 28.0434 156.707 28.1548 157.344 28.1548C157.981 28.1548 158.529 28.0434 158.974 27.8167H158.978Z" fill="black"/>
<path d="M167.41 22.2305H169.163V29.3956H167.41V22.2305Z" fill="black"/>
<path d="M171.598 22.2305H173.573L177.869 27.4285V22.2305H179.611V29.3956H177.574L173.328 24.3012V29.3956H171.594V22.2305H171.598Z" fill="black"/>
<path d="M183.782 23.6404H181.449V22.2305H187.855V23.6404H185.523V29.3956H183.782V23.6404Z" fill="black"/>
<path d="M189.68 22.2305H195.833V23.5713H191.433V25.1465H195.802V26.4565H191.433V28.0586H195.833V29.3994H189.68V22.2343V22.2305Z" fill="black"/>
<path d="M200.548 26.7677H199.796V29.3956H198.043V22.2305H202.251C202.899 22.2305 203.448 22.338 203.897 22.5532C204.346 22.7683 204.66 23.0834 204.844 23.4983C204.967 23.7672 205.028 24.0899 205.028 24.4626C205.028 24.8775 204.959 25.2348 204.825 25.5383C204.664 25.9033 204.403 26.1915 204.05 26.3951C203.697 26.5987 203.256 26.7216 202.727 26.7562L205.585 29.3956H203.302L200.544 26.7677H200.548ZM199.796 25.5691H201.802C202.182 25.5691 202.481 25.5307 202.704 25.4538C202.926 25.377 203.087 25.2348 203.179 25.0312C203.233 24.9159 203.26 24.7507 203.26 24.5356C203.26 24.3512 203.233 24.209 203.179 24.0976C203.091 23.894 202.93 23.748 202.7 23.6597C202.466 23.5713 202.167 23.529 201.802 23.529H199.796V25.5691Z" fill="black"/>
<path d="M207.367 22.2305H209.343L213.639 27.4285V22.2305H215.381V29.3956H213.344L209.097 24.3012V29.3956H207.363V22.2305H207.367Z" fill="black"/>
<path d="M223.84 27.8238H219.631L218.891 29.399H216.996L220.514 22.2339H222.938L226.467 29.399H224.58L223.84 27.8238ZM223.199 26.483L221.741 23.3749H221.722L220.264 26.483H223.203H223.199Z" fill="black"/>
<path d="M229.172 29.0462C228.416 28.662 227.879 28.1126 227.572 27.398C227.361 26.9177 227.258 26.3914 227.258 25.8151C227.258 25.2388 227.361 24.7163 227.572 24.2399C227.783 23.7674 228.094 23.3602 228.508 23.0259C228.923 22.6917 229.425 22.4381 230.008 22.2652C230.591 22.0923 231.236 22.0078 231.938 22.0078C232.64 22.0078 233.319 22.1039 233.929 22.296C234.539 22.488 235.053 22.7685 235.463 23.1335C235.762 23.4101 235.992 23.7251 236.157 24.0824C236.322 24.4359 236.414 24.8201 236.437 25.235H234.592C234.558 25.0122 234.489 24.8047 234.385 24.6165C234.282 24.4282 234.147 24.263 233.986 24.1209C233.756 23.9057 233.468 23.7405 233.119 23.6329C232.77 23.5254 232.383 23.4716 231.957 23.4716C231.316 23.4716 230.768 23.583 230.315 23.8097C229.862 24.0363 229.54 24.3629 229.352 24.7893C229.21 25.1082 229.137 25.4501 229.137 25.8151C229.137 26.1801 229.207 26.5259 229.341 26.8294C229.529 27.2712 229.851 27.6016 230.307 27.8244C230.764 28.0473 231.309 28.1587 231.945 28.1587C232.387 28.1587 232.786 28.101 233.15 27.9896C233.514 27.8782 233.817 27.713 234.051 27.4979C234.209 27.348 234.335 27.1828 234.431 27.0023C234.527 26.8179 234.585 26.6219 234.6 26.4145H236.445C236.426 26.8409 236.334 27.2289 236.173 27.5786C236.012 27.9282 235.781 28.2317 235.482 28.4968C235.072 28.8694 234.558 29.1499 233.94 29.3381C233.326 29.5264 232.651 29.6224 231.922 29.6224C230.841 29.6224 229.924 29.4303 229.164 29.05L229.172 29.0462Z" fill="black"/>
<path d="M238.465 22.2305H240.218V29.3956H238.465V22.2305Z" fill="black"/>
<path d="M244.187 29.0577C243.439 28.6812 242.91 28.1395 242.592 27.4287C242.377 26.9562 242.266 26.4183 242.266 25.8151C242.266 25.2465 242.369 24.724 242.58 24.2399C242.791 23.7674 243.098 23.3602 243.508 23.0259C243.919 22.6917 244.414 22.4381 244.993 22.2652C245.572 22.0923 246.224 22.0078 246.949 22.0078C247.674 22.0078 248.311 22.0923 248.89 22.2614C249.47 22.4304 249.961 22.6801 250.363 23.0067C250.77 23.3371 251.077 23.729 251.284 24.19C251.514 24.7048 251.629 25.2465 251.629 25.8151C251.629 26.4221 251.507 26.9831 251.265 27.4902C250.939 28.1817 250.406 28.7081 249.665 29.073C248.921 29.438 248.012 29.6224 246.938 29.6224C245.864 29.6224 244.932 29.4342 244.187 29.0577ZM248.584 27.8167C249.028 27.5901 249.347 27.2635 249.535 26.8371C249.661 26.5105 249.727 26.1686 249.727 25.8113C249.727 25.4271 249.658 25.0775 249.523 24.7663C249.328 24.3398 249.009 24.0171 248.564 23.7981C248.123 23.5791 247.578 23.4677 246.938 23.4677C246.297 23.4677 245.764 23.5791 245.323 23.7981C244.882 24.0171 244.56 24.3398 244.364 24.7663C244.23 25.0775 244.161 25.4271 244.161 25.8113C244.161 26.1686 244.23 26.5105 244.364 26.8371C244.56 27.2635 244.882 27.5901 245.327 27.8167C245.772 28.0434 246.313 28.1548 246.949 28.1548C247.586 28.1548 248.135 28.0434 248.58 27.8167H248.584Z" fill="black"/>
<path d="M253.656 22.2305H255.632L259.928 27.4285V22.2305H261.67V29.3956H259.633L255.386 24.3012V29.3956H253.652V22.2305H253.656Z" fill="black"/>
<path d="M270.129 27.8238H265.92L265.18 29.399H263.285L266.803 22.2339H269.227L272.756 29.399H270.869L270.129 27.8238ZM269.492 26.483L268.034 23.3749H268.015L266.557 26.483H269.496H269.492Z" fill="black"/>
<path d="M274.434 22.2305H276.187V27.9472H279.186V29.3994H274.434V22.2343V22.2305Z" fill="black"/>
<path d="M34.68 13.0019H25.2811L23.6284 16.5169H19.3945L27.2524 0.504395H32.6652L40.5448 16.5169H36.3327L34.68 13.0019ZM33.2533 10.0077L29.9914 3.0677H29.9451L26.6833 10.0077H33.2506H33.2533Z" fill="white"/>
<path d="M43.1942 15.7343C41.5034 14.8807 40.3108 13.6509 39.6165 12.0475C39.1482 10.9731 38.9141 9.79502 38.9141 8.51064C38.9141 7.22626 39.1482 6.05368 39.6165 4.99564C40.0848 3.93759 40.7819 3.03498 41.7103 2.28508C42.6388 1.53517 43.7551 0.970701 45.062 0.583478C46.3689 0.198983 47.8065 0.00537109 49.3748 0.00537109C50.9431 0.00537109 52.457 0.220798 53.8238 0.651652C55.1906 1.08251 56.3342 1.70697 57.2544 2.52232C57.9188 3.14133 58.4361 3.85033 58.8064 4.64387C59.1767 5.4374 59.3836 6.29638 59.4299 7.21808H55.3077C55.2314 6.71905 55.0762 6.2582 54.8421 5.83553C54.6079 5.41286 54.3112 5.042 53.9463 4.72295C53.4317 4.24028 52.7864 3.8776 52.0104 3.6349C51.2317 3.39221 50.3686 3.27222 49.4184 3.27222C47.9835 3.27222 46.761 3.52583 45.7509 4.03303C44.738 4.54024 44.0219 5.26833 43.5999 6.22275C43.2841 6.93448 43.1234 7.69802 43.1234 8.51337C43.1234 9.32872 43.2732 10.1004 43.5754 10.7822C43.9974 11.7639 44.7189 12.5056 45.7372 13.0046C46.7556 13.5036 47.9753 13.7545 49.3939 13.7545C50.3741 13.7545 51.2726 13.6291 52.0894 13.3809C52.9035 13.1328 53.576 12.7646 54.1042 12.282C54.4527 11.9493 54.7332 11.5784 54.9537 11.1694C55.1715 10.7604 55.2968 10.3213 55.3267 9.85501H59.449C59.4027 10.8067 59.1985 11.6739 58.8364 12.451C58.4742 13.2309 57.9596 13.9127 57.2953 14.5044C56.375 15.3361 55.226 15.9633 53.8537 16.386C52.4788 16.8087 50.9785 17.0214 49.3476 17.0214C46.9325 17.0214 44.8796 16.5932 43.1888 15.7397L43.1942 15.7343Z" fill="white"/>
<path d="M60.5625 0.504395H74.3069V3.49855H64.4778V7.01356H74.2388V9.93954H64.4778V13.5227H74.3069V16.5169H60.5625V0.504395Z" fill="white"/>
<path d="M81.4402 10.6431H79.7657V16.5169H75.8477V0.504395H85.2466C86.6951 0.504395 87.923 0.747091 88.9277 1.22976C89.9324 1.71515 90.6376 2.41597 91.046 3.34039C91.3183 3.94577 91.4544 4.66295 91.4544 5.49466C91.4544 6.41636 91.3047 7.21808 91.0024 7.89981C90.6403 8.71516 90.0631 9.35598 89.2708 9.81683C88.4784 10.2777 87.4928 10.5476 86.3166 10.6213L92.7014 16.5169H87.6072L81.4483 10.6431H81.4402ZM79.7657 7.96525H84.25C85.0941 7.96525 85.7666 7.87799 86.2649 7.70347C86.7631 7.52894 87.1171 7.21535 87.3294 6.76268C87.4492 6.50635 87.5119 6.13549 87.5119 5.6501C87.5119 5.24106 87.452 4.91655 87.3294 4.67386C87.1334 4.22119 86.774 3.89396 86.254 3.69762C85.7339 3.50128 85.0641 3.40311 84.25 3.40311H79.7657V7.96253V7.96525Z" fill="white"/>
<path d="M96.2059 15.7343C94.5151 14.8807 93.3226 13.6509 92.6283 12.0475C92.1599 10.9731 91.9258 9.79502 91.9258 8.51064C91.9258 7.22626 92.1599 6.05368 92.6283 4.99564C93.0966 3.93759 93.7936 3.03498 94.722 2.28508C95.6505 1.53517 96.7668 0.970701 98.0737 0.583478C99.3806 0.198983 100.818 0.00537109 102.387 0.00537109C103.955 0.00537109 105.469 0.220798 106.836 0.651652C108.202 1.08251 109.346 1.70697 110.266 2.52232C110.931 3.14133 111.448 3.85033 111.818 4.64387C112.188 5.4374 112.395 6.29638 112.442 7.21808H108.319C108.243 6.71905 108.088 6.2582 107.854 5.83553C107.62 5.41286 107.323 5.042 106.958 4.72295C106.443 4.24028 105.798 3.8776 105.022 3.6349C104.243 3.39221 103.38 3.27222 102.43 3.27222C100.995 3.27222 99.7727 3.52583 98.7626 4.03303C97.7497 4.54024 97.0336 5.26833 96.6116 6.22275C96.2958 6.93448 96.1351 7.69802 96.1351 8.51337C96.1351 9.32872 96.2849 10.1004 96.5871 10.7822C97.0091 11.7639 97.7307 12.5056 98.749 13.0046C99.7673 13.5036 100.987 13.7545 102.406 13.7545C103.386 13.7545 104.284 13.6291 105.101 13.3809C105.915 13.1328 106.588 12.7646 107.116 12.282C107.464 11.9493 107.745 11.5784 107.965 11.1694C108.183 10.7604 108.309 10.3213 108.338 9.85501H112.461C112.414 10.8067 112.21 11.6739 111.848 12.451C111.486 13.2309 110.971 13.9127 110.307 14.5044C109.387 15.3361 108.238 15.9633 106.865 16.386C105.49 16.8087 103.99 17.0214 102.359 17.0214C99.9443 17.0214 97.8913 16.5932 96.2005 15.7397L96.2059 15.7343Z" fill="white"/>
<path d="M126.168 13.0019H116.769L115.117 16.5169H110.883L118.741 0.504395H124.153L132.033 16.5169H127.821L126.168 13.0019ZM124.742 10.0077L121.48 3.0677H121.433L118.172 10.0077H124.739H124.742Z" fill="white"/>
<path d="M132.395 0.504395H136.991L143.468 11.5484L149.989 0.504395H154.563V16.5169H150.849V5.3365L144.35 16.5169H142.608L136.087 5.3365V16.5169H132.395V0.504395Z" fill="white"/>
<path d="M160.033 15.7561C158.364 14.9162 157.177 13.7027 156.466 12.1156C155.982 11.0576 155.742 9.85501 155.742 8.51064C155.742 7.23989 155.976 6.07004 156.445 4.99564C156.913 3.93759 157.602 3.03498 158.517 2.28508C159.429 1.53517 160.537 0.970701 161.833 0.583478C163.132 0.198983 164.588 0.00537109 166.203 0.00537109C167.818 0.00537109 169.25 0.193529 170.54 0.572571C171.831 0.951613 172.928 1.50518 173.835 2.23872C174.741 2.97226 175.428 3.85306 175.896 4.88111C176.408 6.02914 176.666 7.23989 176.666 8.51064C176.666 9.87137 176.394 11.1176 175.852 12.252C175.128 13.7954 173.936 14.9734 172.275 15.7888C170.614 16.6041 168.583 17.0132 166.184 17.0132C163.785 17.0132 161.705 16.5932 160.036 15.7533L160.033 15.7561ZM169.849 12.991C170.845 12.4838 171.556 11.7557 171.978 10.8013C172.264 10.0759 172.408 9.31236 172.408 8.51064C172.408 7.64893 172.258 6.86903 171.956 6.17367C171.518 5.22197 170.804 4.49934 169.816 4.00849C168.828 3.51765 167.616 3.27222 166.181 3.27222C164.746 3.27222 163.559 3.51765 162.568 4.00849C161.58 4.49934 160.866 5.22197 160.428 6.17367C160.126 6.86903 159.976 7.64893 159.976 8.51064C159.976 9.31236 160.126 10.0759 160.428 10.8013C160.866 11.7529 161.582 12.4838 162.579 12.991C163.576 13.4982 164.782 13.7518 166.203 13.7518C167.624 13.7518 168.852 13.4982 169.849 12.991Z" fill="white"/>
<path d="M180.422 16.1434C179.003 15.5625 178.021 14.6654 177.479 13.4546C177.206 12.7893 177.07 12.0803 177.07 11.3222H181.124C181.154 11.7149 181.231 12.0639 181.35 12.3666C181.636 12.9856 182.154 13.441 182.902 13.7273C183.648 14.0137 184.582 14.1582 185.699 14.1582C186.679 14.1582 187.528 14.0491 188.247 13.8282C188.963 13.6101 189.429 13.2719 189.641 12.8193C189.717 12.6529 189.756 12.4484 189.756 12.2057C189.756 11.963 189.717 11.7667 189.641 11.6167C189.491 11.2676 189.181 10.9868 188.713 10.7659C188.244 10.5477 187.708 10.3732 187.104 10.245C186.499 10.1169 185.729 9.98326 184.795 9.84691C184.552 9.80056 184.109 9.72693 183.458 9.62058C181.917 9.33425 180.675 8.95521 179.733 8.48618C178.788 8.01715 178.129 7.3736 177.751 6.55825C177.555 6.10558 177.457 5.56837 177.457 4.94664C177.457 4.37126 177.563 3.8286 177.773 3.31321C178.091 2.58785 178.622 1.97975 179.368 1.48617C180.114 0.995326 181.01 0.624465 182.053 0.373588C183.096 0.122711 184.22 0 185.426 0C187.313 0 188.944 0.294508 190.316 0.883523C191.689 1.47254 192.633 2.34243 193.148 3.49046C193.39 4.04948 193.524 4.70121 193.557 5.44021H189.481C189.464 5.09389 189.383 4.75848 189.23 4.44216C188.745 3.33775 187.479 2.78691 185.426 2.78691C184.536 2.78691 183.749 2.89326 183.071 3.10324C182.391 3.31594 181.955 3.64044 181.759 4.07947C181.699 4.20219 181.669 4.35217 181.669 4.53214C181.669 4.72848 181.699 4.89482 181.759 5.03117C181.895 5.33386 182.17 5.58746 182.587 5.79198C183 5.9965 183.485 6.16284 184.035 6.29101C184.585 6.41917 185.315 6.56097 186.221 6.71095L187.376 6.91547C188.449 7.11181 189.388 7.33542 190.194 7.58357C191.003 7.83445 191.716 8.16986 192.334 8.59253C192.952 9.0152 193.407 9.54423 193.693 10.1796C193.919 10.7086 194.033 11.2758 194.033 11.8812C194.033 12.5466 193.905 13.1601 193.649 13.7191C193.151 14.8235 192.195 15.6471 190.785 16.1925C189.372 16.7378 187.665 17.0078 185.655 17.0078C183.646 17.0078 181.843 16.716 180.425 16.1352L180.422 16.1434Z" fill="white"/>
<path d="M3.0034 6.57423H0V4.75684H8.25046V6.57423H5.24706V13.9861H3.0034V6.57423Z" fill="white"/>
<path d="M9.29297 4.75684H17.2155V6.48117H11.5503V8.50658H17.1772V10.1926H11.5503V12.2591H17.2155V13.9834H9.29297V4.75684Z" fill="white"/>
<path d="M219.266 0.499512H223.865L230.345 11.552L236.87 0.499512H241.448V16.5217H237.731V5.33268L231.229 16.5217H229.485L222.96 5.33268V16.5217H219.266V0.499512Z" fill="white"/>
<path d="M245.299 15.1152C243.878 13.8452 243.168 11.9373 243.168 9.3953V0.499512H247.088V9.12419C247.088 10.2127 247.255 11.0954 247.586 11.7681C247.918 12.4407 248.429 12.9402 249.115 13.2663C249.803 13.5925 250.696 13.7535 251.799 13.7535C252.902 13.7535 253.796 13.5904 254.484 13.2663C255.172 12.9422 255.681 12.4428 256.012 11.7681C256.344 11.0954 256.511 10.2127 256.511 9.12419V0.499512H260.431V9.3953C260.431 11.9373 259.721 13.8432 258.302 15.1152C256.881 16.3851 254.714 17.0211 251.799 17.0211C248.885 17.0211 246.715 16.3851 245.297 15.1152H245.299Z" fill="white"/>
<path d="M262.156 0.499512H266.575L276.183 12.1187V0.499512H280.081V16.5217H275.526L266.031 5.12883V16.5217H262.156V0.499512Z" fill="white"/>
<path d="M282.121 0.499512H291.094C293.36 0.499512 295.261 0.882741 296.793 1.64512C298.326 2.40954 299.425 3.54699 300.09 5.06156C300.544 6.10525 300.77 7.25493 300.77 8.51062C300.77 9.7663 300.544 10.9833 300.09 11.9821C299.396 13.4946 298.285 14.63 296.758 15.3863C295.232 16.1426 293.345 16.5217 291.094 16.5217H282.121V0.499512ZM290.822 13.3214C292.181 13.3214 293.307 13.1032 294.198 12.6629C295.09 12.2247 295.731 11.5744 296.124 10.7121C296.41 10.0619 296.555 9.32804 296.555 8.51062C296.555 7.6932 296.41 6.93693 296.124 6.28667C295.322 4.56214 293.555 3.69988 290.822 3.69988H286.041V13.3214H290.822Z" fill="white"/>
<path d="M305.357 15.7613C303.688 14.9214 302.497 13.7065 301.787 12.1186C301.303 11.0606 301.062 9.85794 301.062 8.51052C301.062 7.23853 301.297 6.06642 301.765 4.99216C302.233 3.93421 302.925 3.02914 303.839 2.28102C304.752 1.53291 305.86 0.964186 307.158 0.578919C308.457 0.193652 309.914 0 311.532 0C313.15 0 314.578 0.189576 315.871 0.566689C317.163 0.94584 318.262 1.5003 319.168 2.23414C320.074 2.96798 320.762 3.84859 321.23 4.87801C321.743 6.02769 322.001 7.23853 322.001 8.50849C322.001 9.87017 321.728 11.1177 321.185 12.2531C320.46 13.7962 319.266 14.9765 317.605 15.7939C315.942 16.6113 313.911 17.019 311.509 17.019C309.108 17.019 307.026 16.5991 305.357 15.7592V15.7613ZM315.179 12.9931C316.176 12.4855 316.886 11.7557 317.308 10.8038C317.595 10.0781 317.739 9.31367 317.739 8.51256C317.739 7.6503 317.589 6.87161 317.285 6.17446C316.848 5.22047 316.133 4.49886 315.144 4.00759C314.155 3.51633 312.942 3.26967 311.507 3.26967C310.072 3.26967 308.882 3.51633 307.893 4.00759C306.904 4.49886 306.189 5.22251 305.752 6.17446C305.448 6.87161 305.298 7.6503 305.298 8.51256C305.298 9.31367 305.448 10.0781 305.752 10.8038C306.189 11.7578 306.908 12.4875 307.905 12.9931C308.902 13.5006 310.111 13.7534 311.53 13.7534C312.948 13.7534 314.182 13.5006 315.177 12.9931H315.179Z" fill="white"/>
<path d="M198.484 4.37451H206.408V6.10028H200.742V8.12663H206.369V9.81355H200.742V11.8787H206.408V13.6045H198.484V4.37451Z" fill="white"/>
<path d="M207.299 4.37451H209.557V11.7356H213.42V13.6045H207.297V4.37451H207.299Z" fill="white"/>
</svg>
