<svg width="191" height="40" viewBox="0 0 191 40" fill="none" xmlns="http://www.w3.org/2000/svg">
<g opacity="0.7">
<path d="M47.4013 21.8606H18.3417C18.0586 21.2539 17.8968 20.5865 17.8968 19.8788C17.8968 19.171 18.0586 18.5036 18.3417 17.897H47.4013C47.4822 16.7847 47.6035 15.6725 47.8058 14.5805H16.6025C15.3488 15.996 14.5803 17.8363 14.5803 19.8788C14.5803 21.9212 15.3488 23.7615 16.6025 25.177H47.8058C47.6035 24.085 47.4822 22.993 47.4013 21.8606Z" fill="white"/>
<path d="M52.3559 36.4206H9.12032C5.48028 31.8908 3.29626 26.1274 3.29626 19.8584C3.29626 13.5895 5.48028 7.84631 9.12032 3.31648H52.3357C53.1243 2.14358 53.9737 1.05157 54.9039 0H7.58341C2.87159 5.27806 0 12.2346 0 19.8584C0 27.4823 2.87159 34.459 7.58341 39.7169H54.9039C53.9737 38.6855 53.1041 37.5733 52.3357 36.4004" fill="white"/>
<path d="M48.7965 29.1405H13.6903C11.7692 26.5521 10.6165 23.3367 10.6165 19.8787C10.6165 16.4206 11.7692 13.185 13.6903 10.5966H48.7965C49.1605 9.4641 49.6054 8.35187 50.1109 7.28008H12.113C9.12004 10.6168 7.30002 15.0253 7.30002 19.8787C7.30002 24.732 9.12004 29.1203 12.113 32.457H50.1109C49.6054 31.3852 49.1807 30.273 48.7965 29.1405Z" fill="white"/>
<path d="M69.0599 38.8878C67.8263 38.1598 66.9163 37.1082 66.3298 35.7331C65.7434 34.459 65.4603 32.9221 65.4603 31.1021C65.4603 29.2821 65.7434 27.7452 66.3298 26.4307C66.9365 25.0758 67.8465 24.0445 69.0801 23.3165C70.3137 22.5885 71.8101 22.2043 73.5897 22.2043C74.7019 22.2043 75.7131 22.366 76.6433 22.6896C77.5735 23.0132 78.3824 23.4783 79.0498 24.1052C79.6767 24.6714 80.162 25.3387 80.5058 26.1476C80.8495 26.9565 81.0518 27.8261 81.0922 28.7765H78.1802C78.1195 27.5632 77.6948 26.5723 76.9062 25.8443C76.0366 25.0758 74.9042 24.6916 73.4886 24.6916C72.3966 24.6916 71.4866 24.9141 70.7181 25.3792C69.9699 25.8443 69.4036 26.4914 69.0194 27.3205C68.8172 27.8261 68.6554 28.3721 68.5543 28.999C68.4532 29.6057 68.3925 30.3135 68.3925 31.1224C68.3925 31.9312 68.433 32.6593 68.5341 33.2659C68.6352 33.8726 68.797 34.4388 69.0194 34.9039C69.4036 35.7533 69.9699 36.4004 70.7181 36.8453C71.4663 37.2902 72.3966 37.5126 73.4886 37.5126C74.2166 37.5126 74.8637 37.4115 75.4502 37.2093C76.0366 37.0071 76.5422 36.724 76.9669 36.36C77.7555 35.6522 78.16 34.6613 78.2206 33.3873H81.1327C81.1327 34.3579 80.9304 35.2275 80.5867 36.0364C80.2429 36.8453 79.7575 37.5329 79.1306 38.0991C78.4633 38.726 77.6544 39.1911 76.7039 39.5147C75.7535 39.8382 74.7222 40 73.6099 40C71.8101 40 70.2934 39.636 69.0599 38.8878Z" fill="white"/>
<path d="M85.7028 39.0294C84.7726 38.4632 84.085 37.6947 83.6401 36.7038C83.2357 35.8545 83.0335 34.8636 83.0335 33.6907C83.0335 32.5178 83.2357 31.5269 83.6401 30.6573C84.085 29.6664 84.7726 28.8778 85.7028 28.3317C86.633 27.7655 87.7655 27.4824 89.1204 27.4824C90.4753 27.4824 91.6078 27.7655 92.538 28.3317C93.4682 28.898 94.176 29.6664 94.6209 30.6573C95.0254 31.5471 95.2276 32.5582 95.2276 33.6907C95.2276 34.8231 95.0254 35.7938 94.6209 36.7241C94.176 37.715 93.4884 38.4834 92.538 39.0496C91.6078 39.5956 90.4551 39.8788 89.1204 39.8788C87.7857 39.8788 86.633 39.5956 85.7028 39.0294ZM90.9202 37.1892C91.4055 36.8858 91.7695 36.4814 92.0122 35.9556C92.2549 35.4096 92.3762 34.6614 92.3762 33.6907C92.3762 32.72 92.2549 31.9516 92.0122 31.4258C91.7695 30.8798 91.4055 30.4753 90.9202 30.172C90.4349 29.8889 89.8282 29.7473 89.1002 29.7473C88.3722 29.7473 87.7857 29.8889 87.3004 30.172C86.815 30.4551 86.451 30.8798 86.2286 31.4258C85.9657 31.992 85.8444 32.7402 85.8444 33.6907C85.8444 34.6411 85.9657 35.3692 86.2286 35.9556C86.4713 36.4814 86.8353 36.9061 87.3004 37.1892C87.7857 37.4925 88.3722 37.6341 89.1002 37.6341C89.8282 37.6341 90.4349 37.4925 90.9202 37.1892Z" fill="white"/>
<path d="M106.997 28.7361C107.785 29.545 108.17 30.7381 108.17 32.3155V39.5955H105.52V32.8412C105.52 31.7897 105.298 31.001 104.873 30.5157C104.449 30.0101 103.781 29.7674 102.871 29.7674C101.921 29.7674 101.213 30.0303 100.707 30.5763C100.202 31.1223 99.9592 31.911 99.9592 32.9626V39.5955H97.2899V27.8261H99.9592V29.1405C100.768 28.0485 102.002 27.5025 103.64 27.5025C105.076 27.5025 106.188 27.907 106.976 28.7361" fill="white"/>
<path d="M122.75 27.8059H120.081V39.5754H122.75V27.8059Z" fill="white"/>
<path d="M135.248 28.7361C136.036 29.545 136.421 30.7381 136.421 32.3155V39.5955H133.772V32.8412C133.772 31.7897 133.549 31.001 133.124 30.5157C132.7 30.0101 132.032 29.7674 131.122 29.7674C130.172 29.7674 129.464 30.0303 128.959 30.5763C128.453 31.1223 128.21 31.911 128.21 32.9626V39.5955H125.541V27.8261H128.21V29.1405C129.019 28.0485 130.253 27.5025 131.891 27.5025C133.327 27.5025 134.439 27.907 135.228 28.7361" fill="white"/>
<path d="M147.664 36.3195C147.806 36.0566 147.887 35.7735 147.927 35.5106H150.576C150.455 36.7037 149.99 37.6744 149.181 38.4429C148.655 38.908 148.008 39.272 147.26 39.5147C146.512 39.7573 145.682 39.8787 144.793 39.8787C143.418 39.8787 142.245 39.5956 141.274 39.0698C140.303 38.5238 139.596 37.7553 139.151 36.7644C138.766 35.8949 138.564 34.8837 138.564 33.6906C138.564 33.0839 138.605 32.5379 138.706 32.0324C138.807 31.5268 138.948 31.0617 139.13 30.637C139.575 29.6461 140.263 28.8777 141.213 28.3317C142.144 27.7857 143.276 27.5228 144.59 27.5228C145.905 27.5228 147.037 27.8059 147.968 28.3317C148.898 28.8777 149.585 29.6461 150.03 30.6168C150.273 31.1628 150.435 31.729 150.516 32.3155C150.597 32.9019 150.657 33.6097 150.657 34.4388H141.254C141.294 35.1466 141.416 35.6926 141.618 36.0971C141.86 36.6431 142.245 37.0678 142.77 37.3509C143.296 37.634 143.964 37.7755 144.732 37.7755C145.238 37.7755 145.703 37.7149 146.127 37.5935C146.552 37.4722 146.896 37.2902 147.159 37.0475C147.361 36.8453 147.543 36.6229 147.685 36.36M141.598 31.3448C141.436 31.6886 141.335 32.0728 141.294 32.4773H147.907C147.867 32.0526 147.765 31.6481 147.624 31.2437C147.361 30.7179 146.997 30.3135 146.491 30.0506C145.986 29.7877 145.379 29.6461 144.651 29.6461C143.155 29.6461 142.144 30.2123 141.618 31.3448" fill="white"/>
<path d="M162.589 28.7361C163.377 29.545 163.762 30.7381 163.762 32.3155V39.5955H161.112V32.8412C161.112 31.7897 160.89 31.001 160.465 30.5157C160.041 30.0101 159.373 29.7674 158.463 29.7674C157.513 29.7674 156.805 30.0303 156.299 30.5763C155.794 31.1223 155.551 31.911 155.551 32.9626V39.5955H152.882V27.8261H155.551V29.1405C156.36 28.0485 157.594 27.5025 159.232 27.5025C160.667 27.5025 161.78 27.907 162.568 28.7361" fill="white"/>
<path d="M185.905 32.6997V39.5956H183.235V38.2811C182.386 39.3529 181.031 39.8989 179.191 39.8989C178.139 39.8989 177.27 39.7372 176.542 39.3934C175.814 39.0496 175.308 38.5643 175.025 37.8969C174.823 37.4318 174.722 36.906 174.722 36.3196C174.722 35.7331 174.823 35.2073 175.005 34.7827C175.409 33.8929 176.077 33.3064 177.047 32.9626C178.018 32.6391 179.251 32.4773 180.768 32.4773H183.215V32.174C183.215 31.8706 183.215 31.628 183.175 31.4257C183.134 31.2235 183.074 31.0213 182.972 30.8191C182.629 30.0506 181.8 29.6664 180.525 29.6664C179.878 29.6664 179.332 29.7473 178.908 29.9293C178.483 30.1113 178.2 30.3944 178.018 30.7786C177.897 31.0617 177.856 31.3246 177.856 31.5673H175.167C175.167 30.8999 175.288 30.3337 175.51 29.8686C176.198 28.3317 177.856 27.5632 180.505 27.5632C181.8 27.5632 182.851 27.7655 183.66 28.1497C184.469 28.5339 185.055 29.1406 185.399 29.9495C185.723 30.6573 185.884 31.5875 185.884 32.7604M183.235 34.5198V34.3782H180.95C180.06 34.3782 179.332 34.4591 178.766 34.6007C178.18 34.7422 177.816 35.0051 177.634 35.3893C177.533 35.5713 177.492 35.814 177.492 36.0567C177.492 36.2993 177.533 36.5622 177.634 36.7847C177.795 37.1285 178.079 37.3711 178.483 37.5329C178.887 37.6947 179.353 37.7756 179.899 37.7756C180.667 37.7756 181.314 37.634 181.82 37.3711C182.325 37.1082 182.71 36.7038 182.952 36.178C183.154 35.7129 183.235 35.1669 183.235 34.54" fill="white"/>
<path d="M190.657 23.0334H187.988V39.5956H190.657V23.0334Z" fill="white"/>
<path d="M122.992 24.7119C122.992 23.8423 122.285 23.1345 121.415 23.1345C120.545 23.1345 119.838 23.8423 119.838 24.7119C119.838 25.5814 120.545 26.2892 121.415 26.2892C122.285 26.2892 122.992 25.5814 122.992 24.7119Z" fill="white"/>
<path d="M81.3345 5.5815C82.1232 6.39039 82.5074 7.58352 82.5074 9.16087V16.4409H79.8583V9.68665C79.8583 8.63508 79.6358 7.84641 79.2111 7.36107C78.7865 6.85551 78.1191 6.61284 77.2091 6.61284C76.2587 6.61284 75.5509 6.87573 75.0453 7.42174C74.5397 7.96774 74.2971 8.75642 74.2971 9.80799V16.4409H71.6277V4.67149H74.2971V5.98594C75.106 4.89393 76.3396 4.34793 77.9776 4.34793C79.4134 4.34793 80.5256 4.75238 81.3143 5.5815" fill="white"/>
<path d="M109.362 4.67143H106.693V16.4409H109.362V4.67143Z" fill="white"/>
<path d="M87.1786 16.2386C86.3899 15.8544 85.8034 15.2679 85.4597 14.4995C85.1968 13.9333 85.0754 13.2861 85.0754 12.5379H87.6639C87.6639 12.9828 87.7448 13.367 87.9066 13.6704C88.2504 14.4388 89.0188 14.823 90.1917 14.823C91.3646 14.823 92.0724 14.5197 92.3555 13.913C92.4364 13.7108 92.4769 13.5086 92.4769 13.3064C92.4769 13.0839 92.4364 12.8817 92.3555 12.6795C92.2342 12.4368 92.0724 12.2548 91.8095 12.093C91.5668 11.9515 91.2635 11.8301 90.8995 11.729C90.5355 11.6279 90.0299 11.5066 89.3828 11.3852C88.493 11.183 87.7246 10.8999 87.0977 10.5561C86.4708 10.2123 86.0259 9.72699 85.7428 9.12032C85.581 8.75632 85.5001 8.31142 85.5001 7.82608C85.5001 7.3003 85.6012 6.83518 85.7832 6.43073C86.0866 5.78362 86.6124 5.25783 87.3606 4.91405C88.1088 4.55005 89.0188 4.36805 90.0704 4.36805C91.122 4.36805 92.0522 4.55005 92.8004 4.89383C93.5486 5.23761 94.0947 5.76339 94.4182 6.45096C94.6204 6.9363 94.7215 7.50252 94.7215 8.19009H92.1937C92.1937 7.84631 92.1331 7.50252 92.0117 7.19919C91.85 6.87563 91.6073 6.63296 91.2635 6.47118C90.9197 6.3094 90.5153 6.22851 90.0299 6.22851C89.0593 6.22851 88.4324 6.4914 88.1897 7.01719C88.129 7.15874 88.0886 7.34074 88.0886 7.56319C88.0886 7.76542 88.129 7.92719 88.1897 8.04853C88.311 8.31142 88.493 8.51365 88.7964 8.67543C89.0795 8.8372 89.403 8.95854 89.7266 9.03943C90.0502 9.12032 90.5355 9.24165 91.1826 9.38321C92.1735 9.6461 92.9824 9.94944 93.6295 10.2932C94.2564 10.637 94.7215 11.1223 95.0047 11.729C95.1664 12.093 95.2473 12.5379 95.2473 13.0435C95.2473 13.6097 95.1462 14.1153 94.9642 14.6006C94.6204 15.3286 94.034 15.8746 93.1644 16.2386C92.3151 16.6228 91.304 16.8048 90.1513 16.8048C88.9986 16.8048 87.9672 16.6026 87.1786 16.2184" fill="white"/>
<path d="M147.078 15.8949C146.148 15.3287 145.46 14.5603 145.015 13.5694C144.611 12.72 144.409 11.7291 144.409 10.5562C144.409 9.38331 144.611 8.39242 145.015 7.52285C145.46 6.53195 146.148 5.74328 147.078 5.19727C148.008 4.63104 149.141 4.34793 150.496 4.34793C151.851 4.34793 152.983 4.63104 153.913 5.19727C154.844 5.7635 155.551 6.53195 155.996 7.52285C156.401 8.41264 156.603 9.42376 156.603 10.5562C156.603 11.6887 156.401 12.6593 155.996 13.5896C155.551 14.5805 154.864 15.3489 153.913 15.9152C152.983 16.4612 151.83 16.7443 150.496 16.7443C149.161 16.7443 148.008 16.4612 147.078 15.8949ZM152.295 14.0547C152.781 13.7514 153.145 13.3469 153.387 12.8211C153.63 12.2751 153.751 11.5269 153.751 10.5562C153.751 9.58554 153.63 8.81709 153.387 8.2913C153.145 7.7453 152.781 7.32063 152.295 7.03751C151.81 6.7544 151.203 6.61284 150.475 6.61284C149.747 6.61284 149.161 6.7544 148.676 7.03751C148.19 7.32063 147.826 7.7453 147.604 8.2913C147.341 8.85753 147.22 9.60576 147.22 10.5562C147.22 11.5067 147.341 12.2347 147.604 12.8211C147.847 13.3469 148.211 13.7716 148.676 14.0547C149.161 14.358 149.747 14.4996 150.475 14.4996C151.203 14.4996 151.81 14.358 152.295 14.0547Z" fill="white"/>
<path d="M99.3327 15.7331C98.7462 15.1264 98.4631 14.1558 98.4631 12.8211V6.85546H96.6431V4.67144H98.4631V5.33637e-05H101.112V4.67144H104.449V6.85546H101.112V12.3357C101.112 13.0435 101.254 13.5491 101.557 13.8929C101.861 14.2367 102.305 14.3782 102.932 14.3782C103.438 14.3782 103.923 14.3175 104.348 14.1962V16.4005C103.6 16.5622 102.851 16.6431 102.144 16.6431C100.87 16.6431 99.9191 16.3398 99.3529 15.7331" fill="white"/>
<path d="M114.237 15.7331C113.65 15.1264 113.367 14.1558 113.367 12.8211V6.85546H111.547V4.67144H113.367V5.33637e-05H116.016V4.67144H119.353V6.85546H116.016V12.3357C116.016 13.0435 116.158 13.5491 116.461 13.8929C116.765 14.2164 117.21 14.3782 117.836 14.3782C118.342 14.3782 118.827 14.3175 119.252 14.1962V16.4005C118.504 16.5622 117.756 16.6431 117.048 16.6431C115.774 16.6431 114.823 16.3398 114.257 15.7331" fill="white"/>
<path d="M109.606 1.5774C109.606 0.707839 108.898 5.33637e-05 108.029 5.33637e-05C107.159 5.33637e-05 106.451 0.707839 106.451 1.5774C106.451 2.44697 107.159 3.15475 108.029 3.15475C108.898 3.15475 109.606 2.44697 109.606 1.5774Z" fill="white"/>
<path d="M68.21 5.33637e-05H65.4395V16.4409H68.21V5.33637e-05Z" fill="white"/>
<path d="M132.457 4.67143V16.3398H129.828V15.0051C129.019 16.0971 127.785 16.6431 126.168 16.6431C124.732 16.6431 123.62 16.2387 122.831 15.4298C122.042 14.6209 121.638 13.448 121.638 11.8908V4.67143H124.267V11.3651C124.267 12.4166 124.489 13.1851 124.934 13.6704C125.379 14.1558 126.026 14.3984 126.916 14.3984C127.866 14.3984 128.574 14.1355 129.08 13.5895C129.585 13.0435 129.828 12.2751 129.828 11.2437V4.67143H132.457Z" fill="white"/>
<path d="M137.472 15.7331C136.885 15.1264 136.602 14.1558 136.602 12.8211V6.85546H134.782V4.67144H136.602V5.33637e-05H139.252V4.67144H142.588V6.85546H139.252V12.3357C139.252 13.0435 139.393 13.5491 139.696 13.8929C140 14.2164 140.445 14.3782 141.072 14.3782C141.577 14.3782 142.062 14.3175 142.487 14.1962V16.4005C141.739 16.5622 140.991 16.6431 140.283 16.6431C139.009 16.6431 138.058 16.3398 137.492 15.7331" fill="white"/>
<path d="M112.518 38.8878C111.931 38.2812 111.648 37.3105 111.648 35.9758V30.0102H109.828V27.8262H111.648V23.1548H114.297V27.8262H117.634V30.0102H114.297V35.4905C114.297 36.1982 114.439 36.7038 114.742 37.0476C115.046 37.3711 115.49 37.5329 116.117 37.5329C116.623 37.5329 117.108 37.4723 117.533 37.3509V39.5552C116.785 39.7169 116.036 39.7978 115.329 39.7978C114.055 39.7978 113.104 39.4945 112.538 38.8878" fill="white"/>
<path d="M168.109 38.8878C167.522 38.2812 167.239 37.3105 167.239 35.9758V30.0102H165.419V27.8262H167.239V23.1548H169.888V27.8262H173.225V30.0102H169.888V35.4905C169.888 36.1982 170.03 36.7038 170.333 37.0476C170.637 37.3711 171.081 37.5329 171.708 37.5329C172.214 37.5329 172.699 37.4723 173.124 37.3509V39.5552C172.376 39.7169 171.627 39.7978 170.92 39.7978C169.646 39.7978 168.695 39.4945 168.129 38.8878" fill="white"/>
</g>
</svg>
