<svg xmlns="http://www.w3.org/2000/svg" width="90" height="90" fill="none" viewBox="0 0 90 90"><g fill="#010101"><path d="M81.34 27.706v19.008L62.742 75h-3.326l19.037-29.03V31.79l-3.442 3.443v8.038L57.43 60.85l-2.042-2.028 15.565-15.565h-4.872l-16.47 16.47V75h-2.874V58.545l2.874-2.874 12.4-12.414 2.874-2.874h7.235v-6.346l2.889-2.888 3.442-3.443h2.889ZM8.66 27.706v19.008L27.245 75h3.326L11.55 45.97V31.79l3.442 3.443v8.038L32.57 60.85l2.042-2.028-15.565-15.565h4.872l16.47 16.47V75h2.874V58.545l-2.874-2.874-12.4-12.414-2.874-2.874H17.88v-6.346L14.99 31.15l-3.442-3.443H8.66Z"/><path d="M24.329 36.926a20.574 20.574 0 0 1 2.29-7.936h5.325c-.671 2.524-1.065 5.295-1.167 8.227h-3.925l2.889 2.889h1.036c0 .379.043.744.073 1.108l3.267 3.268c-.233-1.4-.379-2.874-.437-4.376h9.905v8.227h-5.602l2.888 2.889H43.6v2.728l1.46 1.458 1.414-1.415v-2.771h2.757l2.889-2.889h-5.646v-8.227h9.905a35.97 35.97 0 0 1-.452 4.42l3.268-3.268c.029-.38.058-.758.073-1.138h1.08l2.888-2.888H59.28c-.102-2.932-.496-5.69-1.167-8.228h5.325c1.27 2.407 2.042 5.092 2.29 7.936h2.903C67.67 24.672 57.472 15 45 15c-12.473 0-22.684 9.672-23.574 21.926h2.903ZM61.513 26.1h-4.376c-.904-2.436-2.072-4.566-3.443-6.302a20.763 20.763 0 0 1 7.834 6.302h-.015ZM46.43 18.078c3.035.73 5.719 3.735 7.542 8.023H46.43v-8.023Zm0 10.912h8.578c.744 2.494 1.196 5.28 1.313 8.227h-9.905V28.99h.014Zm-2.873 8.227H33.65c.117-2.932.584-5.718 1.313-8.227h8.578v8.227h.015Zm0-19.139v8.023h-7.542c1.823-4.274 4.507-7.279 7.542-8.023Zm-7.265 1.736c-1.371 1.721-2.538 3.851-3.443 6.302h-4.376a20.93 20.93 0 0 1 7.833-6.302h-.014Z"/></g></svg>
