<svg width="90" height="90" viewBox="0 0 90 90" fill="none" xmlns="http://www.w3.org/2000/svg">
<path d="M78.6096 35.3969H75.3809V71.1264H78.6096V35.3969Z" fill="#121212"/>
<path d="M81.897 31.456L45.0042 14.25L4.28906 33.2365L8.1113 35.0171L18.5037 39.872V36.3109L11.9217 33.2365L45.0042 17.8111L78.0748 33.2365L71.4927 36.3109V39.872L81.903 35.0171L85.7074 33.2365L81.903 31.456H81.897ZM21.7384 37.8125V41.3736L25.6081 43.1898V39.6287L21.7384 37.8125ZM57.2781 42.9405V46.5016L61.1478 44.6854V41.1243L57.2781 42.9405ZM35.9531 44.4421V48.0032L45.0042 52.2171L54.0375 48.0032V44.4421L45.0042 48.6561L35.9531 44.4421ZM28.8428 44.6854L32.7303 46.5016V42.9405L28.8428 41.1243V44.6854ZM64.3824 39.6228V43.1838L68.2521 41.3677V37.8066L64.3824 39.6228Z" fill="#121212"/>
<path d="M57.2781 42.9405V54.3479L54.0434 55.8494L45.0042 60.0634L32.7362 54.3479V42.9405L35.9531 44.4421V52.2884L45.0042 56.5023L54.0434 52.2884V44.4421L57.2781 42.9405Z" fill="#121212"/>
<path d="M64.3824 39.6228V58.8704L61.1478 60.372L45.0042 67.9037L28.8487 60.372L25.614 58.8526V39.6228L28.8487 41.1243V56.8109L45.0042 64.3426L61.1478 56.8109L61.1478 41.1243L64.3824 39.6228Z" fill="#121212"/>
<path d="M71.4927 36.305V63.399L68.2581 64.9005L45.0042 75.75L21.7384 64.9005L18.5037 63.399V36.305L21.7384 37.8125V61.3395L45.0042 72.1889L68.2581 61.3395V37.8125L71.4927 36.305Z" fill="#121212"/>
<path d="M65.0834 31.4562L45.0048 22.0964L21.104 33.2367L45.0048 44.377L65.0834 35.0173L68.8879 33.2367L65.0834 31.4562ZM45.0048 40.8159L28.7485 33.2367L45.0048 25.6575L61.2612 33.2367L45.0048 40.8159Z" fill="#121212"/>
</svg>
