<svg width="90" height="90" viewBox="0 0 90 90" fill="none" xmlns="http://www.w3.org/2000/svg">
<path d="M66.4329 72.6843V60.9469C63.4315 58.2572 59.4626 56.6172 55.1164 56.6172C50.7703 56.6172 46.8068 58.2518 43.8055 60.936V72.6788H46.7795V62.3628C49.1084 60.6299 51.9894 59.6021 55.111 59.6021C58.2326 59.6021 61.1245 60.6299 63.4534 62.3683V72.6788H66.4274L66.4329 72.6843Z" fill="#121212"/>
<path d="M55.1171 63.1666C53.2857 63.1666 51.6183 63.8554 50.3554 64.9871V72.6844H53.3294V66.5451C53.8706 66.2882 54.4774 66.1406 55.1171 66.1406C55.7567 66.1406 56.3635 66.2882 56.9047 66.5451V72.6844H59.8787V64.9871C58.6159 63.8554 56.9485 63.1666 55.1171 63.1666Z" fill="#121212"/>
<path d="M55.1214 30.4366C48.8783 30.4366 43.8214 35.4934 43.8214 41.7366C43.8214 47.9798 48.8783 53.0366 55.1214 53.0366C61.3646 53.0366 66.4215 47.9634 66.4215 41.7366C66.4215 35.5098 61.3646 30.4366 55.1214 30.4366ZM55.1214 50.0627C50.5183 50.0627 46.8009 46.3288 46.8009 41.7421C46.8009 37.1554 50.5183 33.4051 55.1214 33.4051C59.7245 33.4051 63.442 37.139 63.442 41.7421C63.442 46.3452 59.7081 50.0627 55.1214 50.0627Z" fill="#121212"/>
<path d="M72.9713 59.1155C74.0865 58.618 74.9885 57.7324 75.486 56.6008C75.7703 55.9666 75.9398 55.2614 75.9398 54.5234V28.922C75.9398 28.184 75.7758 27.4787 75.486 26.8446C74.9885 25.7184 74.0865 24.8273 72.9713 24.3298C72.3371 24.0291 71.6319 23.8651 70.8774 23.8651H19.1171C18.3627 23.8651 17.6574 24.0291 17.0233 24.3298C15.908 24.8273 15.006 25.7129 14.5085 26.8446C14.2243 27.4787 14.0548 28.184 14.0548 28.922V54.5234C14.0548 55.2614 14.2188 55.9666 14.5085 56.6008C15.006 57.7269 15.908 58.618 17.0233 59.1155C17.6574 59.4162 18.3627 59.5802 19.1171 59.5802H40.2356V56.6008H19.1171C17.9581 56.6008 17.0233 55.6659 17.0233 54.5234V28.922C17.0233 27.7794 17.9581 26.8446 19.1171 26.8446H70.8774C72.0364 26.8446 72.9713 27.7794 72.9713 28.922V54.5234C72.9713 55.6659 72.0364 56.6008 70.8774 56.6008H69.9973V59.5802H70.8774C71.6319 59.5802 72.3371 59.4162 72.9713 59.1155Z" fill="#121212"/>
<path d="M80.6905 20.2841C80.3461 19.8468 79.9524 19.4586 79.5151 19.1087C78.132 17.9935 76.3826 17.3156 74.4582 17.3156H15.5363C13.612 17.3156 11.8626 17.9935 10.4794 19.1087C10.0421 19.4532 9.65395 19.8468 9.30407 20.2841C8.17789 21.6727 7.5 23.433 7.5 25.341V58.1039C7.5 60.0173 8.17789 61.7777 9.30407 63.1608C9.64848 63.5981 10.0421 63.9863 10.4794 64.3362C11.8626 65.4514 13.612 66.1293 15.5363 66.1293H40.2356V63.1663H15.5363C12.7373 63.1663 10.4794 60.892 10.4794 58.1094V25.341C10.4794 22.5583 12.7373 20.2841 15.5363 20.2841H74.4637C77.2627 20.2841 79.5206 22.5583 79.5206 25.341V58.1039C79.5206 60.8866 77.2627 63.1608 74.4637 63.1608H70.0027V66.1238H74.4637C76.388 66.1238 78.1374 65.4459 79.5206 64.3307C79.9579 63.9863 80.3461 63.5927 80.6959 63.1553C81.8221 61.7722 82.5 60.0119 82.5 58.0985V25.341C82.5 23.4276 81.8221 21.6672 80.6959 20.2841H80.6905Z" fill="#121212"/>
<path d="M34.561 39.6316L26.8418 31.9124H23.8623V51.5658H26.8418L36.6712 41.7363L34.5665 39.6316H34.561ZM26.8418 47.3508V36.1219L32.4563 41.7363L26.8418 47.3508Z" fill="#121212"/>
</svg>
