<svg xmlns="http://www.w3.org/2000/svg" width="90" height="90" fill="none" viewBox="0 0 90 90"><g fill="#010101"><path d="M54.425 23.299a21.816 21.816 0 0 0-3.15-1.109 23.414 23.414 0 0 0-6.271-.846 23.614 23.614 0 0 0-17.443 7.671 22.482 22.482 0 0 0-1.823 2.261A23.464 23.464 0 0 0 21.348 45c0 13.053 10.588 23.641 23.656 23.641 13.067 0 23.64-10.588 23.64-23.641 0-9.713-5.848-18.055-14.219-21.701Zm-9.421 42.47c-11.478 0-20.769-9.306-20.769-20.769 0-4.302 1.298-8.298 3.544-11.61a19.582 19.582 0 0 1 2.071-2.58 20.623 20.623 0 0 1 15.154-6.578c1.94 0 3.82.262 5.6.773 1.006.277 1.998.627 2.931 1.065 7.22 3.252 12.237 10.5 12.237 18.93 0 11.463-9.305 20.768-20.769 20.768Z"/><path d="M45 15c-16.568 0-30 13.432-30 30 0 16.568 13.432 30 30 30 16.568 0 30-13.432 30-30 0-16.568-13.432-30-30-30Zm0 57.127c-14.978 0-27.127-12.149-27.127-27.127S30.022 17.888 45 17.888 72.112 30.022 72.112 45c0 14.978-12.134 27.127-27.112 27.127Z"/><path d="m62.255 42.302-1.167 2.42-1.254 2.626-.555 1.925-.277 1.006-.86.584-2.348 1.619-.963 1.662-.219.38-.32.291-3.253 3.034-.248.773.088.218.977 2.421-2.304 1.211-.321.175-1.254.656-1.284-.598-1.487-.685-1.546-.715-.117-1.691-.233-3.267v-.35l.218-4.449v-2.494l-1.02-.773-.51-.379-.293-.554-1.677-3.121-.656-1.21.54-1.27.612-1.414-.306-.131-5.571-1.313-1.926-.452-.277-1.954-.32-2.377-.438-.074-3.048-.495-.86-.146a19.584 19.584 0 0 1 2.07-2.582l2.29.38 1.138.19 1.035.189.38.043.612 4.492 5.819 1.357 2.654 1.152-.452 2.465-.758 1.794 1.662 3.12 2.174 1.634v3.996l-.234 4.521.234 3.267 1.487.686.336-.175-.496-1.196.802-2.465 3.806-3.544 1.298-2.246 2.888-1.969.613-2.173 1.356-2.858-4.375-2.465-1.21-1.954-6.695-2.348-2.625 1.225-2.203-1.867-1.312-.496-2.115-.263-.146-1.269 4.478-3.952 2.552-.335 5.76-4.74c1.007.277 1.999.627 2.932 1.065l-.218.437-.467.38-6.184 5.075-.642.525-.816.102-1.678.218-.773.7.103.03.379.32.802.686.962-.438 1.065-.495 1.094.379 6.694 2.348.963.335.525.86.831 1.328 3.734 2.115 2.348 1.327Z"/></g></svg>
