<svg width="328" height="40" viewBox="0 0 328 40" fill="none" xmlns="http://www.w3.org/2000/svg">
<path d="M44.7223 21.9694L17.2973 21.9694C16.7347 20.8457 16.7347 19.441 17.2973 18.3172L44.7223 18.3172C44.7223 17.334 44.863 16.2102 45.1442 15.2269L15.6096 15.2269C14.3438 16.6316 13.6406 18.3172 13.6406 20.1433C13.6406 21.9694 14.3438 23.655 15.6096 25.0597L45.0036 25.0597C44.863 24.0764 44.7223 22.9527 44.7223 21.9694Z" fill="white"/>
<path d="M49.365 35.4543L8.57911 35.4543C5.06308 31.0998 3.09411 25.6216 3.09411 20.0028C3.09411 14.3841 5.06308 8.90585 8.57911 4.55133L49.365 4.55133C50.0682 3.42759 50.9121 2.44431 51.7559 1.46103L7.1727 1.46103C2.53154 6.65836 0 13.2604 0 20.1433C0 27.0262 2.53154 33.4878 7.1727 38.6851L51.7559 38.6851C50.9121 37.5614 50.0682 36.5781 49.365 35.4543Z" fill="white"/>
<path d="M45.9889 28.7119L12.9382 28.7119C11.1099 26.1834 9.98473 23.2336 9.98473 20.1433C9.98473 17.053 10.9692 13.9627 12.9382 11.5748L45.9889 11.5748C46.2701 10.5915 46.6921 9.46773 47.2546 8.48445L11.3911 8.48445C8.43768 11.5748 6.89062 15.6483 6.89062 20.0028C6.89062 24.3574 8.43768 28.4309 11.3911 31.6617L47.2546 31.6617C46.8327 30.6784 46.4108 29.6952 45.9889 28.7119ZM63.569 15.9293C62.5845 15.0865 62.022 13.5413 62.022 11.7152V1.60151L64.6941 1.60151V11.4343C64.5535 12.4176 64.9754 13.4008 65.538 14.1032C67.2257 15.2269 69.3353 15.2269 70.8823 14.1032C71.4449 13.4008 71.8668 12.4176 71.7262 11.4343V1.60151L74.3984 1.60151V11.7152C74.3984 13.6818 73.8358 15.0865 72.8513 15.9293C71.8668 16.7721 70.3198 17.334 68.2102 17.334C66.1005 17.1935 64.5535 16.7721 63.569 15.9293ZM86.2122 6.79883C87.0561 7.78211 87.478 8.90586 87.3374 10.1701V16.9125H84.8058V10.5915C84.8058 9.88913 84.6652 9.04633 84.2433 8.48445C83.6807 7.92258 83.1181 7.78211 82.4149 7.78211C81.7117 7.78211 80.8679 8.06305 80.3053 8.48445C79.7427 9.04633 79.6021 9.88913 79.6021 10.7319V16.9125L77.0706 16.9125V5.95602H79.6021V7.07977C80.024 6.5179 80.5866 6.09649 81.1492 5.95602C81.7117 5.67509 82.4149 5.53462 82.9775 5.67509C84.2433 5.53462 85.3684 5.95603 86.2122 6.79883ZM92.2598 5.95602H89.7283V16.9125H92.2598V5.95602ZM93.6662 5.95602H96.3384L99.4325 14.1032L102.386 5.95602L105.058 5.95602L100.839 16.9125H98.0261L93.6662 5.95602ZM114.2 13.8222C114.34 13.5413 114.34 13.2604 114.481 13.1199H117.013C116.872 14.1032 116.45 15.0865 115.747 15.7888C115.184 16.2102 114.622 16.6316 113.919 16.7721C113.215 17.053 112.371 17.1935 111.528 17.053C110.403 17.053 109.277 16.7721 108.152 16.3507C107.308 15.9293 106.605 15.0865 106.183 14.2436C105.761 13.4008 105.621 12.4176 105.621 11.4343C105.621 10.8724 105.621 10.451 105.761 9.88913C105.902 9.46773 106.043 9.04633 106.183 8.62492C106.605 7.78211 107.308 6.9393 108.152 6.5179C110.121 5.53462 112.512 5.53462 114.481 6.5179C115.325 6.79883 116.028 7.64164 116.45 8.48445C116.731 9.04633 116.872 9.46773 116.872 10.0296C117.013 10.7319 117.013 11.2938 117.013 11.9962L108.152 11.9962C108.152 12.558 108.293 13.1199 108.434 13.5413C108.715 14.1032 108.996 14.3841 109.559 14.6651C110.121 14.946 110.824 15.0865 111.387 15.0865C111.809 15.0865 112.231 15.0865 112.653 14.946C113.075 14.8055 113.356 14.6651 113.637 14.3841C113.919 14.2436 114.2 14.1032 114.2 13.8222ZM108.574 9.18679C108.434 9.46773 108.293 9.88913 108.293 10.3105L114.481 10.3105C114.481 9.88913 114.34 9.6082 114.2 9.18679C113.919 8.76539 113.637 8.34398 113.075 8.06305C112.512 7.78211 111.95 7.64164 111.387 7.64164C110.824 7.64164 110.262 7.64164 109.699 7.92258C109.137 8.20352 108.855 8.62492 108.574 9.18679ZM125.592 5.95602V8.20352C125.17 8.06305 124.889 8.06305 124.467 8.06305C123.623 8.06305 122.779 8.34398 122.216 8.90586C121.654 9.6082 121.373 10.451 121.513 11.4343V16.9125H118.982V5.95602L121.513 5.95602V7.22024C121.794 6.79883 122.216 6.37743 122.779 6.09649C123.342 5.81556 123.904 5.67509 124.467 5.81556C124.889 5.81556 125.31 5.81556 125.592 5.95602ZM128.686 16.6316C127.983 16.3507 127.42 15.7888 126.998 15.0865C126.717 14.5246 126.576 13.8222 126.576 13.2604H128.967C128.967 13.6818 128.967 13.9627 129.248 14.2436C129.53 14.946 130.233 15.3674 131.358 15.3674C132.483 15.3674 133.186 15.0865 133.327 14.5246C133.468 14.1032 133.468 13.6818 133.327 13.4008C133.186 13.1199 133.046 12.9794 132.764 12.839C132.764 12.6985 132.483 12.558 132.202 12.4176C131.78 12.2771 131.217 12.1366 130.795 12.1366C130.092 11.9962 129.389 11.7152 128.686 11.2938C128.123 11.0129 127.701 10.5915 127.42 10.0296C127.279 9.6082 127.139 9.18679 127.139 8.76539C127.139 8.20352 127.279 7.64164 127.561 7.07977C127.842 6.65837 128.264 6.23696 128.827 5.95602C129.67 5.53462 130.514 5.39415 131.358 5.39415C132.202 5.39415 133.186 5.53462 133.89 5.81556C134.593 6.09649 135.155 6.65837 135.437 7.22024C135.577 7.78211 135.718 8.34398 135.718 8.76539H133.327C133.327 8.48445 133.327 8.20352 133.186 7.78211C133.046 7.50117 132.764 7.22024 132.483 7.07977C132.061 6.9393 131.78 6.79883 131.358 6.79883C130.374 6.79883 129.811 7.07977 129.67 7.50118C129.67 7.64164 129.53 7.78211 129.53 8.06305C129.53 8.20352 129.53 8.34398 129.67 8.48445C129.811 8.76539 129.952 8.90586 130.233 9.04633C130.514 9.74867 130.795 9.88913 131.077 10.0296C131.358 10.1701 131.78 10.1701 132.483 10.3105C133.327 10.451 134.03 10.7319 134.733 11.1533C135.296 11.4343 135.718 11.8557 135.999 12.4176C136.14 12.839 136.28 13.2604 136.28 13.6818C136.28 14.2436 136.14 14.6651 135.999 15.0865C135.577 15.7888 135.015 16.3507 134.312 16.6316C133.468 17.053 132.483 17.1935 131.499 17.1935C130.514 17.1935 129.53 17.053 128.686 16.6316ZM140.781 5.95602H138.249V16.9125H140.781V5.95602ZM154.001 1.60151V16.9125H151.61V15.5079C151.188 16.0697 150.626 16.4911 150.063 16.6316C149.36 16.9125 148.657 17.053 147.954 17.053C146.969 17.053 145.985 16.7721 145.141 16.3507C144.438 15.9293 143.734 15.2269 143.453 14.3841C143.313 13.9627 143.031 13.4008 143.031 12.9794C142.891 12.4176 142.891 11.8557 142.891 11.4343C142.891 10.451 143.031 9.32726 143.453 8.34398C143.875 7.50118 144.438 6.79883 145.141 6.37743C145.985 5.81556 146.969 5.67509 147.954 5.67509C148.657 5.67509 149.36 5.81556 150.063 6.09649C150.626 6.37743 151.188 6.79883 151.61 7.22024V1.60151C151.47 1.60151 154.001 1.60151 154.001 1.60151ZM151.47 11.1533C151.47 10.3105 151.188 9.32726 150.626 8.62492C150.063 8.06305 149.219 7.64164 148.376 7.78211C147.813 7.78211 147.25 7.92258 146.688 8.20352C146.266 8.48445 145.844 8.90586 145.563 9.32726C145.282 10.0296 145.141 10.7319 145.141 11.4343C145.141 12.1366 145.282 12.839 145.563 13.5413C145.844 14.1032 146.125 14.3841 146.688 14.6651C147.25 14.946 147.813 15.0865 148.376 15.0865C149.219 15.0865 150.063 14.8055 150.626 14.2436C151.188 13.5413 151.47 12.6985 151.47 11.7152V11.1533ZM166.518 10.451V16.9125H163.987V15.6483C163.143 16.6316 161.877 17.1935 160.189 17.1935C159.346 17.1935 158.502 17.053 157.658 16.7721C156.955 16.4911 156.533 16.0697 156.252 15.3674C156.111 14.946 155.97 14.3841 155.97 13.8222C155.97 13.4008 156.111 12.839 156.252 12.4176C156.673 11.5748 157.377 11.0129 158.221 10.7319C159.346 10.451 160.611 10.1701 161.737 10.3105H163.987V9.88913C163.987 9.6082 163.987 9.46773 163.987 9.18679C163.987 9.04633 163.846 8.76539 163.846 8.62492C163.565 7.92258 162.721 7.50118 161.596 7.50118C161.033 7.50118 160.611 7.50117 160.049 7.78211C159.627 7.92258 159.346 8.20352 159.205 8.62492C159.064 8.90586 159.064 9.04633 159.064 9.32726H156.533C156.533 8.76539 156.673 8.20352 156.814 7.78211C157.517 6.37743 159.064 5.67509 161.596 5.67509C162.58 5.67509 163.565 5.81556 164.549 6.23696C165.253 6.5179 165.815 7.22024 166.237 7.92258C166.378 8.62492 166.518 9.6082 166.518 10.451ZM163.987 12.1366L161.877 11.9962C161.174 11.9962 160.471 11.9962 159.768 12.1366C159.346 12.1366 158.924 12.4176 158.642 12.839C158.502 12.9794 158.502 13.2604 158.502 13.4008C158.502 13.6818 158.502 13.8222 158.642 14.1032C158.783 14.3841 159.064 14.6651 159.486 14.8055C159.908 14.946 160.33 15.0865 160.893 15.0865C161.455 15.0865 162.158 14.946 162.721 14.6651C163.143 14.3841 163.565 13.9627 163.846 13.5413C163.987 13.1199 163.987 12.6985 163.987 12.1366ZM179.739 1.60151V16.9125H177.348V15.5079C176.926 16.0697 176.363 16.4911 175.801 16.6316C175.097 16.9125 174.394 17.053 173.691 17.053C172.707 17.053 171.722 16.7721 170.878 16.3507C170.175 15.9293 169.472 15.2269 169.191 14.3841C169.05 13.9627 168.769 13.4008 168.769 12.9794C168.628 12.4176 168.628 11.8557 168.628 11.4343C168.628 10.451 168.769 9.32726 169.191 8.34398C169.612 7.50118 170.175 6.79883 170.878 6.37743C171.722 5.81556 172.707 5.67509 173.691 5.67509C174.394 5.67509 175.097 5.81556 175.801 6.09649C176.363 6.37743 176.926 6.79883 177.348 7.22024V1.60151L179.739 1.60151ZM177.207 11.1533C177.207 10.3105 176.926 9.32726 176.363 8.62492C175.801 8.06305 174.957 7.64164 174.113 7.78211C173.55 7.78211 172.988 7.92258 172.425 8.20352C172.003 8.48445 171.581 8.90586 171.3 9.32726C171.019 10.0296 170.878 10.7319 170.878 11.4343C170.878 12.1366 171.019 12.839 171.3 13.5413C171.581 14.1032 171.863 14.3841 172.425 14.6651C172.988 14.946 173.55 15.0865 174.113 15.0865C174.957 15.0865 175.801 14.8055 176.363 14.2436C176.926 13.5413 177.207 12.6985 177.207 11.7152V11.1533ZM65.1161 37.7018C63.9909 36.9995 63.0064 36.0162 62.5845 34.752C62.022 33.3473 61.7407 31.9426 61.7407 30.3975C61.7407 28.8523 62.022 27.4477 62.5845 26.043C63.1471 24.7788 63.9909 23.7955 65.1161 23.0931C66.3818 22.3908 67.9289 21.9694 69.3353 22.1099C70.3198 22.1099 71.3043 22.2503 72.1481 22.5313C72.992 22.8122 73.6952 23.2336 74.3984 23.7955C74.9609 24.3574 75.5235 24.9192 75.8048 25.762C76.0861 26.4644 76.3674 27.3072 76.3674 28.15H73.5545C73.5545 27.1667 73.1326 26.1834 72.2888 25.4811C71.4449 24.7788 70.1791 24.3574 69.054 24.3574C68.2102 24.3574 67.2257 24.4978 66.3818 25.0597C65.6786 25.4811 65.1161 26.043 64.8348 26.8858C64.6941 27.4477 64.4129 27.8691 64.4129 28.4309C64.2722 29.1333 64.2722 29.6952 64.2722 30.3975C64.2722 31.0998 64.2722 31.8022 64.4129 32.364C64.5535 32.9259 64.6941 33.3473 64.8348 33.9092C65.1161 34.6115 65.6786 35.3139 66.3818 35.7353C67.2257 36.1567 68.0695 36.4376 69.054 36.2972C69.6166 36.2972 70.3198 36.1567 70.8823 36.0162C71.4449 35.8758 71.8668 35.5948 72.2888 35.1734C72.992 34.4711 73.5545 33.4878 73.4139 32.364H76.2267C76.2267 33.2069 76.0861 34.0497 75.6641 34.8925C75.3829 35.5948 74.8203 36.2972 74.2577 36.859C73.5545 37.4209 72.8513 37.8423 72.0075 38.1232C71.023 38.4042 70.0385 38.5447 69.054 38.5447C67.9289 38.8256 66.3818 38.4042 65.1161 37.7018ZM80.8679 37.8423C80.024 37.2804 79.3208 36.5781 78.8989 35.7353C78.477 34.8925 78.3363 33.9092 78.3363 32.9259C78.3363 31.9426 78.477 30.9594 78.8989 30.1166C79.3208 29.2737 80.024 28.4309 80.8679 28.0095C82.8368 27.0263 85.2277 27.0263 87.3374 28.0095C88.1812 28.5714 88.8844 29.2737 89.3063 30.1166C89.7283 30.9594 89.8689 31.9426 89.8689 32.9259C89.8689 33.9092 89.7283 34.8925 89.3063 35.7353C88.8844 36.5781 88.1812 37.4209 87.3374 37.8423C86.3529 38.4042 85.2277 38.6851 84.1026 38.5447C82.9775 38.6851 81.8524 38.4042 80.8679 37.8423ZM85.7903 36.1567C86.2122 35.8758 86.6342 35.4543 86.7748 35.0329C87.0561 34.3306 87.1967 33.6283 87.0561 32.9259C87.0561 32.2236 86.9154 31.5212 86.7748 30.8189C86.6342 30.3975 86.2122 29.9761 85.7903 29.6952C85.2277 29.4142 84.6652 29.2737 84.1026 29.2737C83.5401 29.2737 82.9775 29.4142 82.4149 29.6952C81.993 29.9761 81.5711 30.3975 81.4304 30.8189C81.1492 31.5212 81.0085 32.2236 81.0085 32.9259C81.0085 33.6283 81.1492 34.3306 81.4304 35.0329C81.7117 35.4543 81.993 35.8758 82.4149 36.1567C82.9775 36.4376 83.5401 36.5781 84.1026 36.5781C84.6652 36.5781 85.2277 36.4376 85.7903 36.1567ZM100.839 28.2905C101.683 29.2737 102.105 30.3975 101.964 31.6617V38.4042H99.4325V32.0831C99.4325 31.3808 99.2919 30.538 98.8699 29.9761C98.3074 29.4142 97.7448 29.2737 97.0416 29.2737C96.3384 29.2737 95.4945 29.5547 95.0726 29.9761C94.5101 30.538 94.3694 31.3808 94.3694 32.2236V38.4042H91.8379V27.4477H94.2288V28.7119C94.6507 28.15 95.2133 27.7286 95.7758 27.5881C96.3384 27.3072 97.0416 27.1667 97.7448 27.3072C98.8699 27.0263 99.9951 27.4477 100.839 28.2905ZM106.043 37.7018C105.48 36.9995 105.058 36.0162 105.199 35.0329V29.5547H103.511V27.5881H105.199V23.0931L107.73 23.0931V27.5881H110.824V29.5547H107.73V34.6115C107.73 35.1734 107.871 35.5948 108.152 36.0162C108.434 36.2972 108.996 36.5781 109.418 36.4376C109.84 36.4376 110.262 36.4376 110.684 36.2972V38.4042C109.981 38.5446 109.277 38.6851 108.574 38.6851C107.73 38.6851 106.886 38.4042 106.043 37.7018ZM115.747 27.4477H113.215V38.4042H115.747V27.4477ZM127.561 28.2905C128.405 29.2737 128.827 30.3975 128.686 31.6617V38.4042H126.154V32.0831C126.154 31.3808 126.014 30.538 125.592 29.9761C125.029 29.4142 124.467 29.2737 123.763 29.2737C123.06 29.2737 122.216 29.5547 121.794 29.9761C121.232 30.538 121.091 31.3808 121.091 32.2236V38.4042H118.56V27.4477H120.951V28.7119C121.373 28.15 121.935 27.7286 122.498 27.5881C123.06 27.3072 123.763 27.1667 124.467 27.3072C125.592 27.0263 126.717 27.4477 127.561 28.2905ZM139.234 35.3139C139.375 35.0329 139.375 34.752 139.515 34.6115H142.047C141.906 35.5948 141.484 36.5781 140.781 37.2804C140.218 37.7018 139.656 38.1232 138.953 38.2637C138.249 38.5447 137.406 38.6851 136.562 38.5447C135.437 38.5447 134.312 38.2637 133.186 37.8423C132.343 37.4209 131.639 36.5781 131.217 35.7353C130.795 34.8925 130.655 33.9092 130.655 32.9259C130.655 32.364 130.655 31.9426 130.795 31.3808C130.936 30.9594 131.077 30.538 131.217 30.1166C131.639 29.2737 132.343 28.4309 133.186 28.0095C135.155 27.0263 137.546 27.0263 139.515 28.0095C140.359 28.4309 141.062 29.2737 141.484 30.1166C141.765 30.6784 141.906 31.0998 141.906 31.6617C142.047 32.364 142.047 32.9259 142.047 33.6283H133.186C133.186 34.1901 133.327 34.752 133.468 35.1734C133.749 35.7353 134.03 36.0162 134.593 36.2972C135.155 36.5781 135.859 36.7186 136.421 36.7186C136.843 36.7186 137.265 36.7186 137.687 36.5781C138.109 36.4376 138.39 36.2972 138.671 36.0162C138.953 35.8758 139.093 35.5948 139.234 35.3139ZM133.468 30.6784C133.327 30.9594 133.186 31.3808 133.186 31.6617H139.375C139.375 31.2403 139.234 30.9594 139.093 30.538C138.812 30.1166 138.531 29.6952 137.968 29.4142C137.406 29.1333 136.843 28.9928 136.28 28.9928C135.718 28.9928 135.155 28.9928 134.593 29.2737C134.171 29.6952 133.749 30.257 133.468 30.6784ZM153.298 28.2905C154.142 29.2737 154.564 30.3975 154.423 31.6617V38.4042H151.892V32.0831C151.892 31.3808 151.751 30.538 151.329 29.9761C150.767 29.4142 150.204 29.2737 149.501 29.2737C148.798 29.2737 147.954 29.5547 147.532 29.9761C146.969 30.538 146.829 31.3808 146.829 32.2236V38.4042H144.297V27.4477H146.829V28.7119C147.25 28.15 147.813 27.7286 148.376 27.5881C148.938 27.3072 149.641 27.1667 150.345 27.3072C151.329 27.0263 152.454 27.4477 153.298 28.2905ZM158.502 37.7018C157.939 36.9995 157.517 36.0162 157.658 35.0329V29.5547H155.97V27.5881H157.658V23.0931H160.189V27.5881H163.284V29.5547H160.189V34.6115C160.189 35.1734 160.33 35.5948 160.611 36.0162C160.893 36.2972 161.455 36.5781 161.877 36.4376C162.299 36.4376 162.721 36.4376 163.143 36.2972V38.4042C162.44 38.5446 161.737 38.6851 161.033 38.6851C160.189 38.6851 159.205 38.4042 158.502 37.7018ZM175.379 31.9426V38.4042H172.847V37.14C172.003 38.1232 170.738 38.6851 169.05 38.6851C168.206 38.6851 167.362 38.5447 166.518 38.2637C165.956 37.9828 165.393 37.5614 165.112 36.859C164.971 36.4376 164.831 35.8758 164.831 35.4544C164.831 35.0329 164.971 34.4711 165.112 34.0497C165.534 33.2069 166.237 32.645 167.081 32.364C168.206 32.0831 169.472 31.8022 170.597 31.9426L172.847 31.9426V31.6617C172.847 31.3808 172.847 31.2403 172.847 30.9594C172.847 30.8189 172.707 30.538 172.707 30.3975C172.425 29.6952 171.581 29.2737 170.456 29.2737C169.894 29.2737 169.472 29.2737 168.909 29.5547C168.487 29.6952 168.206 29.9761 168.065 30.3975C167.925 30.6784 167.925 30.8189 167.925 31.0998H165.393C165.393 30.538 165.534 29.9761 165.674 29.5547C166.378 28.15 167.925 27.4477 170.456 27.4477C171.441 27.4477 172.425 27.5881 173.41 28.0095C174.113 28.2905 174.676 28.9928 175.097 29.6952C175.238 30.257 175.379 31.0998 175.379 31.9426ZM172.847 33.6283L170.738 33.4878C170.034 33.4878 169.331 33.4878 168.628 33.6283C168.206 33.6283 167.784 33.9092 167.503 34.3306C167.362 34.4711 167.362 34.752 167.362 34.8925C167.362 35.1734 167.362 35.3139 167.503 35.5948C167.643 35.8758 167.925 36.1567 168.347 36.2972C168.769 36.4376 169.191 36.5781 169.612 36.5781C170.175 36.5781 170.878 36.4376 171.441 36.1567C171.863 35.8758 172.285 35.4543 172.566 35.0329C172.707 34.752 172.847 34.1901 172.847 33.6283ZM179.739 22.9527H177.207V38.4042H179.739V22.9527ZM92.4004 2.86572C92.4004 2.58479 92.2598 2.30385 92.1192 2.02291C91.6972 1.32057 90.7127 1.18011 90.0095 1.60151L89.8689 1.74198C89.447 2.16338 89.3063 2.72526 89.5876 3.28713C89.8689 4.27041 90.8534 4.55134 91.5566 4.27041C91.8379 4.12994 92.1192 3.849 92.2598 3.56807C92.4004 3.28713 92.4004 3.14666 92.4004 2.86572ZM116.028 24.3574C116.028 24.0764 115.888 23.7955 115.747 23.5146C115.325 22.8122 114.34 22.6717 113.637 23.0931L113.497 23.2336C113.075 23.655 112.934 24.2169 113.215 24.7788C113.356 25.0597 113.497 25.3406 113.778 25.4811C114.481 25.9025 115.466 25.762 115.888 25.0597C115.888 24.9192 116.028 24.9192 116.028 24.7788C115.888 24.7788 116.028 24.4978 116.028 24.3574ZM140.922 2.86572C140.922 2.30385 140.5 1.74198 139.937 1.46104C139.375 1.18011 138.812 1.32057 138.249 1.74198C137.828 2.16338 137.687 2.72526 137.968 3.28713C138.39 4.27041 139.375 4.55134 140.078 4.27041C140.218 4.12994 140.359 4.12994 140.5 3.98947C140.781 3.70853 140.922 3.28713 140.922 2.86572Z" fill="white"/>
<path d="M191.738 40L192.738 40L192.738 0L191.738 -8.74231e-08L191.738 40Z" fill="#6C6C6C"/>
<path d="M205.348 2.33545L208.008 2.33545C208.555 2.33545 209.008 2.42212 209.368 2.59545C209.728 2.76212 209.985 3.02212 210.138 3.37545C210.265 3.64878 210.328 3.98545 210.328 4.38545C210.328 4.59212 210.312 4.77545 210.278 4.93545C210.252 5.09545 210.205 5.24878 210.138 5.39545C209.985 5.74212 209.725 6.00212 209.358 6.17545C208.998 6.34878 208.548 6.43545 208.008 6.43545L206.498 6.43545V9.39545H205.348V2.33545ZM207.718 5.46545C208.085 5.46545 208.375 5.42545 208.588 5.34545C208.808 5.26545 208.962 5.12545 209.048 4.92545C209.115 4.78545 209.148 4.60545 209.148 4.38545C209.148 4.17212 209.115 3.98878 209.048 3.83545C208.955 3.64212 208.802 3.50545 208.588 3.42545C208.375 3.34545 208.085 3.30545 207.718 3.30545H206.498V5.46545H207.718ZM214.726 7.73545L211.586 7.73545L211.016 9.39545H209.806L212.296 2.33545H214.016L216.486 9.39545H215.296L214.726 7.73545ZM214.406 6.78545L213.166 3.14545H213.146L211.906 6.78545L214.406 6.78545ZM219.125 6.38545H218.285V9.39545H217.135V2.33545L219.905 2.33545C221.025 2.33545 221.742 2.68545 222.055 3.38545C222.175 3.64545 222.235 3.95212 222.235 4.30545C222.235 4.67878 222.179 4.99878 222.065 5.26545C221.919 5.59212 221.709 5.84545 221.435 6.02545C221.162 6.20545 220.819 6.31878 220.405 6.36545L222.705 9.39545H221.355L219.125 6.38545ZM218.285 5.42545H219.605C219.979 5.42545 220.275 5.38212 220.495 5.29545C220.715 5.20878 220.869 5.07212 220.955 4.88545C221.029 4.72545 221.065 4.54212 221.065 4.33545C221.065 4.14212 221.035 3.97878 220.975 3.84545C220.882 3.64545 220.722 3.50545 220.495 3.42545C220.275 3.33878 219.979 3.29545 219.605 3.29545L218.285 3.29545V5.42545ZM224.351 3.33545L222.611 3.33545V2.33545L227.251 2.33545V3.33545H225.501V9.39545H224.351V3.33545ZM227.926 2.33545L232.276 2.33545V3.32545L229.076 3.32545V5.31545L232.246 5.31545V6.31545L229.076 6.31545V8.40545H232.276V9.39545H227.926V2.33545ZM235.065 2.33545L237.655 2.33545C238.415 2.33545 239.048 2.47878 239.555 2.76545C240.068 3.05212 240.445 3.46878 240.685 4.01545C240.912 4.51545 241.025 5.13212 241.025 5.86545C241.025 6.24545 240.998 6.58545 240.945 6.88545C240.892 7.18545 240.805 7.46212 240.685 7.71545C240.445 8.26212 240.068 8.67878 239.555 8.96545C239.048 9.25212 238.415 9.39545 237.655 9.39545L235.065 9.39545V2.33545ZM237.485 8.39545C238.025 8.39545 238.465 8.30212 238.805 8.11545C239.152 7.92878 239.405 7.65212 239.565 7.28545C239.645 7.09878 239.705 6.89212 239.745 6.66545C239.785 6.43878 239.805 6.17212 239.805 5.86545C239.805 5.55878 239.785 5.29212 239.745 5.06545C239.705 4.83878 239.645 4.63212 239.565 4.44545C239.405 4.07878 239.152 3.80212 238.805 3.61545C238.465 3.42878 238.025 3.33545 237.485 3.33545H236.215V8.39545H237.485ZM242.028 2.33545L246.378 2.33545V3.32545L243.178 3.32545V5.31545L246.348 5.31545V6.31545L243.178 6.31545V8.40545H246.378V9.39545H242.028V2.33545Z" fill="white"/>
<g clip-path="url(#clip0_2345_385)">
<path d="M228.845 28.5084L214.067 28.5084C213.923 28.2021 213.842 27.8612 213.842 27.4971C213.842 27.133 213.923 26.792 214.067 26.4858L228.845 26.4858C228.88 25.9136 228.949 25.3531 229.048 24.8041L213.183 24.8041C212.542 25.5207 212.154 26.4626 212.154 27.4971C212.154 28.5315 212.542 29.4735 213.183 30.1901L229.048 30.1901C228.949 29.6411 228.88 29.0747 228.845 28.5084Z" fill="white"/>
<path d="M231.364 35.9171H209.379C207.53 33.6113 206.42 30.6871 206.42 27.4971C206.42 24.3071 207.53 21.383 209.379 19.0771L231.364 19.0771C231.763 18.4877 232.196 17.9213 232.67 17.3955L208.599 17.3955C206.2 20.0769 204.738 23.6194 204.738 27.4971C204.738 31.3748 206.2 34.9173 208.599 37.5988H232.67C232.196 37.0671 231.757 36.5065 231.364 35.9171Z" fill="white"/>
<path d="M229.56 32.2126H211.701C210.719 30.895 210.141 29.2653 210.141 27.497C210.141 25.7286 210.724 24.0932 211.707 22.7813L229.56 22.7813C229.75 22.2034 229.97 21.6429 230.224 21.0996L210.898 21.0996C209.378 22.7987 208.447 25.0409 208.447 27.5028C208.447 29.9646 209.372 32.2011 210.892 33.9001H230.224C229.97 33.3569 229.75 32.7963 229.56 32.2184" fill="white"/>
<path d="M240.605 29.3291C239.721 28.8032 239.068 28.0519 238.646 27.0752C238.235 26.1679 238.027 25.0642 238.027 23.7581C238.027 22.4521 238.235 21.3598 238.646 20.4236C239.079 19.4586 239.738 18.7188 240.617 18.1872C241.495 17.6613 242.57 17.3955 243.841 17.3955C244.633 17.3955 245.361 17.511 246.026 17.7422C246.691 17.9734 247.263 18.3085 247.748 18.7593C248.193 19.158 248.546 19.6493 248.794 20.2214C249.049 20.7935 249.187 21.4176 249.205 22.0938H247.124C247.078 21.2211 246.777 20.5219 246.211 19.996C245.593 19.447 244.778 19.1696 243.772 19.1696C242.992 19.1696 242.333 19.3314 241.796 19.6608C241.258 19.9902 240.848 20.4468 240.576 21.0478C240.426 21.4061 240.316 21.799 240.241 22.244C240.166 22.6832 240.131 23.1918 240.131 23.7639C240.131 24.336 240.166 24.8619 240.235 25.3011C240.304 25.7403 240.42 26.1333 240.582 26.48C240.859 27.0868 241.264 27.5491 241.801 27.8727C242.339 28.1964 242.998 28.3524 243.778 28.3524C244.292 28.3524 244.766 28.2831 245.188 28.1386C245.61 27.9941 245.974 27.7918 246.269 27.526C246.829 27.0232 247.13 26.3124 247.165 25.3936H249.245C249.234 26.0813 249.107 26.7112 248.858 27.2833C248.61 27.8554 248.263 28.3466 247.818 28.7627C247.338 29.2077 246.76 29.5487 246.084 29.7798C245.408 30.011 244.668 30.1266 243.865 30.1266C242.582 30.1266 241.495 29.8607 240.617 29.3348" fill="white"/>
<path d="M252.519 29.433C251.854 29.0343 251.363 28.4737 251.039 27.7629C250.75 27.1561 250.611 26.4395 250.611 25.6131C250.611 24.7867 250.756 24.0644 251.039 23.446C251.357 22.7352 251.854 22.1804 252.519 21.7759C253.183 21.3771 253.998 21.1749 254.963 21.1749C255.928 21.1749 256.743 21.3771 257.414 21.7759C258.084 22.1804 258.581 22.7352 258.899 23.446C259.182 24.0875 259.327 24.8099 259.327 25.6131C259.327 26.4164 259.182 27.1157 258.899 27.7803C258.581 28.4911 258.084 29.0459 257.414 29.4388C256.743 29.8318 255.928 30.0341 254.963 30.0341C253.998 30.0341 253.183 29.8318 252.519 29.433ZM256.258 28.1154C256.605 27.9016 256.87 27.6069 257.038 27.2313C257.211 26.8441 257.298 26.3008 257.298 25.6131C257.298 24.9254 257.211 24.3764 257.038 23.995C256.865 23.6078 256.605 23.3073 256.258 23.0993C255.905 22.8912 255.478 22.7872 254.957 22.7872C254.437 22.7872 254.01 22.8912 253.669 23.0993C253.322 23.3073 253.068 23.602 252.894 23.995C252.709 24.3938 252.617 24.937 252.617 25.6131C252.617 26.2893 252.709 26.8152 252.894 27.2313C253.068 27.6069 253.322 27.9074 253.669 28.1154C254.015 28.3293 254.443 28.4333 254.957 28.4333C255.472 28.4333 255.905 28.3293 256.258 28.1154Z" fill="white"/>
<path d="M267.758 22.0534C268.318 22.6371 268.602 23.4924 268.602 24.6135V29.8204H266.712V24.9891C266.712 24.2321 266.556 23.6773 266.249 23.319C265.937 22.9607 265.463 22.7873 264.822 22.7873C264.146 22.7873 263.631 22.978 263.273 23.3652C262.92 23.7524 262.741 24.3188 262.741 25.0758V29.8204H260.834V21.4004H262.741V22.3481C263.325 21.568 264.203 21.1808 265.371 21.1808C266.4 21.1808 267.197 21.4755 267.764 22.0592" fill="white"/>
<path d="M271.704 29.3175C271.288 28.8899 271.074 28.1906 271.074 27.2313V22.9664H269.768V21.4003H271.074V17.9791H272.964V21.4003H275.356V22.9664H272.964V26.8845C272.964 27.3873 273.068 27.7572 273.281 27.9941C273.495 28.231 273.825 28.3466 274.27 28.3466C274.634 28.3466 274.975 28.3004 275.281 28.2079V29.7914C274.744 29.907 274.218 29.9647 273.698 29.9647C272.779 29.9647 272.114 29.7509 271.692 29.3175" fill="white"/>
<path d="M279.022 21.4003H277.115V29.8261H279.022V21.4003Z" fill="white"/>
<path d="M287.957 22.0534C288.518 22.6371 288.801 23.4924 288.801 24.6135V29.8204H286.911V24.9891C286.911 24.2321 286.755 23.6773 286.449 23.319C286.136 22.9607 285.663 22.7873 285.021 22.7873C284.345 22.7873 283.83 22.978 283.472 23.3652C283.12 23.7524 282.94 24.3188 282.94 25.0758V29.8204H281.033V21.4004H282.94V22.3481C283.524 21.568 284.403 21.1808 285.57 21.1808C286.599 21.1808 287.396 21.4755 287.963 22.0592" fill="white"/>
<path d="M296.857 27.4854C296.955 27.2889 297.013 27.0982 297.036 26.9017H298.926C298.845 27.7512 298.516 28.4505 297.926 28.9995C297.551 29.3289 297.088 29.589 296.551 29.7623C296.013 29.9415 295.424 30.0282 294.782 30.0282C293.794 30.0282 292.956 29.8317 292.262 29.4445C291.569 29.0573 291.06 28.5025 290.742 27.7917C290.465 27.1733 290.332 26.4394 290.332 25.5899C290.332 25.1565 290.367 24.7577 290.436 24.4052C290.505 24.0469 290.609 23.7175 290.748 23.4054C291.072 22.6946 291.563 22.1456 292.233 21.7527C292.904 21.3655 293.707 21.169 294.649 21.169C295.591 21.169 296.395 21.3655 297.065 21.7527C297.736 22.1456 298.227 22.6888 298.533 23.3881C298.706 23.7753 298.822 24.1856 298.886 24.6075C298.949 25.0293 298.978 25.5379 298.978 26.1216H292.257C292.291 26.6243 292.378 27.0231 292.517 27.3063C292.69 27.6934 292.962 27.994 293.343 28.202C293.719 28.41 294.193 28.5141 294.753 28.5141C295.123 28.5141 295.453 28.4678 295.753 28.3754C296.054 28.2829 296.296 28.15 296.493 27.9824C296.643 27.8437 296.765 27.6761 296.863 27.4854M292.517 23.9313C292.401 24.1856 292.326 24.4514 292.291 24.7404H297.019C296.984 24.4457 296.915 24.1509 296.811 23.862C296.626 23.4863 296.36 23.1974 296.002 23.0009C295.649 22.8044 295.204 22.7062 294.678 22.7062C293.603 22.7062 292.881 23.1107 292.511 23.9256" fill="white"/>
<path d="M307.525 22.0534C308.086 22.6371 308.369 23.4924 308.369 24.6135V29.8204H306.479V24.9891C306.479 24.2321 306.323 23.6773 306.017 23.319C305.705 22.9607 305.231 22.7873 304.589 22.7873C303.913 22.7873 303.399 22.978 303.04 23.3652C302.688 23.7524 302.509 24.3188 302.509 25.0758V29.8204H300.602V21.4004H302.509V22.3481C303.093 21.568 303.971 21.1808 305.138 21.1808C306.167 21.1808 306.965 21.4755 307.531 22.0592" fill="white"/>
<path d="M311.479 29.3175C311.063 28.8899 310.849 28.1906 310.849 27.2313V22.9664H309.543V21.4003H310.849V17.9791H312.739V21.4003H315.132V22.9664H312.739V26.8845C312.739 27.3873 312.843 27.7572 313.057 27.9941C313.271 28.231 313.6 28.3466 314.045 28.3466C314.409 28.3466 314.75 28.3004 315.057 28.2079V29.7914C314.519 29.907 313.993 29.9647 313.473 29.9647C312.554 29.9647 311.889 29.7509 311.468 29.3175" fill="white"/>
<path d="M324.212 24.8908V29.826H322.305V28.8783C321.698 29.6469 320.733 30.0283 319.415 30.0283C318.669 30.0283 318.039 29.9069 317.525 29.67C317.011 29.4273 316.646 29.0748 316.444 28.6009C316.294 28.2715 316.219 27.8901 316.219 27.4682C316.219 27.0464 316.288 26.6765 316.427 26.3702C316.716 25.7403 317.201 25.3069 317.889 25.0699C318.577 24.833 319.467 24.7174 320.553 24.7174H322.305V24.492C322.305 24.2724 322.293 24.0933 322.27 23.9488C322.247 23.8043 322.2 23.6599 322.131 23.5096C321.877 22.9606 321.293 22.6832 320.38 22.6832C319.912 22.6832 319.525 22.7468 319.23 22.8739C318.929 23.0011 318.721 23.2033 318.594 23.4749C318.513 23.683 318.473 23.8679 318.473 24.0413H316.548C316.548 23.5616 316.629 23.1513 316.791 22.8219C317.282 21.7239 318.479 21.1691 320.368 21.1691C321.299 21.1691 322.05 21.3078 322.628 21.5794C323.206 21.8568 323.622 22.2845 323.877 22.8681C324.108 23.3709 324.218 24.0413 324.218 24.8792M322.305 26.1968V26.0928H320.669C320.039 26.0928 319.519 26.1448 319.103 26.2489C318.692 26.3529 318.421 26.5436 318.294 26.8152C318.224 26.9539 318.19 27.1157 318.19 27.2948C318.19 27.474 318.224 27.6531 318.294 27.8092C318.409 28.0519 318.611 28.2253 318.895 28.3408C319.178 28.4564 319.519 28.5142 319.912 28.5142C320.461 28.5142 320.917 28.416 321.287 28.2195C321.651 28.023 321.923 27.7398 322.096 27.3584C322.235 27.029 322.305 26.636 322.305 26.1911" fill="white"/>
<path d="M327.608 17.9791H325.701V29.826H327.608V17.9791Z" fill="white"/>
<path d="M279.195 19.0308C279.195 18.4067 278.693 17.9039 278.068 17.9039C277.444 17.9039 276.941 18.4067 276.941 19.0308C276.941 19.6549 277.444 20.1577 278.068 20.1577C278.693 20.1577 279.195 19.6549 279.195 19.0308Z" fill="white"/>
<path d="M238.987 31.5887H238.027V37.4948H238.987V31.5887Z" fill="white"/>
<path d="M243.547 33.7153C243.819 33.9984 243.958 34.4145 243.958 34.9635V37.4947H243.039V35.1427C243.039 34.7728 242.963 34.507 242.813 34.3336C242.663 34.1602 242.432 34.0736 242.12 34.0736C241.79 34.0736 241.542 34.166 241.368 34.3509C241.195 34.5359 241.108 34.8133 241.108 35.1831V37.4889H240.178V33.3916H241.108V33.8539C241.391 33.4725 241.819 33.2876 242.385 33.2876C242.888 33.2876 243.276 33.4263 243.547 33.7153Z" fill="white"/>
<path d="M245.542 37.2463C245.339 37.0382 245.235 36.6973 245.235 36.2292V34.1545H244.6V33.3917H245.235V32.4035H246.154V33.3917H247.316V34.1545H246.154V36.0616C246.154 36.3043 246.206 36.4892 246.31 36.599C246.414 36.7146 246.576 36.7724 246.79 36.7724C246.969 36.7724 247.131 36.7493 247.281 36.703V37.4717C247.021 37.5294 246.761 37.5526 246.513 37.5526C246.068 37.5526 245.744 37.4485 245.536 37.2405" fill="white"/>
<path d="M251.05 36.3563C251.096 36.2638 251.125 36.1656 251.136 36.0731H252.055C252.015 36.4834 251.853 36.8244 251.57 37.0902C251.385 37.252 251.165 37.3734 250.9 37.4659C250.639 37.5525 250.35 37.593 250.038 37.593C249.559 37.593 249.148 37.4948 248.813 37.3098C248.478 37.1191 248.229 36.8533 248.073 36.5065C247.94 36.206 247.871 35.8477 247.871 35.4374C247.871 35.2236 247.888 35.0329 247.923 34.8595C247.958 34.6862 248.004 34.5244 248.073 34.3741C248.229 34.0274 248.472 33.7615 248.796 33.5708C249.125 33.3801 249.512 33.2877 249.969 33.2877C250.426 33.2877 250.819 33.3801 251.142 33.5708C251.472 33.7615 251.709 34.0274 251.859 34.3625C251.946 34.5533 251.998 34.7497 252.032 34.9578C252.061 35.1658 252.079 35.4085 252.079 35.6917H248.807C248.825 35.9344 248.865 36.1309 248.935 36.2696C249.015 36.4603 249.154 36.6048 249.333 36.703C249.518 36.8013 249.744 36.8533 250.021 36.8533C250.2 36.8533 250.362 36.8302 250.507 36.7839C250.651 36.7377 250.772 36.6741 250.865 36.5932C250.934 36.5239 250.998 36.443 251.044 36.3505M248.94 34.6226C248.883 34.744 248.848 34.8769 248.83 35.0156H251.131C251.113 34.8711 251.079 34.7266 251.032 34.5879C250.946 34.403 250.813 34.2643 250.639 34.1718C250.466 34.0794 250.252 34.0331 249.998 34.0331C249.472 34.0331 249.125 34.2296 248.946 34.6284" fill="white"/>
<path d="M255.429 33.3858V34.2065C255.308 34.1776 255.169 34.166 255.013 34.166C254.655 34.166 254.389 34.27 254.204 34.4896C254.025 34.7035 253.932 35.0155 253.932 35.42V37.4947H253.002V33.3974H253.921V33.8713C254.164 33.513 254.522 33.3338 255.007 33.3338C255.169 33.3338 255.308 33.3512 255.424 33.3858" fill="white"/>
<path d="M259.592 33.7153C259.864 33.9984 260.002 34.4145 260.002 34.9635V37.4947H259.083V35.1427C259.083 34.7728 259.008 34.507 258.858 34.3336C258.708 34.1602 258.477 34.0736 258.165 34.0736C257.835 34.0736 257.587 34.166 257.413 34.3509C257.24 34.5359 257.153 34.8133 257.153 35.1831V37.4889H256.223V33.3916H257.153V33.8539C257.436 33.4725 257.864 33.2876 258.43 33.2876C258.933 33.2876 259.32 33.4263 259.592 33.7153Z" fill="white"/>
<path d="M264.788 35.0907V37.4889H263.858V37.0266C263.563 37.4022 263.095 37.5872 262.453 37.5872C262.089 37.5872 261.783 37.5294 261.534 37.4138C261.286 37.2982 261.106 37.1249 261.008 36.8937C260.933 36.7319 260.898 36.547 260.898 36.3447C260.898 36.1424 260.933 35.9575 260.997 35.8072C261.135 35.501 261.372 35.2871 261.708 35.1773C262.043 35.0618 262.476 35.004 263.002 35.004H263.858V34.8942C263.858 34.7901 263.852 34.6977 263.84 34.6283C263.829 34.559 263.806 34.4896 263.771 34.4145C263.649 34.1487 263.366 34.01 262.915 34.01C262.684 34.01 262.499 34.0389 262.355 34.1024C262.21 34.166 262.106 34.2585 262.043 34.3972C262.002 34.4954 261.985 34.5879 261.985 34.6746H261.049C261.049 34.4376 261.089 34.2411 261.164 34.0793C261.407 33.5419 261.985 33.2761 262.904 33.2761C263.355 33.2761 263.725 33.3454 264.002 33.4783C264.285 33.6112 264.487 33.8193 264.609 34.1082C264.719 34.3509 264.776 34.6803 264.776 35.0849M263.858 35.7263V35.6743H263.06C262.754 35.6743 262.499 35.6974 262.297 35.7495C262.095 35.8015 261.962 35.8939 261.904 36.0269C261.869 36.0962 261.852 36.1713 261.852 36.2638C261.852 36.3563 261.869 36.4372 261.904 36.5123C261.962 36.6279 262.054 36.7145 262.199 36.7723C262.338 36.8301 262.505 36.859 262.69 36.859C262.956 36.859 263.181 36.8128 263.36 36.7145C263.54 36.6221 263.673 36.4834 263.753 36.2985C263.823 36.1366 263.852 35.9459 263.852 35.7321" fill="white"/>
<path d="M266.382 37.2463C266.179 37.0382 266.075 36.6973 266.075 36.2292V34.1545H265.439V33.3917H266.075V32.4035H266.994V33.3917H268.156V34.1545H266.994V36.0616C266.994 36.3043 267.046 36.4892 267.15 36.599C267.254 36.7146 267.416 36.7724 267.63 36.7724C267.809 36.7724 267.971 36.7493 268.121 36.703V37.4717C267.861 37.5294 267.601 37.5526 267.352 37.5526C266.907 37.5526 266.584 37.4485 266.376 37.2405" fill="white"/>
<path d="M269.053 32.629C268.948 32.5308 268.896 32.4094 268.896 32.2591C268.896 32.1089 268.948 31.976 269.053 31.8777C269.157 31.7795 269.295 31.7333 269.469 31.7333C269.63 31.7333 269.763 31.7853 269.862 31.8777C269.96 31.976 270.012 32.1031 270.012 32.2591C270.012 32.4152 269.96 32.5308 269.856 32.629C269.752 32.7272 269.625 32.7735 269.469 32.7735C269.301 32.7735 269.162 32.7272 269.058 32.629M268.983 33.3976H269.914V37.4949H268.983V33.3976Z" fill="white"/>
<path d="M271.763 37.2982C271.439 37.1017 271.196 36.8301 271.04 36.4892C270.901 36.1944 270.832 35.8477 270.832 35.4432C270.832 35.0386 270.901 34.6919 271.04 34.3914C271.196 34.0447 271.439 33.773 271.763 33.5823C272.086 33.3859 272.479 33.2876 272.947 33.2876C273.415 33.2876 273.814 33.3859 274.138 33.5823C274.462 33.7788 274.704 34.0447 274.86 34.3914C274.999 34.7035 275.068 35.056 275.068 35.4432C275.068 35.8304 274.999 36.1713 274.86 36.4949C274.704 36.8417 274.462 37.1075 274.138 37.304C273.814 37.4947 273.415 37.593 272.947 37.593C272.479 37.593 272.086 37.4947 271.763 37.2982ZM273.577 36.6625C273.745 36.5585 273.872 36.414 273.959 36.2349C274.04 36.0442 274.086 35.7841 274.086 35.4489C274.086 35.1138 274.045 34.8479 273.959 34.663C273.878 34.4723 273.751 34.3278 273.577 34.2296C273.41 34.1313 273.196 34.0793 272.947 34.0793C272.699 34.0793 272.491 34.1313 272.323 34.2296C272.156 34.3278 272.028 34.4723 271.947 34.663C271.861 34.8595 271.815 35.1195 271.815 35.4489C271.815 35.7784 271.861 36.0326 271.947 36.2349C272.028 36.4198 272.156 36.5643 272.323 36.6625C272.491 36.7666 272.699 36.8186 272.947 36.8186C273.196 36.8186 273.41 36.7666 273.577 36.6625Z" fill="white"/>
<path d="M279.364 33.7153C279.635 33.9984 279.774 34.4145 279.774 34.9635V37.4947H278.855V35.1427C278.855 34.7728 278.78 34.507 278.63 34.3336C278.479 34.1602 278.248 34.0736 277.936 34.0736C277.607 34.0736 277.358 34.166 277.185 34.3509C277.011 34.5359 276.925 34.8133 276.925 35.1831V37.4889H275.994V33.3916H276.925V33.8539C277.208 33.4725 277.636 33.2876 278.202 33.2876C278.705 33.2876 279.092 33.4263 279.364 33.7153Z" fill="white"/>
<path d="M284.559 35.0907V37.4889H283.629V37.0266C283.334 37.4022 282.866 37.5872 282.225 37.5872C281.86 37.5872 281.554 37.5294 281.306 37.4138C281.057 37.2982 280.878 37.1249 280.78 36.8937C280.705 36.7319 280.67 36.547 280.67 36.3447C280.67 36.1424 280.705 35.9575 280.768 35.8072C280.907 35.501 281.144 35.2871 281.479 35.1773C281.814 35.0618 282.248 35.004 282.774 35.004H283.629V34.8942C283.629 34.7901 283.623 34.6977 283.612 34.6283C283.6 34.559 283.577 34.4896 283.542 34.4145C283.421 34.1487 283.138 34.01 282.687 34.01C282.456 34.01 282.271 34.0389 282.126 34.1024C281.982 34.166 281.878 34.2585 281.814 34.3972C281.774 34.4954 281.756 34.5879 281.756 34.6746H280.82C280.82 34.4376 280.861 34.2411 280.936 34.0793C281.179 33.5419 281.756 33.2761 282.675 33.2761C283.126 33.2761 283.496 33.3454 283.773 33.4783C284.057 33.6112 284.259 33.8193 284.38 34.1082C284.49 34.3509 284.548 34.6803 284.548 35.0849M283.629 35.7263V35.6743H282.831C282.525 35.6743 282.271 35.6974 282.069 35.7495C281.866 35.8015 281.733 35.8939 281.676 36.0269C281.641 36.0962 281.624 36.1713 281.624 36.2638C281.624 36.3563 281.641 36.4372 281.676 36.5123C281.733 36.6279 281.826 36.7145 281.97 36.7723C282.109 36.8301 282.277 36.859 282.462 36.859C282.727 36.859 282.953 36.8128 283.132 36.7145C283.311 36.6221 283.444 36.4834 283.525 36.2985C283.594 36.1366 283.623 35.9459 283.623 35.7321" fill="white"/>
<path d="M286.575 31.5887H285.645V37.4948H286.575V31.5887Z" fill="white"/>
<path d="M289.523 31.5887H293.164V32.4151H290.489V34.0794H293.136V34.9174H290.489V36.6626H293.164V37.4948H289.523V31.5887Z" fill="white"/>
<path d="M298.128 31.5887V37.4948H297.226V37.0036C297.07 37.2001 296.874 37.3446 296.643 37.4486C296.412 37.5468 296.151 37.5988 295.862 37.5988C295.464 37.5988 295.117 37.5121 294.834 37.333C294.551 37.1538 294.337 36.9054 294.192 36.5817C294.117 36.4199 294.065 36.2408 294.025 36.0501C293.984 35.8594 293.967 35.6571 293.967 35.4548C293.967 35.033 294.042 34.6515 294.192 34.3164C294.337 33.9927 294.551 33.7442 294.834 33.5651C295.117 33.386 295.464 33.2993 295.862 33.2993C296.146 33.2993 296.406 33.3513 296.631 33.4437C296.862 33.542 297.053 33.6865 297.209 33.8714V31.5945H298.128V31.5887ZM297.209 35.3335C297.209 34.9289 297.111 34.6169 296.914 34.3973C296.718 34.1777 296.446 34.0679 296.099 34.0679C295.857 34.0679 295.654 34.1199 295.481 34.2123C295.308 34.3106 295.175 34.4551 295.088 34.6515C295.001 34.8596 294.955 35.1254 294.955 35.4375C294.955 35.7496 295.001 36.0038 295.088 36.2177C295.175 36.4141 295.308 36.5586 295.481 36.6626C295.654 36.7609 295.862 36.8129 296.099 36.8129C296.446 36.8129 296.718 36.7031 296.914 36.4835C297.111 36.2639 297.209 35.9518 297.209 35.5415V35.3335Z" fill="white"/>
<path d="M303.006 33.3975V37.4948H302.087V37.0267C301.804 37.4081 301.377 37.6046 300.81 37.6046C300.307 37.6046 299.92 37.4601 299.643 37.1769C299.365 36.8937 299.227 36.4777 299.227 35.9287V33.3975H300.145V35.7495C300.145 36.1194 300.221 36.3852 300.377 36.5586C300.533 36.7319 300.758 36.8186 301.064 36.8186C301.394 36.8186 301.648 36.7261 301.822 36.5354C301.995 36.3447 302.087 36.0673 302.087 35.709V33.4032H303.006V33.3975Z" fill="white"/>
<path d="M304.856 37.3156C304.533 37.1306 304.29 36.8648 304.128 36.5181C303.995 36.2176 303.926 35.8593 303.926 35.4489C303.926 35.0386 303.995 34.6803 304.128 34.3798C304.29 34.0273 304.533 33.7615 304.856 33.5708C305.18 33.3859 305.567 33.2876 306.018 33.2876C306.324 33.2876 306.602 33.3281 306.85 33.4147C307.099 33.5014 307.313 33.6228 307.492 33.7846C307.648 33.9291 307.769 34.0967 307.862 34.2932C307.948 34.4839 308 34.6977 308.006 34.9346H307.012C306.995 34.6803 306.902 34.4665 306.735 34.3047C306.648 34.2354 306.55 34.1776 306.423 34.1371C306.295 34.0967 306.168 34.0793 306.018 34.0793C305.793 34.0793 305.59 34.1313 305.423 34.2296C305.255 34.3278 305.128 34.4723 305.047 34.6457C304.96 34.8479 304.914 35.1138 304.914 35.4489C304.914 35.6165 304.926 35.761 304.949 35.8882C304.972 36.0153 305.007 36.1309 305.047 36.2464C305.134 36.4256 305.255 36.5643 305.423 36.6568C305.59 36.755 305.787 36.8012 306.018 36.8012C306.168 36.8012 306.307 36.7839 306.428 36.7434C306.55 36.703 306.654 36.651 306.729 36.5758C306.81 36.5065 306.879 36.414 306.925 36.31C306.972 36.206 307 36.0904 307.006 35.9691H308C308 36.2002 307.948 36.4083 307.862 36.6047C307.775 36.8012 307.654 36.9688 307.497 37.1133C307.313 37.2693 307.099 37.3907 306.844 37.4716C306.596 37.5583 306.318 37.5987 306.018 37.5987C305.567 37.5987 305.18 37.5063 304.856 37.3156Z" fill="white"/>
<path d="M312.624 35.0907V37.4889H311.693V37.0266C311.399 37.4022 310.931 37.5872 310.289 37.5872C309.925 37.5872 309.619 37.5294 309.37 37.4138C309.122 37.2982 308.942 37.1249 308.844 36.8937C308.769 36.7319 308.734 36.547 308.734 36.3447C308.734 36.1424 308.769 35.9575 308.833 35.8072C308.971 35.501 309.208 35.2871 309.543 35.1773C309.879 35.0618 310.312 35.004 310.838 35.004H311.693V34.8942C311.693 34.7901 311.688 34.6977 311.676 34.6283C311.665 34.559 311.641 34.4896 311.607 34.4145C311.485 34.1487 311.202 34.01 310.751 34.01C310.52 34.01 310.335 34.0389 310.191 34.1024C310.046 34.166 309.942 34.2585 309.879 34.3972C309.838 34.4954 309.821 34.5879 309.821 34.6746H308.885C308.885 34.4376 308.925 34.2411 309 34.0793C309.243 33.5419 309.821 33.2761 310.74 33.2761C311.191 33.2761 311.561 33.3454 311.838 33.4783C312.121 33.6112 312.323 33.8193 312.445 34.1082C312.555 34.3509 312.612 34.6803 312.612 35.0849M311.693 35.7263V35.6743H310.896C310.59 35.6743 310.335 35.6974 310.133 35.7495C309.931 35.8015 309.798 35.8939 309.74 36.0269C309.705 36.0962 309.688 36.1713 309.688 36.2638C309.688 36.3563 309.705 36.4372 309.74 36.5123C309.798 36.6279 309.89 36.7145 310.035 36.7723C310.173 36.8301 310.341 36.859 310.526 36.859C310.792 36.859 311.017 36.8128 311.196 36.7145C311.376 36.6221 311.509 36.4834 311.589 36.2985C311.659 36.1366 311.688 35.9459 311.688 35.7321" fill="white"/>
<path d="M314.219 37.2463C314.017 37.0382 313.913 36.6973 313.913 36.2292V34.1545H313.277V33.3917H313.913V32.4035H314.832V33.3917H315.994V34.1545H314.832V36.0616C314.832 36.3043 314.884 36.4892 314.988 36.599C315.092 36.7146 315.254 36.7724 315.468 36.7724C315.647 36.7724 315.809 36.7493 315.959 36.703V37.4717C315.699 37.5294 315.439 37.5526 315.19 37.5526C314.745 37.5526 314.422 37.4485 314.214 37.2405" fill="white"/>
<path d="M316.888 32.629C316.784 32.5308 316.732 32.4094 316.732 32.2591C316.732 32.1089 316.784 31.976 316.888 31.8777C316.993 31.7795 317.131 31.7333 317.305 31.7333C317.466 31.7333 317.599 31.7853 317.698 31.8777C317.796 31.976 317.848 32.1031 317.848 32.2591C317.848 32.4152 317.796 32.5308 317.692 32.629C317.588 32.7272 317.461 32.7735 317.305 32.7735C317.137 32.7735 316.998 32.7272 316.894 32.629M316.819 33.3976H317.75V37.4949H316.819V33.3976Z" fill="white"/>
<path d="M319.6 37.2982C319.277 37.1017 319.04 36.8301 318.884 36.4892C318.745 36.1944 318.676 35.8477 318.676 35.4432C318.676 35.0386 318.745 34.6919 318.884 34.3914C319.04 34.0447 319.277 33.773 319.6 33.5823C319.924 33.3859 320.317 33.2876 320.785 33.2876C321.253 33.2876 321.652 33.3859 321.976 33.5823C322.3 33.7788 322.542 34.0447 322.698 34.3914C322.837 34.7035 322.906 35.056 322.906 35.4432C322.906 35.8304 322.837 36.1713 322.698 36.4949C322.542 36.8417 322.3 37.1075 321.976 37.304C321.646 37.4947 321.253 37.593 320.785 37.593C320.317 37.593 319.924 37.4947 319.6 37.2982ZM321.415 36.6625C321.583 36.5585 321.71 36.414 321.797 36.2349C321.883 36.0442 321.924 35.7841 321.924 35.4489C321.924 35.1138 321.883 34.8479 321.797 34.663C321.716 34.4723 321.589 34.3278 321.415 34.2296C321.248 34.1313 321.034 34.0793 320.785 34.0793C320.537 34.0793 320.329 34.1313 320.155 34.2296C319.988 34.3278 319.861 34.4723 319.78 34.663C319.693 34.8595 319.647 35.1195 319.647 35.4489C319.647 35.7784 319.693 36.0326 319.78 36.2349C319.866 36.4198 319.988 36.5643 320.155 36.6625C320.323 36.7666 320.531 36.8186 320.785 36.8186C321.04 36.8186 321.248 36.7666 321.415 36.6625Z" fill="white"/>
<path d="M327.198 33.7153C327.469 33.9984 327.608 34.4145 327.608 34.9635V37.4947H326.689V35.1427C326.689 34.7728 326.614 34.507 326.464 34.3336C326.313 34.1602 326.082 34.0736 325.77 34.0736C325.441 34.0736 325.192 34.166 325.019 34.3509C324.845 34.5359 324.759 34.8133 324.759 35.1831V37.4889H323.828V33.3916H324.759V33.8539C325.042 33.4725 325.469 33.2876 326.036 33.2876C326.539 33.2876 326.926 33.4263 327.198 33.7153Z" fill="white"/>
</g>
<defs>
<clipPath id="clip0_2345_385">
<rect width="122.871" height="20.2091" fill="white" transform="translate(204.738 17.3955)"/>
</clipPath>
</defs>
</svg>
