<svg width="204" height="60" viewBox="0 0 204 60" fill="none" xmlns="http://www.w3.org/2000/svg">
<path d="M194.025 50.688H10.6855V59.9149H194.025V50.688Z" fill="white"/>
<path d="M14.7051 52.6321H19.2985V53.6315H16.0138V54.8056H19.2756V55.7822H16.0138V56.9763H19.2985V57.9758H14.7051V52.6349V52.6321Z" fill="black"/>
<path d="M20.9453 52.6321H22.254V56.8933H24.4935V57.9758H20.9453V52.6349V52.6321Z" fill="black"/>
<path d="M25.8633 52.6321H27.172V57.9729H25.8633V52.6321Z" fill="black"/>
<path d="M35.7297 55.0232V55.1062C35.7297 55.3926 35.7068 55.6446 35.6667 55.8594C35.6237 56.0742 35.555 56.289 35.4576 56.5066C35.2142 57.0421 34.8162 57.4488 34.2635 57.7237C33.7079 58.0015 33.0378 58.1389 32.2502 58.1389C31.709 58.1389 31.2193 58.0759 30.7783 57.9499C30.3373 57.8239 29.9593 57.6378 29.6471 57.3943C29.335 57.1509 29.1001 56.8531 28.9426 56.5066C28.7823 56.1429 28.6992 55.742 28.6992 55.3038C28.6992 54.8657 28.7851 54.4676 28.957 54.1011C29.2004 53.5656 29.607 53.1589 30.1798 52.884C30.7525 52.6062 31.4484 52.4688 32.2646 52.4688C32.8201 52.4688 33.327 52.5375 33.7852 52.6778C34.2434 52.8181 34.6271 53.0243 34.9364 53.3021C35.1226 53.4682 35.2858 53.6629 35.4233 53.8892C35.5607 54.1125 35.6495 54.3388 35.6839 54.565H34.2549C34.189 54.3588 34.0716 54.1755 33.8998 54.0209C33.7222 53.8548 33.496 53.7317 33.2182 53.6543C32.9404 53.577 32.6369 53.5369 32.3018 53.5369C31.8035 53.5369 31.3739 53.6228 31.0188 53.7918C30.6637 53.9607 30.4117 54.2099 30.2657 54.5364C30.2141 54.6538 30.1769 54.7712 30.1511 54.8943C30.1254 55.0175 30.1139 55.1549 30.1139 55.3067C30.1139 55.5902 30.1655 55.8451 30.2657 56.0713C30.4117 56.4035 30.6609 56.6555 31.016 56.8245C31.3682 56.9934 31.7892 57.0765 32.2789 57.0765C32.7686 57.0765 33.1581 57.0049 33.5074 56.856C33.8568 56.7099 34.1002 56.4894 34.2377 56.1973C34.2635 56.1458 34.2892 56.0656 34.3207 55.9539H32.3075V55.0232H35.7268H35.7297Z" fill="black"/>
<path d="M37.252 52.6321H41.8454V53.6315H38.5607V54.8056H41.8225V55.7822H38.5607V56.9763H41.8454V57.9758H37.252V52.6349V52.6321Z" fill="black"/>
<path d="M46.5989 57.5037C46.1235 57.0799 45.8887 56.4441 45.8887 55.5965V52.6296H47.1974V55.5048C47.1974 55.8685 47.2518 56.1606 47.3635 56.3868C47.4752 56.6102 47.6441 56.7792 47.8732 56.8851C48.1023 56.9939 48.4002 57.0484 48.7696 57.0484C49.139 57.0484 49.4368 56.9939 49.6659 56.8851C49.895 56.7763 50.0669 56.6102 50.1757 56.3868C50.2874 56.1635 50.3418 55.8685 50.3418 55.5048V52.6296H51.6505V55.5965C51.6505 56.4441 51.4128 57.0799 50.9403 57.5037C50.4649 57.9275 49.7433 58.1394 48.7696 58.1394C47.7959 58.1394 47.0714 57.9275 46.5989 57.5037Z" fill="black"/>
<path d="M53.3642 52.6321H54.839L58.0464 56.5067V52.6321H59.3465V57.9729H57.8259L54.6557 54.1756V57.9729H53.3613V52.6321H53.3642Z" fill="black"/>
<path d="M63.6621 52.6321H67.5052V53.6687H64.9708V54.82H67.4909V55.8194H64.9708V57.9758H63.6621V52.6349V52.6321Z" fill="black"/>
<path d="M69.6555 57.5037C69.1801 57.0799 68.9453 56.4441 68.9453 55.5965V52.6296H70.254V55.5048C70.254 55.8685 70.3084 56.1606 70.4201 56.3868C70.5318 56.6102 70.7008 56.7792 70.9299 56.8851C71.159 56.9939 71.4568 57.0484 71.8262 57.0484C72.1956 57.0484 72.4935 56.9939 72.7226 56.8851C72.9517 56.7763 73.1235 56.6102 73.2323 56.3868C73.344 56.1635 73.3984 55.8685 73.3984 55.5048V52.6296H74.7071V55.5965C74.7071 56.4441 74.4695 57.0799 73.9969 57.5037C73.5216 57.9275 72.7999 58.1394 71.8262 58.1394C70.8526 58.1394 70.128 57.9275 69.6555 57.5037Z" fill="black"/>
<path d="M77.7118 53.6831H75.9707V52.6321H80.7531V53.6831H79.012V57.9729H77.7118V53.6831Z" fill="black"/>
<path d="M82.7219 57.5037C82.2465 57.0799 82.0117 56.4441 82.0117 55.5965V52.6296H83.3204V55.5048C83.3204 55.8685 83.3749 56.1606 83.4865 56.3868C83.5982 56.6102 83.7672 56.7792 83.9963 56.8851C84.2254 56.9939 84.5232 57.0484 84.8926 57.0484C85.2621 57.0484 85.5599 56.9939 85.789 56.8851C86.0181 56.7763 86.1899 56.6102 86.2987 56.3868C86.4104 56.1635 86.4648 55.8685 86.4648 55.5048V52.6296H87.7736V55.5965C87.7736 56.4441 87.5359 57.0799 87.0633 57.5037C86.588 57.9275 85.8663 58.1394 84.8926 58.1394C83.919 58.1394 83.1944 57.9275 82.7219 57.5037Z" fill="black"/>
<path d="M91.3544 56.0141H90.7931V57.9729H89.4844V52.6321H92.6259C93.1099 52.6321 93.5194 52.7123 93.8544 52.8726C94.1895 53.033 94.4243 53.2678 94.5618 53.5771C94.6534 53.7776 94.6992 54.0181 94.6992 54.2959C94.6992 54.6052 94.6477 54.8715 94.5475 55.0977C94.4272 55.3698 94.2324 55.5846 93.969 55.7364C93.7055 55.8881 93.3762 55.9798 92.981 56.0055L95.1145 57.9729H93.4106L91.3515 56.0141H91.3544ZM90.7931 55.1206H92.2908C92.5743 55.1206 92.7977 55.092 92.9638 55.0347C93.1299 54.9775 93.2502 54.8715 93.3189 54.7197C93.359 54.6338 93.379 54.5107 93.379 54.3503C93.379 54.2129 93.359 54.1069 93.3189 54.0238C93.253 53.8721 93.1328 53.7632 92.9609 53.6974C92.7863 53.6315 92.5629 53.6 92.2908 53.6H90.7931V55.1206Z" fill="black"/>
<path d="M97.4269 57.7212C96.8685 57.4406 96.4733 57.0368 96.2356 56.507C96.0752 56.1548 95.9922 55.7539 95.9922 55.3043C95.9922 54.8804 96.0695 54.491 96.227 54.1301C96.3845 53.7779 96.6136 53.4743 96.92 53.2252C97.2265 52.976 97.5959 52.787 98.0283 52.6582C98.4607 52.5293 98.9476 52.4663 99.4888 52.4663C100.03 52.4663 100.505 52.5293 100.938 52.6553C101.37 52.7813 101.737 52.9675 102.038 53.2109C102.341 53.4572 102.57 53.7493 102.725 54.0929C102.897 54.4766 102.983 54.8804 102.983 55.3043C102.983 55.7567 102.891 56.1748 102.711 56.5528C102.467 57.0683 102.069 57.4606 101.516 57.7327C100.961 58.0047 100.282 58.1422 99.4802 58.1422C98.6784 58.1422 97.9825 58.0019 97.4269 57.7212ZM100.709 56.7963C101.041 56.6273 101.279 56.3839 101.419 56.066C101.513 55.8226 101.562 55.5677 101.562 55.3014C101.562 55.015 101.511 54.7544 101.41 54.5225C101.264 54.2046 101.027 53.964 100.694 53.8008C100.365 53.6376 99.9585 53.5545 99.4802 53.5545C99.002 53.5545 98.6039 53.6376 98.2746 53.8008C97.9453 53.964 97.7047 54.2046 97.5587 54.5225C97.4584 54.7544 97.4069 55.015 97.4069 55.3014C97.4069 55.5677 97.4584 55.8226 97.5587 56.066C97.7047 56.3839 97.9452 56.6273 98.2774 56.7963C98.6096 56.9652 99.0134 57.0483 99.4888 57.0483C99.9642 57.0483 100.374 56.9652 100.706 56.7963H100.709Z" fill="black"/>
<path d="M107.002 52.6321H108.311V57.9729H107.002V52.6321Z" fill="black"/>
<path d="M110.128 52.6321H111.603L114.81 56.5067V52.6321H116.11V57.9729H114.59L111.419 54.1756V57.9729H110.125V52.6321H110.128Z" fill="black"/>
<path d="M119.226 53.6831H117.484V52.6321H122.267V53.6831H120.526V57.9729H119.226V53.6831Z" fill="black"/>
<path d="M123.627 52.6321H128.22V53.6315H124.936V54.8056H128.197V55.7822H124.936V56.9763H128.22V57.9758H123.627V52.6349V52.6321Z" fill="black"/>
<path d="M131.741 56.0141H131.18V57.9729H129.871V52.6321H133.013C133.497 52.6321 133.906 52.7123 134.241 52.8726C134.576 53.033 134.811 53.2678 134.948 53.5771C135.04 53.7776 135.086 54.0181 135.086 54.2959C135.086 54.6052 135.034 54.8715 134.934 55.0977C134.814 55.3698 134.619 55.5846 134.356 55.7364C134.092 55.8881 133.763 55.9798 133.368 56.0055L135.501 57.9729H133.797L131.738 56.0141H131.741ZM131.18 55.1206H132.678C132.961 55.1206 133.184 55.092 133.351 55.0347C133.517 54.9775 133.637 54.8715 133.706 54.7197C133.746 54.6338 133.766 54.5107 133.766 54.3503C133.766 54.2129 133.746 54.1069 133.706 54.0238C133.64 53.8721 133.519 53.7632 133.348 53.6974C133.173 53.6315 132.95 53.6 132.678 53.6H131.18V55.1206Z" fill="black"/>
<path d="M136.831 52.6321H138.306L141.513 56.5067V52.6321H142.813V57.9729H141.293L138.123 54.1756V57.9729H136.828V52.6321H136.831Z" fill="black"/>
<path d="M149.13 56.8017H145.989L145.436 57.9758H144.021L146.648 52.635H148.457L151.092 57.9758H149.683L149.13 56.8017ZM148.652 55.8023L147.564 53.4855H147.55L146.461 55.8023H148.655H148.652Z" fill="black"/>
<path d="M153.109 57.7126C152.545 57.4263 152.144 57.0168 151.915 56.4841C151.757 56.1261 151.68 55.7338 151.68 55.3043C151.68 54.8747 151.757 54.4852 151.915 54.1301C152.072 53.7779 152.304 53.4743 152.613 53.2252C152.923 52.976 153.298 52.787 153.733 52.6582C154.168 52.5293 154.649 52.4663 155.173 52.4663C155.698 52.4663 156.204 52.5379 156.66 52.6811C157.115 52.8243 157.499 53.0333 157.805 53.3054C158.029 53.5116 158.2 53.7464 158.324 54.0127C158.447 54.2762 158.515 54.5625 158.533 54.8718H157.155C157.129 54.7057 157.078 54.5511 157.001 54.4108C156.923 54.2704 156.823 54.1473 156.703 54.0414C156.531 53.881 156.316 53.7578 156.055 53.6777C155.795 53.5975 155.506 53.5574 155.188 53.5574C154.71 53.5574 154.3 53.6404 153.962 53.8094C153.624 53.9784 153.384 54.2218 153.243 54.5396C153.137 54.7773 153.083 55.0322 153.083 55.3043C153.083 55.5763 153.134 55.834 153.235 56.0603C153.375 56.3896 153.616 56.6359 153.956 56.802C154.297 56.9681 154.704 57.0511 155.179 57.0511C155.509 57.0511 155.806 57.0082 156.078 56.9251C156.35 56.8421 156.577 56.7189 156.751 56.5586C156.869 56.4469 156.963 56.3237 157.035 56.1891C157.106 56.0517 157.149 55.9056 157.161 55.751H158.538C158.524 56.0689 158.455 56.3581 158.335 56.6187C158.215 56.8793 158.043 57.1055 157.82 57.3031C157.513 57.5809 157.129 57.79 156.668 57.9303C156.21 58.0706 155.706 58.1422 155.162 58.1422C154.354 58.1422 153.67 57.999 153.103 57.7155L153.109 57.7126Z" fill="black"/>
<path d="M160.049 52.6321H161.358V57.9729H160.049V52.6321Z" fill="black"/>
<path d="M164.318 57.7212C163.759 57.4406 163.364 57.0368 163.126 56.507C162.966 56.1548 162.883 55.7539 162.883 55.3043C162.883 54.8804 162.96 54.491 163.118 54.1301C163.275 53.7779 163.504 53.4743 163.811 53.2252C164.117 52.976 164.486 52.787 164.919 52.6582C165.351 52.5293 165.838 52.4663 166.379 52.4663C166.921 52.4663 167.396 52.5293 167.828 52.6553C168.261 52.7813 168.627 52.9675 168.928 53.2109C169.232 53.4572 169.461 53.7493 169.615 54.0929C169.787 54.4766 169.873 54.8804 169.873 55.3043C169.873 55.7567 169.782 56.1748 169.601 56.5528C169.358 57.0683 168.96 57.4606 168.407 57.7327C167.851 58.0047 167.173 58.1422 166.371 58.1422C165.569 58.1422 164.873 58.0019 164.318 57.7212ZM167.599 56.7963C167.932 56.6273 168.169 56.3839 168.31 56.066C168.404 55.8226 168.453 55.5677 168.453 55.3014C168.453 55.015 168.401 54.7544 168.301 54.5225C168.155 54.2046 167.917 53.964 167.585 53.8008C167.256 53.6376 166.849 53.5545 166.371 53.5545C165.893 53.5545 165.495 53.6376 165.165 53.8008C164.836 53.964 164.595 54.2046 164.449 54.5225C164.349 54.7544 164.297 55.015 164.297 55.3014C164.297 55.5677 164.349 55.8226 164.449 56.066C164.595 56.3839 164.836 56.6273 165.168 56.7963C165.5 56.9652 165.904 57.0483 166.379 57.0483C166.855 57.0483 167.264 56.9652 167.597 56.7963H167.599Z" fill="black"/>
<path d="M171.39 52.6321H172.864L176.072 56.5067V52.6321H177.372V57.9729H175.851L172.681 54.1756V57.9729H171.387V52.6321H171.39Z" fill="black"/>
<path d="M183.685 56.8017H180.544L179.991 57.9758H178.576L181.202 52.635H183.012L185.647 57.9758H184.238L183.685 56.8017ZM183.21 55.8023L182.121 53.4855H182.107L181.019 55.8023H183.213H183.21Z" fill="black"/>
<path d="M186.9 52.6321H188.209V56.8933H190.449V57.9758H186.9V52.6349V52.6321Z" fill="black"/>
<path d="M44.1191 22.3999H50.5912L59.7093 37.927L68.8904 22.3999H75.331V44.9087H70.1018V29.1898L60.9522 44.9087H58.4979L49.3168 29.1898V44.9087H44.1191V22.3999Z" fill="white"/>
<path d="M80.7522 42.9328C78.7533 41.1487 77.7539 38.4682 77.7539 34.8972V22.3999H83.2695V34.5163C83.2695 36.0455 83.5043 37.2855 83.9711 38.2305C84.4379 39.1756 85.1567 39.8772 86.1217 40.3354C87.0897 40.7936 88.3469 41.0198 89.899 41.0198C91.4511 41.0198 92.7083 40.7907 93.6763 40.3354C94.6442 39.88 95.3601 39.1784 95.8269 38.2305C96.2937 37.2855 96.5285 36.0455 96.5285 34.5163V22.3999H102.044V34.8972C102.044 38.4682 101.045 41.1458 99.0486 42.9328C97.0497 44.7169 93.9999 45.6103 89.899 45.6103C85.7981 45.6103 82.7454 44.7169 80.7494 42.9328H80.7522Z" fill="white"/>
<path d="M104.467 22.3999H110.684L124.204 38.7231V22.3999H129.688V44.9087H123.279L109.919 28.9034V44.9087H104.467V22.3999Z" fill="white"/>
<path d="M132.561 22.3999H145.187C148.374 22.3999 151.049 22.9383 153.205 24.0093C155.362 25.0832 156.908 26.6812 157.844 28.8089C158.483 30.2751 158.801 31.8903 158.801 33.6543C158.801 35.4184 158.483 37.128 157.844 38.5312C156.868 40.6561 155.304 42.2512 153.157 43.3136C151.009 44.3761 148.354 44.9087 145.187 44.9087H132.561V22.3999ZM144.803 40.4127C146.716 40.4127 148.3 40.1063 149.554 39.4877C150.808 38.872 151.71 37.9585 152.263 36.7471C152.667 35.8336 152.87 34.8027 152.87 33.6543C152.87 32.506 152.667 31.4435 152.263 30.53C151.135 28.1073 148.649 26.8959 144.803 26.8959H138.076V40.4127H144.803Z" fill="white"/>
<path d="M165.253 43.8405C162.905 42.6607 161.23 40.9539 160.23 38.7231C159.549 37.2368 159.211 35.5472 159.211 33.6543C159.211 31.8673 159.54 30.2207 160.199 28.7115C160.858 27.2252 161.831 25.9537 163.117 24.9027C164.403 23.8518 165.961 23.0528 167.788 22.5115C169.615 21.9703 171.665 21.6982 173.942 21.6982C176.219 21.6982 178.229 21.9646 180.047 22.4944C181.866 23.027 183.412 23.8059 184.687 24.8369C185.961 25.8678 186.929 27.1049 187.588 28.5511C188.309 30.1663 188.673 31.8673 188.673 33.6514C188.673 35.5644 188.289 37.317 187.525 38.9121C186.505 41.0799 184.824 42.738 182.487 43.8863C180.148 45.0347 177.29 45.6074 173.91 45.6074C170.531 45.6074 167.602 45.0175 165.253 43.8377V43.8405ZM179.074 39.9516C180.477 39.2385 181.476 38.2133 182.069 36.876C182.473 35.8565 182.676 34.7826 182.676 33.6571C182.676 32.4458 182.464 31.3518 182.038 30.3724C181.422 29.0322 180.417 28.0185 179.025 27.3283C177.633 26.6382 175.927 26.2916 173.908 26.2916C171.889 26.2916 170.213 26.6382 168.822 27.3283C167.43 28.0185 166.425 29.0351 165.809 30.3724C165.382 31.3518 165.17 32.4458 165.17 33.6571C165.17 34.7826 165.382 35.8565 165.809 36.876C166.425 38.2162 167.436 39.2414 168.839 39.9516C170.242 40.6647 171.943 41.0198 173.939 41.0198C175.935 41.0198 177.671 40.6647 179.071 39.9516H179.074Z" fill="white"/>
<path d="M15.4629 27.9268H26.577V30.3437H18.6302V33.1817H26.5226V35.5443H18.6302V38.4366H26.577V40.8536H15.4629V27.9268Z" fill="white"/>
<path d="M27.8232 27.9268H30.9905V38.2361H36.4087V40.8536H27.8203V27.9268H27.8232Z" fill="white"/>
<path d="M36.3954 13.654H26.5098L24.7715 17.3453H20.3184L28.5831 0.529541H34.2762L42.5638 17.3453H38.1336L36.3954 13.654ZM34.8948 10.5096L31.464 3.22144H31.4153L27.9846 10.5096H34.8919H34.8948Z" fill="white"/>
<path d="M45.3514 16.5233C43.573 15.627 42.3187 14.3354 41.5885 12.6516C41.0959 11.5233 40.8496 10.2861 40.8496 8.93731C40.8496 7.5885 41.0959 6.3571 41.5885 5.24598C42.081 4.13485 42.8141 3.18696 43.7907 2.39944C44.7672 1.61192 45.9413 1.01913 47.3159 0.61248C48.6905 0.208695 50.2026 0.00537109 51.8521 0.00537109C53.5016 0.00537109 55.0938 0.231605 56.5314 0.684073C57.969 1.13654 59.1718 1.79233 60.1397 2.64858C60.8385 3.29865 61.3826 4.04322 61.772 4.87656C62.1615 5.7099 62.3792 6.61197 62.4278 7.57991H58.0922C58.012 7.05585 57.8487 6.57188 57.6025 6.128C57.3562 5.68413 57.044 5.29466 56.6603 4.95961C56.119 4.45273 55.4403 4.07185 54.6242 3.81698C53.8051 3.56211 52.8973 3.43611 51.8979 3.43611C50.3887 3.43611 49.1029 3.70243 48.0404 4.23509C46.9751 4.76774 46.222 5.53235 45.7781 6.53465C45.4459 7.28208 45.2769 8.08392 45.2769 8.94018C45.2769 9.79643 45.4344 10.6069 45.7523 11.3228C46.1962 12.3537 46.9551 13.1327 48.0261 13.6567C49.0972 14.1808 50.3801 14.4442 51.8721 14.4442C52.9031 14.4442 53.8481 14.3125 54.7072 14.0519C55.5635 13.7913 56.2708 13.4047 56.8264 12.8978C57.1929 12.5485 57.4879 12.159 57.7199 11.7294C57.949 11.2999 58.0807 10.8388 58.1122 10.3491H62.4479C62.3992 11.3486 62.1844 12.2592 61.8035 13.0754C61.4227 13.8944 60.8814 14.6103 60.1827 15.2318C59.2147 16.1052 58.0062 16.7639 56.5629 17.2077C55.1167 17.6516 53.5388 17.875 51.8234 17.875C49.2833 17.875 47.124 17.4254 45.3457 16.529L45.3514 16.5233Z" fill="white"/>
<path d="M63.6191 0.529541H78.0753V3.67391H67.7372V7.36524H78.0037V10.438H67.7372V14.2009H78.0753V17.3453H63.6191V0.529541Z" fill="white"/>
<path d="M85.5755 11.1768H83.8143V17.3453H79.6934V0.529541H89.579C91.1025 0.529541 92.394 0.784412 93.4507 1.29129C94.5074 1.80103 95.2492 2.53701 95.6787 3.50781C95.9651 4.14355 96.1083 4.89671 96.1083 5.77015C96.1083 6.73808 95.9508 7.58002 95.6329 8.29595C95.252 9.1522 94.6449 9.82517 93.8116 10.3091C92.9782 10.7931 91.9415 11.0766 90.7044 11.1539L97.4199 17.3453H92.0618L85.5841 11.1768H85.5755ZM83.8143 8.36468H88.5308C89.4186 8.36468 90.1259 8.27304 90.65 8.08976C91.1741 7.90648 91.5463 7.57715 91.7697 7.10178C91.8957 6.83259 91.9616 6.44312 91.9616 5.93338C91.9616 5.50382 91.8986 5.16304 91.7697 4.90817C91.5635 4.43279 91.1855 4.08914 90.6385 3.88296C90.0916 3.67677 89.3871 3.57367 88.5308 3.57367H83.8143V8.36181V8.36468Z" fill="white"/>
<path d="M101.105 16.5233C99.3269 15.627 98.0726 14.3354 97.3424 12.6516C96.8498 11.5233 96.6035 10.2861 96.6035 8.93731C96.6035 7.5885 96.8498 6.3571 97.3424 5.24598C97.8349 4.13485 98.568 3.18696 99.5446 2.39944C100.521 1.61192 101.695 1.01913 103.07 0.61248C104.444 0.208695 105.956 0.00537109 107.606 0.00537109C109.255 0.00537109 110.848 0.231605 112.285 0.684073C113.723 1.13654 114.926 1.79233 115.894 2.64858C116.592 3.29865 117.136 4.04322 117.526 4.87656C117.915 5.7099 118.133 6.61197 118.182 7.57991H113.846C113.766 7.05585 113.603 6.57188 113.356 6.128C113.11 5.68413 112.798 5.29466 112.414 4.95961C111.873 4.45273 111.194 4.07185 110.378 3.81698C109.559 3.56211 108.651 3.43611 107.652 3.43611C106.143 3.43611 104.857 3.70243 103.794 4.23509C102.729 4.76774 101.976 5.53235 101.532 6.53465C101.2 7.28208 101.031 8.08392 101.031 8.94018C101.031 9.79643 101.188 10.6069 101.506 11.3228C101.95 12.3537 102.709 13.1327 103.78 13.6567C104.851 14.1808 106.134 14.4442 107.626 14.4442C108.657 14.4442 109.602 14.3125 110.461 14.0519C111.317 13.7913 112.025 13.4047 112.58 12.8978C112.947 12.5485 113.242 12.159 113.474 11.7294C113.703 11.2999 113.835 10.8388 113.866 10.3491H118.202C118.153 11.3486 117.938 12.2592 117.557 13.0754C117.177 13.8944 116.635 14.6103 115.937 15.2318C114.969 16.1052 113.76 16.7639 112.317 17.2077C110.871 17.6516 109.293 17.875 107.577 17.875C105.037 17.875 102.878 17.4254 101.1 16.529L101.105 16.5233Z" fill="white"/>
<path d="M132.62 13.654H122.734L120.996 17.3453H116.543L124.808 0.529541H130.501L138.788 17.3453H134.358L132.62 13.654ZM131.119 10.5096L127.689 3.22144H127.64L124.209 10.5096H131.117H131.119Z" fill="white"/>
<path d="M139.17 0.529541H144.004L150.817 12.1276L157.675 0.529541H162.486V17.3453H158.58V5.60405L151.745 17.3453H149.912L143.053 5.60405V17.3453H139.17V0.529541Z" fill="white"/>
<path d="M168.236 16.5462C166.48 15.6642 165.232 14.3898 164.484 12.7231C163.975 11.612 163.723 10.3491 163.723 8.93731C163.723 7.60282 163.969 6.37428 164.462 5.24598C164.954 4.13485 165.679 3.18696 166.641 2.39944C167.6 1.61192 168.766 1.01913 170.129 0.61248C171.495 0.208695 173.027 0.00537109 174.725 0.00537109C176.423 0.00537109 177.93 0.202968 179.287 0.601025C180.644 0.999082 181.799 1.58042 182.752 2.35076C183.706 3.1211 184.427 4.04608 184.92 5.1257C185.458 6.33133 185.73 7.60282 185.73 8.93731C185.73 10.3663 185.444 11.675 184.874 12.8663C184.112 14.4872 182.858 15.7243 181.111 16.5806C179.364 17.4368 177.228 17.8664 174.705 17.8664C172.182 17.8664 169.994 17.4254 168.239 16.5434L168.236 16.5462ZM178.56 13.6424C179.608 13.1098 180.355 12.3451 180.799 11.3428C181.1 10.5811 181.252 9.77925 181.252 8.93731C181.252 8.03238 181.094 7.21335 180.776 6.4831C180.315 5.48367 179.565 4.72478 178.525 4.20931C177.486 3.69384 176.211 3.43611 174.702 3.43611C173.193 3.43611 171.944 3.69384 170.902 4.20931C169.863 4.72478 169.112 5.48367 168.651 6.4831C168.333 7.21335 168.176 8.03238 168.176 8.93731C168.176 9.77925 168.333 10.5811 168.651 11.3428C169.112 12.3423 169.865 13.1098 170.914 13.6424C171.962 14.1751 173.23 14.4414 174.725 14.4414C176.22 14.4414 177.512 14.1751 178.56 13.6424Z" fill="white"/>
<path d="M189.683 16.9532C188.191 16.3432 187.158 15.4011 186.588 14.1296C186.301 13.4308 186.158 12.6863 186.158 11.8902H190.422C190.454 12.3025 190.534 12.6691 190.66 12.987C190.961 13.637 191.505 14.1153 192.292 14.416C193.077 14.7167 194.059 14.8684 195.233 14.8684C196.264 14.8684 197.158 14.7539 197.914 14.5219C198.667 14.2928 199.157 13.9377 199.38 13.4623C199.46 13.2877 199.5 13.0729 199.5 12.818C199.5 12.5631 199.46 12.3569 199.38 12.1994C199.223 11.8329 198.896 11.5379 198.404 11.306C197.911 11.0769 197.347 10.8936 196.711 10.759C196.075 10.6244 195.265 10.4841 194.283 10.3409C194.028 10.2922 193.561 10.2149 192.877 10.1032C191.256 9.80251 189.95 9.40446 188.959 8.91189C187.965 8.41934 187.272 7.7435 186.874 6.88725C186.668 6.41187 186.565 5.84772 186.565 5.19479C186.565 4.59054 186.677 4.02066 186.897 3.47942C187.232 2.71767 187.791 2.07906 188.575 1.56073C189.36 1.04526 190.302 0.655792 191.399 0.39233C192.496 0.128867 193.678 0 194.947 0C196.932 0 198.647 0.309282 200.09 0.927845C201.534 1.54641 202.527 2.45993 203.069 3.66556C203.323 4.25262 203.464 4.93705 203.498 5.71312H199.211C199.194 5.34943 199.108 4.99719 198.948 4.665C198.438 3.50519 197.106 2.92672 194.947 2.92672C194.011 2.92672 193.183 3.03841 192.47 3.25891C191.754 3.48228 191.296 3.82307 191.09 4.28412C191.027 4.41299 190.995 4.5705 190.995 4.7595C190.995 4.96569 191.027 5.14038 191.09 5.28356C191.233 5.60144 191.522 5.86776 191.96 6.08254C192.395 6.29732 192.905 6.47201 193.484 6.6066C194.062 6.7412 194.83 6.89011 195.783 7.04761L196.997 7.26239C198.126 7.46858 199.114 7.70341 199.961 7.964C200.812 8.22747 201.562 8.5797 202.212 9.02358C202.862 9.46746 203.341 10.023 203.641 10.6903C203.879 11.2458 203.999 11.8415 203.999 12.4772C203.999 13.176 203.865 13.8203 203.595 14.4074C203.071 15.5672 202.066 16.432 200.583 17.0048C199.097 17.5775 197.301 17.861 195.188 17.861C193.074 17.861 191.178 17.5546 189.686 16.9446L189.683 16.9532Z" fill="white"/>
<path d="M3.14724 6.56045H0V4.65894H8.64561V6.56045H5.49837V14.3154H3.14724V6.56045Z" fill="white"/>
<path d="M9.73828 4.65894H18.0402V6.46308H12.1037V8.58223H18.0002V10.3463H12.1037V12.5084H18.0402V14.3125H9.73828V4.65894Z" fill="white"/>
</svg>
