<svg width="90" height="90" viewBox="0 0 90 90" fill="none" xmlns="http://www.w3.org/2000/svg">
<path d="M49.1295 37.8685L46.8468 40.1632L43.1574 43.8407L40.8626 41.5401L44.5521 37.8685L40.8626 34.1732L43.1574 31.8964L46.8468 35.5679L49.1295 37.8685Z" fill="#121212"/>
<path d="M71.3077 18.3964H18.6845C14.0593 23.5639 11.2461 30.3825 11.2461 37.8626C11.2461 45.3427 14.0593 52.1672 18.6845 57.3288H39.8017V61.2209H27.5117C26.2779 62.5977 25.5269 64.4156 25.5269 66.4123C25.5269 68.4089 26.2779 70.2268 27.5117 71.6036H62.4805C63.7143 70.2268 64.4653 68.4089 64.4653 66.4123C64.4653 64.4156 63.7143 62.5977 62.4805 61.2209H50.1905V57.3288H71.3136C75.9388 52.1613 78.7521 45.3427 78.7521 37.8626C78.7521 30.3825 75.9329 23.5639 71.3077 18.3964ZM60.7759 64.4692C61.056 65.0593 61.217 65.7209 61.217 66.4182C61.217 67.1156 61.056 67.7771 60.7759 68.3672H29.2103C28.9302 67.7771 28.7693 67.1156 28.7693 66.4182C28.7693 65.7209 28.9302 65.0593 29.2103 64.4692H60.7819H60.7759ZM46.9362 61.2268H43.0441V57.3348H46.9362V61.2268ZM20.1865 54.0864C16.6223 49.6401 14.4885 44.0017 14.4885 37.8626C14.4885 31.7235 16.6223 26.0851 20.1865 21.6387H69.8057C73.3699 26.0851 75.5037 31.7235 75.5037 37.8626C75.5037 44.0017 73.3699 49.6401 69.8057 54.0864H20.1865Z" fill="#121212"/>
<path d="M23.1075 25.5309C21.8022 26.9852 20.7413 28.6601 19.9486 30.472C18.9592 32.7369 18.387 35.2342 18.387 37.8687C18.387 42.6071 20.1691 46.9283 23.0956 50.2005H66.8857C68.191 48.7462 69.2519 47.0713 70.0446 45.2594C71.034 42.9945 71.6062 40.4971 71.6062 37.8627C71.6062 33.1243 69.8241 28.8031 66.8976 25.5309H23.1075ZM66.8439 44.425C66.4148 45.319 65.9141 46.1654 65.33 46.9521H24.6572C22.7678 44.413 21.6473 41.272 21.6473 37.8687C21.6473 35.5144 22.1896 33.2912 23.1433 31.3064C23.5724 30.4124 24.0731 29.566 24.6572 28.7793H65.336C67.2254 31.3183 68.3459 34.4594 68.3459 37.8627C68.3459 40.217 67.8035 42.4402 66.8499 44.425H66.8439Z" fill="#121212"/>
</svg>
