<svg width="180" height="45" viewBox="0 0 180 45" fill="none" xmlns="http://www.w3.org/2000/svg">
<g opacity="0.7">
<path d="M47.5373 21.9169H18.3968C18.1103 21.3029 17.9466 20.6276 17.9466 19.9319C17.9466 19.2361 18.1103 18.5403 18.3968 17.9469H47.5373C47.6192 16.8214 47.742 15.7163 47.9466 14.6317H16.6574C15.3886 16.0437 14.6315 17.9059 14.6315 19.9523C14.6315 21.9987 15.4091 23.8609 16.6574 25.2729H47.9466C47.742 24.1883 47.6192 23.0833 47.5373 21.9578" fill="white"/>
<path d="M52.5102 36.528H9.14734C5.50478 31.985 3.31514 26.2142 3.31514 19.9318C3.31514 13.6494 5.50478 7.87858 9.14734 3.31514H52.4898C53.2674 2.1487 54.1269 1.04366 55.0682 0H7.61255C2.8854 5.27967 0 12.2783 0 19.9318C0 27.5853 2.8854 34.5634 7.61255 39.8636H55.0887C54.1474 38.8199 53.2879 37.7149 52.5102 36.5484" fill="white"/>
<path d="M48.9497 29.2224H13.7314C11.8078 26.6235 10.6618 23.4107 10.6618 19.9318C10.6618 16.453 11.8078 13.2197 13.7519 10.6208H48.9702C49.3385 9.4748 49.7887 8.36975 50.2798 7.30563H12.1557C9.1475 10.6617 7.32622 15.0819 7.32622 19.9318C7.32622 24.7818 9.1475 29.202 12.1557 32.558H50.2798C49.7887 31.4939 49.3385 30.3684 48.9702 29.2429" fill="white"/>
<path d="M65.6272 2.29769e-05H76.1047V2.37383H68.4103V7.16237H76.0433V9.57711H68.4103V14.6112H76.1047V16.985H65.6272V2.29769e-05Z" fill="white"/>
<path d="M79.9931 16.7804C79.195 16.3916 78.622 15.8186 78.2742 15.041C78.0081 14.4885 77.8854 13.8132 77.8854 13.0765H80.4843C80.4843 13.5267 80.5661 13.895 80.7298 14.202C81.0777 14.9796 81.8349 15.3479 83.0218 15.3479C84.2087 15.3479 84.9044 15.041 85.1909 14.4271C85.2728 14.2224 85.3137 14.0178 85.3137 13.8336C85.3137 13.6085 85.2728 13.4039 85.1909 13.1992C85.0682 12.9537 84.9045 12.7695 84.6384 12.6263C84.3929 12.483 84.0859 12.3602 83.7175 12.2579C83.3492 12.1556 82.8581 12.0328 82.1828 11.91C81.2823 11.7054 80.5252 11.4189 79.8908 11.071C79.2564 10.7231 78.8062 10.2524 78.5402 9.63853C78.3765 9.27018 78.2946 8.84044 78.2946 8.32885C78.2946 7.79678 78.397 7.32612 78.5811 6.9373C78.8881 6.28246 79.4201 5.77086 80.1773 5.40251C80.9345 5.03416 81.8349 4.87045 82.899 4.87045C83.9631 4.87045 84.884 5.05463 85.6412 5.40251C86.3778 5.7504 86.9304 6.28246 87.2578 6.95777C87.4624 7.4489 87.5648 8.02189 87.5648 8.69719H85.0477C85.0477 8.34931 84.9863 8.02189 84.8635 7.71493C84.6998 7.38751 84.4542 7.14194 84.1064 6.97823C83.7585 6.81452 83.3492 6.73266 82.8581 6.73266C81.8758 6.73266 81.2619 6.99869 80.9959 7.53075C80.9345 7.674 80.8935 7.85817 80.8935 8.08328C80.8935 8.28792 80.9345 8.45163 80.9959 8.55395C81.1186 8.81998 81.3028 9.02461 81.5893 9.18832C81.8758 9.35204 82.1828 9.47482 82.5102 9.55667C82.8376 9.63853 83.3287 9.76131 83.9631 9.90456C84.9658 10.1706 85.7639 10.4571 86.3983 10.805C87.0327 11.1529 87.5034 11.6235 87.7899 12.2374C87.9536 12.6058 88.0354 13.056 88.0354 13.5676C88.0354 14.1201 87.9331 14.6522 87.7489 15.1228C87.4215 15.8391 86.8076 16.3916 85.9481 16.7804C85.0886 17.1488 84.0859 17.3534 82.9195 17.3534C81.753 17.3534 80.7503 17.1692 79.9522 16.7804H79.9931Z" fill="white"/>
<path d="M92.2714 16.4735C91.3301 15.9414 90.6343 15.1638 90.1841 14.1815C89.7953 13.3221 89.6111 12.2989 89.6111 11.112C89.6111 9.92506 89.7953 8.90187 90.1841 8.02193C90.6548 7.0192 91.3505 6.24157 92.2714 5.70951C93.1923 5.17745 94.3178 4.91142 95.607 4.91142C96.487 4.91142 97.285 5.0342 98.0013 5.27977C98.7175 5.52534 99.3314 5.87322 99.843 6.34389C100.293 6.75317 100.641 7.2443 100.907 7.79682C101.173 8.34935 101.296 8.96326 101.316 9.63857H98.4515C98.4106 8.90187 98.1445 8.30842 97.6534 7.83775C97.4078 7.63311 97.1213 7.4694 96.753 7.36708C96.3846 7.26476 96.0163 7.20337 95.607 7.20337C94.9522 7.20337 94.3792 7.34662 93.9085 7.63311C93.4174 7.91961 93.0695 8.32889 92.8239 8.84048C92.5579 9.41347 92.4351 10.1911 92.4351 11.1529C92.4351 11.6236 92.476 12.0533 92.5374 12.4217C92.5988 12.79 92.7011 13.1174 92.8239 13.4448C93.0695 13.9564 93.4174 14.3453 93.9085 14.6318C94.3792 14.9182 94.9522 15.0615 95.607 15.0615C96.0368 15.0615 96.4256 15.0001 96.7939 14.8978C97.1418 14.7955 97.4283 14.6318 97.6534 14.4271C97.899 14.2225 98.0831 13.9564 98.2264 13.6495C98.3696 13.3425 98.431 13.0151 98.4515 12.6672H101.316C101.316 13.3221 101.173 13.936 100.928 14.4885C100.682 15.041 100.334 15.5322 99.884 15.9619C99.3519 16.4121 98.738 16.76 98.0013 17.0056C97.285 17.2511 96.487 17.3739 95.607 17.3739C94.3178 17.3739 93.1923 17.1079 92.2714 16.5758V16.4735Z" fill="white"/>
<path d="M114.291 5.19792V16.9851H111.651V15.6345C110.832 16.7395 109.604 17.2921 107.967 17.2921C106.514 17.2921 105.409 16.8828 104.611 16.0642C103.813 15.2457 103.424 14.0588 103.424 12.4831V5.19792H106.064V11.951C106.064 13.0151 106.289 13.7927 106.719 14.2839C107.169 14.775 107.824 15.0206 108.704 15.0206C109.645 15.0206 110.382 14.7545 110.873 14.202C111.385 13.6495 111.63 12.8719 111.63 11.8282V5.17746H114.27L114.291 5.19792Z" fill="white"/>
<path d="M125.586 13.7108C125.729 13.4448 125.811 13.1583 125.831 12.8923H128.471C128.369 14.0792 127.898 15.0614 127.08 15.8186C126.548 16.2893 125.913 16.6371 125.156 16.8827C124.399 17.1283 123.58 17.2511 122.68 17.2511C121.309 17.2511 120.122 16.985 119.16 16.4325C118.198 15.88 117.482 15.1228 117.032 14.1201C116.643 13.2606 116.459 12.2374 116.459 11.0301C116.459 10.4161 116.5 9.86361 116.602 9.37248C116.704 8.88135 116.848 8.41068 117.032 7.98094C117.482 6.97821 118.178 6.22105 119.119 5.66852C120.061 5.116 121.186 4.84997 122.496 4.84997C123.805 4.84997 124.931 5.116 125.872 5.66852C126.814 6.22105 127.489 6.97821 127.939 7.96048C128.185 8.513 128.348 9.06552 128.43 9.65897C128.512 10.2524 128.553 10.9687 128.553 11.7668H119.14C119.181 12.483 119.303 13.0355 119.508 13.4243C119.754 13.9768 120.142 14.3861 120.654 14.6726C121.186 14.9591 121.841 15.1024 122.619 15.1024C123.13 15.1024 123.601 15.041 124.01 14.9182C124.419 14.7954 124.767 14.6112 125.054 14.3657C125.258 14.1815 125.443 13.9359 125.565 13.6699L125.586 13.7108ZM119.508 8.7381C119.344 9.08599 119.242 9.4748 119.201 9.86361H125.811C125.77 9.45434 125.668 9.04506 125.524 8.63578C125.258 8.10372 124.89 7.71491 124.399 7.42842C123.908 7.16239 123.273 7.01914 122.537 7.01914C121.022 7.01914 120.02 7.59213 119.508 8.7381Z" fill="white"/>
<path d="M130.723 4.59537e-05H133.383V16.985H130.723V4.59537e-05Z" fill="white"/>
<path d="M146.766 16.9851H144.106V15.6549C143.246 16.7395 141.916 17.2715 140.054 17.2715C139.01 17.2715 138.13 17.1078 137.414 16.76C136.698 16.4325 136.186 15.9209 135.9 15.2661C135.695 14.7954 135.593 14.2634 135.593 13.6699C135.593 13.0765 135.695 12.5649 135.879 12.1351C136.289 11.2552 136.964 10.6413 137.926 10.3138C138.887 9.98642 140.136 9.82271 141.65 9.82271H144.106V9.51575C144.106 9.20879 144.106 8.96322 144.065 8.75858C144.024 8.55395 143.963 8.34931 143.881 8.14467C143.533 7.36704 142.714 6.99869 141.425 6.99869C140.77 6.99869 140.238 7.08055 139.808 7.26472C139.399 7.4489 139.092 7.71493 138.908 8.10374C138.785 8.39024 138.744 8.65627 138.744 8.90183H136.043C136.043 8.22652 136.145 7.65354 136.37 7.18287C137.066 5.64808 138.724 4.87045 141.384 4.87045C142.694 4.87045 143.737 5.05463 144.556 5.44344C145.375 5.83225 145.948 6.42571 146.295 7.24426C146.623 7.96049 146.766 8.88137 146.766 10.0683V16.9851ZM144.106 11.91V11.7668H141.814C140.934 11.7668 140.197 11.8486 139.624 11.9919C139.051 12.1351 138.662 12.4012 138.499 12.79C138.396 12.9741 138.355 13.1992 138.355 13.4653C138.355 13.7313 138.396 13.9564 138.499 14.1815C138.662 14.5089 138.949 14.775 139.338 14.9182C139.747 15.0819 140.218 15.1638 140.75 15.1638C141.527 15.1638 142.162 15.0205 142.673 14.7545C143.185 14.4885 143.553 14.0792 143.799 13.5471C143.983 13.0765 144.085 12.5444 144.085 11.91H144.106Z" fill="white"/>
<path d="M165.409 4.59537e-05V16.985H162.81V15.573C162.36 16.1256 161.807 16.5553 161.132 16.8418C160.457 17.1283 159.72 17.2715 158.881 17.2715C157.735 17.2715 156.732 17.0055 155.914 16.4939C155.095 15.9823 154.481 15.2661 154.052 14.3247C153.847 13.8541 153.683 13.3425 153.56 12.79C153.458 12.2374 153.397 11.6644 153.397 11.071C153.397 9.84316 153.622 8.75858 154.052 7.79677C154.461 6.8759 155.095 6.1392 155.914 5.62761C156.732 5.11601 157.715 4.84998 158.881 4.84998C159.7 4.84998 160.436 4.99323 161.091 5.27972C161.746 5.56621 162.299 5.97549 162.749 6.52802V4.59537e-05H165.409ZM162.749 10.7845C162.749 9.61806 162.462 8.71765 161.889 8.08327C161.316 7.44889 160.539 7.14193 159.536 7.14193C158.84 7.14193 158.247 7.28518 157.756 7.57167C157.264 7.85817 156.876 8.26744 156.63 8.84043C156.364 9.45435 156.241 10.2115 156.241 11.1119C156.241 12.0123 156.364 12.749 156.63 13.3425C156.896 13.895 157.264 14.3247 157.756 14.6112C158.247 14.8977 158.84 15.041 159.536 15.041C160.539 15.041 161.316 14.734 161.889 14.0996C162.462 13.4653 162.749 12.5649 162.749 11.3984V10.7845Z" fill="white"/>
<path d="M176.725 13.7108C176.869 13.4448 176.951 13.1583 176.971 12.8923H179.611C179.509 14.0792 179.038 15.0614 178.219 15.8186C177.687 16.2893 177.053 16.6371 176.296 16.8827C175.539 17.1283 174.72 17.2511 173.82 17.2511C172.449 17.2511 171.262 16.985 170.3 16.4325C169.338 15.88 168.622 15.1228 168.172 14.1201C167.783 13.2606 167.599 12.2374 167.599 11.0301C167.599 10.4161 167.639 9.86361 167.742 9.37248C167.844 8.88135 167.987 8.41068 168.172 7.98094C168.622 6.97821 169.318 6.22105 170.259 5.66852C171.2 5.116 172.326 4.84997 173.635 4.84997C174.945 4.84997 176.071 5.116 177.012 5.66852C177.953 6.22105 178.629 6.97821 179.079 7.96048C179.324 8.513 179.488 9.06552 179.57 9.65897C179.652 10.2524 179.693 10.9687 179.693 11.7668H170.279C170.32 12.483 170.443 13.0355 170.648 13.4243C170.893 13.9768 171.282 14.3861 171.794 14.6726C172.326 14.9591 172.981 15.1024 173.758 15.1024C174.27 15.1024 174.74 15.041 175.15 14.9182C175.559 14.7954 175.907 14.6112 176.193 14.3657C176.398 14.1815 176.582 13.9359 176.705 13.6699L176.725 13.7108ZM170.648 8.7381C170.484 9.08599 170.382 9.4748 170.341 9.86361H176.951C176.91 9.45434 176.807 9.04506 176.664 8.63578C176.398 8.10372 176.03 7.71491 175.539 7.42842C175.047 7.16239 174.413 7.01914 173.676 7.01914C172.162 7.01914 171.159 7.59213 170.648 8.7381Z" fill="white"/>
<path d="M65.6268 22.8581H72.032C73.3417 22.8581 74.4468 23.0627 75.3062 23.472C76.1657 23.8813 76.8001 24.5157 77.1684 25.3547C77.4754 26.0095 77.6187 26.8281 77.6187 27.7899C77.6187 28.281 77.5777 28.7312 77.5163 29.12C77.4345 29.5089 77.3322 29.8772 77.1684 30.2251C76.8001 31.0641 76.1862 31.678 75.3062 32.1078C74.4263 32.517 73.3417 32.7421 72.0525 32.7421H68.4099V39.8636H65.6473V22.8786L65.6268 22.8581ZM71.3363 30.3888C72.2162 30.3888 72.912 30.2865 73.444 30.1023C73.9761 29.9181 74.324 29.5702 74.5491 29.0996C74.7128 28.7722 74.7946 28.3219 74.7946 27.7899C74.7946 27.2578 74.7128 26.8281 74.5491 26.4597C74.324 25.9891 73.9556 25.6616 73.444 25.4775C72.9324 25.2933 72.2367 25.191 71.3567 25.191H68.4099V30.3888H71.3567H71.3363Z" fill="white"/>
<path d="M81.4048 39.2906C80.4634 38.7381 79.7881 37.9605 79.3379 36.9577C78.9287 36.0982 78.7445 35.0955 78.7445 33.9495C78.7445 32.8036 78.9491 31.7804 79.3379 30.9209C79.7881 29.9182 80.4839 29.1405 81.4048 28.588C82.3257 28.0355 83.4716 27.749 84.8223 27.749C86.1729 27.749 87.3188 28.0355 88.2602 28.588C89.2015 29.1405 89.8973 29.9182 90.3475 30.9209C90.7568 31.8213 90.9409 32.824 90.9409 33.9495C90.9409 35.0751 90.7363 36.0573 90.3475 36.9782C89.8973 37.9809 89.2015 38.7381 88.2602 39.2906C87.3188 39.8431 86.1729 40.1296 84.8223 40.1296C83.4716 40.1296 82.3257 39.8431 81.4048 39.2906ZM86.6231 37.4489C87.1142 37.1624 87.4826 36.7326 87.7077 36.2006C87.9532 35.648 88.076 34.9113 88.076 33.9495C88.076 32.9877 87.9532 32.2101 87.7077 31.678C87.4621 31.1255 87.0937 30.7162 86.6231 30.4298C86.1319 30.1433 85.518 30 84.8018 30C84.0855 30 83.4716 30.1433 83.001 30.4298C82.5303 30.7162 82.1619 31.146 81.9164 31.678C81.6504 32.2306 81.5276 32.9877 81.5276 33.9495C81.5276 34.9113 81.6504 35.6276 81.9164 36.2006C82.1619 36.7326 82.5098 37.1419 83.001 37.4489C83.4921 37.7558 84.0855 37.8991 84.8018 37.8991C85.518 37.8991 86.1319 37.7558 86.6231 37.4489Z" fill="white"/>
<path d="M94.5624 39.6385C93.7644 39.2497 93.1914 38.6767 92.8435 37.899C92.5774 37.3465 92.4547 36.6712 92.4547 35.9345H95.0536C95.0536 36.3847 95.1354 36.7531 95.2991 37.06C95.647 37.8377 96.4042 38.206 97.5911 38.206C98.778 38.206 99.4738 37.899 99.7603 37.2851C99.8421 37.0805 99.883 36.8759 99.883 36.6917C99.883 36.4666 99.8421 36.2619 99.7603 36.0573C99.6375 35.8117 99.4738 35.6276 99.2077 35.4843C98.9622 35.3411 98.6552 35.2183 98.2869 35.116C97.9185 35.0136 97.4274 34.8909 96.7521 34.7681C95.8517 34.5634 95.0945 34.2769 94.4601 33.9291C93.8257 33.5812 93.3755 33.1105 93.1095 32.4966C92.9458 32.1282 92.8639 31.6985 92.8639 31.1869C92.8639 30.6548 92.9663 30.1842 93.1504 29.7954C93.4574 29.1405 93.9894 28.6289 94.7466 28.2606C95.5038 27.8922 96.4042 27.7285 97.4683 27.7285C98.5324 27.7285 99.4533 27.9127 100.21 28.2606C100.947 28.6085 101.5 29.1405 101.827 29.8158C102.032 30.307 102.134 30.8799 102.134 31.5552H99.617C99.617 31.2074 99.5556 30.8799 99.4328 30.573C99.2691 30.2456 99.0236 30 98.6757 29.8363C98.3278 29.6726 97.9185 29.5907 97.4274 29.5907C96.4451 29.5907 95.8312 29.8567 95.5652 30.3888C95.5038 30.5321 95.4629 30.7162 95.4629 30.9413C95.4629 31.146 95.5038 31.3097 95.5652 31.412C95.688 31.678 95.8721 31.8827 96.1586 32.0464C96.4451 32.2101 96.7521 32.3329 97.0795 32.4147C97.4069 32.4966 97.8981 32.6194 98.5324 32.7626C99.5352 33.0286 100.333 33.3151 100.968 33.663C101.602 34.0109 102.073 34.4816 102.359 35.0955C102.523 35.4638 102.605 35.914 102.605 36.4256C102.605 36.9782 102.502 37.5102 102.318 37.9809C101.991 38.6971 101.377 39.2497 100.517 39.6385C99.6579 40.0068 98.6552 40.2115 97.4888 40.2115C96.3223 40.2115 95.3196 40.0273 94.5215 39.6385H94.5624Z" fill="white"/>
<path d="M116.152 39.4543C116.152 40.5798 115.968 41.5211 115.579 42.3192C114.801 44.0996 113.041 45 110.299 45C108.294 45 106.779 44.5498 105.777 43.6494C105.019 42.9331 104.569 41.9918 104.426 40.8049H107.189C107.23 41.0709 107.291 41.337 107.414 41.5825C107.516 41.8281 107.68 42.0532 107.884 42.2169C108.437 42.708 109.255 42.9331 110.299 42.9331C111.793 42.9331 112.755 42.4216 113.185 41.4188C113.369 40.9891 113.471 40.4775 113.471 39.884V38.3902C113.021 38.9427 112.468 39.352 111.813 39.6385C111.159 39.925 110.422 40.0682 109.603 40.0682C108.457 40.0682 107.496 39.8022 106.677 39.2906C105.858 38.779 105.245 38.0628 104.815 37.1214C104.406 36.2005 104.18 35.116 104.18 33.8881C104.18 32.6603 104.385 31.5757 104.815 30.6344C105.224 29.7135 105.838 28.9768 106.657 28.4857C107.475 27.9945 108.457 27.7285 109.603 27.7285C110.442 27.7285 111.179 27.8718 111.854 28.1582C112.509 28.4447 113.082 28.8745 113.532 29.427V28.0355H116.152V39.4543ZM112.612 36.8759C113.185 36.2415 113.471 35.3411 113.471 34.1951V33.6221C113.471 32.4761 113.185 31.5757 112.612 30.9618C112.039 30.3274 111.261 30.0205 110.258 30.0205C109.562 30.0205 108.969 30.1637 108.498 30.4502C108.007 30.7367 107.639 31.146 107.373 31.719C107.127 32.2715 107.004 33.0082 107.004 33.9291C107.004 34.809 107.127 35.5662 107.373 36.1596C107.639 36.7121 108.007 37.1214 108.498 37.4079C108.989 37.6944 109.583 37.8377 110.258 37.8377C111.261 37.8377 112.039 37.5102 112.612 36.8963V36.8759Z" fill="white"/>
<path d="M125.892 28.0354V30.3887C125.545 30.3069 125.135 30.2659 124.685 30.2659C123.662 30.2659 122.884 30.5729 122.373 31.1868C121.861 31.8007 121.595 32.7011 121.595 33.8676V39.843H118.935V28.0558H121.575V29.4269C122.27 28.4037 123.314 27.8921 124.706 27.8921C125.176 27.8921 125.565 27.9331 125.913 28.0354H125.892Z" fill="white"/>
<path d="M138.008 39.8431H135.347V38.513C134.488 39.5975 133.158 40.1296 131.296 40.1296C130.252 40.1296 129.372 39.9659 128.656 39.618C127.94 39.2906 127.428 38.779 127.141 38.1241C126.937 37.6535 126.835 37.1214 126.835 36.528C126.835 35.9345 126.937 35.4229 127.121 34.9932C127.53 34.1132 128.206 33.4993 129.167 33.1719C130.129 32.8445 131.378 32.6808 132.892 32.6808H135.347V32.3738C135.347 32.0668 135.348 31.8213 135.307 31.6166C135.266 31.412 135.204 31.2074 135.122 31.0027C134.775 30.2251 133.956 29.8567 132.667 29.8567C132.012 29.8567 131.48 29.9386 131.05 30.1228C130.641 30.307 130.334 30.573 130.15 30.9618C130.027 31.2483 129.986 31.5143 129.986 31.7599H127.285C127.285 31.0846 127.387 30.5116 127.612 30.0409C128.308 28.5061 129.965 27.7285 132.626 27.7285C133.935 27.7285 134.979 27.9127 135.798 28.3015C136.616 28.6903 137.189 29.2838 137.537 30.1023C137.865 30.8185 138.008 31.7394 138.008 32.9263V39.8431ZM135.347 34.7681V34.6248H133.056C132.176 34.6248 131.439 34.7067 130.866 34.8499C130.293 34.9932 129.904 35.2592 129.74 35.648C129.638 35.8322 129.597 36.0573 129.597 36.3233C129.597 36.5894 129.638 36.8145 129.74 37.0396C129.904 37.367 130.191 37.633 130.579 37.7763C130.989 37.94 131.459 38.0218 131.991 38.0218C132.769 38.0218 133.403 37.8786 133.915 37.6125C134.427 37.3465 134.795 36.9372 135.041 36.4052C135.225 35.9345 135.327 35.4025 135.327 34.7681H135.347Z" fill="white"/>
<path d="M152.066 22.8581V39.8431H149.467V38.4311C149.017 38.9836 148.465 39.4133 147.789 39.6998C147.114 39.9863 146.377 40.1296 145.538 40.1296C144.392 40.1296 143.39 39.8635 142.571 39.3519C141.753 38.8404 141.139 38.1241 140.709 37.1828C140.504 36.7121 140.341 36.2005 140.218 35.648C140.115 35.0955 140.054 34.5225 140.054 33.929C140.054 32.7012 140.279 31.6166 140.709 30.6548C141.118 29.7339 141.753 28.9972 142.571 28.4856C143.39 27.974 144.372 27.708 145.538 27.708C146.357 27.708 147.094 27.8513 147.749 28.1378C148.403 28.4242 148.956 28.8335 149.406 29.3861V22.8376H152.046L152.066 22.8581ZM149.427 33.6425C149.427 32.4761 149.14 31.5757 148.567 30.9413C147.994 30.3069 147.216 30 146.214 30C145.518 30 144.924 30.1432 144.433 30.4297C143.942 30.7162 143.553 31.1255 143.308 31.6985C143.042 32.3124 142.919 33.0695 142.919 33.97C142.919 34.8704 143.042 35.6071 143.308 36.2005C143.574 36.753 143.942 37.1828 144.433 37.4693C144.924 37.7558 145.518 37.899 146.214 37.899C147.216 37.899 147.994 37.5921 148.567 36.9577C149.14 36.3233 149.427 35.4229 149.427 34.2564V33.6425Z" fill="white"/>
<path d="M156.936 39.2906C155.995 38.7381 155.32 37.9605 154.869 36.9577C154.46 36.0982 154.276 35.0955 154.276 33.9495C154.276 32.8036 154.481 31.7804 154.869 30.9209C155.32 29.9182 156.015 29.1405 156.936 28.588C157.857 28.0355 159.003 27.749 160.354 27.749C161.704 27.749 162.85 28.0355 163.792 28.588C164.733 29.1405 165.429 29.9182 165.879 30.9209C166.288 31.8213 166.472 32.824 166.472 33.9495C166.472 35.0751 166.268 36.0573 165.879 36.9782C165.429 37.9809 164.733 38.7381 163.792 39.2906C162.85 39.8431 161.704 40.1296 160.354 40.1296C159.003 40.1296 157.857 39.8431 156.936 39.2906ZM162.175 37.4489C162.666 37.1624 163.034 36.7326 163.26 36.2006C163.505 35.648 163.628 34.9113 163.628 33.9495C163.628 32.9877 163.505 32.2101 163.26 31.678C163.014 31.1255 162.646 30.7162 162.175 30.4298C161.684 30.1433 161.07 30 160.354 30C159.637 30 159.024 30.1433 158.553 30.4298C158.082 30.7162 157.714 31.146 157.468 31.678C157.202 32.2306 157.079 32.9877 157.079 33.9495C157.079 34.9113 157.202 35.6276 157.468 36.2006C157.714 36.7326 158.062 37.1419 158.553 37.4489C159.044 37.7558 159.637 37.8991 160.354 37.8991C161.07 37.8991 161.684 37.7558 162.175 37.4489Z" fill="white"/>
</g>
</svg>
