<svg width="1000" height="100" viewBox="0 0 1000 100" fill="none" xmlns="http://www.w3.org/2000/svg">
<path d="M881.911 60.8427H119.227V99.2265H881.911V60.8427Z" fill="white"/>
<path d="M135.941 68.9323H155.05V73.0899H141.386V77.9742H154.955V82.0366H141.386V87.0043H155.05V91.162H135.941V68.9442V68.9323Z" fill="black"/>
<path d="M161.914 68.9323H167.358V86.6588H176.674V91.162H161.914V68.9442V68.9323Z" fill="black"/>
<path d="M182.379 68.9323H187.823V91.1501H182.379V68.9323Z" fill="black"/>
<path d="M223.418 78.8792V79.2247C223.418 80.416 223.323 81.4644 223.156 82.3578C222.978 83.2513 222.692 84.1448 222.287 85.0502C221.274 87.2779 219.618 88.9696 217.319 90.1132C215.008 91.2688 212.22 91.8406 208.944 91.8406C206.692 91.8406 204.655 91.5785 202.821 91.0544C200.986 90.5302 199.414 89.7558 198.115 88.7432C196.817 87.7306 195.84 86.4917 195.184 85.0502C194.517 83.5372 194.172 81.8694 194.172 80.0467C194.172 78.224 194.529 76.5681 195.244 75.0432C196.257 72.8155 197.948 71.1238 200.331 69.9802C202.714 68.8246 205.608 68.2528 209.004 68.2528C211.315 68.2528 213.423 68.5387 215.329 69.1225C217.236 69.7062 218.832 70.5639 220.118 71.7195C220.893 72.4105 221.572 73.2206 222.144 74.1617C222.716 75.0909 223.085 76.032 223.228 76.9732H217.283C217.009 76.1154 216.521 75.353 215.806 74.7097C215.067 74.0187 214.126 73.5065 212.971 73.1848C211.815 72.8632 210.552 72.6964 209.158 72.6964C207.086 72.6964 205.299 73.0538 203.821 73.7566C202.344 74.4595 201.296 75.4959 200.688 76.854C200.474 77.3425 200.319 77.8309 200.212 78.3431C200.105 78.8554 200.057 79.4272 200.057 80.0586C200.057 81.238 200.271 82.2983 200.688 83.2394C201.296 84.6213 202.332 85.6697 203.81 86.3725C205.275 87.0754 207.026 87.4209 209.063 87.4209C211.1 87.4209 212.72 87.1231 214.174 86.5036C215.627 85.896 216.64 84.9787 217.212 83.7636C217.319 83.5491 217.426 83.2156 217.557 82.751H209.182V78.8792H223.406H223.418Z" fill="black"/>
<path d="M229.746 68.9323H248.855V73.0899H235.19V77.9742H248.759V82.0366H235.19V87.0043H248.855V91.162H229.746V68.9442V68.9323Z" fill="black"/>
<path d="M268.63 89.1965C266.653 87.4334 265.676 84.7887 265.676 81.2624V68.9205H271.12V80.8812C271.12 82.3942 271.346 83.6093 271.811 84.5504C272.276 85.4797 272.978 86.1825 273.932 86.6233C274.885 87.076 276.124 87.3024 277.66 87.3024C279.197 87.3024 280.436 87.076 281.389 86.6233C282.342 86.1706 283.057 85.4797 283.51 84.5504C283.974 83.6212 284.201 82.3942 284.201 80.8812V68.9205H289.645V81.2624C289.645 84.7887 288.656 87.4334 286.69 89.1965C284.713 90.9597 281.711 91.8412 277.66 91.8412C273.61 91.8412 270.596 90.9597 268.63 89.1965Z" fill="black"/>
<path d="M296.766 68.9323H302.901L316.244 85.0506V68.9323H321.652V91.1501H315.326L302.139 75.3534V91.1501H296.754V68.9323H296.766Z" fill="black"/>
<path d="M339.617 68.9323H355.604V73.2448H345.061V78.0338H355.545V82.1914H345.061V91.162H339.617V68.9442V68.9323Z" fill="black"/>
<path d="M364.54 89.1965C362.563 87.4334 361.586 84.7887 361.586 81.2624V68.9205H367.03V80.8812C367.03 82.3942 367.257 83.6093 367.721 84.5504C368.186 85.4797 368.889 86.1825 369.842 86.6233C370.795 87.076 372.034 87.3024 373.57 87.3024C375.107 87.3024 376.346 87.076 377.299 86.6233C378.252 86.1706 378.967 85.4797 379.42 84.5504C379.884 83.6212 380.111 82.3942 380.111 80.8812V68.9205H385.555V81.2624C385.555 84.7887 384.566 87.4334 382.601 89.1965C380.623 90.9597 377.621 91.8412 373.57 91.8412C369.52 91.8412 366.506 90.9597 364.54 89.1965Z" fill="black"/>
<path d="M398.063 73.3043H390.82V68.9323H410.715V73.3043H403.472V91.1501H398.063V73.3043Z" fill="black"/>
<path d="M418.896 89.1965C416.918 87.4334 415.941 84.7887 415.941 81.2624V68.9205H421.386V80.8812C421.386 82.3942 421.612 83.6093 422.077 84.5504C422.541 85.4797 423.244 86.1825 424.197 86.6233C425.15 87.076 426.389 87.3024 427.926 87.3024C429.463 87.3024 430.702 87.076 431.655 86.6233C432.608 86.1706 433.323 85.4797 433.775 84.5504C434.24 83.6212 434.466 82.3942 434.466 80.8812V68.9205H439.91V81.2624C439.91 84.7887 438.922 87.4334 436.956 89.1965C434.978 90.9597 431.976 91.8412 427.926 91.8412C423.875 91.8412 420.861 90.9597 418.896 89.1965Z" fill="black"/>
<path d="M454.822 83.0015H452.487V91.1501H447.043V68.9323H460.112C462.125 68.9323 463.828 69.2658 465.222 69.9329C466.616 70.6001 467.593 71.5769 468.165 72.8635C468.546 73.6975 468.737 74.6982 468.737 75.8537C468.737 77.1403 468.522 78.2482 468.105 79.1894C467.605 80.3211 466.795 81.2146 465.699 81.846C464.603 82.4774 463.233 82.8586 461.589 82.9658L470.464 91.1501H463.376L454.81 83.0015H454.822ZM452.487 79.2847H458.718C459.897 79.2847 460.826 79.1655 461.517 78.9273C462.208 78.689 462.709 78.2482 462.995 77.6168C463.161 77.2595 463.245 76.7472 463.245 76.0801C463.245 75.5082 463.161 75.0675 462.995 74.722C462.721 74.0906 462.22 73.6379 461.505 73.3639C460.779 73.0899 459.849 72.9588 458.718 72.9588H452.487V79.2847Z" fill="black"/>
<path d="M480.07 90.1022C477.747 88.9348 476.103 87.255 475.114 85.0511C474.447 83.5858 474.102 81.918 474.102 80.0476C474.102 78.2845 474.423 76.6643 475.078 75.1633C475.734 73.698 476.687 72.4352 477.961 71.3988C479.236 70.3623 480.773 69.5761 482.572 69.04C484.371 68.5039 486.396 68.2418 488.647 68.2418C490.899 68.2418 492.876 68.5039 494.675 69.0281C496.474 69.5522 497.999 70.3266 499.25 71.3392C500.513 72.3637 501.466 73.5789 502.109 75.0084C502.824 76.6048 503.181 78.2845 503.181 80.0476C503.181 81.9299 502.8 83.6692 502.05 85.2417C501.037 87.3861 499.381 89.0182 497.082 90.1499C494.771 91.2816 491.947 91.8534 488.612 91.8534C485.276 91.8534 482.381 91.2697 480.07 90.1022ZM493.722 86.2543C495.104 85.5515 496.093 84.5388 496.677 83.2165C497.07 82.2039 497.272 81.1436 497.272 80.0357C497.272 78.8444 497.058 77.7603 496.641 76.7954C496.033 75.473 495.045 74.4723 493.663 73.7933C492.293 73.1142 490.601 72.7688 488.612 72.7688C486.622 72.7688 484.966 73.1142 483.596 73.7933C482.226 74.4723 481.226 75.473 480.618 76.7954C480.201 77.7603 479.987 78.8444 479.987 80.0357C479.987 81.1436 480.201 82.2039 480.618 83.2165C481.226 84.5388 482.226 85.5515 483.608 86.2543C484.99 86.9572 486.67 87.3027 488.647 87.3027C490.625 87.3027 492.328 86.9572 493.71 86.2543H493.722Z" fill="black"/>
<path d="M519.906 68.9323H525.351V91.1501H519.906V68.9323Z" fill="black"/>
<path d="M532.914 68.9323H539.049L552.392 85.0506V68.9323H557.801V91.1501H551.475L538.287 75.3534V91.1501H532.902V68.9323H532.914Z" fill="black"/>
<path d="M570.747 73.3043H563.504V68.9323H583.399V73.3043H576.156V91.1501H570.747V73.3043Z" fill="black"/>
<path d="M589.062 68.9323H608.171V73.0899H594.507V77.9742H608.076V82.0366H594.507V87.0043H608.171V91.162H589.062V68.9442V68.9323Z" fill="black"/>
<path d="M622.818 83.0015H620.483V91.1501H615.039V68.9323H628.108C630.121 68.9323 631.825 69.2658 633.218 69.9329C634.612 70.6001 635.589 71.5769 636.161 72.8635C636.542 73.6975 636.733 74.6982 636.733 75.8537C636.733 77.1403 636.518 78.2482 636.101 79.1894C635.601 80.3211 634.791 81.2146 633.695 81.846C632.599 82.4774 631.229 82.8586 629.585 82.9658L638.46 91.1501H631.372L622.806 83.0015H622.818ZM620.483 79.2847H626.714C627.893 79.2847 628.822 79.1655 629.513 78.9273C630.204 78.689 630.705 78.2482 630.991 77.6168C631.157 77.2595 631.241 76.7472 631.241 76.0801C631.241 75.5082 631.157 75.0675 630.991 74.722C630.717 74.0906 630.216 73.6379 629.502 73.3639C628.775 73.0899 627.846 72.9588 626.714 72.9588H620.483V79.2847Z" fill="black"/>
<path d="M643.996 68.9323H650.132L663.474 85.0506V68.9323H668.883V91.1501H662.557L649.369 75.3534V91.1501H643.984V68.9323H643.996Z" fill="black"/>
<path d="M695.151 86.2766H682.083L679.783 91.1609H673.898L684.823 68.9431H692.352L703.312 91.1609H697.45L695.151 86.2766ZM693.162 82.1189L688.635 72.4813H688.575L684.048 82.1189H693.174H693.162Z" fill="black"/>
<path d="M711.714 90.0665C709.367 88.8752 707.699 87.1716 706.746 84.9558C706.091 83.4667 705.77 81.8346 705.77 80.0476C705.77 78.2607 706.091 76.6405 706.746 75.1633C707.402 73.698 708.367 72.4352 709.653 71.3988C710.94 70.3623 712.5 69.5761 714.311 69.04C716.122 68.5039 718.123 68.2418 720.303 68.2418C722.484 68.2418 724.592 68.5396 726.486 69.1353C728.38 69.731 729.977 70.6006 731.252 71.7323C732.181 72.5901 732.896 73.5669 733.408 74.6749C733.92 75.7709 734.206 76.9622 734.277 78.2488H728.547C728.44 77.5578 728.226 76.9145 727.904 76.3308C727.582 75.747 727.165 75.2348 726.665 74.794C725.95 74.1269 725.057 73.6146 723.973 73.281C722.889 72.9475 721.685 72.7807 720.363 72.7807C718.374 72.7807 716.67 73.1262 715.264 73.829C713.859 74.5319 712.858 75.5445 712.274 76.8668C711.833 77.8556 711.607 78.9159 711.607 80.0476C711.607 81.1794 711.821 82.2516 712.238 83.1927C712.822 84.5627 713.823 85.5872 715.24 86.2782C716.658 86.9691 718.35 87.3146 720.327 87.3146C721.697 87.3146 722.936 87.1359 724.068 86.7904C725.2 86.4449 726.141 85.9327 726.868 85.2655C727.356 84.8009 727.749 84.2887 728.047 83.7288C728.345 83.1569 728.523 82.5494 728.571 81.9061H734.301C734.242 83.2284 733.956 84.4316 733.455 85.5157C732.955 86.5998 732.24 87.5409 731.311 88.3629C730.036 89.5185 728.44 90.3882 726.522 90.9719C724.616 91.5556 722.519 91.8534 720.256 91.8534C716.896 91.8534 714.049 91.2578 711.69 90.0784L711.714 90.0665Z" fill="black"/>
<path d="M740.574 68.9323H746.018V91.1501H740.574V68.9323Z" fill="black"/>
<path d="M758.336 90.1022C756.013 88.9348 754.369 87.255 753.38 85.0511C752.713 83.5858 752.367 81.918 752.367 80.0476C752.367 78.2845 752.689 76.6643 753.344 75.1633C753.999 73.698 754.952 72.4352 756.227 71.3988C757.502 70.3623 759.038 69.5761 760.837 69.04C762.636 68.5039 764.661 68.2418 766.913 68.2418C769.165 68.2418 771.142 68.5039 772.941 69.0281C774.74 69.5522 776.265 70.3266 777.516 71.3392C778.778 72.3637 779.731 73.5789 780.375 75.0084C781.089 76.6048 781.447 78.2845 781.447 80.0476C781.447 81.9299 781.066 83.6692 780.315 85.2417C779.303 87.3861 777.647 89.0182 775.347 90.1499C773.036 91.2816 770.213 91.8534 766.877 91.8534C763.542 91.8534 760.647 91.2697 758.336 90.1022ZM771.988 86.2543C773.37 85.5515 774.359 84.5388 774.942 83.2165C775.335 82.2039 775.538 81.1436 775.538 80.0357C775.538 78.8444 775.324 77.7603 774.907 76.7954C774.299 75.473 773.31 74.4723 771.928 73.7933C770.558 73.1142 768.867 72.7688 766.877 72.7688C764.888 72.7688 763.232 73.1142 761.862 73.7933C760.492 74.4723 759.491 75.473 758.884 76.7954C758.467 77.7603 758.252 78.8444 758.252 80.0357C758.252 81.1436 758.467 82.2039 758.884 83.2165C759.491 84.5388 760.492 85.5515 761.874 86.2543C763.256 86.9572 764.935 87.3027 766.913 87.3027C768.891 87.3027 770.594 86.9572 771.976 86.2543H771.988Z" fill="black"/>
<path d="M787.75 68.9323H793.885L807.228 85.0506V68.9323H812.637V91.1501H806.311L793.123 75.3534V91.1501H787.738V68.9323H787.75Z" fill="black"/>
<path d="M838.901 86.2766H825.833L823.533 91.1609H817.648L828.573 68.9431H836.102L847.062 91.1609H841.2L838.901 86.2766ZM836.924 82.1189L832.397 72.4813H832.337L827.81 82.1189H836.936H836.924Z" fill="black"/>
<path d="M852.281 68.9323H857.725V86.6588H867.041V91.162H852.281V68.9442V68.9323Z" fill="black"/>
<path d="M107.701 40.3165H78.5117L73.3791 51.2159H60.2305L84.6336 1.56403H101.444L125.914 51.2159H112.833L107.701 40.3165ZM103.27 31.0322L93.14 9.51239H92.9963L82.8664 31.0322H103.261H103.27Z" fill="black"/>
<path d="M134.144 48.7891C128.893 46.1424 125.189 42.3289 123.033 37.3569C121.579 34.0254 120.852 30.3725 120.852 26.3899C120.852 22.4073 121.579 18.7713 123.033 15.4905C124.488 12.2097 126.652 9.41083 129.536 7.08551C132.419 4.76019 135.886 3.00986 139.945 1.80915C144.003 0.616896 148.468 0.0165405 153.338 0.0165405C158.209 0.0165405 162.91 0.684541 167.155 2.02054C171.4 3.35654 174.951 5.2929 177.809 7.82116C179.872 9.7406 181.479 11.9391 182.629 14.3997C183.779 16.8603 184.421 19.5239 184.565 22.3819H171.763C171.527 20.8345 171.045 19.4055 170.317 18.0948C169.59 16.7842 168.669 15.6342 167.535 14.6449C165.937 13.1483 163.933 12.0236 161.523 11.2711C159.105 10.5185 156.425 10.1465 153.474 10.1465C149.017 10.1465 145.221 10.9329 142.084 12.5056C138.938 14.0784 136.714 16.3361 135.404 19.2956C134.423 21.5025 133.924 23.8701 133.924 26.3983C133.924 28.9266 134.389 31.3196 135.328 33.4335C136.638 36.4776 138.879 38.7775 142.042 40.3249C145.204 41.8723 148.992 42.6502 153.398 42.6502C156.442 42.6502 159.232 42.2612 161.769 41.4918C164.297 40.7223 166.385 39.5808 168.026 38.0841C169.108 37.0525 169.979 35.9026 170.664 34.6342C171.341 33.3658 171.729 32.0045 171.822 30.5586H184.624C184.481 33.5096 183.846 36.1985 182.722 38.6084C181.597 41.0267 179.999 43.1406 177.936 44.9755C175.078 47.5545 171.51 49.4993 167.248 50.81C162.978 52.1206 158.319 52.7802 153.254 52.7802C145.754 52.7802 139.378 51.4526 134.127 48.806L134.144 48.7891Z" fill="black"/>
<path d="M188.078 1.56403H230.762V10.8484H200.237V21.7478H230.551V30.8208H200.237V41.9316H230.762V51.2159H188.078V1.56403Z" fill="black"/>
<path d="M252.915 33.0023H247.715V51.2159H235.547V1.56403H264.736C269.234 1.56403 273.048 2.31658 276.168 3.81324C279.288 5.31836 281.478 7.49148 282.747 10.358C283.592 12.2351 284.015 14.459 284.015 17.038C284.015 19.896 283.55 22.382 282.611 24.4959C281.487 27.0242 279.694 29.0112 277.233 30.4403C274.773 31.8693 271.712 32.7064 268.059 32.9347L287.888 51.2159H272.067L252.94 33.0023H252.915ZM247.715 24.6988H261.641C264.262 24.6988 266.351 24.4283 267.898 23.8871C269.446 23.3459 270.545 22.3735 271.205 20.9699C271.577 20.175 271.771 19.0251 271.771 17.5199C271.771 16.2516 271.585 15.2454 271.205 14.4928C270.596 13.0892 269.48 12.0745 267.865 11.4657C266.25 10.8568 264.169 10.5524 261.641 10.5524H247.715V24.6904V24.6988Z" fill="black"/>
<path d="M298.765 48.7891C293.514 46.1424 289.81 42.3289 287.654 37.3569C286.2 34.0254 285.473 30.3725 285.473 26.3899C285.473 22.4073 286.2 18.7713 287.654 15.4905C289.109 12.2097 291.273 9.41083 294.157 7.08551C297.04 4.76019 300.507 3.00986 304.566 1.80915C308.624 0.616896 313.089 0.0165405 317.959 0.0165405C322.83 0.0165405 327.531 0.684541 331.776 2.02054C336.021 3.35654 339.572 5.2929 342.43 7.82116C344.493 9.7406 346.1 11.9391 347.25 14.3997C348.4 16.8603 349.043 19.5239 349.186 22.3819H336.384C336.148 20.8345 335.666 19.4055 334.938 18.0948C334.211 16.7842 333.29 15.6342 332.157 14.6449C330.558 13.1483 328.554 12.0236 326.145 11.2711C323.726 10.5185 321.046 10.1465 318.095 10.1465C313.639 10.1465 309.842 10.9329 306.705 12.5056C303.559 14.0784 301.336 16.3361 300.025 19.2956C299.044 21.5025 298.545 23.8701 298.545 26.3983C298.545 28.9266 299.01 31.3196 299.949 33.4335C301.259 36.4776 303.5 38.7775 306.663 40.3249C309.825 41.8723 313.613 42.6502 318.019 42.6502C321.063 42.6502 323.853 42.2612 326.39 41.4918C328.918 40.7223 331.007 39.5808 332.647 38.0841C333.729 37.0525 334.6 35.9026 335.285 34.6342C335.962 33.3658 336.351 32.0045 336.444 30.5586H349.246C349.102 33.5096 348.468 36.1985 347.343 38.6084C346.218 41.0267 344.62 43.1406 342.557 44.9755C339.699 47.5545 336.131 49.4993 331.869 50.81C327.599 52.1206 322.94 52.7802 317.875 52.7802C310.375 52.7802 303.999 51.4526 298.748 48.806L298.765 48.7891Z" fill="black"/>
<path d="M391.822 40.3165H362.633L357.5 51.2159H344.352L368.755 1.56403H385.565L410.035 51.2159H396.954L391.822 40.3165ZM387.391 31.0322L377.261 9.51239H377.117L366.987 31.0322H387.383H387.391Z" fill="black"/>
<path d="M411.152 1.56406H425.426L445.542 35.8097L465.793 1.56406H479.999V51.216H468.465V16.5476L448.281 51.216H442.87L422.618 16.5476V51.216H411.152V1.56406Z" fill="black"/>
<path d="M496.986 48.8567C491.803 46.2523 488.116 42.4896 485.909 37.5683C484.404 34.2875 483.66 30.5586 483.66 26.3899C483.66 22.4495 484.387 18.822 485.842 15.4905C487.296 12.2097 489.435 9.41083 492.277 7.08551C495.109 4.76019 498.551 3.00986 502.576 1.80915C506.609 0.616896 511.133 0.0165405 516.147 0.0165405C521.161 0.0165405 525.609 0.599984 529.617 1.77533C533.625 2.95067 537.033 4.66718 539.848 6.94176C542.664 9.21635 544.795 11.9475 546.249 15.1353C547.839 18.6952 548.642 22.4495 548.642 26.3899C548.642 30.6093 547.797 34.4735 546.114 37.9911C543.865 42.7771 540.161 46.4299 535.003 48.9582C529.845 51.4864 523.537 52.7548 516.088 52.7548C508.638 52.7548 502.178 51.4526 496.995 48.8482L496.986 48.8567ZM527.469 40.2826C530.564 38.7099 532.771 36.4522 534.081 33.4927C534.969 31.2435 535.417 28.8759 535.417 26.3899C535.417 23.7179 534.952 21.2996 534.014 19.1434C532.652 16.1923 530.437 13.9515 527.368 12.4295C524.298 10.9075 520.535 10.1465 516.079 10.1465C511.623 10.1465 507.936 10.9075 504.859 12.4295C501.789 13.9515 499.574 16.1923 498.212 19.1434C497.274 21.2996 496.809 23.7179 496.809 26.3899C496.809 28.8759 497.274 31.2435 498.212 33.4927C499.574 36.4437 501.798 38.7099 504.892 40.2826C507.987 41.8554 511.733 42.6418 516.147 42.6418C520.561 42.6418 524.374 41.8554 527.469 40.2826Z" fill="black"/>
<path d="M560.319 50.0578C555.914 48.2567 552.861 45.4748 551.179 41.7205C550.333 39.6573 549.91 37.4588 549.91 35.1081H562.501C562.594 36.3257 562.83 37.4081 563.203 38.3466C564.09 40.2661 565.697 41.6782 568.022 42.566C570.339 43.4539 573.239 43.902 576.706 43.902C579.75 43.902 582.388 43.5638 584.621 42.8789C586.845 42.2024 588.291 41.1539 588.95 39.7503C589.187 39.2345 589.305 38.6003 589.305 37.8477C589.305 37.0952 589.187 36.4864 588.95 36.0213C588.485 34.939 587.521 34.068 586.067 33.3831C584.612 32.7067 582.947 32.1655 581.069 31.7681C579.192 31.3707 576.799 30.9563 573.899 30.5336C573.146 30.3898 571.768 30.1615 569.747 29.8317C564.961 28.9439 561.106 27.7685 558.18 26.3142C555.246 24.8598 553.199 22.8642 552.024 20.336C551.415 18.9323 551.111 17.2666 551.111 15.3387C551.111 13.5545 551.441 11.8718 552.092 10.2737C553.081 8.02447 554.73 6.13884 557.047 4.60836C559.364 3.08633 562.146 1.93636 565.384 1.15843C568.623 0.380507 572.115 0 575.861 0C581.72 0 586.785 0.913216 591.047 2.73965C595.309 4.56608 598.243 7.26345 599.841 10.8233C600.594 12.5567 601.008 14.5776 601.109 16.8691H588.451C588.4 15.7953 588.147 14.7552 587.673 13.7743C586.168 10.3498 582.236 8.64173 575.861 8.64173C573.096 8.64173 570.652 8.97151 568.546 9.62259C566.433 10.2821 565.08 11.2884 564.471 12.6497C564.285 13.0302 564.192 13.4953 564.192 14.0534C564.192 14.6622 564.285 15.178 564.471 15.6008C564.894 16.5394 565.748 17.3257 567.041 17.9599C568.327 18.5941 569.832 19.1099 571.54 19.5073C573.248 19.9047 575.514 20.3444 578.33 20.8095L581.915 21.4437C585.246 22.0525 588.164 22.7459 590.667 23.5153C593.178 24.2932 595.393 25.3333 597.313 26.6439C599.232 27.9546 600.644 29.595 601.532 31.5652C602.234 33.2056 602.589 34.9643 602.589 36.8415C602.589 38.9047 602.192 40.8072 601.397 42.5407C599.85 45.9652 596.882 48.5188 592.501 50.21C588.113 51.9011 582.811 52.7382 576.571 52.7382C570.331 52.7382 564.733 51.8335 560.328 50.0324L560.319 50.0578Z" fill="black"/>
<path d="M9.32753 20.385H0V14.7497H25.6231V20.385H16.2956V43.3675H9.32753V20.385Z" fill="black"/>
<path d="M28.8633 14.7497H53.4679V20.0964H35.8738V26.3767H53.3491V31.6047H35.8738V38.0123H53.4679V43.359H28.8633V14.7497Z" fill="black"/>
<path d="M680.945 1.54883H695.23L715.355 35.8202L735.618 1.54883H749.833V51.2303H738.292V16.5354L718.098 51.2303H712.681L692.417 16.5354V51.2303H680.945V1.54883Z" fill="black"/>
<path d="M761.793 46.8689C757.382 42.9311 755.176 37.0148 755.176 29.1328V1.54883H767.349V28.2921C767.349 31.6674 767.868 34.4043 768.898 36.4902C769.928 38.5761 771.515 40.1247 773.645 41.136C775.781 42.1473 778.556 42.6467 781.981 42.6467C785.407 42.6467 788.182 42.141 790.318 41.136C792.455 40.131 794.035 38.5824 795.065 36.4902C796.095 34.4043 796.614 31.6674 796.614 28.2921V1.54883H808.787V29.1328C808.787 37.0148 806.581 42.9248 802.176 46.8689C797.764 50.8068 791.033 52.7789 781.981 52.7789C772.93 52.7789 766.193 50.8068 761.787 46.8689H761.793Z" fill="black"/>
<path d="M814.145 1.54883H827.867L857.706 37.5774V1.54883H869.81V51.2303H855.665L826.179 15.9034V51.2303H814.145V1.54883Z" fill="black"/>
<path d="M876.141 1.54883H904.008C911.043 1.54883 916.946 2.73714 921.706 5.10112C926.465 7.47142 929.878 10.9984 931.945 15.6948C933.355 18.931 934.056 22.496 934.056 26.3896C934.056 30.2832 933.355 34.0567 931.945 37.1539C929.79 41.8439 926.339 45.3646 921.598 47.7096C916.858 50.0546 910.999 51.2303 904.008 51.2303H876.141V1.54883ZM903.161 41.3067C907.383 41.3067 910.879 40.6303 913.647 39.265C916.415 37.9061 918.406 35.8897 919.626 33.216C920.518 31.1997 920.966 28.9242 920.966 26.3896C920.966 23.8549 920.518 21.5099 919.626 19.4936C917.136 14.1462 911.65 11.4725 903.161 11.4725H888.314V41.3067H903.161Z" fill="black"/>
<path d="M948.305 48.8724C943.122 46.2682 939.425 42.501 937.219 37.5771C935.715 34.2966 934.969 30.5674 934.969 26.3893C934.969 22.4452 935.696 18.8107 937.149 15.4796C938.603 12.1991 940.752 9.39271 943.59 7.07297C946.428 4.75324 949.866 2.98974 953.899 1.7951C957.931 0.600473 962.457 0 967.482 0C972.507 0 976.944 0.587833 980.957 1.75718C984.971 2.93285 988.384 4.65211 991.197 6.92759C994.009 9.20308 996.146 11.9337 997.6 15.1257C999.192 18.6906 999.995 22.4452 999.995 26.383C999.995 30.6053 999.148 34.4736 997.46 37.9943C995.21 42.7792 991.5 46.4389 986.343 48.9735C981.179 51.5082 974.871 52.7723 967.412 52.7723C959.954 52.7723 953.488 51.4703 948.305 48.8661V48.8724ZM978.808 40.2888C981.906 38.7149 984.111 36.452 985.42 33.5002C986.311 31.25 986.76 28.8797 986.76 26.3957C986.76 23.722 986.292 21.3074 985.35 19.1457C983.991 16.1876 981.773 13.95 978.701 12.4267C975.629 10.9034 971.862 10.1386 967.406 10.1386C962.95 10.1386 959.252 10.9034 956.181 12.4267C953.109 13.95 950.89 16.1939 949.531 19.1457C948.59 21.3074 948.122 23.722 948.122 26.3957C948.122 28.8797 948.59 31.25 949.531 33.5002C950.89 36.4584 953.122 38.7212 956.219 40.2888C959.316 41.8626 963.07 42.6464 967.476 42.6464C971.881 42.6464 975.711 41.8626 978.802 40.2888H978.808Z" fill="black"/>
<path d="M616.418 13.5641H641.024V18.9155H623.43V25.1989H640.904V30.4298H623.43V36.8337H641.024V42.185H616.418V13.5641Z" fill="black"/>
<path d="M643.788 13.5641H650.8V36.3898H662.796V42.185H643.781V13.5641H643.788Z" fill="black"/>
</svg>
