<svg width="191" height="40" viewBox="0 0 191 40" fill="none" xmlns="http://www.w3.org/2000/svg">
<g opacity="0.7">
<path d="M47.2632 21.8922H18.2907C18.0059 21.2818 17.8431 20.6104 17.8431 19.9186C17.8431 19.2269 18.0059 18.5351 18.2907 17.9451H47.2632C47.3446 16.826 47.4667 15.7274 47.6701 14.649H16.5613C15.2999 16.0529 14.5471 17.9044 14.5471 19.939C14.5471 21.9735 15.3202 23.825 16.5613 25.2289H47.6701C47.4667 24.1505 47.3446 23.0519 47.2632 21.9329" fill="white"/>
<path d="M52.2075 36.4191H9.0946C5.47304 31.9023 3.29603 26.1648 3.29603 19.9186C3.29603 13.6724 5.47304 7.93487 9.0946 3.41809H52.1871C52.9603 2.25837 53.8148 1.1597 54.7507 0.122059H7.56866C2.86877 5.37129 0 12.3092 0 19.9186C0 27.5279 2.86877 34.4659 7.56866 39.7354H54.771C53.8351 38.6978 52.9806 37.5991 52.2075 36.4394" fill="white"/>
<path d="M48.6674 29.1556H13.6522C11.7397 26.5717 10.6004 23.3774 10.6004 19.9186C10.6004 16.4598 11.7397 13.2451 13.6726 10.6612H48.6878C49.054 9.52184 49.5016 8.42317 49.9899 7.36518H12.0856C9.09476 10.7019 7.28398 15.0966 7.28398 19.9186C7.28398 24.7405 9.09476 29.1353 12.0856 32.472H49.9899C49.5016 31.414 49.054 30.295 48.6878 29.1759" fill="white"/>
<path d="M67.1617 15.4628C66.1037 14.4862 65.5747 12.9806 65.5747 10.9054V0.101704H68.3214V10.6816C68.3214 11.9633 68.6266 12.8992 69.2166 13.53C69.8066 14.1403 70.7629 14.4455 72.0854 14.4455C73.4078 14.4455 74.3234 14.1403 74.9338 13.53C75.5442 12.9196 75.8493 11.9633 75.8493 10.6816V0.101704H78.596V10.9054C78.596 12.9603 78.067 14.4862 77.0294 15.4628C75.9918 16.4394 74.3234 16.9277 72.0854 16.9277C69.8473 16.9277 68.1993 16.4394 67.1413 15.4628H67.1617Z" fill="white"/>
<path d="M91.1088 5.6765C91.882 6.49033 92.2889 7.69074 92.2889 9.25737V16.5208H89.6439V9.78636C89.6439 8.72838 89.4201 7.95524 88.9928 7.46693C88.5656 6.97863 87.8942 6.71414 86.9989 6.71414C86.063 6.71414 85.3306 6.97863 84.8423 7.50763C84.354 8.03662 84.0895 8.83011 84.0895 9.88809V16.5005H81.4242V4.76094H84.0895V6.08342C84.9033 5.00509 86.1241 4.45575 87.7517 4.45575C89.1963 4.45575 90.295 4.86266 91.0885 5.6765H91.1088Z" fill="white"/>
<path d="M97.518 4.76099H94.8526V16.5005H97.518V4.76099Z" fill="white"/>
<path d="M99.0639 4.76099H101.933L105.147 13.5097L108.342 4.76099H111.21L106.633 16.5005H103.662L99.0639 4.76099Z" fill="white"/>
<path d="M120.814 13.2452C120.956 12.9807 121.037 12.6958 121.058 12.4313H123.703C123.601 13.6114 123.133 14.588 122.319 15.3611C121.79 15.8291 121.159 16.175 120.407 16.4191C119.654 16.6633 118.84 16.7853 117.945 16.7853C116.561 16.7853 115.402 16.5208 114.425 15.9715C113.448 15.4222 112.757 14.6694 112.309 13.6724C111.922 12.8179 111.739 11.7803 111.739 10.6002C111.739 9.98982 111.78 9.44048 111.882 8.95218C111.983 8.46388 112.126 7.99593 112.309 7.56866C112.757 6.57172 113.448 5.81892 114.384 5.26958C115.32 4.72024 116.439 4.45575 117.762 4.45575C119.084 4.45575 120.203 4.72024 121.119 5.26958C122.055 5.81892 122.726 6.57172 123.174 7.54832C123.418 8.09766 123.581 8.66734 123.662 9.25737C123.743 9.8474 123.784 10.5595 123.784 11.3733H114.405C114.445 12.0854 114.567 12.6348 114.771 13.0214C115.015 13.5707 115.402 13.9776 115.931 14.2625C116.46 14.5473 117.111 14.6897 117.904 14.6897C118.413 14.6897 118.881 14.6287 119.288 14.5066C119.695 14.3845 120.04 14.2014 120.325 13.9573C120.529 13.7742 120.712 13.53 120.834 13.2655L120.814 13.2452ZM114.771 8.30112C114.608 8.64699 114.506 9.03357 114.466 9.42014H121.058C121.017 9.01322 120.915 8.6063 120.773 8.19939C120.508 7.67039 120.142 7.26348 119.654 6.99898C119.166 6.73448 118.535 6.59206 117.802 6.59206C116.297 6.59206 115.3 7.16175 114.791 8.30112H114.771Z" fill="white"/>
<path d="M132.858 4.7406V7.08038C132.512 6.99899 132.105 6.9583 131.658 6.9583C130.641 6.9583 129.867 7.26349 129.338 7.87387C128.809 8.48424 128.565 9.37946 128.565 10.5392V16.4802H125.9V4.76095H128.545V6.12412C129.237 5.10683 130.274 4.59818 131.658 4.59818C132.126 4.59818 132.512 4.63888 132.858 4.7406Z" fill="white"/>
<path d="M136.073 16.297C135.28 15.9104 134.71 15.3408 134.364 14.5676C134.1 14.0183 133.978 13.3469 133.978 12.5941H136.562C136.562 13.0417 136.643 13.4079 136.806 13.7131C137.152 14.4862 137.925 14.8728 139.085 14.8728C140.244 14.8728 140.977 14.5676 141.241 13.9572C141.323 13.7538 141.363 13.5503 141.363 13.3672C141.363 13.1434 141.323 12.94 141.241 12.7365C141.139 12.4923 140.956 12.3092 140.712 12.1668C140.468 12.0244 140.163 11.9023 139.797 11.8006C139.43 11.6989 138.922 11.5768 138.271 11.4547C137.375 11.2512 136.623 10.9664 135.992 10.6205C135.361 10.2746 134.914 9.80669 134.649 9.19631C134.486 8.83009 134.405 8.40282 134.405 7.89418C134.405 7.36519 134.507 6.89723 134.69 6.51066C134.995 5.85959 135.524 5.35095 136.277 4.98472C137.03 4.61849 137.925 4.43538 138.983 4.43538C140.041 4.43538 140.956 4.61849 141.709 4.96437C142.462 5.31025 142.991 5.83925 143.316 6.53101C143.52 7.01931 143.622 7.58899 143.622 8.2604H141.099C141.099 7.91452 141.038 7.58899 140.916 7.2838C140.753 6.95827 140.509 6.71412 140.163 6.55135C139.817 6.38858 139.41 6.3072 138.922 6.3072C137.945 6.3072 137.335 6.5717 137.07 7.10069C137.009 7.24311 136.969 7.42622 136.969 7.65003C136.969 7.85349 137.009 8.01625 137.07 8.13833C137.172 8.40282 137.375 8.60628 137.66 8.76905C137.945 8.93182 138.25 9.05389 138.576 9.13527C138.901 9.21666 139.39 9.33873 140.02 9.48115C141.017 9.74565 141.831 10.0305 142.462 10.3764C143.093 10.7223 143.561 11.1902 143.845 11.8006C144.008 12.1668 144.09 12.6144 144.09 13.1231C144.09 13.6724 143.988 14.2014 143.805 14.6897C143.479 15.4018 142.869 15.9511 142.014 16.3377C141.16 16.7039 140.163 16.9074 139.003 16.9074C137.843 16.9074 136.826 16.7243 136.053 16.3377L136.073 16.297Z" fill="white"/>
<path d="M148.83 4.76099H146.164V16.5005H148.83V4.76099Z" fill="white"/>
<path d="M162.848 0.101704V16.5005H160.264V15.0966C159.817 15.6459 159.267 16.0732 158.596 16.358C157.924 16.6429 157.192 16.7853 156.358 16.7853C155.198 16.7853 154.221 16.5208 153.408 16.0122C152.594 15.5035 151.983 14.7914 151.556 13.8555C151.353 13.3875 151.19 12.8789 151.068 12.3296C150.966 11.7802 150.905 11.2105 150.905 10.6205C150.905 9.39976 151.129 8.32143 151.556 7.36518C151.963 6.42927 152.594 5.71716 153.408 5.20851C154.221 4.69987 155.198 4.43537 156.358 4.43537C157.172 4.43537 157.904 4.57779 158.555 4.86264C159.206 5.14748 159.756 5.55439 160.203 6.10373V0.101704H162.848ZM160.203 10.3357C160.203 9.17596 159.918 8.28074 159.349 7.65002C158.779 7.0193 158.006 6.71411 157.009 6.71411C156.317 6.71411 155.727 6.85653 155.239 7.14137C154.75 7.42621 154.364 7.83313 154.12 8.40281C153.855 9.01319 153.733 9.76599 153.733 10.6612C153.733 11.5564 153.855 12.2889 154.12 12.8992C154.384 13.4486 154.75 13.8758 155.239 14.1607C155.727 14.4455 156.317 14.588 157.009 14.588C158.006 14.588 158.779 14.2828 159.349 13.6317C159.918 13.001 160.203 12.1058 160.203 10.9257V10.3357Z" fill="white"/>
<path d="M176.114 16.5005H173.449V15.178C172.594 16.2563 171.251 16.7853 169.42 16.7853C168.382 16.7853 167.508 16.6225 166.775 16.2767C166.063 15.9511 165.554 15.4425 165.27 14.7914C165.066 14.3235 164.964 13.7945 164.964 13.2044C164.964 12.6144 165.066 12.1058 165.249 11.6785C165.656 10.8036 166.328 10.1933 167.284 9.86773C168.24 9.54219 169.481 9.37943 171.007 9.37943H173.449V9.07424C173.449 8.76905 173.449 8.5249 173.408 8.32144C173.367 8.11798 173.306 7.91452 173.225 7.71107C172.879 6.93792 172.065 6.55135 170.783 6.55135C170.132 6.55135 169.603 6.63273 169.176 6.81585C168.769 6.99896 168.464 7.26346 168.281 7.65003C168.179 7.93487 168.118 8.19937 168.118 8.44352H165.432C165.432 7.7721 165.534 7.20242 165.758 6.73446C166.45 5.20852 168.098 4.43538 170.743 4.43538C172.045 4.43538 173.082 4.61849 173.896 5.00507C174.71 5.39164 175.28 5.98167 175.626 6.7955C175.951 7.50761 176.114 8.42317 176.114 9.60323V16.5005ZM173.449 11.4547V11.3123H171.17C170.295 11.3123 169.563 11.3937 168.993 11.5361C168.423 11.6785 168.037 11.943 167.874 12.3296C167.772 12.5127 167.731 12.7365 167.731 13.001C167.731 13.2655 167.772 13.4893 167.874 13.7131C168.037 14.0386 168.321 14.3031 168.708 14.4659C169.115 14.6287 169.583 14.71 170.112 14.71C170.885 14.71 171.516 14.5676 172.024 14.3031C172.533 14.0386 172.92 13.6317 173.143 13.1027C173.327 12.6348 173.428 12.1058 173.428 11.475L173.449 11.4547Z" fill="white"/>
<path d="M190.072 0.101704V16.5005H187.488V15.0966C187.04 15.6459 186.491 16.0732 185.819 16.358C185.148 16.6429 184.415 16.7853 183.581 16.7853C182.422 16.7853 181.445 16.5208 180.631 16.0122C179.817 15.5035 179.207 14.7914 178.78 13.8555C178.576 13.3875 178.413 12.8789 178.291 12.3296C178.19 11.7802 178.129 11.2105 178.129 10.6205C178.129 9.39976 178.352 8.32143 178.78 7.36518C179.187 6.42927 179.817 5.71716 180.631 5.20851C181.445 4.69987 182.422 4.43537 183.581 4.43537C184.395 4.43537 185.128 4.57779 185.779 4.86264C186.43 5.14748 186.979 5.55439 187.427 6.10373V0.101704H190.072ZM187.427 10.3357C187.427 9.17596 187.142 8.28074 186.572 7.65002C186.002 7.0193 185.229 6.71411 184.232 6.71411C183.541 6.71411 182.951 6.85653 182.462 7.14137C181.974 7.42621 181.587 7.83313 181.343 8.40281C181.079 9.01319 180.957 9.76599 180.957 10.6612C180.957 11.5564 181.079 12.2889 181.343 12.8992C181.608 13.4486 181.974 13.8758 182.462 14.1607C182.951 14.4455 183.541 14.588 184.232 14.588C185.229 14.588 186.002 14.2828 186.572 13.6317C187.142 13.001 187.427 12.1058 187.427 10.9257V10.3357Z" fill="white"/>
<path d="M68.8506 38.9013C67.6298 38.1689 66.7142 37.1109 66.1242 35.7681C65.5545 34.5066 65.2697 32.9603 65.2697 31.1496C65.2697 29.3388 65.5545 27.8128 66.1242 26.5107C66.7346 25.1679 67.6502 24.1302 68.8709 23.3978C70.0917 22.6653 71.5973 22.2991 73.3673 22.2991C74.466 22.2991 75.4833 22.4619 76.4192 22.7874C77.3551 23.1129 78.1486 23.5809 78.82 24.1913C79.4508 24.7406 79.9391 25.4324 80.2849 26.2259C80.6308 27.0193 80.8343 27.8942 80.8546 28.8301H77.9655C77.9045 27.6094 77.4772 26.6328 76.7041 25.9003C75.8495 25.1272 74.7102 24.7406 73.3063 24.7406C72.228 24.7406 71.2921 24.9644 70.5596 25.4324C69.8068 25.88 69.2371 26.531 68.8506 27.3652C68.6471 27.8535 68.4843 28.4232 68.3826 29.0336C68.2809 29.644 68.2198 30.3561 68.2198 31.1496C68.2198 31.943 68.2605 32.6755 68.3623 33.2859C68.464 33.8962 68.6268 34.4456 68.8506 34.9339C69.2371 35.7884 69.8068 36.4191 70.5596 36.8667C71.3124 37.3144 72.228 37.5382 73.3063 37.5382C74.0184 37.5382 74.6898 37.4364 75.2799 37.233C75.8699 37.0295 76.3785 36.7447 76.7855 36.3784C77.5586 35.6663 77.9858 34.6897 78.0265 33.4079H80.936C80.936 34.3642 80.7325 35.2391 80.407 36.0529C80.0611 36.8464 79.5728 37.5382 78.9625 38.1078C78.291 38.7386 77.4772 39.2065 76.5413 39.5117C75.6054 39.8372 74.5677 40 73.4487 40C71.6583 40 70.1527 39.6338 68.9116 38.9013H68.8506Z" fill="white"/>
<path d="M85.453 39.0437C84.5171 38.4943 83.8457 37.7008 83.3981 36.7242C82.9912 35.8697 82.8081 34.8728 82.8081 33.7334C82.8081 32.594 83.0115 31.5767 83.3981 30.7222C83.8457 29.7253 84.5375 28.9521 85.453 28.4028C86.3889 27.8535 87.5079 27.5686 88.8508 27.5686C90.1936 27.5686 91.333 27.8535 92.2689 28.4028C93.2048 28.9521 93.8966 29.7456 94.3442 30.7222C94.7511 31.6174 94.9342 32.6144 94.9342 33.7334C94.9342 34.8524 94.7307 35.829 94.3442 36.7446C93.8966 37.7415 93.2048 38.5147 92.2689 39.064C91.333 39.6134 90.1936 39.8982 88.8508 39.8982C87.5079 39.8982 86.3686 39.6134 85.453 39.064V39.0437ZM90.6616 37.1922C91.1499 36.887 91.5161 36.4801 91.7602 35.9511C92.0044 35.4018 92.1265 34.649 92.1265 33.6927C92.1265 32.7365 92.0044 31.9633 91.7602 31.4343C91.5161 30.885 91.1499 30.4781 90.6616 30.1932C90.1733 29.9084 89.5629 29.766 88.8508 29.766C88.1387 29.766 87.5283 29.9084 87.0603 30.1932C86.5721 30.4781 86.2262 30.9053 85.982 31.4343C85.7175 31.9837 85.5954 32.7365 85.5954 33.6927C85.5954 34.649 85.7175 35.3611 85.982 35.9511C86.2262 36.4801 86.5721 36.887 87.0603 37.1922C87.5487 37.4974 88.1387 37.6398 88.8508 37.6398C89.5629 37.6398 90.1733 37.4974 90.6616 37.1922Z" fill="white"/>
<path d="M106.694 28.7488C107.467 29.5626 107.874 30.763 107.874 32.3296V39.5931H105.229V32.8586C105.229 31.8006 105.005 31.0275 104.578 30.5392C104.151 30.0509 103.479 29.7864 102.584 29.7864C101.648 29.7864 100.916 30.0509 100.428 30.5799C99.9392 31.1089 99.6747 31.9024 99.6747 32.9604V39.5728H97.0094V27.8332H99.6747V29.1557C100.489 28.0773 101.709 27.528 103.337 27.528C104.782 27.528 105.88 27.9349 106.674 28.7488H106.694Z" fill="white"/>
<path d="M112.208 38.8809C111.618 38.2909 111.333 37.3143 111.333 35.9714V30.0304H109.502V27.8534H111.333V23.0925H113.978V27.8534H117.315V30.0304H113.978V35.5035C113.978 36.2156 114.121 36.7242 114.426 37.0498C114.731 37.3753 115.179 37.5381 115.809 37.5381C116.318 37.5381 116.786 37.477 117.213 37.3549V39.5523C116.46 39.7151 115.728 39.7964 115.016 39.7964C113.734 39.7964 112.798 39.4913 112.228 38.9012L112.208 38.8809Z" fill="white"/>
<path d="M122.401 27.8535H119.736V39.593H122.401V27.8535Z" fill="white"/>
<path d="M134.852 28.7488C135.626 29.5626 136.032 30.763 136.032 32.3296V39.5931H133.387V32.8586C133.387 31.8006 133.164 31.0275 132.736 30.5392C132.309 30.0509 131.638 29.7864 130.743 29.7864C129.807 29.7864 129.074 30.0509 128.586 30.5799C128.098 31.1089 127.833 31.9024 127.833 32.9604V39.5728H125.168V27.8332H127.833V29.1557C128.647 28.0773 129.868 27.528 131.495 27.528C132.94 27.528 134.039 27.9349 134.832 28.7488H134.852Z" fill="white"/>
<path d="M147.243 36.3377C147.386 36.0732 147.467 35.7883 147.487 35.5238H150.132C150.031 36.7039 149.563 37.6805 148.749 38.4536C148.22 38.9216 147.589 39.2675 146.836 39.5116C146.084 39.7558 145.27 39.8778 144.375 39.8778C142.991 39.8778 141.831 39.6133 140.855 39.064C139.878 38.5147 139.186 37.7619 138.739 36.7649C138.352 35.9104 138.169 34.8728 138.169 33.6927C138.169 33.0823 138.21 32.533 138.311 32.0447C138.413 31.5564 138.556 31.0884 138.739 30.6612C139.186 29.6642 139.878 28.9114 140.814 28.3621C141.75 27.8127 142.869 27.5482 144.191 27.5482C145.514 27.5482 146.633 27.8127 147.548 28.3621C148.484 28.9114 149.156 29.6642 149.603 30.6408C149.848 31.1902 150.01 31.7598 150.092 32.3499C150.173 32.9399 150.214 33.652 150.214 34.4658H140.834C140.875 35.1779 140.997 35.7273 141.201 36.1139C141.445 36.6632 141.831 37.0701 142.36 37.3549C142.889 37.6398 143.54 37.7822 144.334 37.7822C144.842 37.7822 145.31 37.7212 145.717 37.5991C146.124 37.477 146.47 37.2939 146.755 37.0498C146.958 36.8666 147.142 36.6225 147.264 36.358L147.243 36.3377ZM141.201 31.3733C141.038 31.7191 140.936 32.1057 140.895 32.4923H147.487C147.447 32.0854 147.345 31.6785 147.203 31.2715C146.938 30.7425 146.572 30.3356 146.084 30.0711C145.595 29.8066 144.965 29.6642 144.232 29.6642C142.727 29.6642 141.73 30.2339 141.221 31.3733H141.201Z" fill="white"/>
<path d="M162.116 28.7488C162.889 29.5626 163.296 30.763 163.296 32.3296V39.5931H160.651V32.8586C160.651 31.8006 160.427 31.0275 160 30.5392C159.572 30.0509 158.901 29.7864 158.006 29.7864C157.07 29.7864 156.337 30.0509 155.849 30.5799C155.361 31.1089 155.096 31.9024 155.096 32.9604V39.5728H152.431V27.8332H155.096V29.1557C155.91 28.0773 157.131 27.528 158.759 27.528C160.203 27.528 161.302 27.9349 162.095 28.7488H162.116Z" fill="white"/>
<path d="M167.63 38.8809C167.04 38.2909 166.755 37.3143 166.755 35.9714V30.0304H164.924V27.8534H166.755V23.0925H169.4V27.8534H172.736V30.0304H169.4V35.5035C169.4 36.2156 169.542 36.7242 169.847 37.0498C170.153 37.3753 170.6 37.5381 171.231 37.5381C171.74 37.5381 172.207 37.477 172.635 37.3549V39.5523C171.882 39.7151 171.149 39.7964 170.437 39.7964C169.156 39.7964 168.22 39.4913 167.65 38.9012L167.63 38.8809Z" fill="white"/>
<path d="M185.371 39.5931H182.706V38.2706C181.851 39.3489 180.508 39.8779 178.677 39.8779C177.639 39.8779 176.765 39.7152 176.032 39.3693C175.32 39.0438 174.811 38.5351 174.527 37.884C174.323 37.4161 174.221 36.8871 174.221 36.2971C174.221 35.707 174.323 35.1984 174.506 34.7711C174.913 33.8963 175.585 33.2859 176.541 32.9604C177.497 32.6348 178.738 32.472 180.264 32.472H182.706V32.1669C182.706 31.8617 182.706 31.6175 182.665 31.4141C182.624 31.2106 182.563 31.0071 182.482 30.8037C182.136 30.0305 181.322 29.644 180.04 29.644C179.389 29.644 178.86 29.7254 178.433 29.9085C178.026 30.0916 177.721 30.3561 177.538 30.7426C177.436 31.0275 177.375 31.292 177.375 31.5361H174.689C174.689 30.8647 174.791 30.295 175.015 29.8271C175.707 28.3011 177.355 27.528 180 27.528C181.302 27.528 182.339 27.7111 183.153 28.0977C183.967 28.4843 184.537 29.0743 184.883 29.8881C185.208 30.6002 185.371 31.5158 185.371 32.6959V39.5931ZM182.726 34.527V34.3846H180.447C179.572 34.3846 178.84 34.4659 178.27 34.6084C177.701 34.7508 177.314 35.0153 177.151 35.4018C177.049 35.585 177.009 35.8088 177.009 36.0733C177.009 36.3378 177.049 36.5616 177.151 36.7854C177.314 37.1109 177.599 37.3754 177.985 37.5382C178.392 37.7009 178.86 37.7823 179.389 37.7823C180.162 37.7823 180.793 37.6399 181.302 37.3754C181.81 37.1109 182.197 36.704 182.421 36.175C182.604 35.707 182.706 35.178 182.706 34.5473L182.726 34.527Z" fill="white"/>
<path d="M187.446 23.0723H190.111V39.5931H187.446V23.0723Z" fill="white"/>
<path d="M96.1749 3.13326C97.0401 3.13326 97.7415 2.43186 97.7415 1.56663C97.7415 0.701405 97.0401 0 96.1749 0C95.3097 0 94.6083 0.701405 94.6083 1.56663C94.6083 2.43186 95.3097 3.13326 96.1749 3.13326Z" fill="white"/>
<path d="M121.058 26.1037C121.923 26.1037 122.624 25.4023 122.624 24.5371C122.624 23.6718 121.923 22.9704 121.058 22.9704C120.193 22.9704 119.491 23.6718 119.491 24.5371C119.491 25.4023 120.193 26.1037 121.058 26.1037Z" fill="white"/>
<path d="M147.507 3.13326C148.373 3.13326 149.074 2.43186 149.074 1.56663C149.074 0.701405 148.373 0 147.507 0C146.642 0 145.941 0.701405 145.941 1.56663C145.941 2.43186 146.642 3.13326 147.507 3.13326Z" fill="white"/>
</g>
</svg>
