<svg width="90" height="90" viewBox="0 0 90 90" fill="none" xmlns="http://www.w3.org/2000/svg">
<path d="M58.7687 71.0613C58.7687 72.5781 58.2089 73.955 57.2654 75.0023H30.7843C29.8544 73.9595 29.281 72.5781 29.281 71.0748C29.281 69.5716 29.8544 68.1811 30.7843 67.1338H40.0929V63.8654C40.9009 64.0009 41.7225 64.0912 42.5532 64.1273V69.5941H32.0754C31.8632 70.041 31.7413 70.5376 31.7413 71.0748C31.7413 71.612 31.8677 72.1041 32.0754 72.542H55.9878C56.2 72.0951 56.3219 71.5985 56.3219 71.0613C56.3219 70.5241 56.1955 70.041 55.9878 69.5941H45.501V64.1273C46.3317 64.0912 47.1533 64.0009 47.9613 63.8654V67.1338H57.2699C58.2134 68.1766 58.7732 69.558 58.7732 71.0613H58.7687Z" fill="#121212"/>
<path d="M44.0294 18.4693C32.897 18.4693 23.8729 27.4889 23.8729 38.6123C23.8729 42.7519 25.1143 46.6026 27.2676 49.8078L28.5858 48.5032L29.0598 48.0292C27.3308 45.307 26.3377 42.0748 26.3377 38.6077C26.3332 28.8478 34.2649 20.9161 44.0294 20.9161C47.4964 20.9161 50.7286 21.9092 53.4508 23.6382L55.2294 21.8596C52.0242 19.7198 48.169 18.4648 44.0339 18.4648L44.0294 18.4693Z" fill="#121212"/>
<path d="M64.6732 23.5253L67.6436 20.5548C67.5669 19.1644 66.9981 17.783 65.9282 16.7131C64.8583 15.6432 63.4814 15.0744 62.0865 14.9977L53.446 23.6381C54.1548 24.0715 54.8139 24.559 55.4459 25.1053C56.2043 25.7373 56.8995 26.437 57.5315 27.1909C58.0777 27.8229 58.5608 28.482 58.9987 29.1907C60.7277 31.9129 61.7208 35.1451 61.7208 38.6122C61.7208 48.3947 53.7936 56.3083 44.0246 56.3083C40.5576 56.3083 37.3254 55.3152 34.6032 53.5862C33.8945 53.1528 33.2354 52.6653 32.6034 52.119C31.845 51.487 31.1498 50.7873 30.5177 50.0334C29.9715 49.4014 29.4885 48.7423 29.0506 48.0336L28.5766 48.5076L27.2584 49.8122L20.4102 56.6605C20.4869 58.0644 21.0557 59.4458 22.1256 60.5112C23.1955 61.5811 24.5724 62.1499 25.9673 62.2266L28.9377 59.2562C32.1565 61.6172 35.9575 63.2333 40.0836 63.8653C40.8917 64.0008 41.7133 64.091 42.5439 64.1272C43.0405 64.1633 43.5235 64.1768 44.0246 64.1768C44.5257 64.1768 45.0042 64.1633 45.4918 64.1272C46.3224 64.091 47.144 64.0008 47.9521 63.8653C60.204 61.9874 69.5893 51.3877 69.5893 38.6122C69.5893 32.9692 67.761 27.7507 64.6687 23.5253H64.6732ZM57.1929 23.3627L62.9126 17.6431C63.3866 17.8056 63.82 18.0765 64.1947 18.4511C64.5694 18.8258 64.8402 19.2592 65.0027 19.7332L59.2876 25.4484C58.6556 24.7035 57.9468 23.9947 57.202 23.3627H57.1929ZM28.7707 55.9607L25.1547 59.5767C24.6807 59.4007 24.2473 59.1433 23.8726 58.7686C23.498 58.394 23.2271 57.9606 23.0646 57.4866L28.7662 51.785C29.4117 52.5298 30.1069 53.2251 30.8518 53.8706L28.7662 55.9562L28.7707 55.9607ZM47.9566 61.3915C47.1485 61.5269 46.3269 61.6262 45.4963 61.6759C45.0133 61.712 44.5257 61.7255 44.0291 61.7255C43.5326 61.7255 43.036 61.712 42.5484 61.6759C41.7178 61.6262 40.8962 61.5269 40.0881 61.3915C36.6347 60.7956 33.4521 59.4413 30.7073 57.4911L32.8336 55.3784C35.1585 56.9449 37.831 58.0238 40.7021 58.4978C41.781 58.6738 42.8915 58.7732 44.0337 58.7732C45.1758 58.7732 46.2728 58.6874 47.3382 58.4978C56.895 56.9178 64.1902 48.6159 64.1902 38.6122C64.1902 34.4725 62.9352 30.6218 60.7863 27.4166L62.9126 25.2904C65.5715 29.0553 67.138 33.6554 67.138 38.6122C67.138 50.0334 58.8497 59.5271 47.9611 61.3915H47.9566Z" fill="#121212"/>
<path d="M57.739 33.159C57.4275 32.3871 57.0574 31.6422 56.633 30.947C56.1093 30.1028 55.5135 29.3173 54.8453 28.5996C54.272 27.9676 53.64 27.3942 52.9583 26.8706C50.4709 24.9836 47.3786 23.864 44.0335 23.864C40.6884 23.864 37.5961 24.9836 35.1087 26.8706C34.427 27.3942 33.7905 27.963 33.2217 28.5996C32.54 29.3219 31.9396 30.1164 31.434 30.9606C31.0006 31.6558 30.6395 32.3916 30.328 33.159C29.6554 34.8474 29.2852 36.6892 29.2852 38.6169C29.2852 40.5445 29.6599 42.3954 30.3415 44.0837C30.6395 44.8557 31.0142 45.6005 31.4475 46.2957C31.9712 47.1399 32.5671 47.9344 33.2352 48.6567C33.8176 49.2797 34.4676 49.8621 35.1493 50.3722C37.6232 52.2501 40.7064 53.3562 44.0335 53.3562C47.3606 53.3562 50.4439 52.2501 52.9177 50.3722C53.5994 49.8621 54.2494 49.2797 54.8318 48.6567C55.5044 47.9344 56.1003 47.1399 56.6195 46.2957C57.0528 45.6005 57.4275 44.8557 57.7255 44.0837C58.4071 42.3954 58.7818 40.54 58.7818 38.6169C58.7818 36.6938 58.4071 34.8519 57.739 33.159ZM54.4977 45.0633C53.965 45.9211 53.3285 46.7156 52.5972 47.4243C51.9246 48.0699 51.1932 48.6567 50.3852 49.1533H50.3716C48.5208 50.2593 46.3448 50.9049 44.0335 50.9049C41.7222 50.9049 39.5463 50.2593 37.6954 49.1533H37.6818C36.8738 48.6567 36.1425 48.0744 35.4698 47.4243C34.7385 46.7156 34.102 45.9211 33.5693 45.0633C33.1449 44.3681 32.7883 43.6323 32.4994 42.8649V42.8513C32.0164 41.5196 31.741 40.1066 31.741 38.6123C31.741 37.1181 32.0028 35.7051 32.4858 34.3869C32.7702 33.615 33.1314 32.8837 33.5557 32.1885C34.0884 31.3172 34.725 30.5227 35.4563 29.8275C36.1289 29.1684 36.8602 28.595 37.6548 28.0985C39.5192 26.9654 41.6951 26.3198 44.029 26.3198C46.3629 26.3198 48.5388 26.9654 50.4032 28.0985C51.1978 28.595 51.9336 29.1684 52.6017 29.8275C53.333 30.5227 53.9696 31.3172 54.5022 32.1885C54.9266 32.8837 55.2832 33.6195 55.5721 34.3869C56.0552 35.7051 56.317 37.1316 56.317 38.6123C56.317 40.093 56.0416 41.5196 55.5586 42.8513V42.8649C55.2742 43.6368 54.9131 44.3681 54.4887 45.0633H54.4977Z" fill="#121212"/>
<path d="M41.6232 29.0328L42.4719 29.5655L43.7224 30.3194L46.6657 31.1817L47.2481 33.4795V36.4815L44.711 38.5084L41.3749 45.0587L40.5172 45.2664L39.3119 36.8833L37.3888 36.0436L35.5018 32.9152L36.7387 29.9673L39.2487 29.0374H41.6277M42.3365 26.5771H38.8063L34.8788 28.0307L34.468 29.0148L32.748 33.1138L35.2806 37.3121L35.6824 37.9803L36.3956 38.2917L37.0637 38.5852L38.4587 48.291L43.0498 47.1805L43.5644 46.1738L46.6612 40.0975L48.783 38.4046L49.7084 37.6643V33.1725L49.6316 32.8745L48.7062 29.2179L44.7246 28.0442L43.745 27.4573L42.9369 26.9472L42.3365 26.5725V26.5771Z" fill="#121212"/>
</svg>
