<svg width="168" height="219" viewBox="0 0 168 219" fill="none" xmlns="http://www.w3.org/2000/svg">
<path d="M0 16C0 7.16344 7.16344 0 16 0H152C160.837 0 168 7.16344 168 16V70H0V16Z" fill="#8750FF"/>
<path d="M27.7791 30.3C26.5791 30.3 25.5591 30.0467 24.7191 29.54C23.8924 29.02 23.2591 28.2733 22.8191 27.3C22.5924 26.7933 22.4257 26.2133 22.3191 25.56C22.2257 24.9067 22.1791 24.0333 22.1791 22.94C22.1791 21.86 22.2257 20.9933 22.3191 20.34C22.4257 19.6733 22.5991 19.08 22.8391 18.56C23.2657 17.6 23.8857 16.8667 24.6991 16.36C25.5257 15.84 26.5457 15.58 27.7591 15.58C28.4924 15.58 29.1591 15.6933 29.7591 15.92C30.3724 16.1333 30.9057 16.4467 31.3591 16.86C31.8524 17.3133 32.2191 17.86 32.4591 18.5C32.7124 19.14 32.8524 19.9 32.8791 20.78H30.0791C30.0657 20.22 29.9991 19.7733 29.8791 19.44C29.7724 19.0933 29.5991 18.8067 29.3591 18.58C29.1191 18.3933 28.8657 18.2533 28.5991 18.16C28.3324 18.0533 28.0124 18 27.6391 18C26.5591 18 25.8057 18.4733 25.3791 19.42C25.2324 19.7533 25.1257 20.1667 25.0591 20.66C25.0057 21.14 24.9791 21.9 24.9791 22.94C24.9791 23.9667 25.0057 24.7333 25.0591 25.24C25.1257 25.7333 25.2324 26.1467 25.3791 26.48C25.8057 27.4133 26.5657 27.88 27.6591 27.88C28.3657 27.88 28.9457 27.6867 29.3991 27.3C29.6257 27.0867 29.7991 26.8133 29.9191 26.48C30.0391 26.1333 30.1057 25.68 30.1191 25.12H32.9191C32.9191 26.8 32.4257 28.0933 31.4391 29C30.9857 29.4267 30.4457 29.7533 29.8191 29.98C29.1924 30.1933 28.5124 30.3 27.7791 30.3ZM41.1606 27.18H36.5606L35.8606 30H33.1406L36.8206 15.88H40.9006L44.5806 30H41.8606L41.1606 27.18ZM40.6406 25.04L38.8806 17.9H38.8406L37.0806 25.04H40.6406ZM49.1245 23.86H48.2245V30H45.5645V15.88H50.3845C51.3579 15.88 52.1445 16.0333 52.7445 16.34C53.3579 16.6333 53.8045 17.08 54.0845 17.68C54.2045 17.9467 54.2912 18.2467 54.3445 18.58C54.3979 18.9133 54.4245 19.3267 54.4245 19.82C54.4245 20.3267 54.3979 20.7467 54.3445 21.08C54.2912 21.4133 54.2045 21.7133 54.0845 21.98C53.6579 22.94 52.9112 23.5267 51.8445 23.74L55.2245 30H52.3445L49.1245 23.86ZM48.2245 21.84H49.6245C50.6379 21.84 51.2645 21.5733 51.5045 21.04C51.5712 20.9067 51.6179 20.76 51.6445 20.6C51.6712 20.4267 51.6845 20.1867 51.6845 19.88C51.6845 19.5867 51.6712 19.3667 51.6445 19.22C51.6312 19.06 51.5912 18.92 51.5245 18.8C51.3912 18.52 51.1645 18.32 50.8445 18.2C50.5379 18.08 50.1312 18.02 49.6245 18.02H48.2245V21.84ZM59.6323 23.86H58.7323V30H56.0723V15.88H60.8923C61.8657 15.88 62.6523 16.0333 63.2523 16.34C63.8657 16.6333 64.3123 17.08 64.5923 17.68C64.7123 17.9467 64.799 18.2467 64.8523 18.58C64.9057 18.9133 64.9323 19.3267 64.9323 19.82C64.9323 20.3267 64.9057 20.7467 64.8523 21.08C64.799 21.4133 64.7123 21.7133 64.5923 21.98C64.1657 22.94 63.419 23.5267 62.3523 23.74L65.7323 30H62.8523L59.6323 23.86ZM58.7323 21.84H60.1323C61.1457 21.84 61.7723 21.5733 62.0123 21.04C62.079 20.9067 62.1257 20.76 62.1523 20.6C62.179 20.4267 62.1923 20.1867 62.1923 19.88C62.1923 19.5867 62.179 19.3667 62.1523 19.22C62.139 19.06 62.099 18.92 62.0323 18.8C61.899 18.52 61.6723 18.32 61.3523 18.2C61.0457 18.08 60.639 18.02 60.1323 18.02H58.7323V21.84ZM66.5802 15.88H73.9002V18.2H69.2402V21.58H73.8402V23.86H69.2402V27.68H73.9002V30H66.5802V15.88ZM78.9488 23.86H78.0488V30H75.3888V15.88H80.2088C81.1821 15.88 81.9688 16.0333 82.5688 16.34C83.1821 16.6333 83.6288 17.08 83.9088 17.68C84.0288 17.9467 84.1154 18.2467 84.1688 18.58C84.2221 18.9133 84.2488 19.3267 84.2488 19.82C84.2488 20.3267 84.2221 20.7467 84.1688 21.08C84.1154 21.4133 84.0288 21.7133 83.9088 21.98C83.4821 22.94 82.7354 23.5267 81.6688 23.74L85.0488 30H82.1688L78.9488 23.86ZM78.0488 21.84H79.4488C80.4621 21.84 81.0888 21.5733 81.3288 21.04C81.3954 20.9067 81.4421 20.76 81.4688 20.6C81.4954 20.4267 81.5088 20.1867 81.5088 19.88C81.5088 19.5867 81.4954 19.3667 81.4688 19.22C81.4554 19.06 81.4154 18.92 81.3488 18.8C81.2154 18.52 80.9888 18.32 80.6688 18.2C80.3621 18.08 79.9554 18.02 79.4488 18.02H78.0488V21.84ZM93.4067 27.18H88.8067L88.1067 30H85.3867L89.0667 15.88H93.1467L96.8267 30H94.1067L93.4067 27.18ZM92.8867 25.04L91.1267 17.9H91.0867L89.3267 25.04H92.8867ZM101.797 30.3C100.663 30.3 99.7301 30.1 98.9967 29.7C98.2767 29.3 97.7567 28.7533 97.4367 28.06C97.2901 27.7533 97.1901 27.4267 97.1367 27.08C97.0834 26.72 97.0567 26.2333 97.0567 25.62H99.9767C99.9767 26.06 99.9901 26.3933 100.017 26.62C100.043 26.8333 100.097 27.0267 100.177 27.2C100.443 27.8267 101.017 28.14 101.897 28.14C102.323 28.14 102.683 28.0667 102.977 27.92C103.27 27.76 103.477 27.5467 103.597 27.28C103.663 27.1467 103.703 27.0133 103.717 26.88C103.743 26.7333 103.757 26.54 103.757 26.3C103.757 26.06 103.743 25.8667 103.717 25.72C103.69 25.56 103.643 25.42 103.577 25.3C103.47 25.0467 103.297 24.8333 103.057 24.66C102.817 24.4867 102.543 24.34 102.237 24.22C101.943 24.1 101.543 23.96 101.037 23.8L100.557 23.64C99.8101 23.36 99.1901 23.0533 98.6967 22.72C98.2034 22.3867 97.8434 21.9667 97.6167 21.46C97.5101 21.2067 97.4301 20.94 97.3767 20.66C97.3367 20.3667 97.3167 20.0133 97.3167 19.6C97.3167 19.1867 97.3434 18.84 97.3967 18.56C97.4501 18.28 97.5367 18 97.6567 17.72C97.9634 17.0533 98.4701 16.5333 99.1767 16.16C99.8834 15.7733 100.743 15.58 101.757 15.58C102.743 15.58 103.577 15.76 104.257 16.12C104.937 16.48 105.43 17.0067 105.737 17.7C105.87 18.0067 105.963 18.3333 106.017 18.68C106.07 19.0133 106.097 19.4733 106.097 20.06H103.357C103.357 19.6333 103.343 19.3133 103.317 19.1C103.29 18.8867 103.243 18.6933 103.177 18.52C102.91 17.96 102.403 17.68 101.657 17.68C101.27 17.68 100.943 17.7533 100.677 17.9C100.41 18.0467 100.223 18.2467 100.117 18.5C100.077 18.6067 100.05 18.7267 100.037 18.86C100.023 18.98 100.017 19.14 100.017 19.34C100.017 19.5267 100.023 19.6933 100.037 19.84C100.05 19.9867 100.083 20.12 100.137 20.24C100.23 20.44 100.377 20.62 100.577 20.78C100.79 20.9267 101.023 21.0533 101.277 21.16C101.543 21.2533 101.923 21.38 102.417 21.54L103.037 21.74C103.917 22.0333 104.617 22.3467 105.137 22.68C105.67 23.0133 106.063 23.4533 106.317 24C106.437 24.2533 106.517 24.5333 106.557 24.84C106.61 25.1333 106.637 25.52 106.637 26C106.637 26.4667 106.61 26.86 106.557 27.18C106.503 27.4867 106.41 27.7733 106.277 28.04C105.957 28.7733 105.41 29.3333 104.637 29.72C103.863 30.1067 102.917 30.3 101.797 30.3ZM116.392 30.3C115.192 30.3 114.172 30.0467 113.332 29.54C112.506 29.02 111.872 28.2733 111.432 27.3C111.206 26.7933 111.039 26.2133 110.932 25.56C110.839 24.9067 110.792 24.0333 110.792 22.94C110.792 21.86 110.839 20.9933 110.932 20.34C111.039 19.6733 111.212 19.08 111.452 18.56C111.879 17.6 112.499 16.8667 113.312 16.36C114.139 15.84 115.159 15.58 116.372 15.58C117.106 15.58 117.772 15.6933 118.372 15.92C118.986 16.1333 119.519 16.4467 119.972 16.86C120.466 17.3133 120.832 17.86 121.072 18.5C121.326 19.14 121.466 19.9 121.492 20.78H118.692C118.679 20.22 118.612 19.7733 118.492 19.44C118.386 19.0933 118.212 18.8067 117.972 18.58C117.732 18.3933 117.479 18.2533 117.212 18.16C116.946 18.0533 116.626 18 116.252 18C115.172 18 114.419 18.4733 113.992 19.42C113.846 19.7533 113.739 20.1667 113.672 20.66C113.619 21.14 113.592 21.9 113.592 22.94C113.592 23.9667 113.619 24.7333 113.672 25.24C113.739 25.7333 113.846 26.1467 113.992 26.48C114.419 27.4133 115.179 27.88 116.272 27.88C116.979 27.88 117.559 27.6867 118.012 27.3C118.239 27.0867 118.412 26.8133 118.532 26.48C118.652 26.1333 118.719 25.68 118.732 25.12H121.532C121.532 26.8 121.039 28.0933 120.052 29C119.599 29.4267 119.059 29.7533 118.432 29.98C117.806 30.1933 117.126 30.3 116.392 30.3ZM128.305 30.3C127.265 30.3 126.365 30.1067 125.605 29.72C124.859 29.32 124.259 28.7467 123.805 28C123.445 27.4533 123.179 26.78 123.005 25.98C122.832 25.18 122.745 24.1667 122.745 22.94C122.745 21.8733 122.792 21.0067 122.885 20.34C122.992 19.6733 123.165 19.0733 123.405 18.54C123.832 17.5933 124.452 16.8667 125.265 16.36C126.092 15.84 127.105 15.58 128.305 15.58C129.505 15.58 130.519 15.84 131.345 16.36C132.172 16.8667 132.799 17.5933 133.225 18.54C133.465 19.0733 133.632 19.6733 133.725 20.34C133.832 21.0067 133.885 21.8733 133.885 22.94C133.885 24.0067 133.832 24.8733 133.725 25.54C133.632 26.2067 133.465 26.8067 133.225 27.34C132.799 28.2867 132.172 29.02 131.345 29.54C130.519 30.0467 129.505 30.3 128.305 30.3ZM128.305 27.84C129.452 27.84 130.245 27.3467 130.685 26.36C130.832 26 130.932 25.5867 130.985 25.12C131.052 24.64 131.085 23.9133 131.085 22.94C131.085 21.9667 131.052 21.2467 130.985 20.78C130.932 20.3 130.832 19.88 130.685 19.52C130.245 18.5333 129.452 18.04 128.305 18.04C127.172 18.04 126.385 18.5333 125.945 19.52C125.785 19.88 125.672 20.2933 125.605 20.76C125.552 21.2267 125.525 21.9533 125.525 22.94C125.525 23.9 125.552 24.62 125.605 25.1C125.672 25.58 125.785 26 125.945 26.36C126.385 27.3467 127.172 27.84 128.305 27.84ZM135.428 15.88H138.048L142.968 25.22V15.88H145.548V30H142.928L138.008 20.58V30H135.428V15.88ZM17.0489 39.88H24.3689V42.2H19.7089V45.58H24.3089V47.86H19.7089V51.68H24.3689V54H17.0489V39.88ZM25.8575 39.88H28.4775L33.3975 49.22V39.88H35.9775V54H33.3575L28.4375 44.58V54H25.8575V39.88ZM37.8106 39.88H44.1306V42.2H40.4706V45.58H44.0906V47.9H40.4706V54H37.8106V39.88ZM50.7469 54.3C49.7069 54.3 48.8069 54.1067 48.0469 53.72C47.3002 53.32 46.7002 52.7467 46.2469 52C45.8869 51.4533 45.6202 50.78 45.4469 49.98C45.2735 49.18 45.1869 48.1667 45.1869 46.94C45.1869 45.8733 45.2335 45.0067 45.3269 44.34C45.4335 43.6733 45.6069 43.0733 45.8469 42.54C46.2735 41.5933 46.8935 40.8667 47.7069 40.36C48.5335 39.84 49.5469 39.58 50.7469 39.58C51.9469 39.58 52.9602 39.84 53.7869 40.36C54.6135 40.8667 55.2402 41.5933 55.6669 42.54C55.9069 43.0733 56.0735 43.6733 56.1669 44.34C56.2735 45.0067 56.3269 45.8733 56.3269 46.94C56.3269 48.0067 56.2735 48.8733 56.1669 49.54C56.0735 50.2067 55.9069 50.8067 55.6669 51.34C55.2402 52.2867 54.6135 53.02 53.7869 53.54C52.9602 54.0467 51.9469 54.3 50.7469 54.3ZM50.7469 51.84C51.8935 51.84 52.6869 51.3467 53.1269 50.36C53.2735 50 53.3735 49.5867 53.4269 49.12C53.4935 48.64 53.5269 47.9133 53.5269 46.94C53.5269 45.9667 53.4935 45.2467 53.4269 44.78C53.3735 44.3 53.2735 43.88 53.1269 43.52C52.6869 42.5333 51.8935 42.04 50.7469 42.04C49.6135 42.04 48.8269 42.5333 48.3869 43.52C48.2269 43.88 48.1135 44.2933 48.0469 44.76C47.9935 45.2267 47.9669 45.9533 47.9669 46.94C47.9669 47.9 47.9935 48.62 48.0469 49.1C48.1135 49.58 48.2269 50 48.3869 50.36C48.8269 51.3467 49.6135 51.84 50.7469 51.84ZM68.0888 51.34C67.6221 52.3667 66.9288 53.1333 66.0088 53.64L67.2688 56.1L64.9488 57.14L63.6088 54.28C63.5154 54.2933 63.3688 54.3 63.1688 54.3C62.1288 54.3 61.2288 54.1067 60.4688 53.72C59.7221 53.32 59.1221 52.7467 58.6688 52C58.3088 51.4533 58.0421 50.78 57.8688 49.98C57.6954 49.18 57.6088 48.1667 57.6088 46.94C57.6088 45.8733 57.6554 45.0067 57.7488 44.34C57.8554 43.6733 58.0288 43.0733 58.2688 42.54C58.6954 41.5933 59.3154 40.8667 60.1288 40.36C60.9554 39.84 61.9688 39.58 63.1688 39.58C64.3688 39.58 65.3821 39.84 66.2088 40.36C67.0354 40.8667 67.6621 41.5933 68.0888 42.54C68.3288 43.0733 68.4954 43.6733 68.5888 44.34C68.6954 45.0067 68.7488 45.8733 68.7488 46.94C68.7488 48.0067 68.6954 48.8733 68.5888 49.54C68.4954 50.2067 68.3288 50.8067 68.0888 51.34ZM60.8088 50.36C61.2488 51.3467 62.0354 51.84 63.1688 51.84C64.3154 51.84 65.1088 51.3467 65.5488 50.36C65.6954 50 65.7954 49.5867 65.8488 49.12C65.9154 48.64 65.9488 47.9133 65.9488 46.94C65.9488 45.9667 65.9154 45.2467 65.8488 44.78C65.7954 44.3 65.6954 43.88 65.5488 43.52C65.1088 42.5333 64.3154 42.04 63.1688 42.04C62.0354 42.04 61.2488 42.5333 60.8088 43.52C60.6488 43.88 60.5354 44.2933 60.4688 44.76C60.4154 45.2267 60.3888 45.9533 60.3888 46.94C60.3888 47.9 60.4154 48.62 60.4688 49.1C60.5354 49.58 60.6488 50 60.8088 50.36ZM74.8706 54.3C73.7773 54.3 72.884 54.1467 72.1906 53.84C71.4973 53.52 70.984 53.04 70.6506 52.4C70.3306 51.76 70.1706 50.9267 70.1706 49.9V39.88H72.8306V49.74C72.8306 50.46 72.9973 51.0067 73.3306 51.38C73.664 51.74 74.1773 51.92 74.8706 51.92C75.5906 51.92 76.1173 51.74 76.4506 51.38C76.784 51.0067 76.9506 50.46 76.9506 49.74V39.88H79.6306V49.9C79.6306 50.9133 79.464 51.7467 79.1306 52.4C78.7973 53.04 78.2773 53.52 77.5706 53.84C76.8773 54.1467 75.9773 54.3 74.8706 54.3ZM81.3067 39.88H88.6267V42.2H83.9667V45.58H88.5667V47.86H83.9667V51.68H88.6267V54H81.3067V39.88ZM103.681 46.46V47.56C103.681 48.48 103.635 49.2533 103.541 49.88C103.448 50.5067 103.288 51.0733 103.061 51.58C102.648 52.4867 102.061 53.1667 101.301 53.62C100.555 54.0733 99.6146 54.3 98.4813 54.3C97.2946 54.3 96.2879 54.04 95.4613 53.52C94.6346 53 93.9946 52.2533 93.5413 51.28C93.3279 50.7733 93.1679 50.1933 93.0613 49.54C92.9679 48.8867 92.9213 48.02 92.9213 46.94C92.9213 45.86 92.9679 44.9933 93.0613 44.34C93.1679 43.6867 93.3279 43.1067 93.5413 42.6C93.9946 41.6267 94.6346 40.88 95.4613 40.36C96.2879 39.84 97.3013 39.58 98.5013 39.58C99.2479 39.58 99.9213 39.6867 100.521 39.9C101.135 40.1133 101.661 40.42 102.101 40.82C102.568 41.2467 102.921 41.7667 103.161 42.38C103.415 42.9933 103.555 43.7267 103.581 44.58H100.901C100.875 44.0733 100.801 43.66 100.681 43.34C100.561 43.0067 100.388 42.7333 100.161 42.52C99.9746 42.3333 99.7346 42.1933 99.4413 42.1C99.1479 42.0067 98.8213 41.96 98.4613 41.96C97.3279 41.96 96.5479 42.44 96.1213 43.4C95.9613 43.76 95.8479 44.1867 95.7813 44.68C95.7279 45.16 95.7013 45.9133 95.7013 46.94C95.7013 47.9667 95.7279 48.7267 95.7813 49.22C95.8479 49.7 95.9613 50.12 96.1213 50.48C96.5479 51.44 97.3613 51.92 98.5613 51.92C99.6546 51.92 100.401 51.4933 100.801 50.64C100.895 50.4 100.961 50.1467 101.001 49.88C101.041 49.6 101.061 49.18 101.061 48.62H98.5613V46.46H103.681ZM105.213 39.88H107.873V51.64H111.053V54H105.213V39.88ZM117.114 54.3C116.074 54.3 115.174 54.1067 114.414 53.72C113.667 53.32 113.067 52.7467 112.614 52C112.254 51.4533 111.987 50.78 111.814 49.98C111.641 49.18 111.554 48.1667 111.554 46.94C111.554 45.8733 111.601 45.0067 111.694 44.34C111.801 43.6733 111.974 43.0733 112.214 42.54C112.641 41.5933 113.261 40.8667 114.074 40.36C114.901 39.84 115.914 39.58 117.114 39.58C118.314 39.58 119.327 39.84 120.154 40.36C120.981 40.8667 121.607 41.5933 122.034 42.54C122.274 43.0733 122.441 43.6733 122.534 44.34C122.641 45.0067 122.694 45.8733 122.694 46.94C122.694 48.0067 122.641 48.8733 122.534 49.54C122.441 50.2067 122.274 50.8067 122.034 51.34C121.607 52.2867 120.981 53.02 120.154 53.54C119.327 54.0467 118.314 54.3 117.114 54.3ZM117.114 51.84C118.261 51.84 119.054 51.3467 119.494 50.36C119.641 50 119.741 49.5867 119.794 49.12C119.861 48.64 119.894 47.9133 119.894 46.94C119.894 45.9667 119.861 45.2467 119.794 44.78C119.741 44.3 119.641 43.88 119.494 43.52C119.054 42.5333 118.261 42.04 117.114 42.04C115.981 42.04 115.194 42.5333 114.754 43.52C114.594 43.88 114.481 44.2933 114.414 44.76C114.361 45.2267 114.334 45.9533 114.334 46.94C114.334 47.9 114.361 48.62 114.414 49.1C114.481 49.58 114.594 50 114.754 50.36C115.194 51.3467 115.981 51.84 117.114 51.84ZM132.776 48.12C132.883 48.36 132.956 48.6133 132.996 48.88C133.05 49.1467 133.076 49.5267 133.076 50.02C133.076 50.54 133.05 50.9533 132.996 51.26C132.956 51.5667 132.883 51.84 132.776 52.08C132.483 52.72 132.016 53.2 131.376 53.52C130.736 53.84 129.93 54 128.956 54H124.236V39.88H128.956C129.823 39.88 130.55 40.0333 131.136 40.34C131.736 40.6333 132.163 41.0667 132.416 41.64C132.523 41.88 132.596 42.1267 132.636 42.38C132.676 42.62 132.696 42.9533 132.696 43.38C132.696 43.7933 132.676 44.12 132.636 44.36C132.596 44.5867 132.53 44.8067 132.436 45.02C132.09 45.7533 131.47 46.2333 130.576 46.46C131.15 46.62 131.61 46.84 131.956 47.12C132.316 47.3867 132.59 47.72 132.776 48.12ZM126.896 45.66H127.996C128.436 45.66 128.803 45.5867 129.096 45.44C129.403 45.2933 129.623 45.08 129.756 44.8C129.81 44.6533 129.85 44.5 129.876 44.34C129.903 44.18 129.916 43.9533 129.916 43.66C129.916 43.4067 129.903 43.2067 129.876 43.06C129.85 42.9133 129.81 42.7667 129.756 42.62C129.636 42.34 129.423 42.14 129.116 42.02C128.81 41.8867 128.423 41.82 127.956 41.82H126.896V45.66ZM130.056 51.12C130.123 50.9867 130.17 50.8267 130.196 50.64C130.223 50.4533 130.236 50.1867 130.236 49.84C130.236 49.5067 130.223 49.2533 130.196 49.08C130.17 48.9067 130.116 48.7467 130.036 48.6C129.77 47.96 129.083 47.64 127.976 47.64H126.896V52.04H127.916C129.076 52.04 129.79 51.7333 130.056 51.12ZM141.512 51.18H136.912L136.212 54H133.492L137.172 39.88H141.252L144.932 54H142.212L141.512 51.18ZM140.992 49.04L139.232 41.9H139.192L137.432 49.04H140.992ZM145.916 39.88H148.576V51.64H151.756V54H145.916V39.88Z" fill="white"/>
<path d="M0 70H168V118H16C7.16344 118 0 110.837 0 102V70Z" fill="#6802C1"/>
<path d="M35.964 96.464C35.5587 96.464 35.228 96.3413 34.972 96.096C34.7267 95.8507 34.604 95.5307 34.604 95.136C34.604 94.7307 34.7267 94.4107 34.972 94.176C35.228 93.9307 35.5587 93.808 35.964 93.808C36.3693 93.808 36.6947 93.9307 36.94 94.176C37.196 94.4107 37.324 94.7307 37.324 95.136C37.324 95.5307 37.196 95.8507 36.94 96.096C36.6947 96.3413 36.3693 96.464 35.964 96.464ZM35.068 97.52H36.86L37.164 105.232H34.732L35.068 97.52ZM44.5179 102.288C43.3019 102.288 42.2672 102.037 41.4139 101.536C40.5712 101.035 39.9419 100.32 39.5259 99.392C39.1525 98.5493 38.9659 97.536 38.9659 96.352C38.9659 95.1893 39.1579 94.176 39.5419 93.312C39.9472 92.3947 40.5712 91.6853 41.4139 91.184C42.2565 90.672 43.2859 90.416 44.5019 90.416C45.2592 90.416 45.9525 90.528 46.5819 90.752C47.2112 90.976 47.7552 91.296 48.2139 91.712C48.6512 92.1067 48.9872 92.576 49.2219 93.12C49.4672 93.664 49.6005 94.2613 49.6219 94.912H47.1099C47.0779 94.176 46.8325 93.5947 46.3739 93.168C45.8725 92.7307 45.2219 92.512 44.4219 92.512C43.7925 92.512 43.2645 92.6453 42.8379 92.912C42.4112 93.168 42.0859 93.5413 41.8619 94.032C41.7339 94.3307 41.6379 94.6667 41.5739 95.04C41.5205 95.4027 41.4939 95.84 41.4939 96.352C41.4939 96.8747 41.5205 97.3227 41.5739 97.696C41.6379 98.0693 41.7339 98.4 41.8619 98.688C42.0859 99.1787 42.4112 99.552 42.8379 99.808C43.2752 100.064 43.8032 100.192 44.4219 100.192C45.2539 100.192 45.9205 99.968 46.4219 99.52C46.8805 99.1147 47.1259 98.5547 47.1579 97.84H49.6699C49.6592 98.48 49.5312 99.0667 49.2859 99.6C49.0512 100.133 48.7205 100.592 48.2939 100.976C47.8352 101.403 47.2805 101.728 46.6299 101.952C45.9792 102.176 45.2752 102.288 44.5179 102.288ZM54.7639 102.208C53.8252 102.208 53.0305 102.021 52.3799 101.648C51.7292 101.264 51.2492 100.725 50.9399 100.032C50.6839 99.488 50.5559 98.8267 50.5559 98.048C50.5559 97.2587 50.6839 96.592 50.9399 96.048C51.2492 95.3547 51.7292 94.816 52.3799 94.432C53.0412 94.048 53.8359 93.856 54.7639 93.856C55.7025 93.856 56.4972 94.048 57.1479 94.432C57.8092 94.816 58.2892 95.3493 58.5879 96.032C58.8545 96.5973 58.9879 97.2693 58.9879 98.048C58.9879 98.816 58.8545 99.4827 58.5879 100.048C58.2892 100.731 57.8092 101.264 57.1479 101.648C56.4972 102.021 55.7025 102.208 54.7639 102.208ZM54.7639 100.384C55.1692 100.384 55.5105 100.304 55.7879 100.144C56.0652 99.9733 56.2732 99.7387 56.4119 99.44C56.5505 99.0987 56.6199 98.6347 56.6199 98.048C56.6199 97.4507 56.5505 96.9813 56.4119 96.64C56.1345 96.0107 55.5852 95.696 54.7639 95.696C54.3585 95.696 54.0172 95.7813 53.7399 95.952C53.4625 96.112 53.2599 96.3413 53.1319 96.64C52.9825 96.9707 52.9079 97.44 52.9079 98.048C52.9079 98.6453 52.9825 99.1093 53.1319 99.44C53.2599 99.7387 53.4625 99.9733 53.7399 100.144C54.0172 100.304 54.3585 100.384 54.7639 100.384ZM64.783 93.856C65.7217 93.856 66.4417 94.128 66.943 94.672C67.455 95.2053 67.711 95.984 67.711 97.008V102H65.503V97.472C65.503 96.8533 65.375 96.4053 65.119 96.128C64.8737 95.84 64.495 95.696 63.983 95.696C63.4497 95.696 63.039 95.856 62.751 96.176C62.4737 96.4853 62.335 96.944 62.335 97.552V102H60.127V94.08H62.335V95.04C62.8897 94.2507 63.7057 93.856 64.783 93.856ZM72.9826 102.208C72.044 102.208 71.2493 102.021 70.5986 101.648C69.948 101.264 69.468 100.725 69.1586 100.032C68.9026 99.488 68.7746 98.8267 68.7746 98.048C68.7746 97.2587 68.9026 96.592 69.1586 96.048C69.468 95.3547 69.948 94.816 70.5986 94.432C71.26 94.048 72.0546 93.856 72.9826 93.856C73.9213 93.856 74.716 94.048 75.3666 94.432C76.028 94.816 76.508 95.3493 76.8066 96.032C77.0733 96.5973 77.2066 97.2693 77.2066 98.048C77.2066 98.816 77.0733 99.4827 76.8066 100.048C76.508 100.731 76.028 101.264 75.3666 101.648C74.716 102.021 73.9213 102.208 72.9826 102.208ZM72.9826 100.384C73.388 100.384 73.7293 100.304 74.0066 100.144C74.284 99.9733 74.492 99.7387 74.6306 99.44C74.7693 99.0987 74.8386 98.6347 74.8386 98.048C74.8386 97.4507 74.7693 96.9813 74.6306 96.64C74.3533 96.0107 73.804 95.696 72.9826 95.696C72.5773 95.696 72.236 95.7813 71.9586 95.952C71.6813 96.112 71.4786 96.3413 71.3506 96.64C71.2013 96.9707 71.1266 97.44 71.1266 98.048C71.1266 98.6453 71.2013 99.1093 71.3506 99.44C71.4786 99.7387 71.6813 99.9733 71.9586 100.144C72.236 100.304 72.5773 100.384 72.9826 100.384ZM82.1999 102.208C81.3039 102.208 80.5305 102.027 79.8799 101.664C79.2292 101.301 78.7492 100.779 78.4399 100.096C78.1839 99.4987 78.0559 98.816 78.0559 98.048C78.0559 97.2587 78.1839 96.576 78.4399 96C78.7492 95.3067 79.2239 94.7787 79.8639 94.416C80.5145 94.0427 81.2932 93.856 82.1999 93.856C82.8185 93.856 83.3785 93.9413 83.8799 94.112C84.3919 94.2827 84.8292 94.5333 85.1919 94.864C85.5012 95.1413 85.7412 95.472 85.9119 95.856C86.0932 96.2293 86.1892 96.6453 86.1999 97.104H83.7999C83.7679 96.6773 83.6185 96.3307 83.3519 96.064C83.2132 95.9467 83.0425 95.856 82.8399 95.792C82.6479 95.728 82.4399 95.696 82.2159 95.696C81.8532 95.696 81.5385 95.776 81.2719 95.936C81.0052 96.0853 80.8025 96.3093 80.6639 96.608C80.5892 96.7893 80.5305 96.992 80.4879 97.216C80.4559 97.44 80.4399 97.712 80.4399 98.032C80.4399 98.3627 80.4559 98.64 80.4879 98.864C80.5305 99.088 80.5892 99.2853 80.6639 99.456C80.8025 99.7547 81.0052 99.984 81.2719 100.144C81.5385 100.293 81.8532 100.368 82.2159 100.368C82.4612 100.368 82.6799 100.336 82.8719 100.272C83.0639 100.208 83.2239 100.117 83.3519 100C83.4905 99.872 83.5972 99.7173 83.6719 99.536C83.7465 99.3547 83.7892 99.1627 83.7999 98.96H86.1999C86.1679 99.888 85.8372 100.64 85.2079 101.216C84.8452 101.536 84.4079 101.781 83.8959 101.952C83.3839 102.123 82.8185 102.208 82.1999 102.208ZM92.6719 100.112C92.7892 100.016 92.8852 99.8933 92.9599 99.744C93.0345 99.5947 93.0825 99.4453 93.1039 99.296H95.3279C95.2639 100.053 94.9545 100.693 94.3999 101.216C94.0372 101.536 93.5892 101.781 93.0559 101.952C92.5332 102.123 91.9625 102.208 91.3439 102.208C90.3945 102.208 89.5839 102.027 88.9119 101.664C88.2399 101.291 87.7492 100.757 87.4399 100.064C87.1839 99.52 87.0559 98.8373 87.0559 98.016C87.0559 97.6107 87.0879 97.248 87.1519 96.928C87.2159 96.608 87.3119 96.304 87.4399 96.016C87.7385 95.3333 88.2079 94.8053 88.8479 94.432C89.4985 94.048 90.2825 93.856 91.1999 93.856C92.1065 93.856 92.8852 94.048 93.5359 94.432C94.1865 94.8053 94.6665 95.3333 94.9759 96.016C95.1252 96.3893 95.2265 96.7733 95.2799 97.168C95.3439 97.552 95.3759 98.032 95.3759 98.608H89.2959C89.3279 99.0027 89.3972 99.328 89.5039 99.584C89.7919 100.213 90.3892 100.528 91.2959 100.528C91.9252 100.528 92.3839 100.389 92.6719 100.112ZM91.2319 95.52C90.3679 95.52 89.7919 95.84 89.5039 96.48C89.4079 96.7147 89.3439 96.9547 89.3119 97.2H93.1199C93.0985 96.9333 93.0345 96.6827 92.9279 96.448C92.7785 96.1387 92.5599 95.9093 92.2719 95.76C91.9945 95.6 91.6479 95.52 91.2319 95.52ZM109.137 93.856C110.043 93.856 110.737 94.128 111.217 94.672C111.707 95.216 111.953 96 111.953 97.024V102H109.745V97.472C109.745 96.864 109.627 96.416 109.393 96.128C109.158 95.84 108.801 95.696 108.321 95.696C107.819 95.696 107.435 95.856 107.169 96.176C106.913 96.4853 106.785 96.944 106.785 97.552V102H104.561V97.472C104.561 96.864 104.443 96.416 104.209 96.128C103.974 95.84 103.617 95.696 103.137 95.696C102.635 95.696 102.251 95.856 101.985 96.176C101.729 96.4853 101.601 96.944 101.601 97.552V102H99.3926V94.08H101.601V95.008C101.867 94.6347 102.203 94.352 102.609 94.16C103.014 93.9573 103.489 93.856 104.033 93.856C104.641 93.856 105.153 93.9733 105.569 94.208C105.995 94.4427 106.31 94.7947 106.513 95.264C106.801 94.784 107.158 94.432 107.585 94.208C108.022 93.9733 108.539 93.856 109.137 93.856ZM120.481 95.488C120.694 95.9787 120.801 96.6187 120.801 97.408V102H118.577V101.104C118.011 101.84 117.121 102.208 115.905 102.208C115.243 102.208 114.678 102.096 114.209 101.872C113.739 101.637 113.409 101.301 113.217 100.864C113.078 100.576 113.009 100.213 113.009 99.776C113.009 99.3707 113.073 99.0187 113.201 98.72C113.467 98.1333 113.931 97.7333 114.593 97.52C115.254 97.296 116.107 97.184 117.153 97.184H118.577V97.024C118.577 96.8 118.566 96.6293 118.545 96.512C118.523 96.384 118.486 96.256 118.433 96.128C118.23 95.6907 117.771 95.472 117.057 95.472C116.694 95.472 116.395 95.5253 116.161 95.632C115.937 95.728 115.771 95.888 115.665 96.112C115.633 96.1973 115.606 96.2827 115.585 96.368C115.574 96.4427 115.563 96.5227 115.553 96.608H113.313C113.313 96.2027 113.387 95.824 113.537 95.472C113.782 94.928 114.209 94.5227 114.817 94.256C115.425 93.9893 116.166 93.856 117.041 93.856C117.958 93.856 118.694 93.9893 119.249 94.256C119.814 94.5227 120.225 94.9333 120.481 95.488ZM116.689 100.544C117.126 100.544 117.489 100.469 117.777 100.32C118.065 100.16 118.278 99.936 118.417 99.648C118.523 99.4027 118.577 99.0773 118.577 98.672V98.56H117.313C116.801 98.56 116.379 98.6027 116.049 98.688C115.729 98.7733 115.515 98.928 115.409 99.152C115.355 99.28 115.329 99.4133 115.329 99.552C115.329 99.7013 115.355 99.8453 115.409 99.984C115.494 100.176 115.649 100.32 115.873 100.416C116.107 100.501 116.379 100.544 116.689 100.544ZM117.201 90.656H119.441L117.697 93.168H115.665L117.201 90.656ZM125.356 102.256C124.524 102.256 123.831 102.128 123.276 101.872C122.722 101.605 122.327 101.211 122.092 100.688C121.932 100.304 121.852 99.8667 121.852 99.376H124.028C124.028 99.6747 124.071 99.9093 124.156 100.08C124.348 100.507 124.759 100.72 125.388 100.72C125.986 100.72 126.364 100.549 126.524 100.208C126.578 100.101 126.604 99.9893 126.604 99.872C126.604 99.7333 126.578 99.6107 126.524 99.504C126.46 99.3547 126.348 99.2373 126.188 99.152C126.039 99.056 125.826 98.9707 125.548 98.896C125.282 98.8213 124.994 98.752 124.684 98.688C124.098 98.5493 123.596 98.368 123.18 98.144C122.775 97.9093 122.482 97.5893 122.3 97.184C122.247 97.0453 122.204 96.9067 122.172 96.768C122.151 96.6293 122.14 96.4693 122.14 96.288C122.14 95.9253 122.204 95.5947 122.332 95.296C122.546 94.8373 122.919 94.4853 123.452 94.24C123.986 93.984 124.62 93.856 125.356 93.856C126.092 93.856 126.722 93.9787 127.244 94.224C127.778 94.4587 128.156 94.816 128.38 95.296C128.53 95.6267 128.604 96.0053 128.604 96.432H126.492C126.492 96.2187 126.455 96.0213 126.38 95.84C126.295 95.6587 126.162 95.5253 125.98 95.44C125.799 95.344 125.58 95.296 125.324 95.296C125.068 95.296 124.855 95.3333 124.684 95.408C124.524 95.4827 124.412 95.5893 124.348 95.728C124.306 95.8027 124.284 95.904 124.284 96.032C124.284 96.1707 124.306 96.2667 124.348 96.32C124.423 96.4693 124.546 96.5973 124.716 96.704C124.898 96.8 125.122 96.8853 125.388 96.96C125.666 97.0347 125.938 97.104 126.204 97.168C126.866 97.3387 127.404 97.5413 127.82 97.776C128.236 98 128.54 98.32 128.732 98.736C128.85 98.9813 128.908 99.2853 128.908 99.648C128.908 100.053 128.839 100.411 128.7 100.72C128.466 101.232 128.05 101.616 127.452 101.872C126.866 102.128 126.167 102.256 125.356 102.256ZM130.529 90.704H132.961L132.641 98.512H130.849L130.529 90.704ZM131.745 102.288C131.34 102.288 131.009 102.171 130.753 101.936C130.508 101.691 130.385 101.371 130.385 100.976C130.385 100.571 130.508 100.251 130.753 100.016C131.009 99.7707 131.34 99.648 131.745 99.648C132.151 99.648 132.476 99.7707 132.721 100.016C132.977 100.251 133.105 100.571 133.105 100.976C133.105 101.371 132.977 101.691 132.721 101.936C132.476 102.171 132.151 102.288 131.745 102.288Z" fill="white"/>
<path d="M168 139L137 118H168V139Z" fill="#6802C1"/>
<circle cx="128" cy="179" r="40" fill="#00A63E"/>
<path d="M128.36 159.189C117.618 159.189 108.909 167.83 108.909 178.49C108.909 182.136 109.929 185.547 111.7 188.456L108.189 198.811L118.959 195.39C121.745 196.919 124.95 197.791 128.36 197.791C139.104 197.791 147.812 189.149 147.812 178.49C147.812 167.83 139.104 159.189 128.36 159.189ZM138.032 185.82C137.575 186.954 135.505 187.99 134.592 188.037C133.68 188.086 133.654 188.744 128.68 186.584C123.708 184.423 120.716 179.168 120.48 178.83C120.244 178.493 118.554 176.084 118.645 173.66C118.737 171.236 120.064 170.092 120.538 169.616C121.011 169.14 121.554 169.054 121.885 169.049C122.277 169.043 122.53 169.037 122.82 169.048C123.11 169.059 123.545 168.987 123.921 169.989C124.298 170.99 125.199 173.452 125.314 173.703C125.429 173.954 125.5 174.244 125.323 174.567C125.145 174.89 125.054 175.092 124.796 175.37C124.536 175.648 124.25 175.993 124.018 176.206C123.76 176.441 123.49 176.699 123.762 177.202C124.033 177.706 124.969 179.357 126.396 180.717C128.229 182.465 129.809 183.045 130.296 183.31C130.783 183.575 131.075 183.546 131.377 183.228C131.678 182.909 132.672 181.835 133.022 181.355C133.371 180.874 133.699 180.968 134.149 181.149C134.598 181.331 136.993 182.614 137.481 182.878C137.968 183.143 138.294 183.279 138.41 183.489C138.527 183.699 138.49 184.685 138.032 185.82Z" fill="white"/>
</svg>
