<svg width="1241" height="63" viewBox="0 0 1241 63" fill="none" xmlns="http://www.w3.org/2000/svg">
<path d="M1241 0H0V62.4561H1241V0Z" fill="white"/>
<path d="M27.1992 13.1628H58.2916V19.9279H36.0578V27.8755H58.1365V34.4855H36.0578V42.5688H58.2916V49.3339H27.1992V13.1822V13.1628Z" fill="black"/>
<path d="M69.4531 13.1628H78.3117V42.0066H93.4702V49.3339H69.4531V13.1822V13.1628Z" fill="black"/>
<path d="M102.756 13.1628H111.614V49.3145H102.756V13.1628Z" fill="black"/>
<path d="M169.538 29.3482V29.9103C169.538 31.8487 169.383 33.5545 169.111 35.0084C168.82 36.4622 168.355 37.916 167.696 39.3892C166.048 43.0141 163.354 45.7667 159.613 47.6275C155.852 49.5078 151.316 50.4383 145.986 50.4383C142.322 50.4383 139.007 50.0118 136.022 49.1589C133.037 48.306 130.478 47.046 128.365 45.3983C126.253 43.7507 124.663 41.7347 123.597 39.3892C122.511 36.9274 121.949 34.2136 121.949 31.2478C121.949 28.282 122.531 25.5876 123.694 23.1064C125.341 19.4816 128.094 16.729 131.971 14.8681C135.848 12.9878 140.558 12.0574 146.083 12.0574C149.843 12.0574 153.274 12.5226 156.376 13.4724C159.477 14.4223 162.075 15.818 164.168 17.6982C165.428 18.8225 166.533 20.1407 167.463 21.672C168.394 23.184 168.995 24.7153 169.227 26.2467H159.555C159.109 24.851 158.314 23.6104 157.151 22.5637C155.949 21.4394 154.418 20.6059 152.538 20.0825C150.657 19.5591 148.603 19.2877 146.335 19.2877C142.962 19.2877 140.054 19.8693 137.65 21.0129C135.247 22.1566 133.541 23.843 132.552 26.0528C132.203 26.8476 131.951 27.6424 131.777 28.4759C131.603 29.3094 131.525 30.2399 131.525 31.2672C131.525 33.1863 131.874 34.9115 132.552 36.4428C133.541 38.6914 135.227 40.3972 137.631 41.5409C140.015 42.6846 142.865 43.2467 146.18 43.2467C149.494 43.2467 152.131 42.7621 154.495 41.7541C156.86 40.7655 158.508 39.2729 159.438 37.2957C159.613 36.9468 159.787 36.404 160.001 35.648H146.373V29.3482H169.518H169.538Z" fill="black"/>
<path d="M179.828 13.1628H210.92V19.9279H188.687V27.8755H210.765V34.4855H188.687V42.5688H210.92V49.3339H179.828V13.1822V13.1628Z" fill="black"/>
<path d="M243.098 46.1359C239.881 43.267 238.291 38.9637 238.291 33.226V13.1439H247.15V32.6057C247.15 35.0675 247.518 37.0447 248.274 38.576C249.03 40.088 250.174 41.2317 251.724 41.9489C253.275 42.6855 255.291 43.0538 257.792 43.0538C260.292 43.0538 262.308 42.6855 263.859 41.9489C265.41 41.2123 266.573 40.088 267.309 38.576C268.065 37.0641 268.434 35.0675 268.434 32.6057V13.1439H277.292V33.226C277.292 38.9637 275.683 43.267 272.485 46.1359C269.267 49.0048 264.382 50.4392 257.792 50.4392C251.201 50.4392 246.297 49.0048 243.098 46.1359Z" fill="black"/>
<path d="M288.885 13.1628H298.868L320.578 39.3897V13.1628H329.378V49.3145H319.085L297.627 23.611V49.3145H288.865V13.1628H288.885Z" fill="black"/>
<path d="M358.594 13.1628H384.607V20.1799H367.452V27.9724H384.511V34.7375H367.452V49.3339H358.594V13.1822V13.1628Z" fill="black"/>
<path d="M399.163 46.1359C395.945 43.267 394.355 38.9637 394.355 33.226V13.1439H403.214V32.6057C403.214 35.0675 403.582 37.0447 404.338 38.576C405.094 40.088 406.238 41.2317 407.789 41.9489C409.339 42.6855 411.355 43.0538 413.856 43.0538C416.357 43.0538 418.373 42.6855 419.923 41.9489C421.474 41.2123 422.637 40.088 423.374 38.576C424.13 37.0641 424.498 35.0675 424.498 32.6057V13.1439H433.357V33.226C433.357 38.9637 431.748 43.267 428.549 46.1359C425.332 49.0048 420.447 50.4392 413.856 50.4392C407.265 50.4392 402.361 49.0048 399.163 46.1359Z" fill="black"/>
<path d="M453.707 20.2769H441.922V13.1628H474.294V20.2769H462.508V49.3145H453.707V20.2769Z" fill="black"/>
<path d="M487.608 46.1359C484.39 43.267 482.801 38.9637 482.801 33.226V13.1439H491.659V32.6057C491.659 35.0675 492.028 37.0447 492.784 38.576C493.54 40.088 494.683 41.2317 496.234 41.9489C497.785 42.6855 499.801 43.0538 502.301 43.0538C504.802 43.0538 506.818 42.6855 508.369 41.9489C509.919 41.2123 511.082 40.088 511.819 38.576C512.575 37.0641 512.943 35.0675 512.943 32.6057V13.1439H521.802V33.226C521.802 38.9637 520.193 43.267 516.995 46.1359C513.777 49.0048 508.892 50.4392 502.301 50.4392C495.711 50.4392 490.806 49.0048 487.608 46.1359Z" fill="black"/>
<path d="M546.054 36.0557H542.255V49.3145H533.396V13.1628H554.661C557.937 13.1628 560.709 13.7056 562.977 14.7911C565.245 15.8766 566.834 17.4661 567.765 19.5596C568.385 20.9165 568.695 22.5448 568.695 24.4251C568.695 26.5186 568.346 28.3213 567.668 29.8527C566.854 31.6942 565.536 33.148 563.752 34.1754C561.969 35.2027 559.74 35.823 557.065 35.9975L571.506 49.3145H559.972L546.035 36.0557H546.054ZM542.255 30.0077H552.393C554.312 30.0077 555.824 29.8139 556.948 29.4262C558.073 29.0386 558.887 28.3213 559.352 27.294C559.623 26.7124 559.759 25.8789 559.759 24.7934C559.759 23.863 559.623 23.1457 559.352 22.5836C558.906 21.5562 558.092 20.8196 556.929 20.3738C555.747 19.928 554.235 19.7147 552.393 19.7147H542.255V30.0077Z" fill="black"/>
<path d="M587.147 47.6096C583.367 45.7099 580.692 42.9768 579.083 39.3907C577.998 37.0064 577.436 34.2926 577.436 31.2493C577.436 28.3804 577.959 25.7442 579.025 23.3017C580.091 20.9175 581.642 18.8627 583.716 17.1763C585.79 15.4899 588.291 14.2105 591.218 13.3382C594.145 12.4659 597.44 12.0395 601.104 12.0395C604.767 12.0395 607.985 12.4659 610.912 13.3188C613.839 14.1717 616.32 15.4317 618.356 17.0794C620.41 18.7464 621.961 20.7236 623.008 23.0497C624.171 25.6472 624.752 28.3804 624.752 31.2493C624.752 34.312 624.132 37.1421 622.911 39.7008C621.263 43.19 618.569 45.8456 614.828 47.6872C611.067 49.5287 606.473 50.4591 601.046 50.4591C595.618 50.4591 590.908 49.5093 587.147 47.6096ZM609.361 41.3485C611.61 40.2048 613.219 38.5571 614.169 36.4055C614.808 34.7578 615.138 33.0326 615.138 31.2299C615.138 29.2915 614.789 27.5275 614.111 25.9574C613.122 23.8057 611.513 22.1774 609.264 21.0725C607.035 19.9676 604.283 19.4055 601.046 19.4055C597.808 19.4055 595.114 19.9676 592.885 21.0725C590.656 22.1774 589.027 23.8057 588.039 25.9574C587.36 27.5275 587.011 29.2915 587.011 31.2299C587.011 33.0326 587.36 34.7578 588.039 36.4055C589.027 38.5571 590.656 40.2048 592.904 41.3485C595.153 42.4922 597.886 43.0543 601.104 43.0543C604.322 43.0543 607.093 42.4922 609.342 41.3485H609.361Z" fill="black"/>
<path d="M651.967 13.1628H660.825V49.3145H651.967V13.1628Z" fill="black"/>
<path d="M673.123 13.1628H683.106L704.816 39.3897V13.1628H713.617V49.3145H703.324L681.865 23.611V49.3145H673.104V13.1628H673.123Z" fill="black"/>
<path d="M734.686 20.2769H722.9V13.1628H755.272V20.2769H743.486V49.3145H734.686V20.2769Z" fill="black"/>
<path d="M764.494 13.1628H795.586V19.9279H773.353V27.8755H795.431V34.4855H773.353V42.5688H795.586V49.3339H764.494V13.1822V13.1628Z" fill="black"/>
<path d="M819.412 36.0557H815.613V49.3145H806.754V13.1628H828.018C831.294 13.1628 834.066 13.7056 836.334 14.7911C838.602 15.8766 840.192 17.4661 841.122 19.5596C841.743 20.9165 842.053 22.5448 842.053 24.4251C842.053 26.5186 841.704 28.3213 841.025 29.8527C840.211 31.6942 838.893 33.148 837.11 34.1754C835.326 35.2027 833.097 35.823 830.422 35.9975L844.863 49.3145H833.33L819.392 36.0557H819.412ZM815.613 30.0077H825.75C827.67 30.0077 829.181 29.8139 830.306 29.4262C831.43 29.0386 832.244 28.3213 832.709 27.294C832.981 26.7124 833.117 25.8789 833.117 24.7934C833.117 23.863 832.981 23.1457 832.709 22.5836C832.264 21.5562 831.449 20.8196 830.286 20.3738C829.104 19.928 827.592 19.7147 825.75 19.7147H815.613V30.0077Z" fill="black"/>
<path d="M853.881 13.1628H863.864L885.574 39.3897V13.1628H894.374V49.3145H884.081L862.623 23.611V49.3145H853.861V13.1628H853.881Z" fill="black"/>
<path d="M937.111 41.3847H915.846L912.105 49.3322H902.529L920.305 13.1806H932.556L950.389 49.3322H940.852L937.111 41.3847ZM933.874 34.6196L926.508 18.9377H926.411L919.045 34.6196H933.893H933.874Z" fill="black"/>
<path d="M964.058 47.5514C960.239 45.613 957.525 42.8411 955.974 39.2356C954.908 36.8126 954.385 34.1569 954.385 31.2493C954.385 28.3416 954.908 25.7054 955.974 23.3017C957.04 20.9175 958.611 18.8627 960.704 17.1763C962.798 15.4899 965.337 14.2105 968.283 13.3382C971.23 12.4659 974.486 12.0395 978.034 12.0395C981.581 12.0395 985.012 12.5241 988.094 13.4933C991.176 14.4625 993.774 15.8776 995.848 17.7191C997.36 19.1147 998.523 20.7042 999.356 22.507C1000.19 24.2903 1000.66 26.2288 1000.77 28.3223H991.448C991.273 27.198 990.924 26.1512 990.401 25.2014C989.877 24.2516 989.199 23.4181 988.385 22.7008C987.222 21.6153 985.768 20.7818 984.004 20.239C982.24 19.6963 980.282 19.4249 978.13 19.4249C974.893 19.4249 972.121 19.987 969.834 21.1307C967.547 22.2744 965.918 23.922 964.969 26.0737C964.251 27.6826 963.883 29.4078 963.883 31.2493C963.883 33.0908 964.232 34.8354 964.911 36.3667C965.86 38.5959 967.489 40.263 969.795 41.3873C972.102 42.5116 974.855 43.0737 978.072 43.0737C980.302 43.0737 982.318 42.7829 984.159 42.2208C986.001 41.6586 987.532 40.8251 988.714 39.7396C989.509 38.9836 990.149 38.1501 990.633 37.239C991.118 36.3086 991.409 35.32 991.486 34.2732H1000.81C1000.71 36.4249 1000.25 38.3827 999.434 40.1467C998.62 41.9106 997.457 43.442 995.945 44.7795C993.871 46.6598 991.273 48.0748 988.152 49.0247C985.051 49.9745 981.639 50.4591 977.956 50.4591C972.49 50.4591 967.857 49.4899 964.019 47.5709L964.058 47.5514Z" fill="black"/>
<path d="M1011.02 13.1628H1019.88V49.3145H1011.02V13.1628Z" fill="black"/>
<path d="M1039.93 47.6096C1036.15 45.7099 1033.48 42.9768 1031.87 39.3907C1030.78 37.0064 1030.22 34.2926 1030.22 31.2493C1030.22 28.3804 1030.74 25.7442 1031.81 23.3017C1032.88 20.9175 1034.43 18.8627 1036.5 17.1763C1038.58 15.4899 1041.08 14.2105 1044 13.3382C1046.93 12.4659 1050.23 12.0395 1053.89 12.0395C1057.55 12.0395 1060.77 12.4659 1063.7 13.3188C1066.62 14.1717 1069.11 15.4317 1071.14 17.0794C1073.2 18.7464 1074.75 20.7236 1075.79 23.0497C1076.96 25.6472 1077.54 28.3804 1077.54 31.2493C1077.54 34.312 1076.92 37.1421 1075.7 39.7008C1074.05 43.19 1071.35 45.8456 1067.61 47.6872C1063.85 49.5287 1059.26 50.4591 1053.83 50.4591C1048.4 50.4591 1043.69 49.5093 1039.93 47.6096ZM1062.15 41.3485C1064.4 40.2048 1066 38.5571 1066.95 36.4055C1067.59 34.7578 1067.92 33.0326 1067.92 31.2299C1067.92 29.2915 1067.57 27.5275 1066.9 25.9574C1065.91 23.8057 1064.3 22.1774 1062.05 21.0725C1059.82 19.9676 1057.07 19.4055 1053.83 19.4055C1050.59 19.4055 1047.9 19.9676 1045.67 21.0725C1043.44 22.1774 1041.81 23.8057 1040.82 25.9574C1040.15 27.5275 1039.8 29.2915 1039.8 31.2299C1039.8 33.0326 1040.15 34.7578 1040.82 36.4055C1041.81 38.5571 1043.44 40.2048 1045.69 41.3485C1047.94 42.4922 1050.67 43.0543 1053.89 43.0543C1057.11 43.0543 1059.88 42.4922 1062.13 41.3485H1062.15Z" fill="black"/>
<path d="M1087.78 13.1628H1097.77L1119.48 39.3897V13.1628H1128.28V49.3145H1117.98L1096.53 23.611V49.3145H1087.76V13.1628H1087.78Z" fill="black"/>
<path d="M1171.02 41.3847H1149.76L1146.02 49.3322H1136.44L1154.22 13.1806H1166.47L1184.3 49.3322H1174.76L1171.02 41.3847ZM1167.81 34.6196L1160.44 18.9377H1160.34L1152.98 34.6196H1167.82H1167.81Z" fill="black"/>
<path d="M1192.79 13.1628H1201.65V42.0066H1216.8V49.3339H1192.79V13.1822V13.1628Z" fill="black"/>
</svg>
