<svg width="981" height="86" viewBox="0 0 981 86" fill="none" xmlns="http://www.w3.org/2000/svg">
<path d="M175.241 65.601H127.746L119.395 83.336H98L137.708 2.54492H165.06L204.878 83.336H183.593L175.241 65.601ZM168.032 50.494L151.549 15.4781H151.315L134.832 50.494H168.018H168.032Z" fill="white"/>
<path d="M218.267 79.3871C209.723 75.0807 203.697 68.8755 200.188 60.7854C197.822 55.3644 196.639 49.4207 196.639 42.9403C196.639 36.46 197.822 30.5438 200.188 25.2054C202.555 19.867 206.077 15.3129 210.769 11.5292C215.461 7.7456 221.102 4.89755 227.706 2.94382C234.31 1.00384 241.575 0.0269775 249.5 0.0269775C257.425 0.0269775 265.074 1.11391 271.981 3.28779C278.888 5.46166 284.667 8.6124 289.317 12.7263C292.674 15.8495 295.289 19.4267 297.16 23.4305C299.031 27.4343 300.077 31.7683 300.31 36.4187H279.48C279.095 33.9009 278.31 31.5757 277.127 29.4431C275.944 27.3105 274.444 25.4393 272.6 23.8295C270 21.3942 266.739 19.5643 262.818 18.3398C258.883 17.1153 254.521 16.5099 249.72 16.5099C242.469 16.5099 236.291 17.7894 231.187 20.3486C226.069 22.9077 222.45 26.5813 220.317 31.3968C218.721 34.9878 217.91 38.8403 217.91 42.9541C217.91 47.0679 218.666 50.9617 220.194 54.4013C222.326 59.3545 225.972 63.0968 231.118 65.6147C236.264 68.1325 242.428 69.3983 249.596 69.3983C254.549 69.3983 259.089 68.7654 263.217 67.5134C267.331 66.2613 270.729 64.4039 273.398 61.9686C275.16 60.2901 276.577 58.4189 277.691 56.3551C278.792 54.2913 279.425 52.0761 279.576 49.7234H300.407C300.173 54.5252 299.141 58.9004 297.311 62.8217C295.481 66.7566 292.881 70.1963 289.524 73.1819C284.873 77.3783 279.067 80.5428 272.133 82.6754C265.184 84.808 257.603 85.8812 249.362 85.8812C237.158 85.8812 226.784 83.7211 218.24 79.4146L218.267 79.3871Z" fill="white"/>
<path d="M306.033 2.54492H375.487V17.652H325.818V35.3869H375.143V50.15H325.818V68.2289H375.487V83.336H306.033V2.54492Z" fill="white"/>
<path d="M411.534 53.6997H403.072V83.336H383.273V2.54492H430.768C438.088 2.54492 444.293 3.76945 449.37 6.20473C454.447 8.65378 458.011 12.1898 460.074 16.854C461.45 19.9084 462.138 23.5269 462.138 27.7233C462.138 32.3738 461.382 36.4188 459.854 39.8585C458.024 43.9724 455.108 47.2056 451.104 49.5309C447.1 51.8561 442.119 53.2182 436.176 53.5897L468.44 83.336H442.697L411.575 53.6997H411.534ZM403.072 40.1887H425.733C429.998 40.1887 433.396 39.7484 435.914 38.8679C438.432 37.9873 440.221 36.4051 441.294 34.1211C441.899 32.8278 442.216 30.9566 442.216 28.5076C442.216 26.4438 441.913 24.8065 441.294 23.582C440.303 21.298 438.487 19.647 435.859 18.6564C433.231 17.6657 429.847 17.1704 425.733 17.1704H403.072V40.1749V40.1887Z" fill="white"/>
<path d="M486.146 79.3871C477.602 75.0807 471.576 68.8755 468.067 60.7854C465.701 55.3644 464.518 49.4207 464.518 42.9403C464.518 36.46 465.701 30.5438 468.067 25.2054C470.434 19.867 473.956 15.3129 478.648 11.5292C483.339 7.7456 488.981 4.89755 495.585 2.94382C502.189 1.00384 509.453 0.0269775 517.378 0.0269775C525.304 0.0269775 532.953 1.11391 539.86 3.28779C546.767 5.46166 552.546 8.6124 557.196 12.7263C560.553 15.8495 563.167 19.4267 565.039 23.4305C566.91 27.4343 567.955 31.7683 568.189 36.4187H547.359C546.973 33.9009 546.189 31.5757 545.006 29.4431C543.823 27.3105 542.323 25.4393 540.479 23.8295C537.879 21.3942 534.618 19.5643 530.697 18.3398C526.762 17.1153 522.4 16.5099 517.599 16.5099C510.348 16.5099 504.17 17.7894 499.066 20.3486C493.947 22.9077 490.329 26.5813 488.196 31.3968C486.6 34.9878 485.789 38.8403 485.789 42.9541C485.789 47.0679 486.545 50.9617 488.072 54.4013C490.205 59.3545 493.851 63.0968 498.997 65.6147C504.143 68.1325 510.306 69.3983 517.475 69.3983C522.428 69.3983 526.968 68.7654 531.096 67.5134C535.21 66.2613 538.608 64.4039 541.277 61.9686C543.038 60.2901 544.456 58.4189 545.57 56.3551C546.671 54.2913 547.304 52.0761 547.455 49.7234H568.286C568.052 54.5252 567.02 58.9004 565.19 62.8217C563.36 66.7566 560.76 70.1963 557.403 73.1819C552.752 77.3783 546.946 80.5428 540.012 82.6754C533.063 84.808 525.482 85.8812 517.241 85.8812C505.037 85.8812 494.663 83.7211 486.119 79.4146L486.146 79.3871Z" fill="white"/>
<path d="M637.55 65.601H590.055L581.703 83.336H560.309L600.016 2.54492H627.368L667.186 83.336H645.901L637.55 65.601ZM630.34 50.494L613.857 15.4781H613.624L597.141 50.494H630.327H630.34Z" fill="white"/>
<path d="M669.016 2.54492H692.24L724.972 58.2676L757.924 2.54492H781.039V83.336H762.272V26.9253L729.43 83.336H720.624L687.672 26.9253V83.336H669.016V2.54492Z" fill="white"/>
<path d="M808.682 79.4971C800.248 75.2595 794.249 69.1368 790.658 61.1293C788.209 55.7909 786.998 49.7233 786.998 42.9403C786.998 36.5287 788.181 30.6263 790.548 25.2053C792.914 19.867 796.395 15.3128 801.018 11.5292C805.627 7.74554 811.227 4.89749 817.776 2.94376C824.339 1.00378 831.7 0.0269165 839.859 0.0269165C848.018 0.0269165 855.255 0.976266 861.777 2.88872C868.298 4.80118 873.843 7.5942 878.425 11.2953C883.006 14.9964 886.473 19.4404 888.84 24.6275C891.427 30.4199 892.734 36.5287 892.734 42.9403C892.734 49.8059 891.358 56.0936 888.62 61.8172C884.96 69.6046 878.934 75.5484 870.541 79.6622C862.148 83.7761 851.884 85.8399 839.763 85.8399C827.641 85.8399 817.13 83.7211 808.696 79.4834L808.682 79.4971ZM858.282 65.5458C863.318 62.9867 866.909 59.3131 869.041 54.4976C870.486 50.8378 871.215 46.9853 871.215 42.9403C871.215 38.5925 870.458 34.6576 868.931 31.1491C866.716 26.3473 863.111 22.7012 858.117 20.2247C853.122 17.7481 847 16.5098 839.749 16.5098C832.498 16.5098 826.499 17.7481 821.491 20.2247C816.497 22.7012 812.892 26.3473 810.677 31.1491C809.15 34.6576 808.393 38.5925 808.393 42.9403C808.393 46.9853 809.15 50.8378 810.677 54.4976C812.892 59.2994 816.511 62.9867 821.546 65.5458C826.582 68.1049 832.677 69.3845 839.859 69.3845C847.041 69.3845 853.246 68.1049 858.282 65.5458Z" fill="white"/>
<path d="M911.722 81.4515C904.554 78.5209 899.587 73.9943 896.849 67.8854C895.473 64.5283 894.785 60.951 894.785 57.1261H915.272C915.423 59.1073 915.808 60.8685 916.414 62.3957C917.859 65.5189 920.473 67.8166 924.256 69.2613C928.026 70.7059 932.745 71.4351 938.386 71.4351C943.34 71.4351 947.632 70.8848 951.265 69.7703C954.883 68.6696 957.236 66.9636 958.309 64.6796C958.694 63.8403 958.887 62.8084 958.887 61.5839C958.887 60.3594 958.694 59.3688 958.309 58.612C957.552 56.8509 955.984 55.4338 953.617 54.3193C951.251 53.2186 948.54 52.3381 945.486 51.6914C942.431 51.0448 938.538 50.3706 933.819 49.6826C932.594 49.4487 930.351 49.0773 927.063 48.5407C919.276 47.096 913.002 45.1836 908.241 42.8171C903.467 40.4506 900.137 37.2035 898.225 33.0897C897.234 30.8057 896.739 28.0953 896.739 24.9583C896.739 22.0552 897.276 19.3172 898.335 16.7168C899.945 13.057 902.628 9.98881 906.397 7.49849C910.167 5.02192 914.694 3.15074 919.964 1.88494C925.233 0.619141 930.915 0 937.011 0C946.545 0 954.787 1.48594 961.721 4.45782C968.656 7.42969 973.43 11.8187 976.03 17.6111C977.255 20.4317 977.929 23.72 978.094 27.4486H957.497C957.415 25.7012 957.002 24.0089 956.231 22.4129C953.782 16.8406 947.385 14.0614 937.011 14.0614C932.512 14.0614 928.535 14.598 925.109 15.6574C921.67 16.7306 919.468 18.3679 918.478 20.583C918.175 21.2021 918.024 21.9589 918.024 22.867C918.024 23.8576 918.175 24.6969 918.478 25.3848C919.166 26.912 920.555 28.1916 922.66 29.2235C924.752 30.2554 927.201 31.0946 929.98 31.7413C932.759 32.388 936.446 33.1034 941.028 33.8601L946.862 34.892C952.283 35.8827 957.03 37.0109 961.102 38.2629C965.188 39.5287 968.793 41.221 971.916 43.3536C975.04 45.4862 977.337 48.1554 978.782 51.3612C979.924 54.0304 980.502 56.8922 980.502 59.9466C980.502 63.3037 979.855 66.3995 978.562 69.22C976.044 74.7923 971.215 78.9474 964.088 81.6991C956.947 84.4509 948.32 85.813 938.166 85.813C928.012 85.813 918.904 84.3408 911.736 81.4102L911.722 81.4515Z" fill="white"/>
<path d="M15.1769 33.1697H0V24H41.6916V33.1697H26.5147V70.5665H15.1769V33.1697Z" fill="white"/>
<path d="M46.9648 24H86.9993V32.7001H58.3717V42.9194H86.806V51.4262H58.3717V61.8525H86.9993V70.5527H46.9648V24Z" fill="white"/>
</svg>
