<svg width="625" height="86" viewBox="0 0 625 86" fill="none" xmlns="http://www.w3.org/2000/svg">
<path d="M105 2.5202H128.243L160.989 58.2855L193.961 2.5202H217.091V83.3603H198.312V26.9059L165.453 83.3603H156.639L123.666 26.9059V83.3603H105V2.5202Z" fill="white"/>
<path d="M236.559 76.2637C229.38 69.8561 225.791 60.2293 225.791 47.4039V2.5202H245.599V46.0361C245.599 51.5282 246.442 55.9816 248.119 59.3757C249.795 62.7697 252.377 65.2896 255.842 66.9352C259.319 68.5808 263.834 69.3933 269.408 69.3933C274.982 69.3933 279.497 68.5705 282.973 66.9352C286.449 65.2999 289.02 62.78 290.697 59.3757C292.373 55.9816 293.217 51.5282 293.217 46.0361V2.5202H313.025V47.4039C313.025 60.2293 309.435 69.8458 302.267 76.2637C295.088 82.6712 284.135 85.8801 269.408 85.8801C254.68 85.8801 243.717 82.6712 236.549 76.2637H236.559Z" fill="white"/>
<path d="M321.738 2.5202H344.066L392.619 61.1447V2.5202H412.314V83.3603H389.297L341.32 25.8774V83.3603H321.738V2.5202Z" fill="white"/>
<path d="M422.617 2.5202H467.962C479.408 2.5202 489.014 4.45379 496.759 8.30038C504.503 12.1573 510.056 17.8963 513.419 25.538C515.713 30.804 516.854 36.6047 516.854 42.9403C516.854 49.2758 515.713 55.416 513.419 60.4556C509.912 68.0871 504.297 73.8158 496.584 77.6316C488.87 81.4473 479.336 83.3603 467.962 83.3603H422.617V2.5202ZM466.584 67.2129C473.454 67.2129 479.141 66.1124 483.646 63.8908C488.15 61.6795 491.39 58.3986 493.375 54.0481C494.825 50.7672 495.555 47.0645 495.555 42.9403C495.555 38.816 494.825 35.0002 493.375 31.7193C489.323 23.0182 480.396 18.6677 466.584 18.6677H442.425V67.2129H466.584Z" fill="white"/>
<path d="M540.04 79.5236C531.607 75.2862 525.59 69.1563 522.001 61.1443C519.553 55.8064 518.34 49.7383 518.34 42.9399C518.34 36.522 519.523 30.6082 521.888 25.188C524.253 19.8501 527.75 15.2835 532.368 11.5089C536.986 7.73432 542.581 4.8648 549.142 2.92094C555.704 0.977071 563.067 0 571.244 0C579.42 0 586.64 0.956504 593.17 2.85923C599.701 4.77224 605.255 7.56976 609.831 11.2724C614.408 14.975 617.884 19.4181 620.249 24.612C622.841 30.4128 624.147 36.522 624.147 42.9296C624.147 49.8 622.769 56.0944 620.023 61.8231C616.362 69.6089 610.325 75.5639 601.933 79.6882C593.53 83.8125 583.266 85.8695 571.13 85.8695C558.995 85.8695 548.474 83.7508 540.04 79.5134V79.5236ZM589.674 65.5566C594.713 62.9956 598.302 59.3136 600.431 54.5105C601.881 50.849 602.611 46.9922 602.611 42.9502C602.611 38.5996 601.85 34.6707 600.318 31.1533C598.107 26.3399 594.497 22.699 589.499 20.2203C584.5 17.7416 578.371 16.4971 571.12 16.4971C563.87 16.4971 557.853 17.7416 552.855 20.2203C547.857 22.699 544.247 26.3502 542.035 31.1533C540.503 34.6707 539.742 38.5996 539.742 42.9502C539.742 46.9922 540.503 50.849 542.035 54.5105C544.247 59.3239 547.877 63.0059 552.917 65.5566C557.956 68.1176 564.065 69.3929 571.233 69.3929C578.402 69.3929 584.634 68.1176 589.663 65.5566H589.674Z" fill="white"/>
<path d="M0 22.0709H40.0385V30.7783H11.4101V41.0022H39.8425V49.5136H11.4101V59.9335H40.0385V68.6409H0V22.0709Z" fill="white"/>
<path d="M44.5338 22.0709H55.9438V59.2114H75.4627V68.6409H44.5234V22.0709H44.5338Z" fill="white"/>
</svg>
